<svg xmlns="http://www.w3.org/2000/svg" xmlns:xlink="http://www.w3.org/1999/xlink" contentStyleType="text/css" height="662px" preserveAspectRatio="none" style="width:1810px;height:662px;background:#FFFFFF;" version="1.1" viewBox="0 0 1810 662" width="1810px" zoomAndPan="magnify"><defs/><g><!--cluster Car sharing app--><g id="cluster_Car sharing app"><rect fill="none" height="545" rx="2.5" ry="2.5" style="stroke:#181818;stroke-width:1.0;" width="1688.95" x="115.29" y="111.99"/><text fill="#000000" font-family="sans-serif" font-size="14" font-weight="bold" lengthAdjust="spacing" textLength="109.8996" x="904.8152" y="128.9559">Car sharing app</text></g><a href="https://github.com/bruzla/NSWI041/issues/12" target="_top" title="https://github.com/bruzla/NSWI041/issues/12" xlink:actuate="onRequest" xlink:href="https://github.com/bruzla/NSWI041/issues/12" xlink:show="new" xlink:title="https://github.com/bruzla/NSWI041/issues/12" xlink:type="simple"><g id="elem_vehicleListing"><ellipse cx="314.4051" cy="460.985" fill="#F1F1F1" rx="75.4751" ry="17.495" style="stroke:#181818;stroke-width:0.5;"/><text fill="#000000" font-family="sans-serif" font-size="14" lengthAdjust="spacing" textLength="90.2856" x="266.2622" y="465.718">Vehicle listing</text></g></a><a href="https://github.com/bruzla/NSWI041/issues/13" target="_top" title="https://github.com/bruzla/NSWI041/issues/13" xlink:actuate="onRequest" xlink:href="https://github.com/bruzla/NSWI041/issues/13" xlink:show="new" xlink:title="https://github.com/bruzla/NSWI041/issues/13" xlink:type="simple"><g id="elem_selectingCar"><ellipse cx="700.5595" cy="264.9879" fill="#F1F1F1" rx="77.1395" ry="17.8279" style="stroke:#181818;stroke-width:0.5;"/><text fill="#000000" font-family="sans-serif" font-size="14" lengthAdjust="spacing" textLength="95.2276" x="649.9457" y="269.7209">Selecting a car</text></g></a><a href="https://github.com/bruzla/NSWI041/issues/14" target="_top" title="https://github.com/bruzla/NSWI041/issues/14" xlink:actuate="onRequest" xlink:href="https://github.com/bruzla/NSWI041/issues/14" xlink:show="new" xlink:title="https://github.com/bruzla/NSWI041/issues/14" xlink:type="simple"><g id="elem_bookingSelectedCar"><ellipse cx="1335.1813" cy="457.9923" fill="#F1F1F1" rx="97.1113" ry="21.8223" style="stroke:#181818;stroke-width:0.5;"/><text fill="#000000" font-family="sans-serif" font-size="14" lengthAdjust="spacing" textLength="147.9094" x="1258.2266" y="462.7252">Booking a selected car</text></g></a><a href="https://github.com/bruzla/NSWI041/issues/15" target="_top" title="https://github.com/bruzla/NSWI041/issues/15" xlink:actuate="onRequest" xlink:href="https://github.com/bruzla/NSWI041/issues/15" xlink:show="new" xlink:title="https://github.com/bruzla/NSWI041/issues/15" xlink:type="simple"><g id="elem_carDetail"><ellipse cx="1041.3199" cy="264.99" fill="#F1F1F1" rx="79.7499" ry="18.35" style="stroke:#181818;stroke-width:0.5;"/><text fill="#000000" font-family="sans-serif" font-size="14" lengthAdjust="spacing" textLength="102.7316" x="986.9541" y="269.7229">Car details view</text></g></a><a href="https://github.com/bruzla/NSWI041/issues/17" target="_top" title="https://github.com/bruzla/NSWI041/issues/17" xlink:actuate="onRequest" xlink:href="https://github.com/bruzla/NSWI041/issues/17" xlink:show="new" xlink:title="https://github.com/bruzla/NSWI041/issues/17" xlink:type="simple"><g id="elem_automaticInsurance"><ellipse cx="1669.762" cy="457.9944" fill="#F1F1F1" rx="118.472" ry="26.0944" style="stroke:#181818;stroke-width:0.5;"/><text fill="#000000" font-family="sans-serif" font-size="14" lengthAdjust="spacing" textLength="197.9452" x="1568.1061" y="462.6081">Automatic insurance inclusion</text></g></a><a href="https://github.com/bruzla/NSWI041/issues/16" target="_top" title="https://github.com/bruzla/NSWI041/issues/16" xlink:actuate="onRequest" xlink:href="https://github.com/bruzla/NSWI041/issues/16" xlink:show="new" xlink:title="https://github.com/bruzla/NSWI041/issues/16" xlink:type="simple"><g id="elem_bookingConfirmation"><ellipse cx="314.4095" cy="534.9879" fill="#F1F1F1" rx="95.0395" ry="21.4079" style="stroke:#181818;stroke-width:0.5;"/><text fill="#000000" font-family="sans-serif" font-size="14" lengthAdjust="spacing" textLength="142.8134" x="240.0027" y="539.7209">Booking confirmation</text></g></a><a href="https://github.com/bruzla/NSWI041/issues/18" target="_top" title="https://github.com/bruzla/NSWI041/issues/18" xlink:actuate="onRequest" xlink:href="https://github.com/bruzla/NSWI041/issues/18" xlink:show="new" xlink:title="https://github.com/bruzla/NSWI041/issues/18" xlink:type="simple"><g id="elem_lenderBorrowerCommunication"><ellipse cx="314.4117" cy="294.9903" fill="#F1F1F1" rx="146.1517" ry="31.6303" style="stroke:#181818;stroke-width:0.5;"/><text fill="#000000" font-family="sans-serif" font-size="14" lengthAdjust="spacing" textLength="257.963" x="185.4302" y="298.4223">Direct lender-borrower communication</text></g></a><a href="https://github.com/bruzla/NSWI041/issues/19" target="_top" title="https://github.com/bruzla/NSWI041/issues/19" xlink:actuate="onRequest" xlink:href="https://github.com/bruzla/NSWI041/issues/19" xlink:show="new" xlink:title="https://github.com/bruzla/NSWI041/issues/19" xlink:type="simple"><g id="elem_violationAlert"><ellipse cx="314.41" cy="615.992" fill="#F1F1F1" rx="112.66" ry="24.932" style="stroke:#181818;stroke-width:0.5;"/><text fill="#000000" font-family="sans-serif" font-size="14" lengthAdjust="spacing" textLength="184.6873" x="219.0663" y="620.725">Violation alert and response</text></g></a><a href="https://github.com/bruzla/NSWI041/issues/20" target="_top" title="https://github.com/bruzla/NSWI041/issues/20" xlink:actuate="onRequest" xlink:href="https://github.com/bruzla/NSWI041/issues/20" xlink:show="new" xlink:title="https://github.com/bruzla/NSWI041/issues/20" xlink:type="simple"><g id="elem_newOffersNotification"><ellipse cx="700.5643" cy="180.9929" fill="#F1F1F1" rx="142.0143" ry="30.8029" style="stroke:#181818;stroke-width:0.5;"/><text fill="#000000" font-family="sans-serif" font-size="14" lengthAdjust="spacing" textLength="249.171" x="575.9788" y="184.4248">Notification of borrower of new offers</text></g></a><a href="https://github.com/bruzla/NSWI041/issues/25" target="_top" title="https://github.com/bruzla/NSWI041/issues/25" xlink:actuate="onRequest" xlink:href="https://github.com/bruzla/NSWI041/issues/25" xlink:show="new" xlink:title="https://github.com/bruzla/NSWI041/issues/25" xlink:type="simple"><g id="elem_finishBooking"><ellipse cx="314.4076" cy="188.9855" fill="#F1F1F1" rx="183.1276" ry="39.0255" style="stroke:#181818;stroke-width:0.5;"/><text fill="#000000" font-family="sans-serif" font-size="14" lengthAdjust="spacing" textLength="335.4107" x="146.7023" y="192.4175">Returning of the vehicle and closing of the booking</text></g></a><a href="https://github.com/bruzla/NSWI041/issues/23" target="_top" title="https://github.com/bruzla/NSWI041/issues/23" xlink:actuate="onRequest" xlink:href="https://github.com/bruzla/NSWI041/issues/23" xlink:show="new" xlink:title="https://github.com/bruzla/NSWI041/issues/23" xlink:type="simple"><g id="elem_addReview"><ellipse cx="314.4128" cy="384.9866" fill="#F1F1F1" rx="107.2828" ry="23.8566" style="stroke:#181818;stroke-width:0.5;"/><text fill="#000000" font-family="sans-serif" font-size="14" lengthAdjust="spacing" textLength="172.2133" x="225.3061" y="389.7195">Writing a borrower review</text></g></a><!--entity borrower--><g id="elem_borrower"><ellipse cx="37.1429" cy="89.96" fill="#F1F1F1" rx="8" ry="8" style="stroke:#181818;stroke-width:0.5;"/><path d="M37.1429,97.96 L37.1429,124.96 M24.1429,105.96 L50.1429,105.96 M37.1429,124.96 L24.1429,139.96 M37.1429,124.96 L50.1429,139.96 " fill="none" style="stroke:#181818;stroke-width:0.5;"/><text fill="#000000" font-family="sans-serif" font-size="14" lengthAdjust="spacing" textLength="62.2858" x="6" y="156.4259">Borrower</text></g><!--entity carOwner--><g id="elem_carOwner"><ellipse cx="37.1459" cy="380.96" fill="#F1F1F1" rx="8" ry="8" style="stroke:#181818;stroke-width:0.5;"/><path d="M37.1459,388.96 L37.1459,415.96 M24.1459,396.96 L50.1459,396.96 M37.1459,415.96 L24.1459,430.96 M37.1459,415.96 L50.1459,430.96 " fill="none" style="stroke:#181818;stroke-width:0.5;"/><text fill="#000000" font-family="sans-serif" font-size="14" lengthAdjust="spacing" textLength="46.1718" x="14.06" y="447.4259">Lender</text></g><!--link borrower to selectingCar--><g id="link_borrower_selectingCar"><path d="M68.69,112.43 C146.43,92.5 355.69,50.58 497.54,131.99 C541.71,157.34 517.38,199 558.54,228.99 C579.06,243.94 599.3406,251.4548 623.5206,256.5848 " fill="none" id="borrower-to-selectingCar" style="stroke:#181818;stroke-width:1.0;"/><polygon fill="#181818" points="629.39,257.83,621.4161,252.0492,624.4989,256.7923,619.7558,259.8751,629.39,257.83" style="stroke:#181818;stroke-width:1.0;"/></g><!--link borrower to lenderBorrowerCommunication--><g id="link_borrower_lenderBorrowerCommunication"><path d="M50.49,160.9 C61.16,188.82 79.34,224.77 107.29,245.99 C129.11,262.56 149.9065,272.0426 176.6265,279.4226 " fill="none" id="borrower-to-lenderBorrowerCommunication" style="stroke:#181818;stroke-width:1.0;"/><polygon fill="#181818" points="182.41,281.02,174.7997,274.7683,177.5905,279.6889,172.6699,282.4796,182.41,281.02" style="stroke:#181818;stroke-width:1.0;"/></g><!--link borrower to newOffersNotification--><g id="link_borrower_newOffersNotification"><path d="M68.58,88.86 C77.4,81.58 87.56,74.87 98.29,70.99 C278.13,6 345.07,17.08 528.54,70.99 C581.38,86.52 628.696,120.1465 661.216,147.0365 " fill="none" id="borrower-to-newOffersNotification" style="stroke:#181818;stroke-width:1.0;"/><polygon fill="#181818" points="665.84,150.86,661.453,142.0422,661.9867,147.6738,656.3551,148.2075,665.84,150.86" style="stroke:#181818;stroke-width:1.0;"/></g><!--link borrower to finishBooking--><g id="link_borrower_finishBooking"><path d="M68.65,128.53 C98.96,136.01 141.5751,146.5409 187.3951,157.8609 " fill="none" id="borrower-to-finishBooking" style="stroke:#181818;stroke-width:1.0;"/><polygon fill="#181818" points="193.22,159.3,185.4421,153.2582,188.3659,158.1008,183.5233,161.0247,193.22,159.3" style="stroke:#181818;stroke-width:1.0;"/></g><!--reverse link carDetail to bookingSelectedCar--><g id="link_carDetail_bookingSelectedCar"><path d="M1073.9948,285.9393 C1127.8948,321.5793 1244.54,398.72 1302.43,436.99 " fill="none" id="carDetail-backto-bookingSelectedCar" style="stroke:#181818;stroke-width:1.0;stroke-dasharray:7.0,7.0;"/><polygon fill="#181818" points="1068.99,282.63,1074.291,290.9305,1073.1607,285.3878,1078.7035,284.2574,1068.99,282.63" style="stroke:#181818;stroke-width:1.0;"/><text fill="#000000" font-family="sans-serif" font-size="13" lengthAdjust="spacing" textLength="55.497" x="1152.07" y="334.427">&#171;extend&#187;</text></g><!--reverse link selectingCar to carDetail--><g id="link_selectingCar_carDetail"><path d="M784,264.99 C838.64,264.99 905.97,264.99 961.21,264.99 " fill="none" id="selectingCar-backto-carDetail" style="stroke:#181818;stroke-width:1.0;stroke-dasharray:7.0,7.0;"/><polygon fill="#181818" points="778,264.99,787,268.99,783,264.99,787,260.99,778,264.99" style="stroke:#181818;stroke-width:1.0;"/><text fill="#000000" font-family="sans-serif" font-size="13" lengthAdjust="spacing" textLength="55.497" x="874.57" y="260.887">&#171;extend&#187;</text></g><!--reverse link bookingSelectedCar to automaticInsurance--><g id="link_bookingSelectedCar_automaticInsurance"><path d="M1438.38,457.99 C1475.4,457.99 1512.1,457.99 1550.94,457.99 " fill="none" id="bookingSelectedCar-backto-automaticInsurance" style="stroke:#181818;stroke-width:1.0;stroke-dasharray:7.0,7.0;"/><polygon fill="#181818" points="1432.38,457.99,1441.38,461.99,1437.38,457.99,1441.38,453.99,1432.38,457.99" style="stroke:#181818;stroke-width:1.0;"/><text fill="#000000" font-family="sans-serif" font-size="13" lengthAdjust="spacing" textLength="57.5771" x="1463.29" y="453.887">&#171;include&#187;</text></g><!--reverse link newOffersNotification to carDetail--><g id="link_newOffersNotification_carDetail"><path d="M801.384,205.7224 C843.054,216.0424 886.85,226.9 931.57,237.99 C949.22,242.37 968.49,247.15 985.83,251.46 " fill="none" id="newOffersNotification-backto-carDetail" style="stroke:#181818;stroke-width:1.0;stroke-dasharray:7.0,7.0;"/><polygon fill="#181818" points="795.56,204.28,803.3345,210.3263,800.4134,205.482,805.2577,202.5609,795.56,204.28" style="stroke:#181818;stroke-width:1.0;"/><text fill="#000000" font-family="sans-serif" font-size="13" lengthAdjust="spacing" textLength="55.497" x="874.57" y="219.807">&#171;extend&#187;</text></g><!--link bookingConfirmation to bookingSelectedCar--><g id="link_bookingConfirmation_bookingSelectedCar"><path d="M404.93,528.22 C597.33,513.68 1042.5271,480.032 1236.6871,465.362 " fill="none" id="bookingConfirmation-to-bookingSelectedCar" style="stroke:#181818;stroke-width:1.0;stroke-dasharray:7.0,7.0;"/><polygon fill="#181818" points="1242.67,464.91,1233.3942,461.5994,1237.6842,465.2867,1233.9969,469.5767,1242.67,464.91" style="stroke:#181818;stroke-width:1.0;"/><text fill="#000000" font-family="sans-serif" font-size="13" lengthAdjust="spacing" textLength="57.5771" x="873.57" y="484.437">&#171;include&#187;</text></g><!--link carOwner to finishBooking--><g id="link_carOwner_finishBooking"><path d="M44.52,371.98 C52.63,334.21 70.3,278.62 107.29,245.99 C124.06,231.19 138.7595,222.3526 159.9895,214.1926 " fill="none" id="carOwner-to-finishBooking" style="stroke:#181818;stroke-width:1.0;"/><polygon fill="#181818" points="165.59,212.04,155.7541,211.5353,160.9229,213.8339,158.6243,219.0027,165.59,212.04" style="stroke:#181818;stroke-width:1.0;"/></g><!--link carOwner to vehicleListing--><g id="link_carOwner_vehicleListing"><path d="M60.53,416.71 C74.05,419.51 91.63,423.08 107.29,425.99 C155.64,434.99 204.6295,443.2965 245.6195,450.0365 " fill="none" id="carOwner-to-vehicleListing" style="stroke:#181818;stroke-width:1.0;"/><polygon fill="#181818" points="251.54,451.01,243.3083,445.6027,246.6063,450.1987,242.0102,453.4967,251.54,451.01" style="stroke:#181818;stroke-width:1.0;"/></g><!--link carOwner to lenderBorrowerCommunication--><g id="link_carOwner_lenderBorrowerCommunication"><path d="M60.67,383.43 C73.04,369.58 89.46,353.85 107.29,343.99 C133.04,329.75 156.9988,321.0738 185.7888,313.8838 " fill="none" id="carOwner-to-lenderBorrowerCommunication" style="stroke:#181818;stroke-width:1.0;"/><polygon fill="#181818" points="191.61,312.43,181.909,310.7299,186.759,313.6415,183.8474,318.4915,191.61,312.43" style="stroke:#181818;stroke-width:1.0;"/></g><!--link carOwner to bookingConfirmation--><g id="link_carOwner_bookingConfirmation"><path d="M60.65,449.86 C72.47,466.53 88.43,484.83 107.29,495.99 C141.21,516.08 177.3518,525.3636 214.6418,530.2936 " fill="none" id="carOwner-to-bookingConfirmation" style="stroke:#181818;stroke-width:1.0;"/><polygon fill="#181818" points="220.59,531.08,212.1919,525.9349,215.6331,530.4247,211.1434,533.8659,220.59,531.08" style="stroke:#181818;stroke-width:1.0;"/></g><!--link carOwner to violationAlert--><g id="link_carOwner_violationAlert"><path d="M44.4,451.96 C52.39,489.25 69.96,543.55 107.29,573.99 C133.89,595.69 162.8376,606.0887 196.2976,611.8687 " fill="none" id="carOwner-to-violationAlert" style="stroke:#181818;stroke-width:1.0;"/><polygon fill="#181818" points="202.21,612.89,194.0222,607.4164,197.283,612.0389,192.6605,615.2996,202.21,612.89" style="stroke:#181818;stroke-width:1.0;"/></g><!--link carOwner to addReview--><g id="link_carOwner_addReview"><path d="M60.67,409.78 C94.31,406.48 153.7387,400.656 209.5787,395.176 " fill="none" id="carOwner-to-addReview" style="stroke:#181818;stroke-width:1.0;"/><polygon fill="#181818" points="215.55,394.59,206.2024,391.4881,210.5739,395.0783,206.9837,399.4499,215.55,394.59" style="stroke:#181818;stroke-width:1.0;"/></g><!--SRC=[bPLDJ-Cm48Rl-HLMBy2XdtmZX5JQFLH2885O3eY3cqmRQrCxyZZRPLVxttTinw4k4ThqqiGpVXzxF7vJmCemevWMwzomJ6X8ZL0oEM1pM0a9pEJ0U6gKniJziLkbjTg2PXpPidvEudnyHmCRYbOou_eziQ9ShWjWlHdN37EkXLmpNfOzzeUcFi_wuuJHx_0xv2Abl4AWePGZ2_dfn-xy47jzpOqfyMeuN0kJLyj1gZR3fQv-5tnu__Io69sCXmAn0XoE9szlNdxYvP-WiFkpR9PoxUGnZDcbTH4_3kB7NlnMgHzUsaj2rZ2MFlHKZtSbdGJIYIVP-HaOBWggZe2jOn1hxiOwIPy6wJClFQsCsd0ZKYOaLfhB5EWfBIgahd0S7Z8MJK8Nu7a0diPLIvLS2Ms5QqvTizdEU2VGMG2TUz3SzJOhG6QW-w5pYRlPL5Aa7s2V4TfyjXllj82Bi82BkhU5AhmABq0RncN6D62f989lz90mTV4khCl0klIiUsN4AYnQhPgBQfybREbl1HeTbLuVt5iqfmDyCWhmySZJ7y5KMjfJ9PmrXFeAkosdXSATK7tCRYba80Bpq15Tbj2qyMXSEycB5lL5R_QkeRaiFCiUtLidYhtnVwtNFO8_ACn5ISicLtn6Si66rE_VHBwI74IXptQmb_3vZiNQNxJedbBZ2h50ww77AT5Xs4thi6cs1BC5aAn280029Yq6DwZAmGwVNR7hQ_XbQEKtDyd7i4-BJ3ZARB4RFwK5QISwiygWXT7Uw16ipNC6zFiFMb9_7djtxcnwjIK_R2KrHbl7JBEDa4b8QIbv58e_Wd7igsw84bksjqU972YEDLSciStmpPKCtOrU-28WErIbdSoBe-GWEj71_WQeUBxeI6A7Tsejo7ifYwnZJHb0dyqhLXSN_m40]--></g></svg>