<svg xmlns="http://www.w3.org/2000/svg" xmlns:xlink="http://www.w3.org/1999/xlink" contentStyleType="text/css" height="660px" preserveAspectRatio="none" style="width:1815px;height:660px;background:#FFFFFF;" version="1.1" viewBox="0 0 1815 660" width="1815px" zoomAndPan="magnify"><defs/><g><!--cluster Car sharing app--><g id="cluster_Car sharing app"><rect fill="none" height="545" rx="2.5" ry="2.5" style="stroke:#181818;stroke-width:1.0;" width="1688.95" x="120.93" y="109.97"/><text fill="#000000" font-family="sans-serif" font-size="14" font-weight="bold" lengthAdjust="spacing" textLength="109.8996" x="910.4552" y="126.9359">Car sharing app</text></g><a href="https://github.com/bruzla/NSWI041/issues/12" target="_top" title="https://github.com/bruzla/NSWI041/issues/12" xlink:actuate="onRequest" xlink:href="https://github.com/bruzla/NSWI041/issues/12" xlink:show="new" xlink:title="https://github.com/bruzla/NSWI041/issues/12" xlink:type="simple"><g id="elem_vehicleListing"><ellipse cx="320.0551" cy="458.965" fill="#F1F1F1" rx="75.4751" ry="17.495" style="stroke:#181818;stroke-width:0.5;"/><text fill="#000000" font-family="sans-serif" font-size="14" lengthAdjust="spacing" textLength="90.2856" x="271.9122" y="463.698">Vehicle listing</text></g></a><a href="https://github.com/bruzla/NSWI041/issues/13" target="_top" title="https://github.com/bruzla/NSWI041/issues/13" xlink:actuate="onRequest" xlink:href="https://github.com/bruzla/NSWI041/issues/13" xlink:show="new" xlink:title="https://github.com/bruzla/NSWI041/issues/13" xlink:type="simple"><g id="elem_selectingCar"><ellipse cx="706.1995" cy="262.9679" fill="#F1F1F1" rx="77.1395" ry="17.8279" style="stroke:#181818;stroke-width:0.5;"/><text fill="#000000" font-family="sans-serif" font-size="14" lengthAdjust="spacing" textLength="95.2276" x="655.5857" y="267.7009">Selecting a car</text></g></a><a href="https://github.com/bruzla/NSWI041/issues/14" target="_top" title="https://github.com/bruzla/NSWI041/issues/14" xlink:actuate="onRequest" xlink:href="https://github.com/bruzla/NSWI041/issues/14" xlink:show="new" xlink:title="https://github.com/bruzla/NSWI041/issues/14" xlink:type="simple"><g id="elem_bookingSelectedCar"><ellipse cx="1340.8213" cy="455.9723" fill="#F1F1F1" rx="97.1113" ry="21.8223" style="stroke:#181818;stroke-width:0.5;"/><text fill="#000000" font-family="sans-serif" font-size="14" lengthAdjust="spacing" textLength="147.9094" x="1263.8666" y="460.7052">Booking a selected car</text></g></a><a href="https://github.com/bruzla/NSWI041/issues/15" target="_top" title="https://github.com/bruzla/NSWI041/issues/15" xlink:actuate="onRequest" xlink:href="https://github.com/bruzla/NSWI041/issues/15" xlink:show="new" xlink:title="https://github.com/bruzla/NSWI041/issues/15" xlink:type="simple"><g id="elem_carDetail"><ellipse cx="1046.9599" cy="262.97" fill="#F1F1F1" rx="79.7499" ry="18.35" style="stroke:#181818;stroke-width:0.5;"/><text fill="#000000" font-family="sans-serif" font-size="14" lengthAdjust="spacing" textLength="102.7316" x="992.5941" y="267.7029">Car details view</text></g></a><a href="https://github.com/bruzla/NSWI041/issues/17" target="_top" title="https://github.com/bruzla/NSWI041/issues/17" xlink:actuate="onRequest" xlink:href="https://github.com/bruzla/NSWI041/issues/17" xlink:show="new" xlink:title="https://github.com/bruzla/NSWI041/issues/17" xlink:type="simple"><g id="elem_automaticInsurance"><ellipse cx="1675.412" cy="455.9744" fill="#F1F1F1" rx="118.472" ry="26.0944" style="stroke:#181818;stroke-width:0.5;"/><text fill="#000000" font-family="sans-serif" font-size="14" lengthAdjust="spacing" textLength="197.9452" x="1573.7561" y="460.5881">Automatic insurance inclusion</text></g></a><a href="https://github.com/bruzla/NSWI041/issues/16" target="_top" title="https://github.com/bruzla/NSWI041/issues/16" xlink:actuate="onRequest" xlink:href="https://github.com/bruzla/NSWI041/issues/16" xlink:show="new" xlink:title="https://github.com/bruzla/NSWI041/issues/16" xlink:type="simple"><g id="elem_bookingConfirmation"><ellipse cx="320.0595" cy="532.9679" fill="#F1F1F1" rx="95.0395" ry="21.4079" style="stroke:#181818;stroke-width:0.5;"/><text fill="#000000" font-family="sans-serif" font-size="14" lengthAdjust="spacing" textLength="142.8134" x="245.6527" y="537.7009">Booking confirmation</text></g></a><a href="https://github.com/bruzla/NSWI041/issues/18" target="_top" title="https://github.com/bruzla/NSWI041/issues/18" xlink:actuate="onRequest" xlink:href="https://github.com/bruzla/NSWI041/issues/18" xlink:show="new" xlink:title="https://github.com/bruzla/NSWI041/issues/18" xlink:type="simple"><g id="elem_lenderBorrowerCommunication"><ellipse cx="320.0617" cy="292.9703" fill="#F1F1F1" rx="146.1517" ry="31.6303" style="stroke:#181818;stroke-width:0.5;"/><text fill="#000000" font-family="sans-serif" font-size="14" lengthAdjust="spacing" textLength="257.963" x="191.0802" y="296.4023">Direct lender-borrower communication</text></g></a><a href="https://github.com/bruzla/NSWI041/issues/19" target="_top" title="https://github.com/bruzla/NSWI041/issues/19" xlink:actuate="onRequest" xlink:href="https://github.com/bruzla/NSWI041/issues/19" xlink:show="new" xlink:title="https://github.com/bruzla/NSWI041/issues/19" xlink:type="simple"><g id="elem_violationAlert"><ellipse cx="320.06" cy="613.972" fill="#F1F1F1" rx="112.66" ry="24.932" style="stroke:#181818;stroke-width:0.5;"/><text fill="#000000" font-family="sans-serif" font-size="14" lengthAdjust="spacing" textLength="184.6873" x="224.7163" y="618.705">Violation alert and response</text></g></a><a href="https://github.com/bruzla/NSWI041/issues/20" target="_top" title="https://github.com/bruzla/NSWI041/issues/20" xlink:actuate="onRequest" xlink:href="https://github.com/bruzla/NSWI041/issues/20" xlink:show="new" xlink:title="https://github.com/bruzla/NSWI041/issues/20" xlink:type="simple"><g id="elem_newOffersNotification"><ellipse cx="706.2043" cy="178.9729" fill="#F1F1F1" rx="142.0143" ry="30.8029" style="stroke:#181818;stroke-width:0.5;"/><text fill="#000000" font-family="sans-serif" font-size="14" lengthAdjust="spacing" textLength="249.171" x="581.6188" y="182.4048">Notification of borrower of new offers</text></g></a><a href="https://github.com/bruzla/NSWI041/issues/25" target="_top" title="https://github.com/bruzla/NSWI041/issues/25" xlink:actuate="onRequest" xlink:href="https://github.com/bruzla/NSWI041/issues/25" xlink:show="new" xlink:title="https://github.com/bruzla/NSWI041/issues/25" xlink:type="simple"><g id="elem_finishBooking"><ellipse cx="320.0576" cy="186.9655" fill="#F1F1F1" rx="183.1276" ry="39.0255" style="stroke:#181818;stroke-width:0.5;"/><text fill="#000000" font-family="sans-serif" font-size="14" lengthAdjust="spacing" textLength="335.4107" x="152.3523" y="190.3975">Returning of the vehicle and closing of the booking</text></g></a><a href="https://github.com/bruzla/NSWI041/issues/23" target="_top" title="https://github.com/bruzla/NSWI041/issues/23" xlink:actuate="onRequest" xlink:href="https://github.com/bruzla/NSWI041/issues/23" xlink:show="new" xlink:title="https://github.com/bruzla/NSWI041/issues/23" xlink:type="simple"><g id="elem_addReview"><ellipse cx="320.0628" cy="382.9666" fill="#F1F1F1" rx="107.2828" ry="23.8566" style="stroke:#181818;stroke-width:0.5;"/><text fill="#000000" font-family="sans-serif" font-size="14" lengthAdjust="spacing" textLength="172.2133" x="230.9561" y="387.6995">Writing a borrower review</text></g></a><!--entity borrower--><g id="elem_borrower"><ellipse cx="39.9629" cy="87.94" fill="#F1F1F1" rx="8" ry="8" style="stroke:#181818;stroke-width:0.5;"/><path d="M39.9629,95.94 L39.9629,122.94 M26.9629,103.94 L52.9629,103.94 M39.9629,122.94 L26.9629,137.94 M39.9629,122.94 L52.9629,137.94 " fill="none" style="stroke:#181818;stroke-width:0.5;"/><text fill="#000000" font-family="sans-serif" font-size="14" lengthAdjust="spacing" textLength="62.2858" x="8.82" y="154.4059">Borrower</text></g><!--entity carOwner--><g id="elem_carOwner"><ellipse cx="39.9639" cy="378.94" fill="#F1F1F1" rx="8" ry="8" style="stroke:#181818;stroke-width:0.5;"/><path d="M39.9639,386.94 L39.9639,413.94 M26.9639,394.94 L52.9639,394.94 M39.9639,413.94 L26.9639,428.94 M39.9639,413.94 L52.9639,428.94 " fill="none" style="stroke:#181818;stroke-width:0.5;"/><text fill="#000000" font-family="sans-serif" font-size="14" lengthAdjust="spacing" textLength="67.9277" x="6" y="445.4059">Car owner</text></g><!--link borrower to selectingCar--><g id="link_borrower_selectingCar"><path d="M71.41,110.43 C149.41,90.38 360.29,47.96 503.18,129.97 C547.35,155.32 523.02,196.98 564.18,226.97 C584.71,241.92 604.9806,249.4348 629.1606,254.5648 " fill="none" id="borrower-to-selectingCar" style="stroke:#181818;stroke-width:1.0;"/><polygon fill="#181818" points="635.03,255.81,627.0561,250.0292,630.1389,254.7723,625.3958,257.8551,635.03,255.81" style="stroke:#181818;stroke-width:1.0;"/></g><!--link borrower to lenderBorrowerCommunication--><g id="link_borrower_lenderBorrowerCommunication"><path d="M54.23,158.9 C65.54,186.83 84.53,222.78 112.93,243.97 C134.97,260.41 155.9239,269.8422 182.7439,277.2022 " fill="none" id="borrower-to-lenderBorrowerCommunication" style="stroke:#181818;stroke-width:1.0;"/><polygon fill="#181818" points="188.53,278.79,180.9094,272.5509,183.7083,277.4668,178.7923,280.2656,188.53,278.79" style="stroke:#181818;stroke-width:1.0;"/></g><!--link borrower to newOffersNotification--><g id="link_borrower_newOffersNotification"><path d="M71.41,88.12 C81.01,80.35 92.2,73.06 103.93,68.97 C284.49,6 350.72,15.06 534.18,68.97 C587.02,84.5 634.346,118.1265 666.866,145.0165 " fill="none" id="borrower-to-newOffersNotification" style="stroke:#181818;stroke-width:1.0;"/><polygon fill="#181818" points="671.49,148.84,667.103,140.0222,667.6367,145.6538,662.0051,146.1875,671.49,148.84" style="stroke:#181818;stroke-width:1.0;"/></g><!--link borrower to finishBooking--><g id="link_borrower_finishBooking"><path d="M71.52,126.44 C102.28,133.96 145.8919,144.6242 192.5319,156.0342 " fill="none" id="borrower-to-finishBooking" style="stroke:#181818;stroke-width:1.0;"/><polygon fill="#181818" points="198.36,157.46,190.5683,151.4359,193.5032,156.2718,188.6673,159.2067,198.36,157.46" style="stroke:#181818;stroke-width:1.0;"/></g><!--reverse link carDetail to bookingSelectedCar--><g id="link_carDetail_bookingSelectedCar"><path d="M1079.6446,283.9197 C1133.5346,319.5597 1250.19,396.7 1308.07,434.97 " fill="none" id="carDetail-backto-bookingSelectedCar" style="stroke:#181818;stroke-width:1.0;stroke-dasharray:7.0,7.0;"/><polygon fill="#181818" points="1074.64,280.61,1079.9403,288.911,1078.8105,283.3681,1084.3533,282.2383,1074.64,280.61" style="stroke:#181818;stroke-width:1.0;"/><text fill="#000000" font-family="sans-serif" font-size="13" lengthAdjust="spacing" textLength="55.497" x="1157.71" y="332.407">&#171;extend&#187;</text></g><!--reverse link selectingCar to carDetail--><g id="link_selectingCar_carDetail"><path d="M789.65,262.97 C844.29,262.97 911.62,262.97 966.85,262.97 " fill="none" id="selectingCar-backto-carDetail" style="stroke:#181818;stroke-width:1.0;stroke-dasharray:7.0,7.0;"/><polygon fill="#181818" points="783.65,262.97,792.65,266.97,788.65,262.97,792.65,258.97,783.65,262.97" style="stroke:#181818;stroke-width:1.0;"/><text fill="#000000" font-family="sans-serif" font-size="13" lengthAdjust="spacing" textLength="55.497" x="880.21" y="258.867">&#171;extend&#187;</text></g><!--reverse link bookingSelectedCar to automaticInsurance--><g id="link_bookingSelectedCar_automaticInsurance"><path d="M1444.02,455.97 C1481.05,455.97 1517.75,455.97 1556.58,455.97 " fill="none" id="bookingSelectedCar-backto-automaticInsurance" style="stroke:#181818;stroke-width:1.0;stroke-dasharray:7.0,7.0;"/><polygon fill="#181818" points="1438.02,455.97,1447.02,459.97,1443.02,455.97,1447.02,451.97,1438.02,455.97" style="stroke:#181818;stroke-width:1.0;"/><text fill="#000000" font-family="sans-serif" font-size="13" lengthAdjust="spacing" textLength="57.5771" x="1468.93" y="451.867">&#171;include&#187;</text></g><!--reverse link newOffersNotification to carDetail--><g id="link_newOffersNotification_carDetail"><path d="M807.024,203.7024 C848.694,214.0224 892.49,224.88 937.21,235.97 C954.87,240.35 974.13,245.13 991.48,249.44 " fill="none" id="newOffersNotification-backto-carDetail" style="stroke:#181818;stroke-width:1.0;stroke-dasharray:7.0,7.0;"/><polygon fill="#181818" points="801.2,202.26,808.9745,208.3063,806.0534,203.462,810.8977,200.5409,801.2,202.26" style="stroke:#181818;stroke-width:1.0;"/><text fill="#000000" font-family="sans-serif" font-size="13" lengthAdjust="spacing" textLength="55.497" x="880.21" y="217.787">&#171;extend&#187;</text></g><!--link bookingConfirmation to bookingSelectedCar--><g id="link_bookingConfirmation_bookingSelectedCar"><path d="M410.57,526.2 C602.97,511.66 1048.1671,478.012 1242.3371,463.342 " fill="none" id="bookingConfirmation-to-bookingSelectedCar" style="stroke:#181818;stroke-width:1.0;stroke-dasharray:7.0,7.0;"/><polygon fill="#181818" points="1248.32,462.89,1239.0442,459.5794,1243.3342,463.2667,1239.6469,467.5567,1248.32,462.89" style="stroke:#181818;stroke-width:1.0;"/><text fill="#000000" font-family="sans-serif" font-size="13" lengthAdjust="spacing" textLength="57.5771" x="879.21" y="482.417">&#171;include&#187;</text></g><!--link carOwner to finishBooking--><g id="link_carOwner_finishBooking"><path d="M47.98,370.29 C56.72,332.49 75.36,276.64 112.93,243.97 C129.88,229.23 144.7228,220.4052 166.0728,212.2752 " fill="none" id="carOwner-to-finishBooking" style="stroke:#181818;stroke-width:1.0;"/><polygon fill="#181818" points="171.68,210.14,161.8457,209.6047,167.0073,211.9193,164.6926,217.081,171.68,210.14" style="stroke:#181818;stroke-width:1.0;"/></g><!--link carOwner to vehicleListing--><g id="link_carOwner_vehicleListing"><path d="M74.25,416.62 C86.41,419 100.28,421.67 112.93,423.97 C161.32,432.78 210.3107,441.089 251.2807,447.879 " fill="none" id="carOwner-to-vehicleListing" style="stroke:#181818;stroke-width:1.0;"/><polygon fill="#181818" points="257.2,448.86,248.9751,443.4423,252.2673,448.0425,247.6671,451.3347,257.2,448.86" style="stroke:#181818;stroke-width:1.0;"/></g><!--link carOwner to lenderBorrowerCommunication--><g id="link_carOwner_lenderBorrowerCommunication"><path d="M74.23,371.61 C85.52,360.62 98.86,349.57 112.93,341.97 C138.98,327.9 163.2068,319.2757 192.1668,312.0857 " fill="none" id="carOwner-to-lenderBorrowerCommunication" style="stroke:#181818;stroke-width:1.0;"/><polygon fill="#181818" points="197.99,310.64,188.2913,308.9265,193.1373,311.8448,190.219,316.6908,197.99,310.64" style="stroke:#181818;stroke-width:1.0;"/></g><!--link carOwner to bookingConfirmation--><g id="link_carOwner_bookingConfirmation"><path d="M65.99,449.58 C78.21,465.77 94.31,483.2 112.93,493.97 C147.05,513.72 183.2231,522.9436 220.4831,527.9336 " fill="none" id="carOwner-to-bookingConfirmation" style="stroke:#181818;stroke-width:1.0;"/><polygon fill="#181818" points="226.43,528.73,218.0406,523.5707,221.4742,528.0663,216.9787,531.5,226.43,528.73" style="stroke:#181818;stroke-width:1.0;"/></g><!--link carOwner to violationAlert--><g id="link_carOwner_violationAlert"><path d="M47.95,449.98 C56.61,487.29 75.14,541.61 112.93,571.97 C139.69,593.47 168.6776,603.8284 202.1276,609.6084 " fill="none" id="carOwner-to-violationAlert" style="stroke:#181818;stroke-width:1.0;"/><polygon fill="#181818" points="208.04,610.63,199.8525,605.156,203.113,609.7786,198.4903,613.0391,208.04,610.63" style="stroke:#181818;stroke-width:1.0;"/></g><!--link carOwner to addReview--><g id="link_carOwner_addReview"><path d="M74.23,406.74 C110.35,403.23 163.7581,398.0505 214.9881,393.0705 " fill="none" id="carOwner-to-addReview" style="stroke:#181818;stroke-width:1.0;"/><polygon fill="#181818" points="220.96,392.49,211.6152,389.3795,215.9835,392.9738,212.3892,397.342,220.96,392.49" style="stroke:#181818;stroke-width:1.0;"/></g><!--SRC=[bPLDJ-Cm48Rl-HKMbyAXNto3KALIze24G6h5Sa0St6JQM9lQaSVPBhlQ_xvZEmvrYT2cboQUyVlOu_6R0bQ66SMqMEU6PK93QeIIIO_TmKf8O2O7nbEZD2RkZzqghTKMDEF8blLp4kVZEnhOKBII6TVlYHNbSbq0EvXnpJ3dMiWrusLvmFxGrETPVvmm-Xr-Xroab5S8D9HoP24__TY37sAlhxan9LuFXsjXycevIDLckDJLxu8F7nSlzwFJyL0WLe33yV7RcvS_zl8BAEp-B9kbN3jv36DsQLt4JuBuYHU_LUg7b_QIa3MCfGyjwl6kfDD0ElKaEpy3mqL1rH6mTGnYtRcnJj9dGVhSIqyhepRSY9G9YPNcCWLwIeiAgIiSXuUC-oQX2_0Y0C_YggLAheIsmZMdhjbiPxmJw3o0BZpeplKsAq1ceFkXSucxsLHIf1zWdn7QVBORxxI0ox20oxgtXIgy2Yz06yPbnZHWgII2R_IGC7NnBgohmBhoh4Tbn2eiMgsQYsgV9MpfRmKQ7PLUdznRDAS3_7WKuEEHfy_1L5hQKoMSDOJw2hijfuN2dL1zp6ufP202yz0HNPRGjF5eN3l9YnRrHM_shg6vB3pBvkwj4yNU-B_Mw-RW3mfpKTAooHMVaLom8VNxayXNabuK-cm7UmcVxrYi_KMBxYarhX0Bj1vwd18TXjsq3fjcIp1R0Cag108WOD9YS8Eg7EpmsJMxkO5VXbO-cIGVmpujCk4eiyLk_9GMf9tep2g35aPxeqUmDiyPqEy_Q4dzUNHVEBMLe0zgLtwoBwrDCyqsGYOXfQNgKIZ-3iQnhneYIcpPuHubCg4urjoQnFR3DrSrT9VwtjS1sQ4gxMHU72Mzw507-nkW-lcw8uaTFgYr8FkbB7AFDMK0VJclMLrV_0S0]--></g></svg>
