<svg xmlns="http://www.w3.org/2000/svg" xmlns:xlink="http://www.w3.org/1999/xlink" contentStyleType="text/css" data-diagram-type="SALT" height="600px" preserveAspectRatio="none" style="width:498px;height:600px;background:#FFFFFF;" version="1.1" viewBox="0 0 498 600" width="498px" zoomAndPan="magnify"><defs/><g><line style="stroke:#AAAAAA;stroke-width:1;" x1="7" x2="376.4668" y1="26.9609" y2="26.9609"/><line style="stroke:#AAAAAA;stroke-width:1;" x1="7" x2="376.4668" y1="28.9609" y2="28.9609"/><text fill="#000000" font-family="sans-serif" font-size="12" lengthAdjust="spacing" textLength="368.4668" x="7" y="40.1074">notice "Standard insurance has been automatically included"</text><rect fill="#EEEEEE" height="17.9688" rx="5" ry="5" style="stroke:#000000;stroke-width:2.5;" width="164" x="9.5" y="47.4375"/><text fill="#000000" font-family="sans-serif" font-size="12" lengthAdjust="spacing" textLength="115.9512" x="33.5244" y="60.5762">Coverage Details &#9660;</text><text fill="#000000" font-family="sans-serif" font-size="12" lengthAdjust="spacing" textLength="123.0703" x="7" y="81.0449">&#8226; Liability protection</text><text fill="#000000" font-family="sans-serif" font-size="12" lengthAdjust="spacing" textLength="154.4063" x="7" y="97.0137">&#8226; $15/day basic coverage</text><rect fill="#EEEEEE" height="17.9688" rx="5" ry="5" style="stroke:#000000;stroke-width:2.5;" width="164" x="9.5" y="104.3438"/><text fill="#000000" font-family="sans-serif" font-size="12" lengthAdjust="spacing" textLength="116.9883" x="33.0059" y="117.4824">Continue to Review</text><line style="stroke:#000000;stroke-width:1;" x1="6" x2="376.4668" y1="12.9844" y2="12.9844"/><line style="stroke:#000000;stroke-width:1;" x1="6" x2="376.4668" y1="125.8125" y2="125.8125"/><line style="stroke:#000000;stroke-width:1;" x1="6" x2="6" y1="12.9844" y2="27.9688"/><line style="stroke:#000000;stroke-width:1;" x1="376.4668" x2="376.4668" y1="27.9688" y2="43.9375"/><line style="stroke:#000000;stroke-width:1;" x1="376.4668" x2="376.4668" y1="12.9844" y2="27.9688"/><line style="stroke:#000000;stroke-width:1;" x1="6" x2="6" y1="100.8438" y2="125.8125"/><line style="stroke:#000000;stroke-width:1;" x1="6" x2="6" y1="84.875" y2="100.8438"/><line style="stroke:#000000;stroke-width:1;" x1="376.4668" x2="376.4668" y1="100.8438" y2="125.8125"/><line style="stroke:#000000;stroke-width:1;" x1="6" x2="6" y1="68.9063" y2="84.875"/><line style="stroke:#000000;stroke-width:1;" x1="376.4668" x2="376.4668" y1="84.875" y2="100.8438"/><line style="stroke:#000000;stroke-width:1;" x1="6" x2="6" y1="43.9375" y2="68.9063"/><line style="stroke:#000000;stroke-width:1;" x1="376.4668" x2="376.4668" y1="68.9063" y2="84.875"/><line style="stroke:#000000;stroke-width:1;" x1="6" x2="6" y1="27.9688" y2="43.9375"/><line style="stroke:#000000;stroke-width:1;" x1="376.4668" x2="376.4668" y1="43.9375" y2="68.9063"/><rect fill="#FFFFFF" height="13.9688" style="stroke:#FFFFFF;stroke-width:1;" width="187.8691" x="12" y="6"/><text fill="#000000" font-family="sans-serif" font-size="12" lengthAdjust="spacing" textLength="187.8691" x="12" y="17.1387">1. Standard Insurance Included</text><line style="stroke:#AAAAAA;stroke-width:1;" x1="7" x2="269.8926" y1="162.7422" y2="162.7422"/><line style="stroke:#AAAAAA;stroke-width:1;" x1="7" x2="269.8926" y1="164.7422" y2="164.7422"/><text fill="#000000" font-family="sans-serif" font-size="12" lengthAdjust="spacing" textLength="241.8926" x="27" y="175.8887">I accept the mandatory insurance terms</text><rect fill="none" height="10" style="stroke:#000000;stroke-width:1.5;" width="10" x="9" y="166.7344"/><polygon fill="#000000" points="10,170.75,13,173.75,20,164.75,13,171.75" style="stroke:#000000;stroke-width:1.5;"/><line style="stroke:#AAAAAA;stroke-width:1;" x1="7" x2="269.8926" y1="184.2188" y2="184.2188"/><text fill="#000000" font-family="sans-serif" font-size="12" lengthAdjust="spacing" textLength="114.6094" x="7" y="199.8574">Additional Options:</text><text fill="#000000" font-family="sans-serif" font-size="12" lengthAdjust="spacing" textLength="168.293" x="27" y="215.8262">Collision Waiver (+$10/day)</text><rect fill="none" height="10" style="stroke:#000000;stroke-width:1.5;" width="10" x="9" y="206.6719"/><text fill="#000000" font-family="sans-serif" font-size="12" lengthAdjust="spacing" textLength="160.8633" x="27" y="231.7949">Theft Protection (+$8/day)</text><rect fill="none" height="10" style="stroke:#000000;stroke-width:1.5;" width="10" x="9" y="222.6406"/><rect fill="#EEEEEE" height="17.9688" rx="5" ry="5" style="stroke:#000000;stroke-width:2.5;" width="84" x="9.5" y="239.125"/><text fill="#000000" font-family="sans-serif" font-size="12" lengthAdjust="spacing" textLength="53.959" x="24.5205" y="252.2637">Continue</text><line style="stroke:#000000;stroke-width:1;" x1="6" x2="269.8926" y1="148.7656" y2="148.7656"/><line style="stroke:#000000;stroke-width:1;" x1="6" x2="269.8926" y1="260.5938" y2="260.5938"/><line style="stroke:#000000;stroke-width:1;" x1="6" x2="6" y1="148.7656" y2="163.75"/><line style="stroke:#000000;stroke-width:1;" x1="269.8926" x2="269.8926" y1="148.7656" y2="163.75"/><line style="stroke:#000000;stroke-width:1;" x1="6" x2="6" y1="219.6563" y2="235.625"/><line style="stroke:#000000;stroke-width:1;" x1="269.8926" x2="269.8926" y1="219.6563" y2="235.625"/><line style="stroke:#000000;stroke-width:1;" x1="6" x2="6" y1="187.7188" y2="203.6875"/><line style="stroke:#000000;stroke-width:1;" x1="269.8926" x2="269.8926" y1="187.7188" y2="203.6875"/><line style="stroke:#000000;stroke-width:1;" x1="6" x2="6" y1="163.75" y2="179.7188"/><line style="stroke:#000000;stroke-width:1;" x1="269.8926" x2="269.8926" y1="163.75" y2="179.7188"/><line style="stroke:#000000;stroke-width:1;" x1="6" x2="6" y1="235.625" y2="260.5938"/><line style="stroke:#000000;stroke-width:1;" x1="269.8926" x2="269.8926" y1="235.625" y2="260.5938"/><line style="stroke:#000000;stroke-width:1;" x1="6" x2="6" y1="203.6875" y2="219.6563"/><line style="stroke:#000000;stroke-width:1;" x1="269.8926" x2="269.8926" y1="203.6875" y2="219.6563"/><line style="stroke:#000000;stroke-width:1;" x1="6" x2="6" y1="179.7188" y2="187.7188"/><line style="stroke:#000000;stroke-width:1;" x1="269.8926" x2="269.8926" y1="179.7188" y2="187.7188"/><rect fill="#FFFFFF" height="13.9688" style="stroke:#FFFFFF;stroke-width:1;" width="219.6094" x="12" y="141.7813"/><text fill="#000000" font-family="sans-serif" font-size="12" lengthAdjust="spacing" textLength="219.6094" x="12" y="152.9199">2. Review Insurance (Decision Point)</text><line style="stroke:#AAAAAA;stroke-width:1;" x1="7" x2="251.1289" y1="297.5234" y2="297.5234"/><line style="stroke:#AAAAAA;stroke-width:1;" x1="7" x2="251.1289" y1="299.5234" y2="299.5234"/><text fill="#000000" font-family="sans-serif" font-size="12" lengthAdjust="spacing" textLength="243.1289" x="7" y="310.6699">error "Insurance is required to continue"</text><text fill="#000000" font-family="sans-serif" font-size="12" lengthAdjust="spacing" textLength="228.9961" x="7" y="326.6387">You must accept the insurance terms.</text><rect fill="#EEEEEE" height="17.9688" rx="5" ry="5" style="stroke:#000000;stroke-width:2.5;" width="132" x="9.5" y="333.9688"/><text fill="#000000" font-family="sans-serif" font-size="12" lengthAdjust="spacing" textLength="92.1621" x="29.4189" y="347.1074">Back to Review</text><line style="stroke:#000000;stroke-width:1;" x1="6" x2="251.1289" y1="283.5469" y2="283.5469"/><line style="stroke:#000000;stroke-width:1;" x1="6" x2="251.1289" y1="355.4375" y2="355.4375"/><line style="stroke:#000000;stroke-width:1;" x1="6" x2="6" y1="283.5469" y2="298.5313"/><line style="stroke:#000000;stroke-width:1;" x1="251.1289" x2="251.1289" y1="298.5313" y2="314.5"/><line style="stroke:#000000;stroke-width:1;" x1="251.1289" x2="251.1289" y1="283.5469" y2="298.5313"/><line style="stroke:#000000;stroke-width:1;" x1="6" x2="6" y1="330.4688" y2="355.4375"/><line style="stroke:#000000;stroke-width:1;" x1="6" x2="6" y1="314.5" y2="330.4688"/><line style="stroke:#000000;stroke-width:1;" x1="251.1289" x2="251.1289" y1="330.4688" y2="355.4375"/><line style="stroke:#000000;stroke-width:1;" x1="6" x2="6" y1="298.5313" y2="314.5"/><line style="stroke:#000000;stroke-width:1;" x1="251.1289" x2="251.1289" y1="314.5" y2="330.4688"/><rect fill="#FFFFFF" height="13.9688" style="stroke:#FFFFFF;stroke-width:1;" width="130.4473" x="12" y="276.5625"/><text fill="#000000" font-family="sans-serif" font-size="12" lengthAdjust="spacing" textLength="130.4473" x="12" y="287.7012">3. Insurance Declined</text><line style="stroke:#AAAAAA;stroke-width:1;" x1="7" x2="193" y1="392.3672" y2="392.3672"/><line style="stroke:#AAAAAA;stroke-width:1;" x1="7" x2="193" y1="394.3672" y2="394.3672"/><text fill="#000000" font-family="sans-serif" font-size="12" lengthAdjust="spacing" textLength="131.3613" x="7" y="405.5137">&#10003; Standard Insurance</text><text fill="#000000" font-family="sans-serif" font-size="12" lengthAdjust="spacing" textLength="109.9102" x="7" y="421.4824">&#10003; Collision Waiver</text><text fill="#000000" font-family="sans-serif" font-size="12" lengthAdjust="spacing" textLength="110.1152" x="7" y="437.4512">&#10003; Theft Protection</text><text fill="#000000" font-family="sans-serif" font-size="12" lengthAdjust="spacing" textLength="113.7773" x="7" y="453.4199">Total: $69 (3 days)</text><rect fill="#EEEEEE" height="17.9688" rx="5" ry="5" style="stroke:#000000;stroke-width:2.5;" width="180" x="9.5" y="460.75"/><text fill="#000000" font-family="sans-serif" font-size="12" lengthAdjust="spacing" textLength="131.6719" x="33.6641" y="473.8887">Confirm and Continue</text><line style="stroke:#000000;stroke-width:1;" x1="6" x2="193" y1="378.3906" y2="378.3906"/><line style="stroke:#000000;stroke-width:1;" x1="6" x2="193" y1="482.2188" y2="482.2188"/><line style="stroke:#000000;stroke-width:1;" x1="6" x2="6" y1="378.3906" y2="393.375"/><line style="stroke:#000000;stroke-width:1;" x1="193" x2="193" y1="393.375" y2="409.3438"/><line style="stroke:#000000;stroke-width:1;" x1="193" x2="193" y1="378.3906" y2="393.375"/><line style="stroke:#000000;stroke-width:1;" x1="6" x2="6" y1="457.25" y2="482.2188"/><line style="stroke:#000000;stroke-width:1;" x1="6" x2="6" y1="441.2813" y2="457.25"/><line style="stroke:#000000;stroke-width:1;" x1="193" x2="193" y1="457.25" y2="482.2188"/><line style="stroke:#000000;stroke-width:1;" x1="6" x2="6" y1="425.3125" y2="441.2813"/><line style="stroke:#000000;stroke-width:1;" x1="193" x2="193" y1="441.2813" y2="457.25"/><line style="stroke:#000000;stroke-width:1;" x1="6" x2="6" y1="409.3438" y2="425.3125"/><line style="stroke:#000000;stroke-width:1;" x1="193" x2="193" y1="425.3125" y2="441.2813"/><line style="stroke:#000000;stroke-width:1;" x1="6" x2="6" y1="393.375" y2="409.3438"/><line style="stroke:#000000;stroke-width:1;" x1="193" x2="193" y1="409.3438" y2="425.3125"/><rect fill="#FFFFFF" height="13.9688" style="stroke:#FFFFFF;stroke-width:1;" width="260.8418" x="12" y="371.4063"/><text fill="#000000" font-family="sans-serif" font-size="12" lengthAdjust="spacing" textLength="260.8418" x="12" y="382.5449">4. Insurance Summary (Accepted + Extras)</text><line style="stroke:#AAAAAA;stroke-width:1;" x1="7" x2="491.4395" y1="519.1484" y2="519.1484"/><line style="stroke:#AAAAAA;stroke-width:1;" x1="7" x2="491.4395" y1="521.1484" y2="521.1484"/><text fill="#000000" font-family="sans-serif" font-size="12" lengthAdjust="spacing" textLength="483.4395" x="7" y="532.2949">Insurance will be activated after payment confirmation and booking completion.</text><text fill="#000000" font-family="sans-serif" font-size="12" lengthAdjust="spacing" textLength="423.7793" x="7" y="548.2637">Details will be automatically sent to both the borrower and the lender.</text><text fill="#000000" font-family="sans-serif" font-size="12" lengthAdjust="spacing" textLength="269.0801" x="7" y="564.2324">Coverage will apply for the full rental period.</text><rect fill="#EEEEEE" height="17.9688" rx="5" ry="5" style="stroke:#000000;stroke-width:2.5;" width="84" x="9.5" y="571.5625"/><text fill="#000000" font-family="sans-serif" font-size="12" lengthAdjust="spacing" textLength="53.959" x="24.5205" y="584.7012">Continue</text><line style="stroke:#000000;stroke-width:1;" x1="6" x2="491.4395" y1="505.1719" y2="505.1719"/><line style="stroke:#000000;stroke-width:1;" x1="6" x2="491.4395" y1="593.0313" y2="593.0313"/><line style="stroke:#000000;stroke-width:1;" x1="6" x2="6" y1="505.1719" y2="520.1563"/><line style="stroke:#000000;stroke-width:1;" x1="491.4395" x2="491.4395" y1="520.1563" y2="536.125"/><line style="stroke:#000000;stroke-width:1;" x1="491.4395" x2="491.4395" y1="505.1719" y2="520.1563"/><line style="stroke:#000000;stroke-width:1;" x1="6" x2="6" y1="568.0625" y2="593.0313"/><line style="stroke:#000000;stroke-width:1;" x1="6" x2="6" y1="552.0938" y2="568.0625"/><line style="stroke:#000000;stroke-width:1;" x1="491.4395" x2="491.4395" y1="568.0625" y2="593.0313"/><line style="stroke:#000000;stroke-width:1;" x1="6" x2="6" y1="536.125" y2="552.0938"/><line style="stroke:#000000;stroke-width:1;" x1="491.4395" x2="491.4395" y1="552.0938" y2="568.0625"/><line style="stroke:#000000;stroke-width:1;" x1="6" x2="6" y1="520.1563" y2="536.125"/><line style="stroke:#000000;stroke-width:1;" x1="491.4395" x2="491.4395" y1="536.125" y2="552.0938"/><rect fill="#FFFFFF" height="13.9688" style="stroke:#FFFFFF;stroke-width:1;" width="131.1152" x="12" y="498.1875"/><text fill="#000000" font-family="sans-serif" font-size="12" lengthAdjust="spacing" textLength="131.1152" x="12" y="509.3262">5. Insurance Finalized</text><!--SRC=[RPFFJXj13CRlynHMn24HIag081e92IXGGOCQ4Q2jK2fvToV4OdPcEt-IfWYfxr2ffvxw77qQdgIUXKtIXjlAzdpszxDtttcqtg7oubxSVwwrMp3mg3Eq6Png5opgLF9Nga8civhOsziJsdZYO6rUIFF2CJf8fDI0mPiSkGwLcd51zVu6tfY9j7WhuKXw9ENWyUSV68h7xx-XHvYG8Z-3mXelKqz60vIfjNRdLOOpID1H2ccb0QMWzgI316_WGav8JbdkGKGtcwqgil1IFv8fkQZSDwHzuydJpSSXd0AcgImy-B64F7hpniwMt7bfSoT4izaK1rb6SJnKyBw87wxBemnv6AMUr3yWyP1GNrzhRyJH6-MmGxWSov67_i8WL-nM1SjsAXDRhQNfUNX5kjg4jDPOg2tIvC3ABu6ip2AEz5ch9ZwP07bmVjdYVyPQiViXfdSlWDnUdc4GyXmPJFsWrE9Mwt3yrLjqpp0VV_ruwOgWJAmGUWglO64ObyQZwiBQpckeRm4ZSerdGYEoEN23LLgTvKbFY1T4tofSYyIKbE93PHgU9XWju8WXG86pN6eVmSKMM4uI-oJ6t96-vKHUA1d3ZAkwuBdQFqVleX2ZJ8mVbxmJm-kQSfSe60DAwanQ5fh_4wKI5WK_7_5cOz4eSCYo5fzQ8IsPhBLo9WzYdwNAlrZq5Mf_TTu3bYmnjrkR6vkTrbR2qtRgL_fEcwakZP3YrLCk6wB-jjy3Pu9bDXavRoa9qMH3dE44uIBeMDVbMvVwxEXT5O1ZFI5hT6GcpgxF5mKxsyr3yZ2GDgxu-fnPZJ0epozIap79BbnTdZHtHG_rRM3hNP2QER2kdN5ky1S0]--></g></svg>