<svg xmlns="http://www.w3.org/2000/svg" xmlns:xlink="http://www.w3.org/1999/xlink" contentStyleType="text/css" data-diagram-type="SALT" height="497px" preserveAspectRatio="none" style="width:404px;height:497px;background:#FFFFFF;" version="1.1" viewBox="0 0 404 497" width="404px" zoomAndPan="magnify"><defs/><g><line style="stroke:#AAAAAA;stroke-width:1;stroke-dasharray:1.0,2.0;" x1="6" x2="397" y1="26.9609" y2="26.9609"/><text fill="#000000" font-family="sans-serif" font-size="12" lengthAdjust="spacing" textLength="75.6387" x="7" y="54.0762">Price Range:</text><line style="stroke:#AAAAAA;stroke-width:1;stroke-dasharray:1.0,2.0;" x1="7" x2="124.1113" y1="62.4063" y2="62.4063"/><line style="stroke:#AAAAAA;stroke-width:1;stroke-dasharray:1.0,2.0;" x1="125.1113" x2="239.1113" y1="62.4063" y2="62.4063"/><line style="stroke:#AAAAAA;stroke-width:1;stroke-dasharray:1.0,2.0;" x1="240.1113" x2="332.4609" y1="62.4063" y2="62.4063"/><line style="stroke:#AAAAAA;stroke-width:1;stroke-dasharray:1.0,2.0;" x1="333.4609" x2="392.7871" y1="62.4063" y2="62.4063"/><text fill="#000000" font-family="sans-serif" font-size="12" lengthAdjust="spacing" textLength="58.6348" x="7" y="78.0449">Min Price:</text><text fill="#000000" font-family="sans-serif" font-size="12" lengthAdjust="spacing" textLength="15.2695" x="128.1113" y="78.0449">&#8364;0</text><line style="stroke:#000000;stroke-width:1;" x1="126.1113" x2="193.1113" y1="80.875" y2="80.875"/><line style="stroke:#000000;stroke-width:1;" x1="126.1113" x2="126.1113" y1="77.875" y2="79.875"/><line style="stroke:#000000;stroke-width:1;" x1="193.1113" x2="193.1113" y1="77.875" y2="79.875"/><text fill="#000000" font-family="sans-serif" font-size="12" lengthAdjust="spacing" textLength="62.1504" x="7" y="96.0137">Max Price:</text><text fill="#000000" font-family="sans-serif" font-size="12" lengthAdjust="spacing" textLength="38.1738" x="128.1113" y="96.0137">&#8364;1000</text><line style="stroke:#000000;stroke-width:1;" x1="126.1113" x2="193.1113" y1="98.8438" y2="98.8438"/><line style="stroke:#000000;stroke-width:1;" x1="126.1113" x2="126.1113" y1="95.8438" y2="97.8438"/><line style="stroke:#000000;stroke-width:1;" x1="193.1113" x2="193.1113" y1="95.8438" y2="97.8438"/><line style="stroke:#AAAAAA;stroke-width:1;" x1="7" x2="124.1113" y1="105.3438" y2="105.3438"/><line style="stroke:#AAAAAA;stroke-width:1;" x1="7" x2="124.1113" y1="107.3438" y2="107.3438"/><line style="stroke:#AAAAAA;stroke-width:1;" x1="125.1113" x2="239.1113" y1="105.3438" y2="105.3438"/><line style="stroke:#AAAAAA;stroke-width:1;" x1="125.1113" x2="239.1113" y1="107.3438" y2="107.3438"/><line style="stroke:#AAAAAA;stroke-width:1;" x1="240.1113" x2="332.4609" y1="105.3438" y2="105.3438"/><line style="stroke:#AAAAAA;stroke-width:1;" x1="240.1113" x2="332.4609" y1="107.3438" y2="107.3438"/><line style="stroke:#AAAAAA;stroke-width:1;" x1="333.4609" x2="392.7871" y1="105.3438" y2="105.3438"/><line style="stroke:#AAAAAA;stroke-width:1;" x1="333.4609" x2="392.7871" y1="107.3438" y2="107.3438"/><text fill="#000000" font-family="sans-serif" font-size="12" lengthAdjust="spacing" textLength="53.9121" x="7" y="121.9824">Car Type</text><text fill="#000000" font-family="sans-serif" font-size="12" lengthAdjust="spacing" textLength="37.5762" x="27" y="137.9512">Sedan</text><ellipse cx="14" cy="133.7969" fill="none" rx="5" ry="5" style="stroke:#000000;stroke-width:1.5;"/><text fill="#000000" font-family="sans-serif" font-size="12" lengthAdjust="spacing" textLength="24.6094" x="145.1113" y="137.9512">SUV</text><ellipse cx="132.1113" cy="133.7969" fill="none" rx="5" ry="5" style="stroke:#000000;stroke-width:1.5;"/><text fill="#000000" font-family="sans-serif" font-size="12" lengthAdjust="spacing" textLength="44.4668" x="260.1113" y="137.9512">Electric</text><ellipse cx="247.1113" cy="133.7969" fill="none" rx="5" ry="5" style="stroke:#000000;stroke-width:1.5;"/><text fill="#000000" font-family="sans-serif" font-size="12" lengthAdjust="spacing" textLength="38.3262" x="353.4609" y="137.9512">Coupe</text><ellipse cx="340.4609" cy="133.7969" fill="none" rx="5" ry="5" style="stroke:#000000;stroke-width:1.5;"/><line style="stroke:#AAAAAA;stroke-width:1;" x1="7" x2="124.1113" y1="145.2813" y2="145.2813"/><line style="stroke:#AAAAAA;stroke-width:1;" x1="7" x2="124.1113" y1="147.2813" y2="147.2813"/><line style="stroke:#AAAAAA;stroke-width:1;" x1="125.1113" x2="239.1113" y1="145.2813" y2="145.2813"/><line style="stroke:#AAAAAA;stroke-width:1;" x1="125.1113" x2="239.1113" y1="147.2813" y2="147.2813"/><line style="stroke:#AAAAAA;stroke-width:1;" x1="240.1113" x2="332.4609" y1="145.2813" y2="145.2813"/><line style="stroke:#AAAAAA;stroke-width:1;" x1="240.1113" x2="332.4609" y1="147.2813" y2="147.2813"/><line style="stroke:#AAAAAA;stroke-width:1;" x1="333.4609" x2="392.7871" y1="145.2813" y2="145.2813"/><line style="stroke:#AAAAAA;stroke-width:1;" x1="333.4609" x2="392.7871" y1="147.2813" y2="147.2813"/><text fill="#000000" font-family="sans-serif" font-size="12" lengthAdjust="spacing" textLength="70.1543" x="7" y="161.9199">Availability:</text><line style="stroke:#AAAAAA;stroke-width:1;stroke-dasharray:1.0,2.0;" x1="7" x2="124.1113" y1="170.25" y2="170.25"/><line style="stroke:#AAAAAA;stroke-width:1;stroke-dasharray:1.0,2.0;" x1="125.1113" x2="239.1113" y1="170.25" y2="170.25"/><line style="stroke:#AAAAAA;stroke-width:1;stroke-dasharray:1.0,2.0;" x1="240.1113" x2="332.4609" y1="170.25" y2="170.25"/><line style="stroke:#AAAAAA;stroke-width:1;stroke-dasharray:1.0,2.0;" x1="333.4609" x2="392.7871" y1="170.25" y2="170.25"/><text fill="#000000" font-family="sans-serif" font-size="12" lengthAdjust="spacing" textLength="34.9102" x="7" y="185.8887">From:</text><text fill="#000000" font-family="sans-serif" font-size="12" lengthAdjust="spacing" textLength="3.8145" x="128.1113" y="185.8887">&#160;</text><line style="stroke:#000000;stroke-width:1;" x1="126.1113" x2="153.1113" y1="188.7188" y2="188.7188"/><line style="stroke:#000000;stroke-width:1;" x1="126.1113" x2="126.1113" y1="185.7188" y2="187.7188"/><line style="stroke:#000000;stroke-width:1;" x1="153.1113" x2="153.1113" y1="185.7188" y2="187.7188"/><text fill="#000000" font-family="sans-serif" font-size="12" lengthAdjust="spacing" textLength="18.7148" x="7" y="203.8574">To:</text><text fill="#000000" font-family="sans-serif" font-size="12" lengthAdjust="spacing" textLength="3.8145" x="128.1113" y="203.8574">&#160;</text><line style="stroke:#000000;stroke-width:1;" x1="126.1113" x2="153.1113" y1="206.6875" y2="206.6875"/><line style="stroke:#000000;stroke-width:1;" x1="126.1113" x2="126.1113" y1="203.6875" y2="205.6875"/><line style="stroke:#000000;stroke-width:1;" x1="153.1113" x2="153.1113" y1="203.6875" y2="205.6875"/><line style="stroke:#AAAAAA;stroke-width:1;" x1="7" x2="124.1113" y1="213.1875" y2="213.1875"/><line style="stroke:#AAAAAA;stroke-width:1;" x1="7" x2="124.1113" y1="215.1875" y2="215.1875"/><line style="stroke:#AAAAAA;stroke-width:1;" x1="125.1113" x2="239.1113" y1="213.1875" y2="213.1875"/><line style="stroke:#AAAAAA;stroke-width:1;" x1="125.1113" x2="239.1113" y1="215.1875" y2="215.1875"/><line style="stroke:#AAAAAA;stroke-width:1;" x1="240.1113" x2="332.4609" y1="213.1875" y2="213.1875"/><line style="stroke:#AAAAAA;stroke-width:1;" x1="240.1113" x2="332.4609" y1="215.1875" y2="215.1875"/><line style="stroke:#AAAAAA;stroke-width:1;" x1="333.4609" x2="392.7871" y1="213.1875" y2="213.1875"/><line style="stroke:#AAAAAA;stroke-width:1;" x1="333.4609" x2="392.7871" y1="215.1875" y2="215.1875"/><text fill="#000000" font-family="sans-serif" font-size="12" lengthAdjust="spacing" textLength="95.2793" x="7" y="229.8262">Location Radius</text><text fill="#000000" font-family="sans-serif" font-size="12" lengthAdjust="spacing" textLength="30.0879" x="27" y="245.7949">5 km</text><ellipse cx="14" cy="241.6406" fill="none" rx="5" ry="5" style="stroke:#000000;stroke-width:1.5;"/><text fill="#000000" font-family="sans-serif" font-size="12" lengthAdjust="spacing" textLength="37.7227" x="145.1113" y="245.7949">10 km</text><ellipse cx="132.1113" cy="241.6406" fill="none" rx="5" ry="5" style="stroke:#000000;stroke-width:1.5;"/><text fill="#000000" font-family="sans-serif" font-size="12" lengthAdjust="spacing" textLength="37.7227" x="260.1113" y="245.7949">20 km</text><ellipse cx="247.1113" cy="241.6406" fill="none" rx="5" ry="5" style="stroke:#000000;stroke-width:1.5;"/><text fill="#000000" font-family="sans-serif" font-size="12" lengthAdjust="spacing" textLength="37.7227" x="353.4609" y="245.7949">50 km</text><ellipse cx="340.4609" cy="241.6406" fill="none" rx="5" ry="5" style="stroke:#000000;stroke-width:1.5;"/><line style="stroke:#AAAAAA;stroke-width:1;" x1="7" x2="124.1113" y1="253.125" y2="253.125"/><line style="stroke:#AAAAAA;stroke-width:1;" x1="7" x2="124.1113" y1="255.125" y2="255.125"/><line style="stroke:#AAAAAA;stroke-width:1;" x1="125.1113" x2="239.1113" y1="253.125" y2="253.125"/><line style="stroke:#AAAAAA;stroke-width:1;" x1="125.1113" x2="239.1113" y1="255.125" y2="255.125"/><line style="stroke:#AAAAAA;stroke-width:1;" x1="240.1113" x2="332.4609" y1="253.125" y2="253.125"/><line style="stroke:#AAAAAA;stroke-width:1;" x1="240.1113" x2="332.4609" y1="255.125" y2="255.125"/><line style="stroke:#AAAAAA;stroke-width:1;" x1="333.4609" x2="392.7871" y1="253.125" y2="253.125"/><line style="stroke:#AAAAAA;stroke-width:1;" x1="333.4609" x2="392.7871" y1="255.125" y2="255.125"/><text fill="#000000" font-family="sans-serif" font-size="12" lengthAdjust="spacing" textLength="83.3262" x="7" y="269.7637">Transmission:</text><text fill="#000000" font-family="sans-serif" font-size="12" lengthAdjust="spacing" textLength="61.541" x="27" y="285.7324">Automatic</text><ellipse cx="14" cy="281.5781" fill="none" rx="5" ry="5" style="stroke:#000000;stroke-width:1.5;"/><text fill="#000000" font-family="sans-serif" font-size="12" lengthAdjust="spacing" textLength="43.6055" x="145.1113" y="285.7324">Manual</text><ellipse cx="132.1113" cy="281.5781" fill="none" rx="5" ry="5" style="stroke:#000000;stroke-width:1.5;"/><line style="stroke:#AAAAAA;stroke-width:1;" x1="7" x2="124.1113" y1="293.0625" y2="293.0625"/><line style="stroke:#AAAAAA;stroke-width:1;" x1="7" x2="124.1113" y1="295.0625" y2="295.0625"/><line style="stroke:#AAAAAA;stroke-width:1;" x1="125.1113" x2="239.1113" y1="293.0625" y2="293.0625"/><line style="stroke:#AAAAAA;stroke-width:1;" x1="125.1113" x2="239.1113" y1="295.0625" y2="295.0625"/><line style="stroke:#AAAAAA;stroke-width:1;" x1="240.1113" x2="332.4609" y1="293.0625" y2="293.0625"/><line style="stroke:#AAAAAA;stroke-width:1;" x1="240.1113" x2="332.4609" y1="295.0625" y2="295.0625"/><line style="stroke:#AAAAAA;stroke-width:1;" x1="333.4609" x2="392.7871" y1="293.0625" y2="293.0625"/><line style="stroke:#AAAAAA;stroke-width:1;" x1="333.4609" x2="392.7871" y1="295.0625" y2="295.0625"/><text fill="#000000" font-family="sans-serif" font-size="12" lengthAdjust="spacing" textLength="56.5605" x="7" y="309.7012">Features:</text><text fill="#000000" font-family="sans-serif" font-size="12" lengthAdjust="spacing" textLength="96.1113" x="27" y="325.6699">Air Conditioning</text><rect fill="none" height="10" style="stroke:#000000;stroke-width:1.5;" width="10" x="9" y="316.5156"/><text fill="#000000" font-family="sans-serif" font-size="12" lengthAdjust="spacing" textLength="61.1426" x="145.1113" y="325.6699">Child Seat</text><rect fill="none" height="10" style="stroke:#000000;stroke-width:1.5;" width="10" x="127.1113" y="316.5156"/><text fill="#000000" font-family="sans-serif" font-size="12" lengthAdjust="spacing" textLength="71.3496" x="260.1113" y="325.6699">Pet Friendly</text><rect fill="none" height="10" style="stroke:#000000;stroke-width:1.5;" width="10" x="242.1113" y="316.5156"/><line style="stroke:#AAAAAA;stroke-width:1;" x1="7" x2="124.1113" y1="333" y2="333"/><line style="stroke:#AAAAAA;stroke-width:1;" x1="7" x2="124.1113" y1="335" y2="335"/><line style="stroke:#AAAAAA;stroke-width:1;" x1="125.1113" x2="239.1113" y1="333" y2="333"/><line style="stroke:#AAAAAA;stroke-width:1;" x1="125.1113" x2="239.1113" y1="335" y2="335"/><line style="stroke:#AAAAAA;stroke-width:1;" x1="240.1113" x2="332.4609" y1="333" y2="333"/><line style="stroke:#AAAAAA;stroke-width:1;" x1="240.1113" x2="332.4609" y1="335" y2="335"/><line style="stroke:#AAAAAA;stroke-width:1;" x1="333.4609" x2="392.7871" y1="333" y2="333"/><line style="stroke:#AAAAAA;stroke-width:1;" x1="333.4609" x2="392.7871" y1="335" y2="335"/><rect fill="#EEEEEE" height="17.9688" rx="5" ry="5" style="stroke:#000000;stroke-width:2.5;" width="108" x="9.5" y="341"/><text fill="#000000" font-family="sans-serif" font-size="12" lengthAdjust="spacing" textLength="74.5371" x="26.2314" y="354.1387">Apply Filters</text><rect fill="#EEEEEE" height="17.9688" rx="5" ry="5" style="stroke:#000000;stroke-width:2.5;" width="108" x="127.6113" y="341"/><text fill="#000000" font-family="sans-serif" font-size="12" lengthAdjust="spacing" textLength="74.7188" x="144.252" y="354.1387">Reset Filters</text><line style="stroke:#000000;stroke-width:1;" x1="6" x2="124.1113" y1="34.9531" y2="34.9531"/><line style="stroke:#000000;stroke-width:1;" x1="124.1113" x2="239.1113" y1="34.9531" y2="34.9531"/><line style="stroke:#000000;stroke-width:1;" x1="239.1113" x2="332.4609" y1="34.9531" y2="34.9531"/><line style="stroke:#000000;stroke-width:1;" x1="332.4609" x2="392.7871" y1="34.9531" y2="34.9531"/><line style="stroke:#000000;stroke-width:1;" x1="6" x2="124.1113" y1="362.4688" y2="362.4688"/><line style="stroke:#000000;stroke-width:1;" x1="124.1113" x2="239.1113" y1="362.4688" y2="362.4688"/><line style="stroke:#000000;stroke-width:1;" x1="239.1113" x2="332.4609" y1="362.4688" y2="362.4688"/><line style="stroke:#000000;stroke-width:1;" x1="332.4609" x2="392.7871" y1="362.4688" y2="362.4688"/><line style="stroke:#000000;stroke-width:1;" x1="6" x2="6" y1="34.9531" y2="57.9063"/><line style="stroke:#000000;stroke-width:1;" x1="392.7871" x2="392.7871" y1="101.8438" y2="109.8438"/><line style="stroke:#000000;stroke-width:1;" x1="6" x2="6" y1="249.625" y2="257.625"/><line style="stroke:#000000;stroke-width:1;" x1="392.7871" x2="392.7871" y1="297.5625" y2="313.5313"/><line style="stroke:#000000;stroke-width:1;" x1="392.7871" x2="392.7871" y1="34.9531" y2="57.9063"/><line style="stroke:#000000;stroke-width:1;" x1="6" x2="6" y1="191.7188" y2="209.6875"/><line style="stroke:#000000;stroke-width:1;" x1="392.7871" x2="392.7871" y1="249.625" y2="257.625"/><line style="stroke:#000000;stroke-width:1;" x1="6" x2="6" y1="141.7813" y2="149.7813"/><line style="stroke:#000000;stroke-width:1;" x1="392.7871" x2="392.7871" y1="191.7188" y2="209.6875"/><line style="stroke:#000000;stroke-width:1;" x1="6" x2="6" y1="337.5" y2="362.4688"/><line style="stroke:#000000;stroke-width:1;" x1="6" x2="6" y1="83.875" y2="101.8438"/><line style="stroke:#000000;stroke-width:1;" x1="392.7871" x2="392.7871" y1="141.7813" y2="149.7813"/><line style="stroke:#000000;stroke-width:1;" x1="6" x2="6" y1="289.5625" y2="297.5625"/><line style="stroke:#000000;stroke-width:1;" x1="392.7871" x2="392.7871" y1="337.5" y2="362.4688"/><line style="stroke:#000000;stroke-width:1;" x1="392.7871" x2="392.7871" y1="83.875" y2="101.8438"/><line style="stroke:#000000;stroke-width:1;" x1="6" x2="6" y1="233.6563" y2="249.625"/><line style="stroke:#000000;stroke-width:1;" x1="392.7871" x2="392.7871" y1="289.5625" y2="297.5625"/><line style="stroke:#000000;stroke-width:1;" x1="6" x2="6" y1="173.75" y2="191.7188"/><line style="stroke:#000000;stroke-width:1;" x1="392.7871" x2="392.7871" y1="233.6563" y2="249.625"/><line style="stroke:#000000;stroke-width:1;" x1="6" x2="6" y1="125.8125" y2="141.7813"/><line style="stroke:#000000;stroke-width:1;" x1="392.7871" x2="392.7871" y1="173.75" y2="191.7188"/><line style="stroke:#000000;stroke-width:1;" x1="6" x2="6" y1="329.5" y2="337.5"/><line style="stroke:#000000;stroke-width:1;" x1="6" x2="6" y1="65.9063" y2="83.875"/><line style="stroke:#000000;stroke-width:1;" x1="392.7871" x2="392.7871" y1="125.8125" y2="141.7813"/><line style="stroke:#000000;stroke-width:1;" x1="6" x2="6" y1="273.5938" y2="289.5625"/><line style="stroke:#000000;stroke-width:1;" x1="392.7871" x2="392.7871" y1="329.5" y2="337.5"/><line style="stroke:#000000;stroke-width:1;" x1="392.7871" x2="392.7871" y1="65.9063" y2="83.875"/><line style="stroke:#000000;stroke-width:1;" x1="6" x2="6" y1="217.6875" y2="233.6563"/><line style="stroke:#000000;stroke-width:1;" x1="392.7871" x2="392.7871" y1="273.5938" y2="289.5625"/><line style="stroke:#000000;stroke-width:1;" x1="6" x2="6" y1="165.75" y2="173.75"/><line style="stroke:#000000;stroke-width:1;" x1="392.7871" x2="392.7871" y1="217.6875" y2="233.6563"/><line style="stroke:#000000;stroke-width:1;" x1="6" x2="6" y1="109.8438" y2="125.8125"/><line style="stroke:#000000;stroke-width:1;" x1="392.7871" x2="392.7871" y1="165.75" y2="173.75"/><line style="stroke:#000000;stroke-width:1;" x1="6" x2="6" y1="313.5313" y2="329.5"/><line style="stroke:#000000;stroke-width:1;" x1="6" x2="6" y1="57.9063" y2="65.9063"/><line style="stroke:#000000;stroke-width:1;" x1="392.7871" x2="392.7871" y1="109.8438" y2="125.8125"/><line style="stroke:#000000;stroke-width:1;" x1="6" x2="6" y1="257.625" y2="273.5938"/><line style="stroke:#000000;stroke-width:1;" x1="392.7871" x2="392.7871" y1="313.5313" y2="329.5"/><line style="stroke:#000000;stroke-width:1;" x1="392.7871" x2="392.7871" y1="57.9063" y2="65.9063"/><line style="stroke:#000000;stroke-width:1;" x1="6" x2="6" y1="209.6875" y2="217.6875"/><line style="stroke:#000000;stroke-width:1;" x1="392.7871" x2="392.7871" y1="257.625" y2="273.5938"/><line style="stroke:#000000;stroke-width:1;" x1="6" x2="6" y1="149.7813" y2="165.75"/><line style="stroke:#000000;stroke-width:1;" x1="392.7871" x2="392.7871" y1="209.6875" y2="217.6875"/><line style="stroke:#000000;stroke-width:1;" x1="6" x2="6" y1="101.8438" y2="109.8438"/><line style="stroke:#000000;stroke-width:1;" x1="392.7871" x2="392.7871" y1="149.7813" y2="165.75"/><line style="stroke:#000000;stroke-width:1;" x1="6" x2="6" y1="297.5625" y2="313.5313"/><rect fill="#FFFFFF" height="13.9688" style="stroke:#FFFFFF;stroke-width:1;" width="36.8438" x="12" y="27.9688"/><text fill="#000000" font-family="sans-serif" font-size="12" lengthAdjust="spacing" textLength="36.8438" x="12" y="39.1074">Filters</text><line style="stroke:#AAAAAA;stroke-width:1;" x1="6" x2="397" y1="380.9375" y2="380.9375"/><line style="stroke:#AAAAAA;stroke-width:1;" x1="6" x2="397" y1="382.9375" y2="382.9375"/><rect fill="#EEEEEE" height="17.9688" rx="5" ry="5" style="stroke:#000000;stroke-width:2.5;" width="140" x="9.5" y="403.9063"/><text fill="#000000" font-family="sans-serif" font-size="12" lengthAdjust="spacing" textLength="90.7324" x="34.1338" y="417.0449">Clear All Filters</text><rect fill="#EEEEEE" height="17.9688" rx="5" ry="5" style="stroke:#000000;stroke-width:2.5;" width="60" x="204.5" y="403.9063"/><text fill="#000000" font-family="sans-serif" font-size="12" lengthAdjust="spacing" textLength="36.8438" x="216.0781" y="417.0449">Filters</text><rect fill="#EEEEEE" height="17.9688" rx="5" ry="5" style="stroke:#000000;stroke-width:2.5;" width="188" x="9.5" y="428.875"/><text fill="#000000" font-family="sans-serif" font-size="12" lengthAdjust="spacing" textLength="144.6855" x="31.1572" y="442.0137">Car 1: Model X, &#8364;50/day</text><rect fill="#EEEEEE" height="17.9688" rx="5" ry="5" style="stroke:#000000;stroke-width:2.5;" width="188" x="204.5" y="428.875"/><text fill="#000000" font-family="sans-serif" font-size="12" lengthAdjust="spacing" textLength="143.7949" x="226.6025" y="442.0137">Car 2: Model Y, &#8364;40/day</text><rect fill="#EEEEEE" height="17.9688" rx="5" ry="5" style="stroke:#000000;stroke-width:2.5;" width="188" x="9.5" y="453.8438"/><text fill="#000000" font-family="sans-serif" font-size="12" lengthAdjust="spacing" textLength="144.6855" x="31.1572" y="466.9824">Car 3: Model Z, &#8364;60/day</text><rect fill="#EEEEEE" height="17.9688" rx="5" ry="5" style="stroke:#000000;stroke-width:2.5;" width="188" x="204.5" y="453.8438"/><text fill="#000000" font-family="sans-serif" font-size="12" lengthAdjust="spacing" textLength="144.6738" x="226.1631" y="466.9824">Car 4: Model A, &#8364;55/day</text><line style="stroke:#000000;stroke-width:1;" x1="6" x2="201" y1="393.4219" y2="393.4219"/><line style="stroke:#000000;stroke-width:1;" x1="201" x2="396" y1="393.4219" y2="393.4219"/><line style="stroke:#000000;stroke-width:1;" x1="6" x2="201" y1="475.3125" y2="475.3125"/><line style="stroke:#000000;stroke-width:1;" x1="201" x2="396" y1="475.3125" y2="475.3125"/><line style="stroke:#000000;stroke-width:1;" x1="6" x2="6" y1="393.4219" y2="425.375"/><line style="stroke:#000000;stroke-width:1;" x1="396" x2="396" y1="450.3438" y2="475.3125"/><line style="stroke:#000000;stroke-width:1;" x1="396" x2="396" y1="425.375" y2="450.3438"/><line style="stroke:#000000;stroke-width:1;" x1="396" x2="396" y1="393.4219" y2="425.375"/><line style="stroke:#000000;stroke-width:1;" x1="6" x2="6" y1="450.3438" y2="475.3125"/><line style="stroke:#000000;stroke-width:1;" x1="6" x2="6" y1="425.375" y2="450.3438"/><rect fill="#FFFFFF" height="13.9688" style="stroke:#FFFFFF;stroke-width:1;" width="43.8691" x="12" y="386.4375"/><text fill="#000000" font-family="sans-serif" font-size="12" lengthAdjust="spacing" textLength="43.8691" x="12" y="397.5762">Results</text><line style="stroke:#000000;stroke-width:1;" x1="5" x2="397" y1="11.9844" y2="11.9844"/><line style="stroke:#000000;stroke-width:1;" x1="5" x2="397" y1="490.2813" y2="490.2813"/><line style="stroke:#000000;stroke-width:1;" x1="5" x2="5" y1="11.9844" y2="26.9688"/><line style="stroke:#000000;stroke-width:1;" x1="397" x2="397" y1="26.9688" y2="377.4375"/><line style="stroke:#000000;stroke-width:1;" x1="397" x2="397" y1="11.9844" y2="26.9688"/><line style="stroke:#000000;stroke-width:1;" x1="5" x2="5" y1="385.4375" y2="490.2813"/><line style="stroke:#000000;stroke-width:1;" x1="5" x2="5" y1="377.4375" y2="385.4375"/><line style="stroke:#000000;stroke-width:1;" x1="397" x2="397" y1="385.4375" y2="490.2813"/><line style="stroke:#000000;stroke-width:1;" x1="5" x2="5" y1="26.9688" y2="377.4375"/><line style="stroke:#000000;stroke-width:1;" x1="397" x2="397" y1="377.4375" y2="385.4375"/><rect fill="#FFFFFF" height="13.9688" style="stroke:#FFFFFF;stroke-width:1;" width="74.6895" x="11" y="5"/><text fill="#000000" font-family="sans-serif" font-size="12" lengthAdjust="spacing" textLength="74.6895" x="11" y="16.1387">Browse Cars</text><!--SRC=[VLFXQjim4FwlfpZoAu7LSzAu34EXRjeCifY5D0dRGWUAhNMYicGaEPrPysVFiwVQa-nisMa28SQ8k_k- -tm-tTqOIxKrL5Zo-tldLgiNms14jUaG0C_30yDZBYnp8O2PvWc3EPLFBAm3dlVQlhKVS-b88Rn2vz-VlpxKZqkFwQzZjE_x_XwzliReuL57iHvOb3chdMuF7bXA9SALkLmvurwmnAAkyqQgQEYd5QCjvO9kkE2sFFqNOwsokiHzRGjrx9zMdgg4MguaTYZbXN4bGmy2UCwgsj3i-s_suC0EAlkCz49JQJ9k3Cg7U-6ei2h3JoQDIanbGSKPcJ6Zjj3CE8dr8qHSOyDaogkwkNn2AaP7Fxb8iTNKEd_6B3Q5CvcAyepwEifpKK8pCezLxfoPAhU986j7mD5njX0iX6rcQpqI3Eyw4k98u23LiP3J3o5MAHFmvHtW50N- -vIMDRj21otwjKQ73ZtClsmPtsh6rN7-i4KZfnwq-Jko8pVOWtfZo4nGQPVn5BPONdNfVM_W3mBlSiCi3RfB-IpLYuH4PJaN32pFM8zqFywcO5IXSOrIRd1eDqNL-HwPq2s5UI4hNWYVSoOdTv_Q0DpBBTTAPanQCbd5RuIhuSKjjtXL6ik0LKpks0-AJSMCHALueI4i5-EB3sIAIrjGt5jWak2AIAjBn1x-0m00]--></g></svg>