<svg xmlns="http://www.w3.org/2000/svg" xmlns:xlink="http://www.w3.org/1999/xlink" contentStyleType="text/css" data-diagram-type="SALT" height="634px" preserveAspectRatio="none" style="width:731px;height:634px;background:#FFFFFF;" version="1.1" viewBox="0 0 731 634" width="731px" zoomAndPan="magnify"><defs/><g><text fill="#000000" font-family="sans-serif" font-size="12" lengthAdjust="spacing" textLength="195.5039" x="10" y="18.1387">Car Details - Fiat Multipla (2005)</text><line style="stroke:#000000;stroke-width:1;" x1="8" x2="283" y1="20.9688" y2="20.9688"/><line style="stroke:#000000;stroke-width:1;" x1="8" x2="8" y1="17.9688" y2="19.9688"/><line style="stroke:#000000;stroke-width:1;" x1="283" x2="283" y1="17.9688" y2="19.9688"/><text fill="#000000" font-family="sans-serif" font-size="12" lengthAdjust="spacing" textLength="92.1855" x="13" y="39.1074">Vehicle Photos:</text><line style="stroke:#000000;stroke-width:1;" x1="11" x2="134" y1="41.9375" y2="41.9375"/><line style="stroke:#000000;stroke-width:1;" x1="11" x2="11" y1="38.9375" y2="40.9375"/><line style="stroke:#000000;stroke-width:1;" x1="134" x2="134" y1="38.9375" y2="40.9375"/><rect fill="#EEEEEE" height="17.9688" rx="5" ry="5" style="stroke:#000000;stroke-width:2.5;" width="220" x="12.5" y="48.4375"/><text fill="#000000" font-family="sans-serif" font-size="12" lengthAdjust="spacing" textLength="163.3945" x="40.8027" y="61.5762">Photo 1] [Photo 2] [Photo 3</text><line style="stroke:#AAAAAA;stroke-width:1;" x1="9" x2="722" y1="75.4063" y2="75.4063"/><text fill="#000000" font-family="sans-serif" font-size="12" lengthAdjust="spacing" textLength="121.377" x="13" y="92.0449">Vehicle Information:</text><line style="stroke:#000000;stroke-width:1;" x1="11" x2="174" y1="94.875" y2="94.875"/><line style="stroke:#000000;stroke-width:1;" x1="11" x2="11" y1="91.875" y2="93.875"/><line style="stroke:#000000;stroke-width:1;" x1="174" x2="174" y1="91.875" y2="93.875"/><text fill="#000000" font-family="sans-serif" font-size="12" lengthAdjust="spacing" textLength="40.0723" x="10" y="110.0137">Model:</text><text fill="#000000" font-family="sans-serif" font-size="12" lengthAdjust="spacing" textLength="73.7461" x="181" y="110.0137">Fiat Multipla</text><line style="stroke:#000000;stroke-width:1;" x1="179" x2="286" y1="112.8438" y2="112.8438"/><line style="stroke:#000000;stroke-width:1;" x1="179" x2="179" y1="109.8438" y2="111.8438"/><line style="stroke:#000000;stroke-width:1;" x1="286" x2="286" y1="109.8438" y2="111.8438"/><text fill="#000000" font-family="sans-serif" font-size="12" lengthAdjust="spacing" textLength="31.043" x="10" y="127.9824">Year:</text><text fill="#000000" font-family="sans-serif" font-size="12" lengthAdjust="spacing" textLength="30.5391" x="181" y="127.9824">2005</text><line style="stroke:#000000;stroke-width:1;" x1="179" x2="214" y1="130.8125" y2="130.8125"/><line style="stroke:#000000;stroke-width:1;" x1="179" x2="179" y1="127.8125" y2="129.8125"/><line style="stroke:#000000;stroke-width:1;" x1="214" x2="214" y1="127.8125" y2="129.8125"/><text fill="#000000" font-family="sans-serif" font-size="12" lengthAdjust="spacing" textLength="49.6582" x="10" y="145.9512">Seating:</text><text fill="#000000" font-family="sans-serif" font-size="12" lengthAdjust="spacing" textLength="80.0977" x="181" y="145.9512">6 passengers</text><line style="stroke:#000000;stroke-width:1;" x1="179" x2="278" y1="148.7813" y2="148.7813"/><line style="stroke:#000000;stroke-width:1;" x1="179" x2="179" y1="145.7813" y2="147.7813"/><line style="stroke:#000000;stroke-width:1;" x1="278" x2="278" y1="145.7813" y2="147.7813"/><text fill="#000000" font-family="sans-serif" font-size="12" lengthAdjust="spacing" textLength="29.2676" x="10" y="163.9199">Fuel:</text><text fill="#000000" font-family="sans-serif" font-size="12" lengthAdjust="spacing" textLength="36.9258" x="181" y="163.9199">Diesel</text><line style="stroke:#000000;stroke-width:1;" x1="179" x2="230" y1="166.75" y2="166.75"/><line style="stroke:#000000;stroke-width:1;" x1="179" x2="179" y1="163.75" y2="165.75"/><line style="stroke:#000000;stroke-width:1;" x1="230" x2="230" y1="163.75" y2="165.75"/><line style="stroke:#AAAAAA;stroke-width:1;" x1="9" x2="722" y1="175.25" y2="175.25"/><text fill="#000000" font-family="sans-serif" font-size="12" lengthAdjust="spacing" textLength="80.6074" x="13" y="191.8887">Rental Rates:</text><line style="stroke:#000000;stroke-width:1;" x1="11" x2="118" y1="194.7188" y2="194.7188"/><line style="stroke:#000000;stroke-width:1;" x1="11" x2="11" y1="191.7188" y2="193.7188"/><line style="stroke:#000000;stroke-width:1;" x1="118" x2="118" y1="191.7188" y2="193.7188"/><text fill="#000000" font-family="sans-serif" font-size="12" lengthAdjust="spacing" textLength="43.3828" x="10" y="209.8574">Hourly:</text><text fill="#000000" font-family="sans-serif" font-size="12" lengthAdjust="spacing" textLength="54.4336" x="125" y="209.8574">&#8364;15/hour</text><line style="stroke:#000000;stroke-width:1;" x1="123" x2="190" y1="212.6875" y2="212.6875"/><line style="stroke:#000000;stroke-width:1;" x1="123" x2="123" y1="209.6875" y2="211.6875"/><line style="stroke:#000000;stroke-width:1;" x1="190" x2="190" y1="209.6875" y2="211.6875"/><text fill="#000000" font-family="sans-serif" font-size="12" lengthAdjust="spacing" textLength="34.4063" x="10" y="227.8262">Daily:</text><text fill="#000000" font-family="sans-serif" font-size="12" lengthAdjust="spacing" textLength="49.0195" x="125" y="227.8262">&#8364;89/day</text><line style="stroke:#000000;stroke-width:1;" x1="123" x2="182" y1="230.6563" y2="230.6563"/><line style="stroke:#000000;stroke-width:1;" x1="123" x2="123" y1="227.6563" y2="229.6563"/><line style="stroke:#000000;stroke-width:1;" x1="182" x2="182" y1="227.6563" y2="229.6563"/><text fill="#000000" font-family="sans-serif" font-size="12" lengthAdjust="spacing" textLength="48.0586" x="10" y="245.7949">Weekly:</text><text fill="#000000" font-family="sans-serif" font-size="12" lengthAdjust="spacing" textLength="66.1113" x="125" y="245.7949">&#8364;500/week</text><line style="stroke:#000000;stroke-width:1;" x1="123" x2="198" y1="248.625" y2="248.625"/><line style="stroke:#000000;stroke-width:1;" x1="123" x2="123" y1="245.625" y2="247.625"/><line style="stroke:#000000;stroke-width:1;" x1="198" x2="198" y1="245.625" y2="247.625"/><line style="stroke:#AAAAAA;stroke-width:1;" x1="9" x2="722" y1="257.125" y2="257.125"/><text fill="#000000" font-family="sans-serif" font-size="12" lengthAdjust="spacing" textLength="127.9277" x="13" y="273.7637">Availability Calendar:</text><line style="stroke:#000000;stroke-width:1;" x1="11" x2="190" y1="276.5938" y2="276.5938"/><line style="stroke:#000000;stroke-width:1;" x1="11" x2="11" y1="273.5938" y2="275.5938"/><line style="stroke:#000000;stroke-width:1;" x1="190" x2="190" y1="273.5938" y2="275.5938"/><text fill="#000000" font-family="sans-serif" font-size="12" lengthAdjust="spacing" textLength="61.7813" x="13" y="291.7324">April 2025</text><line style="stroke:#000000;stroke-width:1;" x1="11" x2="94" y1="294.5625" y2="294.5625"/><line style="stroke:#000000;stroke-width:1;" x1="11" x2="11" y1="291.5625" y2="293.5625"/><line style="stroke:#000000;stroke-width:1;" x1="94" x2="94" y1="291.5625" y2="293.5625"/><text fill="#000000" font-family="sans-serif" font-size="12" lengthAdjust="spacing" textLength="131.7305" x="13" y="309.7012">Su Mo Tu We Th Fr Sa</text><line style="stroke:#000000;stroke-width:1;" x1="11" x2="174" y1="312.5313" y2="312.5313"/><line style="stroke:#000000;stroke-width:1;" x1="11" x2="11" y1="309.5313" y2="311.5313"/><line style="stroke:#000000;stroke-width:1;" x1="174" x2="174" y1="309.5313" y2="311.5313"/><text fill="#000000" font-family="sans-serif" font-size="12" lengthAdjust="spacing" textLength="91.6055" x="13" y="327.6699">01 02 03 04 05</text><line style="stroke:#000000;stroke-width:1;" x1="11" x2="182" y1="330.5" y2="330.5"/><line style="stroke:#000000;stroke-width:1;" x1="11" x2="11" y1="327.5" y2="329.5"/><line style="stroke:#000000;stroke-width:1;" x1="182" x2="182" y1="327.5" y2="329.5"/><text fill="#000000" font-family="sans-serif" font-size="12" lengthAdjust="spacing" textLength="129.7734" x="13" y="345.6387">06 07 08 09 10 11 12</text><line style="stroke:#000000;stroke-width:1;" x1="11" x2="174" y1="348.4688" y2="348.4688"/><line style="stroke:#000000;stroke-width:1;" x1="11" x2="11" y1="345.4688" y2="347.4688"/><line style="stroke:#000000;stroke-width:1;" x1="174" x2="174" y1="345.4688" y2="347.4688"/><line style="stroke:#AAAAAA;stroke-width:1;" x1="9" x2="722" y1="356.9688" y2="356.9688"/><text fill="#000000" font-family="sans-serif" font-size="12" lengthAdjust="spacing" textLength="98.1621" x="13" y="373.6074">Pickup Location:</text><line style="stroke:#000000;stroke-width:1;" x1="11" x2="142" y1="376.4375" y2="376.4375"/><line style="stroke:#000000;stroke-width:1;" x1="11" x2="11" y1="373.4375" y2="375.4375"/><line style="stroke:#000000;stroke-width:1;" x1="142" x2="142" y1="373.4375" y2="375.4375"/><text fill="#000000" font-family="sans-serif" font-size="12" lengthAdjust="spacing" textLength="162.7383" x="13" y="391.5762">123 Electric Avenue, Berlin</text><line style="stroke:#000000;stroke-width:1;" x1="11" x2="230" y1="394.4063" y2="394.4063"/><line style="stroke:#000000;stroke-width:1;" x1="11" x2="11" y1="391.4063" y2="393.4063"/><line style="stroke:#000000;stroke-width:1;" x1="230" x2="230" y1="391.4063" y2="393.4063"/><line style="stroke:#AAAAAA;stroke-width:1;" x1="9" x2="722" y1="402.9063" y2="402.9063"/><text fill="#000000" font-family="sans-serif" font-size="12" lengthAdjust="spacing" textLength="84.8262" x="13" y="419.5449">Owner Profile:</text><line style="stroke:#000000;stroke-width:1;" x1="11" x2="126" y1="422.375" y2="422.375"/><line style="stroke:#000000;stroke-width:1;" x1="11" x2="11" y1="419.375" y2="421.375"/><line style="stroke:#000000;stroke-width:1;" x1="126" x2="126" y1="419.375" y2="421.375"/><text fill="#000000" font-family="sans-serif" font-size="12" lengthAdjust="spacing" textLength="68.3555" x="13" y="437.5137">Mark Smith</text><line style="stroke:#000000;stroke-width:1;" x1="11" x2="94" y1="440.3438" y2="440.3438"/><line style="stroke:#000000;stroke-width:1;" x1="11" x2="11" y1="437.3438" y2="439.3438"/><line style="stroke:#000000;stroke-width:1;" x1="94" x2="94" y1="437.3438" y2="439.3438"/><text fill="#000000" font-family="sans-serif" font-size="12" lengthAdjust="spacing" textLength="97.7285" x="133" y="437.5137">&#9733;&#9733;&#9733;&#9733;&#9734; (4.8/5)</text><line style="stroke:#000000;stroke-width:1;" x1="131" x2="238" y1="440.3438" y2="440.3438"/><line style="stroke:#000000;stroke-width:1;" x1="131" x2="131" y1="437.3438" y2="439.3438"/><line style="stroke:#000000;stroke-width:1;" x1="238" x2="238" y1="437.3438" y2="439.3438"/><line style="stroke:#AAAAAA;stroke-width:1;" x1="9" x2="722" y1="448.8438" y2="448.8438"/><text fill="#000000" font-family="sans-serif" font-size="12" lengthAdjust="spacing" textLength="53.6484" x="13" y="465.4824">Reviews:</text><line style="stroke:#000000;stroke-width:1;" x1="11" x2="78" y1="468.3125" y2="468.3125"/><line style="stroke:#000000;stroke-width:1;" x1="11" x2="11" y1="465.3125" y2="467.3125"/><line style="stroke:#000000;stroke-width:1;" x1="78" x2="78" y1="465.3125" y2="467.3125"/><text fill="#000000" font-family="sans-serif" font-size="12" lengthAdjust="spacing" textLength="426.375" x="13" y="483.4512">Sarah K.: The best car I've ever driven. Spacious and good looking too.</text><line style="stroke:#000000;stroke-width:1;" x1="11" x2="582" y1="486.2813" y2="486.2813"/><line style="stroke:#000000;stroke-width:1;" x1="11" x2="11" y1="483.2813" y2="485.2813"/><line style="stroke:#000000;stroke-width:1;" x1="582" x2="582" y1="483.2813" y2="485.2813"/><text fill="#000000" font-family="sans-serif" font-size="12" lengthAdjust="spacing" textLength="285.0176" x="13" y="501.4199">John D.: Car was fantastic. Great fuel economy.</text><line style="stroke:#000000;stroke-width:1;" x1="11" x2="390" y1="504.25" y2="504.25"/><line style="stroke:#000000;stroke-width:1;" x1="11" x2="11" y1="501.25" y2="503.25"/><line style="stroke:#000000;stroke-width:1;" x1="390" x2="390" y1="501.25" y2="503.25"/><text fill="#000000" font-family="sans-serif" font-size="12" lengthAdjust="spacing" textLength="507.5215" x="13" y="519.3887">Evan B.: Great car. Wife didn't like it though, she said it attracts too much attention.</text><line style="stroke:#000000;stroke-width:1;" x1="11" x2="718" y1="522.2188" y2="522.2188"/><line style="stroke:#000000;stroke-width:1;" x1="11" x2="11" y1="519.2188" y2="521.2188"/><line style="stroke:#000000;stroke-width:1;" x1="718" x2="718" y1="519.2188" y2="521.2188"/><line style="stroke:#AAAAAA;stroke-width:1;" x1="9" x2="722" y1="530.7188" y2="530.7188"/><text fill="#000000" font-family="sans-serif" font-size="12" lengthAdjust="spacing" textLength="129.3984" x="13" y="547.3574">Terms &amp; Restrictions:</text><line style="stroke:#000000;stroke-width:1;" x1="11" x2="182" y1="550.1875" y2="550.1875"/><line style="stroke:#000000;stroke-width:1;" x1="11" x2="11" y1="547.1875" y2="549.1875"/><line style="stroke:#000000;stroke-width:1;" x1="182" x2="182" y1="547.1875" y2="549.1875"/><text fill="#000000" font-family="sans-serif" font-size="12" lengthAdjust="spacing" textLength="193.1133" x="13" y="565.3262">&#8226; No smoking allowed in vehicle</text><line style="stroke:#000000;stroke-width:1;" x1="11" x2="262" y1="568.1563" y2="568.1563"/><line style="stroke:#000000;stroke-width:1;" x1="11" x2="11" y1="565.1563" y2="567.1563"/><line style="stroke:#000000;stroke-width:1;" x1="262" x2="262" y1="565.1563" y2="567.1563"/><text fill="#000000" font-family="sans-serif" font-size="12" lengthAdjust="spacing" textLength="249.4395" x="13" y="583.2949">&#8226; Must be returned with at least 25% fuel</text><line style="stroke:#000000;stroke-width:1;" x1="11" x2="342" y1="586.125" y2="586.125"/><line style="stroke:#000000;stroke-width:1;" x1="11" x2="11" y1="583.125" y2="585.125"/><line style="stroke:#000000;stroke-width:1;" x1="342" x2="342" y1="583.125" y2="585.125"/><line style="stroke:#AAAAAA;stroke-width:1;" x1="9" x2="722" y1="594.625" y2="594.625"/><rect fill="#EEEEEE" height="17.9688" rx="5" ry="5" style="stroke:#000000;stroke-width:2.5;" width="68" x="12.5" y="602.625"/><text fill="#000000" font-family="sans-serif" font-size="12" lengthAdjust="spacing" textLength="59.8125" x="16.5938" y="615.7637">Book Now</text><rect fill="#EEEEEE" height="17.9688" rx="5" ry="5" style="stroke:#000000;stroke-width:2.5;" width="108" x="87.5" y="602.625"/><text fill="#000000" font-family="sans-serif" font-size="12" lengthAdjust="spacing" textLength="95.5898" x="93.7051" y="615.7637">Message Owner</text><rect fill="#EEEEEE" height="17.9688" rx="5" ry="5" style="stroke:#000000;stroke-width:2.5;" width="140" x="202.5" y="602.625"/><text fill="#000000" font-family="sans-serif" font-size="12" lengthAdjust="spacing" textLength="104.4375" x="220.2813" y="615.7637">Save to Favorites</text><rect fill="#EEEEEE" height="17.9688" rx="5" ry="5" style="stroke:#000000;stroke-width:2.5;" width="116" x="349.5" y="602.625"/><text fill="#000000" font-family="sans-serif" font-size="12" lengthAdjust="spacing" textLength="90.2988" x="362.3506" y="615.7637">Back to Search</text><line style="stroke:#000000;stroke-width:1;" x1="6" x2="724" y1="6" y2="6"/><line style="stroke:#000000;stroke-width:1;" x1="6" x2="724" y1="627.0938" y2="627.0938"/><line style="stroke:#000000;stroke-width:1;" x1="6" x2="6" y1="6" y2="23.9688"/><line style="stroke:#000000;stroke-width:1;" x1="724" x2="724" y1="23.9688" y2="627.0938"/><line style="stroke:#000000;stroke-width:1;" x1="724" x2="724" y1="6" y2="23.9688"/><line style="stroke:#000000;stroke-width:1;" x1="6" x2="6" y1="23.9688" y2="627.0938"/><!--SRC=[bLHTRzis57tNhpWGi3N1QaLsuYprK-iuRfl6gn4bAOOW3xHqRH6cI8EaP0HTWA50znlslEVzglwINIbDOYt0C0E2IDnxU7buxiThvuNrJYWVV0w0ppyXF1OM8_92AeSEnb9uJ4hbvKe9xFJYkByRCfAnpVzftTm1uHNbCbM4QMwySODmmtVTsD2zUTZr7dVxDu-ukyTTf_FVLxpNSsCBuQNHhNic9YCrm6y8Mw_OXFnAmZQ8-c6RZeGudbuqlaEiX7Ea5sJT9cPSVWy_akH8XLjGFoVjXSAvyDJMvfqfhRfjedxxydUtlvUpOHCmuiGy-ezUxMNYTjFzYMZvvE_7yTwQBTjGUrFn3M8cbVItE1QATCOQXIt8oag5NjnhIHOc9KkEYv99u2B7s29fYHr-N-CkuXxYVSG7QAiUneU8VqPyXFWLkZ6wNNHxsv2VodHPhd1cqkVb47Px-pXHb7ehKxofI9Vq4aEoIkfjxlYurcGnjMOk5RLlc0YxH598duTD1lxykl7zWPs3w6ZleN_-Rw5KajRj6WaJOKME3z60PIRCo7catBNlNrG4gfXSPYK_BqAo4gaqfOFG6HR6P536BBckuOs9MZ5FJQunuf1r_w-5mrnmYJelqmXlBNS3vbpkeDHeKzospvvKGcF8P- -1p2N29padP3BJBpoKN1AaX-TYNkGluPYr4pAhRS9xArBlQaOeoZIlBTmTdBre6w4ko1OEF-ASrU3yrkV_fTgtt__2BmQkk5T0A6NMn1mqglj1yWmzALdP6S6IBwrcx9epo_oWY9L1h_z38yeMDA-7h3-pMDzmVLnFo3cn83GLrLWImIdaEJWMbR6IXqDZ7OfqMLjvADaqVpuYxzVwVnVS1Q-vOvk97amLv_1oSiOFj8u5GJUgcpRQd_5yx-zSwgKsQutK52ikPNXPq6wmytPw1iTJ9wtpLuivAsirTuDJKGcSbxh63V1nHVfqzE71W1DTIMjqmRaBJgycJu33WywG4vsGhKlpQXACQ2vu5lE9r6JDaBsy67UEWZEX5oNhCG3fuDXmNCkJx3Bv1m00]--></g></svg>