<svg xmlns="http://www.w3.org/2000/svg" xmlns:xlink="http://www.w3.org/1999/xlink" contentStyleType="text/css" height="439px" preserveAspectRatio="none" style="width:2086px;height:439px;background:#FFFFFF;" version="1.1" viewBox="0 0 2086 439" width="2086px" zoomAndPan="magnify"><defs/><g><!--cluster Car sharing app--><g id="cluster_Car sharing app"><rect fill="none" height="301.91" rx="2.5" ry="2.5" style="stroke:#181818;stroke-width:1.0;" width="1877" x="203.7" y="131.56"/><text fill="#000000" font-family="sans-serif" font-size="14" font-weight="bold" lengthAdjust="spacing" textLength="109.8996" x="1087.2502" y="148.5259">Car sharing app</text></g><a href="https://github.com/bruzla/NSWI041/issues/12" target="_top" title="https://github.com/bruzla/NSWI041/issues/12" xlink:actuate="onRequest" xlink:href="https://github.com/bruzla/NSWI041/issues/12" xlink:show="new" xlink:title="https://github.com/bruzla/NSWI041/issues/12" xlink:type="simple"><g id="elem_vehicleListing"><ellipse cx="1711.6951" cy="201.195" fill="#F1F1F1" rx="75.4751" ry="17.495" style="stroke:#181818;stroke-width:0.5;"/><text fill="#000000" font-family="sans-serif" font-size="14" lengthAdjust="spacing" textLength="90.2856" x="1663.5522" y="205.928">Vehicle listing</text></g></a><a href="https://github.com/bruzla/NSWI041/issues/13" target="_top" title="https://github.com/bruzla/NSWI041/issues/13" xlink:actuate="onRequest" xlink:href="https://github.com/bruzla/NSWI041/issues/13" xlink:show="new" xlink:title="https://github.com/bruzla/NSWI041/issues/13" xlink:type="simple"><g id="elem_selectingCar"><ellipse cx="296.6995" cy="395.6479" fill="#F1F1F1" rx="77.1395" ry="17.8279" style="stroke:#181818;stroke-width:0.5;"/><text fill="#000000" font-family="sans-serif" font-size="14" lengthAdjust="spacing" textLength="95.2276" x="246.0857" y="400.3809">Selecting a car</text></g></a><a href="https://github.com/bruzla/NSWI041/issues/14" target="_top" title="https://github.com/bruzla/NSWI041/issues/14" xlink:actuate="onRequest" xlink:href="https://github.com/bruzla/NSWI041/issues/14" xlink:show="new" xlink:title="https://github.com/bruzla/NSWI041/issues/14" xlink:type="simple"><g id="elem_bookingSelectedCar"><ellipse cx="812.7013" cy="395.6523" fill="#F1F1F1" rx="97.1113" ry="21.8223" style="stroke:#181818;stroke-width:0.5;"/><text fill="#000000" font-family="sans-serif" font-size="14" lengthAdjust="spacing" textLength="147.9094" x="735.7466" y="400.3852">Booking a selected car</text></g></a><a href="https://github.com/bruzla/NSWI041/issues/15" target="_top" title="https://github.com/bruzla/NSWI041/issues/15" xlink:actuate="onRequest" xlink:href="https://github.com/bruzla/NSWI041/issues/15" xlink:show="new" xlink:title="https://github.com/bruzla/NSWI041/issues/15" xlink:type="simple"><g id="elem_carDetail"><ellipse cx="544.6999" cy="395.65" fill="#F1F1F1" rx="79.7499" ry="18.35" style="stroke:#181818;stroke-width:0.5;"/><text fill="#000000" font-family="sans-serif" font-size="14" lengthAdjust="spacing" textLength="102.7316" x="490.3341" y="400.3829">Car details view</text></g></a><a href="https://github.com/bruzla/NSWI041/issues/17" target="_top" title="https://github.com/bruzla/NSWI041/issues/17" xlink:actuate="onRequest" xlink:href="https://github.com/bruzla/NSWI041/issues/17" xlink:show="new" xlink:title="https://github.com/bruzla/NSWI041/issues/17" xlink:type="simple"><g id="elem_automaticInsurance"><ellipse cx="656.702" cy="201.2044" fill="#F1F1F1" rx="118.472" ry="26.0944" style="stroke:#181818;stroke-width:0.5;"/><text fill="#000000" font-family="sans-serif" font-size="14" lengthAdjust="spacing" textLength="197.9452" x="555.0461" y="205.8181">Automatic insurance inclusion</text></g></a><a href="https://github.com/bruzla/NSWI041/issues/16" target="_top" title="https://github.com/bruzla/NSWI041/issues/16" xlink:actuate="onRequest" xlink:href="https://github.com/bruzla/NSWI041/issues/16" xlink:show="new" xlink:title="https://github.com/bruzla/NSWI041/issues/16" xlink:type="simple"><g id="elem_borrowerReviews"><ellipse cx="1943.6998" cy="201.202" fill="#F1F1F1" rx="121.4598" ry="26.692" style="stroke:#181818;stroke-width:0.5;"/><text fill="#000000" font-family="sans-serif" font-size="14" lengthAdjust="spacing" textLength="204.6512" x="1839.3256" y="205.565">Reviews of a possible borrower</text></g></a><a href="https://github.com/bruzla/NSWI041/issues/18" target="_top" title="https://github.com/bruzla/NSWI041/issues/18" xlink:actuate="onRequest" xlink:href="https://github.com/bruzla/NSWI041/issues/18" xlink:show="new" xlink:title="https://github.com/bruzla/NSWI041/issues/18" xlink:type="simple"><g id="elem_lenderBorrowerCommunication"><ellipse cx="956.7017" cy="201.2003" fill="#F1F1F1" rx="146.1517" ry="31.6303" style="stroke:#181818;stroke-width:0.5;"/><text fill="#000000" font-family="sans-serif" font-size="14" lengthAdjust="spacing" textLength="257.963" x="827.7202" y="204.6323">Direct lender-borrower communication</text></g></a><a href="https://github.com/bruzla/NSWI041/issues/19" target="_top" title="https://github.com/bruzla/NSWI041/issues/19" xlink:actuate="onRequest" xlink:href="https://github.com/bruzla/NSWI041/issues/19" xlink:show="new" xlink:title="https://github.com/bruzla/NSWI041/issues/19" xlink:type="simple"><g id="elem_violationAlert"><ellipse cx="1252.7011" cy="201.2022" fill="#F1F1F1" rx="114.4111" ry="25.2822" style="stroke:#181818;stroke-width:0.5;"/><text fill="#000000" font-family="sans-serif" font-size="14" lengthAdjust="spacing" textLength="188.7053" x="1155.3485" y="205.9352">Violation Alert and Response</text></g></a><a href="https://github.com/bruzla/NSWI041/issues/20" target="_top" title="https://github.com/bruzla/NSWI041/issues/20" xlink:actuate="onRequest" xlink:href="https://github.com/bruzla/NSWI041/issues/20" xlink:show="new" xlink:title="https://github.com/bruzla/NSWI041/issues/20" xlink:type="simple"><g id="elem_newOffersNotification"><ellipse cx="361.7043" cy="201.2029" fill="#F1F1F1" rx="142.0143" ry="30.8029" style="stroke:#181818;stroke-width:0.5;"/><text fill="#000000" font-family="sans-serif" font-size="14" lengthAdjust="spacing" textLength="249.171" x="237.1188" y="204.6348">Notification of borrower of new offers</text></g></a><a href="https://github.com/bruzla/NSWI041/issues/22" target="_top" title="https://github.com/bruzla/NSWI041/issues/22" xlink:actuate="onRequest" xlink:href="https://github.com/bruzla/NSWI041/issues/22" xlink:show="new" xlink:title="https://github.com/bruzla/NSWI041/issues/22" xlink:type="simple"><g id="elem_defineCarUsageRules"><ellipse cx="1501.6964" cy="201.2013" fill="#F1F1F1" rx="99.3564" ry="22.2713" style="stroke:#181818;stroke-width:0.5;"/><text fill="#000000" font-family="sans-serif" font-size="14" lengthAdjust="spacing" textLength="153.3694" x="1422.0117" y="205.9342">Define Car Usage Rules</text></g></a><!--entity borrower--><g id="elem_borrower"><ellipse cx="215.6929" cy="14" fill="#F1F1F1" rx="8" ry="8" style="stroke:#181818;stroke-width:0.5;"/><path d="M215.6929,22 L215.6929,49 M202.6929,30 L228.6929,30 M215.6929,49 L202.6929,64 M215.6929,49 L228.6929,64 " fill="none" style="stroke:#181818;stroke-width:0.5;"/><text fill="#000000" font-family="sans-serif" font-size="14" lengthAdjust="spacing" textLength="62.2858" x="184.55" y="80.4659">Borrower</text></g><!--entity carOwner--><g id="elem_carOwner"><ellipse cx="1501.6939" cy="14" fill="#F1F1F1" rx="8" ry="8" style="stroke:#181818;stroke-width:0.5;"/><path d="M1501.6939,22 L1501.6939,49 M1488.6939,30 L1514.6939,30 M1501.6939,49 L1488.6939,64 M1501.6939,49 L1514.6939,64 " fill="none" style="stroke:#181818;stroke-width:0.5;"/><text fill="#000000" font-family="sans-serif" font-size="14" lengthAdjust="spacing" textLength="67.9277" x="1467.73" y="80.4659">Car owner</text></g><!--link borrower to selectingCar--><g id="link_borrower_selectingCar"><path d="M184.12,50.81 C149.26,57.96 94.77,75.09 69.7,114.56 C15.06,200.57 6,264.29 69.7,343.83 C89.04,367.98 160.6104,380.7346 219.7404,387.6346 " fill="none" id="borrower-to-selectingCar" style="stroke:#181818;stroke-width:1.0;"/><polygon fill="#181818" points="225.7,388.33,217.2243,383.3138,220.7337,387.7505,216.297,391.2599,225.7,388.33" style="stroke:#181818;stroke-width:1.0;"/></g><!--link borrower to bookingSelectedCar--><g id="link_borrower_bookingSelectedCar"><path d="M198.97,84.69 C184.06,125.79 169.17,190.56 201.7,232.83 C265.7,315.98 569.1289,364.4455 721.5389,384.0255 " fill="none" id="borrower-to-bookingSelectedCar" style="stroke:#181818;stroke-width:1.0;"/><polygon fill="#181818" points="727.49,384.79,719.0731,379.6758,722.5308,384.1529,718.0537,387.6106,727.49,384.79" style="stroke:#181818;stroke-width:1.0;"/></g><!--link borrower to automaticInsurance--><g id="link_borrower_automaticInsurance"><path d="M246.96,51.09 C303.32,60.83 425.08,84.73 521.7,123.56 C556.71,137.64 588.726,156.0378 615.156,172.7178 " fill="none" id="borrower-to-automaticInsurance" style="stroke:#181818;stroke-width:1.0;"/><polygon fill="#181818" points="620.23,175.92,614.7538,167.734,616.0016,173.2515,610.4841,174.4993,620.23,175.92" style="stroke:#181818;stroke-width:1.0;"/></g><!--link borrower to lenderBorrowerCommunication--><g id="link_borrower_lenderBorrowerCommunication"><path d="M247.03,46.92 C334.91,50.12 590.48,64.24 792.7,123.56 C831.9,135.06 868.2632,151.8694 899.7932,168.3594 " fill="none" id="borrower-to-lenderBorrowerCommunication" style="stroke:#181818;stroke-width:1.0;"/><polygon fill="#181818" points="905.11,171.14,898.9886,163.4245,900.6794,168.8228,895.2811,170.5136,905.11,171.14" style="stroke:#181818;stroke-width:1.0;"/></g><!--link borrower to carDetail--><g id="link_borrower_carDetail"><path d="M184.25,65.37 C167.97,77.31 149.66,94.23 140.7,114.56 C99.6,207.8 73.06,267.62 140.7,343.83 C177.99,385.84 335.98,366.7 391.7,373.83 C419.88,377.43 445.0157,380.8042 471.7557,384.4742 " fill="none" id="borrower-to-carDetail" style="stroke:#181818;stroke-width:1.0;"/><polygon fill="#181818" points="477.7,385.29,469.3275,380.1034,472.7464,384.6101,468.2397,388.0291,477.7,385.29" style="stroke:#181818;stroke-width:1.0;"/></g><!--link borrower to newOffersNotification--><g id="link_borrower_newOffersNotification"><path d="M247.02,79.1 C272.74,106.26 304.7246,140.0333 329.5146,166.2133 " fill="none" id="borrower-to-newOffersNotification" style="stroke:#181818;stroke-width:1.0;"/><polygon fill="#181818" points="333.64,170.57,330.3564,161.2846,330.2022,166.9394,324.5474,166.7852,333.64,170.57" style="stroke:#181818;stroke-width:1.0;"/></g><!--link bookingSelectedCar to carDetail--><g id="link_bookingSelectedCar_carDetail"><path d="M715.54,395.65 C685.73,395.65 659.28,395.65 630.74,395.65 " fill="none" id="bookingSelectedCar-to-carDetail" style="stroke:#181818;stroke-width:1.0;stroke-dasharray:7.0,7.0;"/><polygon fill="#181818" points="624.74,395.65,633.74,399.65,629.74,395.65,633.74,391.65,624.74,395.65" style="stroke:#181818;stroke-width:1.0;"/><text fill="#000000" font-family="sans-serif" font-size="13" lengthAdjust="spacing" textLength="55.497" x="642.52" y="388.547">&#171;extend&#187;</text></g><!--link carDetail to selectingCar--><g id="link_carDetail_selectingCar"><path d="M464.84,395.65 C435.78,395.65 409,395.65 380.15,395.65 " fill="none" id="carDetail-to-selectingCar" style="stroke:#181818;stroke-width:1.0;stroke-dasharray:7.0,7.0;"/><polygon fill="#181818" points="374.15,395.65,383.15,399.65,379.15,395.65,383.15,391.65,374.15,395.65" style="stroke:#181818;stroke-width:1.0;"/><text fill="#000000" font-family="sans-serif" font-size="13" lengthAdjust="spacing" textLength="55.497" x="391.89" y="388.547">&#171;extend&#187;</text></g><!--link automaticInsurance to bookingSelectedCar--><g id="link_automaticInsurance_bookingSelectedCar"><path d="M677.09,227.35 C708.23,265.77 763.2517,333.649 792.1017,369.239 " fill="none" id="automaticInsurance-to-bookingSelectedCar" style="stroke:#181818;stroke-width:1.0;stroke-dasharray:7.0,7.0;"/><polygon fill="#181818" points="795.88,373.9,793.3199,364.3897,792.7314,370.0159,787.1053,369.4274,795.88,373.9" style="stroke:#181818;stroke-width:1.0;"/><text fill="#000000" font-family="sans-serif" font-size="13" lengthAdjust="spacing" textLength="57.5771" x="747.36" y="308.727">&#171;include&#187;</text></g><!--link carOwner to vehicleListing--><g id="link_carOwner_vehicleListing"><path d="M1536.13,67.51 C1559.78,82.59 1591.67,103.56 1618.7,123.56 C1645.43,143.36 1670.2886,164.1989 1688.7386,180.1289 " fill="none" id="carOwner-to-vehicleListing" style="stroke:#181818;stroke-width:1.0;"/><polygon fill="#181818" points="1693.28,184.05,1689.0819,175.1407,1689.4955,180.7824,1683.8538,181.1959,1693.28,184.05" style="stroke:#181818;stroke-width:1.0;"/></g><!--link carOwner to lenderBorrowerCommunication--><g id="link_carOwner_lenderBorrowerCommunication"><path d="M1467.36,50.25 C1399.73,59.15 1245.05,82.5 1120.7,123.56 C1082.5,136.18 1046.8477,152.6194 1015.3977,168.6194 " fill="none" id="carOwner-to-lenderBorrowerCommunication" style="stroke:#181818;stroke-width:1.0;"/><polygon fill="#181818" points="1010.05,171.34,1019.8853,170.8242,1014.5064,169.0728,1016.2578,163.6939,1010.05,171.34" style="stroke:#181818;stroke-width:1.0;"/></g><!--link carOwner to borrowerReviews--><g id="link_carOwner_borrowerReviews"><path d="M1535.75,51.82 C1592.76,62.16 1710.55,86.27 1804.7,123.56 C1840.18,137.62 1872.8254,155.7793 1900.0354,172.3493 " fill="none" id="carOwner-to-borrowerReviews" style="stroke:#181818;stroke-width:1.0;"/><polygon fill="#181818" points="1905.16,175.47,1899.5536,167.3726,1900.8895,172.8694,1895.3927,174.2053,1905.16,175.47" style="stroke:#181818;stroke-width:1.0;"/></g><!--link carOwner to defineCarUsageRules--><g id="link_carOwner_defineCarUsageRules"><path d="M1501.7,84.93 C1501.7,114.55 1501.7,148.22 1501.7,172.45 " fill="none" id="carOwner-to-defineCarUsageRules" style="stroke:#181818;stroke-width:1.0;"/><polygon fill="#181818" points="1501.7,178.45,1505.7,169.45,1501.7,173.45,1497.7,169.45,1501.7,178.45" style="stroke:#181818;stroke-width:1.0;"/></g><!--link carOwner to violationAlert--><g id="link_carOwner_violationAlert"><path d="M1467.34,67.3 C1420.91,96.05 1343.5415,143.9517 1295.4715,173.7117 " fill="none" id="carOwner-to-violationAlert" style="stroke:#181818;stroke-width:1.0;"/><polygon fill="#181818" points="1290.37,176.87,1300.1278,175.5335,1294.6212,174.2381,1295.9167,168.7315,1290.37,176.87" style="stroke:#181818;stroke-width:1.0;"/></g><!--SRC=[bLLDJ-Cm4BtdLuou08Ucb6yGGk9Z3qW8f5Ri7X07DvacrgPsv76sowxuxpksuow62Ycz99vvVi_pCfvkDxYmO3KOMTKMIccmi5AhR1jkSI4LWgqHH66reSm_u5eRerTeG13C-_SinTChMLnojbEbCA-P8nMgQX2sReG1geMHgWBHjblmbxS-tOmc6V1lvplMic1S8yaoPDU9_0gn-n22v-VQsfREn-DAshgRvuLUZkUc-zE8ySFinztUuMGiYJgayMJ_vINGxmVw6JQkFgSDXJ2UdcBC7Mq8-K4aFmZarrh_3DI14ikrnZoaPdrygD9XL3eCIcv_YLR8XjsHkF8Qh7NhOuEeZoBrSQ2-wgnU2YiBa8ew8rI1_5Oq7N5NU1qH4NThm131aoXu50Idw2eWq0ishjL4SixVFpRMxlikYz0XSiTHxYJ8tVeEXmPLYMOKcO4PbfsIXR2np828pNxpFZ_e0AVn0ATzXqlT19Qh1eq5eKgO8hLQ4OPsZu2G7w9r5hNEWjQ3jd8H3yq6hylbTuKhVYpGa5VbvQDV9Ni6YE_lHV79Nczr60YkMPz8L0ZJhi6WLleKPtp2nmTfkNlzveRE58DNLCkMOA6T58-ZTQ6ZqMLomTFCvskPvZ-tUfh_eaTIuFfkfk6DfhkoJ2mBvcXNY0ewGcOXf6p3BCdVAS0vN5pWRyj7kxpC_eVpr8WKjk5Evtc-oI2_pm-44dbZ_v_WnxfUAJHR_IXwT8kD7-YgN4gLHOZt8PtmQUuhZnFWXocH9ZSqt8SZ9BSkSn_XctU7_0sz2nKJxEZMeKIpcsqdVkOVos2dWh_4P3ltkf8yM1Z54wzYX9jjvz0xIVy0]--></g></svg>