<svg xmlns="http://www.w3.org/2000/svg" xmlns:xlink="http://www.w3.org/1999/xlink" contentStyleType="text/css" height="843px" preserveAspectRatio="none" style="width:764px;height:843px;background:#FFFFFF;" version="1.1" viewBox="0 0 764 843" width="764px" zoomAndPan="magnify"><defs/><g><!--cluster Car sharing app--><g id="cluster_Car sharing app"><rect fill="none" height="625" rx="2.5" ry="2.5" style="stroke:#181818;stroke-width:1.0;" width="637.52" x="120.93" y="212.72"/><text fill="#000000" font-family="sans-serif" font-size="14" font-weight="bold" lengthAdjust="spacing" textLength="109.8996" x="384.7402" y="229.6859">Car sharing app</text></g><a href="https://github.com/bruzla/NSWI041/issues/12" target="_top" title="https://github.com/bruzla/NSWI041/issues/12" xlink:actuate="onRequest" xlink:href="https://github.com/bruzla/NSWI041/issues/12" xlink:show="new" xlink:title="https://github.com/bruzla/NSWI041/issues/12" xlink:type="simple"><g id="elem_vehicleListing"><ellipse cx="283.0751" cy="804.715" fill="#F1F1F1" rx="75.4751" ry="17.495" style="stroke:#181818;stroke-width:0.5;"/><text fill="#000000" font-family="sans-serif" font-size="14" lengthAdjust="spacing" textLength="90.2856" x="234.9322" y="809.448">Vehicle listing</text></g></a><a href="https://github.com/bruzla/NSWI041/issues/13" target="_top" title="https://github.com/bruzla/NSWI041/issues/13" xlink:actuate="onRequest" xlink:href="https://github.com/bruzla/NSWI041/issues/13" xlink:show="new" xlink:title="https://github.com/bruzla/NSWI041/issues/13" xlink:type="simple"><g id="elem_selectingCar"><ellipse cx="645.3395" cy="268.7179" fill="#F1F1F1" rx="77.1395" ry="17.8279" style="stroke:#181818;stroke-width:0.5;"/><text fill="#000000" font-family="sans-serif" font-size="14" lengthAdjust="spacing" textLength="95.2276" x="594.7257" y="273.4509">Selecting a car</text></g></a><a href="https://github.com/bruzla/NSWI041/issues/14" target="_top" title="https://github.com/bruzla/NSWI041/issues/14" xlink:actuate="onRequest" xlink:href="https://github.com/bruzla/NSWI041/issues/14" xlink:show="new" xlink:title="https://github.com/bruzla/NSWI041/issues/14" xlink:type="simple"><g id="elem_bookingSelectedCar"><ellipse cx="645.3413" cy="452.7223" fill="#F1F1F1" rx="97.1113" ry="21.8223" style="stroke:#181818;stroke-width:0.5;"/><text fill="#000000" font-family="sans-serif" font-size="14" lengthAdjust="spacing" textLength="147.9094" x="568.3866" y="457.4552">Booking a selected car</text></g></a><a href="https://github.com/bruzla/NSWI041/issues/15" target="_top" title="https://github.com/bruzla/NSWI041/issues/15" xlink:actuate="onRequest" xlink:href="https://github.com/bruzla/NSWI041/issues/15" xlink:show="new" xlink:title="https://github.com/bruzla/NSWI041/issues/15" xlink:type="simple"><g id="elem_carDetail"><ellipse cx="645.3399" cy="358.72" fill="#F1F1F1" rx="79.7499" ry="18.35" style="stroke:#181818;stroke-width:0.5;"/><text fill="#000000" font-family="sans-serif" font-size="14" lengthAdjust="spacing" textLength="102.7316" x="590.9741" y="363.4529">Car details view</text></g></a><a href="https://github.com/bruzla/NSWI041/issues/17" target="_top" title="https://github.com/bruzla/NSWI041/issues/17" xlink:actuate="onRequest" xlink:href="https://github.com/bruzla/NSWI041/issues/17" xlink:show="new" xlink:title="https://github.com/bruzla/NSWI041/issues/17" xlink:type="simple"><g id="elem_automaticInsurance"><ellipse cx="283.082" cy="373.7244" fill="#F1F1F1" rx="118.472" ry="26.0944" style="stroke:#181818;stroke-width:0.5;"/><text fill="#000000" font-family="sans-serif" font-size="14" lengthAdjust="spacing" textLength="197.9452" x="181.4261" y="378.3381">Automatic insurance inclusion</text></g></a><a href="https://github.com/bruzla/NSWI041/issues/16" target="_top" title="https://github.com/bruzla/NSWI041/issues/16" xlink:actuate="onRequest" xlink:href="https://github.com/bruzla/NSWI041/issues/16" xlink:show="new" xlink:title="https://github.com/bruzla/NSWI041/issues/16" xlink:type="simple"><g id="elem_borrowerReviews"><ellipse cx="283.0798" cy="559.722" fill="#F1F1F1" rx="121.4598" ry="26.692" style="stroke:#181818;stroke-width:0.5;"/><text fill="#000000" font-family="sans-serif" font-size="14" lengthAdjust="spacing" textLength="204.6512" x="178.7056" y="564.085">Reviews of a possible borrower</text></g></a><a href="https://github.com/bruzla/NSWI041/issues/18" target="_top" title="https://github.com/bruzla/NSWI041/issues/18" xlink:actuate="onRequest" xlink:href="https://github.com/bruzla/NSWI041/issues/18" xlink:show="new" xlink:title="https://github.com/bruzla/NSWI041/issues/18" xlink:type="simple"><g id="elem_lenderBorrowerCommunication"><ellipse cx="283.0817" cy="466.7203" fill="#F1F1F1" rx="146.1517" ry="31.6303" style="stroke:#181818;stroke-width:0.5;"/><text fill="#000000" font-family="sans-serif" font-size="14" lengthAdjust="spacing" textLength="257.963" x="154.1002" y="470.1523">Direct lender-borrower communication</text></g></a><a href="https://github.com/bruzla/NSWI041/issues/19" target="_top" title="https://github.com/bruzla/NSWI041/issues/19" xlink:actuate="onRequest" xlink:href="https://github.com/bruzla/NSWI041/issues/19" xlink:show="new" xlink:title="https://github.com/bruzla/NSWI041/issues/19" xlink:type="simple"><g id="elem_violationAlert"><ellipse cx="283.0811" cy="646.7222" fill="#F1F1F1" rx="114.4111" ry="25.2822" style="stroke:#181818;stroke-width:0.5;"/><text fill="#000000" font-family="sans-serif" font-size="14" lengthAdjust="spacing" textLength="188.7053" x="185.7285" y="651.4552">Violation Alert and Response</text></g></a><a href="https://github.com/bruzla/NSWI041/issues/20" target="_top" title="https://github.com/bruzla/NSWI041/issues/20" xlink:actuate="onRequest" xlink:href="https://github.com/bruzla/NSWI041/issues/20" xlink:show="new" xlink:title="https://github.com/bruzla/NSWI041/issues/20" xlink:type="simple"><g id="elem_newOffersNotification"><ellipse cx="283.0843" cy="281.7229" fill="#F1F1F1" rx="142.0143" ry="30.8029" style="stroke:#181818;stroke-width:0.5;"/><text fill="#000000" font-family="sans-serif" font-size="14" lengthAdjust="spacing" textLength="249.171" x="158.4988" y="285.1548">Notification of borrower of new offers</text></g></a><a href="https://github.com/bruzla/NSWI041/issues/22" target="_top" title="https://github.com/bruzla/NSWI041/issues/22" xlink:actuate="onRequest" xlink:href="https://github.com/bruzla/NSWI041/issues/22" xlink:show="new" xlink:title="https://github.com/bruzla/NSWI041/issues/22" xlink:type="simple"><g id="elem_defineCarUsageRules"><ellipse cx="283.0764" cy="729.7213" fill="#F1F1F1" rx="99.3564" ry="22.2713" style="stroke:#181818;stroke-width:0.5;"/><text fill="#000000" font-family="sans-serif" font-size="14" lengthAdjust="spacing" textLength="153.3694" x="203.3917" y="734.4542">Define Car Usage Rules</text></g></a><!--entity borrower--><g id="elem_borrower"><ellipse cx="39.9629" cy="187.69" fill="#F1F1F1" rx="8" ry="8" style="stroke:#181818;stroke-width:0.5;"/><path d="M39.9629,195.69 L39.9629,222.69 M26.9629,203.69 L52.9629,203.69 M39.9629,222.69 L26.9629,237.69 M39.9629,222.69 L52.9629,237.69 " fill="none" style="stroke:#181818;stroke-width:0.5;"/><text fill="#000000" font-family="sans-serif" font-size="14" lengthAdjust="spacing" textLength="62.2858" x="8.82" y="254.1559">Borrower</text></g><!--entity carOwner--><g id="elem_carOwner"><ellipse cx="39.9639" cy="615.69" fill="#F1F1F1" rx="8" ry="8" style="stroke:#181818;stroke-width:0.5;"/><path d="M39.9639,623.69 L39.9639,650.69 M26.9639,631.69 L52.9639,631.69 M39.9639,650.69 L26.9639,665.69 M39.9639,650.69 L52.9639,665.69 " fill="none" style="stroke:#181818;stroke-width:0.5;"/><text fill="#000000" font-family="sans-serif" font-size="14" lengthAdjust="spacing" textLength="67.9277" x="6" y="682.1559">Car owner</text></g><!--link borrower to selectingCar--><g id="link_borrower_selectingCar"><path d="M50.67,178.87 C59.6,151.65 75.85,117.56 103.93,100.72 C261.83,6 353.52,18.41 518.23,100.72 C582.17,132.67 619.8194,208.6428 635.0294,245.0928 " fill="none" id="borrower-to-selectingCar" style="stroke:#181818;stroke-width:1.0;"/><polygon fill="#181818" points="637.34,250.63,637.5656,240.7837,635.4145,246.0156,630.1826,243.8645,637.34,250.63" style="stroke:#181818;stroke-width:1.0;"/></g><!--link borrower to bookingSelectedCar--><g id="link_borrower_bookingSelectedCar"><path d="M71.47,211.47 C140.14,196.85 310.11,170.38 429.23,233.72 C507.79,275.5 482.44,334.81 548.23,394.72 C564.66,409.68 580.2552,419.9239 598.3452,429.8939 " fill="none" id="borrower-to-bookingSelectedCar" style="stroke:#181818;stroke-width:1.0;"/><polygon fill="#181818" points="603.6,432.79,597.6486,424.9427,599.221,430.3766,593.7871,431.9491,603.6,432.79" style="stroke:#181818;stroke-width:1.0;"/></g><!--link borrower to automaticInsurance--><g id="link_borrower_automaticInsurance"><path d="M57.68,258.59 C69.7,282.58 88.16,311.85 112.93,329.72 C132.86,344.1 151.3224,352.2078 175.1724,358.7278 " fill="none" id="borrower-to-automaticInsurance" style="stroke:#181818;stroke-width:1.0;"/><polygon fill="#181818" points="180.96,360.31,173.3334,354.0783,176.137,358.9915,171.2238,361.7951,180.96,360.31" style="stroke:#181818;stroke-width:1.0;"/></g><!--link borrower to lenderBorrowerCommunication--><g id="link_borrower_lenderBorrowerCommunication"><path d="M44.72,258.54 C51.07,303.44 68.02,375.64 112.93,417.72 C127.32,431.2 139.5827,438.865 158.2827,445.985 " fill="none" id="borrower-to-lenderBorrowerCommunication" style="stroke:#181818;stroke-width:1.0;"/><polygon fill="#181818" points="163.89,448.12,156.9024,441.1793,159.2172,446.3409,154.0557,448.6557,163.89,448.12" style="stroke:#181818;stroke-width:1.0;"/></g><!--link borrower to carDetail--><g id="link_borrower_carDetail"><path d="M71.36,189.94 C81.04,182.55 92.28,175.59 103.93,171.72 C278.68,113.69 374.32,56.85 518.23,171.72 C565.25,209.25 512.43,255.37 548.23,303.72 C561.39,321.49 576.6871,331.8437 595.5271,340.6737 " fill="none" id="borrower-to-carDetail" style="stroke:#181818;stroke-width:1.0;"/><polygon fill="#181818" points="600.96,343.22,594.5082,335.7786,596.4326,341.0981,591.1131,343.0225,600.96,343.22" style="stroke:#181818;stroke-width:1.0;"/></g><!--link borrower to newOffersNotification--><g id="link_borrower_newOffersNotification"><path d="M71.5,226.7 C101.47,234.53 142.8745,245.3546 185.0145,256.3546 " fill="none" id="borrower-to-newOffersNotification" style="stroke:#181818;stroke-width:1.0;"/><polygon fill="#181818" points="190.82,257.87,183.1221,251.7265,185.9821,256.6071,181.1015,259.4672,190.82,257.87" style="stroke:#181818;stroke-width:1.0;"/></g><!--reverse link carDetail to bookingSelectedCar--><g id="link_carDetail_bookingSelectedCar"><path d="M645.34,383.36 C645.34,398.62 645.34,414.26 645.34,430.44 " fill="none" id="carDetail-backto-bookingSelectedCar" style="stroke:#181818;stroke-width:1.0;stroke-dasharray:7.0,7.0;"/><polygon fill="#181818" points="645.34,377.36,641.34,386.36,645.34,382.36,649.34,386.36,645.34,377.36" style="stroke:#181818;stroke-width:1.0;"/><text fill="#000000" font-family="sans-serif" font-size="13" lengthAdjust="spacing" textLength="55.497" x="605.34" y="409.377">&#171;extend&#187;</text></g><!--link carDetail to selectingCar--><g id="link_carDetail_selectingCar"><path d="M645.34,340.07 C645.34,324.52 645.34,308.49 645.34,293.04 " fill="none" id="carDetail-to-selectingCar" style="stroke:#181818;stroke-width:1.0;stroke-dasharray:7.0,7.0;"/><polygon fill="#181818" points="645.34,287.04,641.34,296.04,645.34,292.04,649.34,296.04,645.34,287.04" style="stroke:#181818;stroke-width:1.0;"/><text fill="#000000" font-family="sans-serif" font-size="13" lengthAdjust="spacing" textLength="55.497" x="605.34" y="318.857">&#171;extend&#187;</text></g><!--link automaticInsurance to bookingSelectedCar--><g id="link_automaticInsurance_bookingSelectedCar"><path d="M368.09,392.14 C430.78,405.89 509.5693,423.1648 568.5793,436.1048 " fill="none" id="automaticInsurance-to-bookingSelectedCar" style="stroke:#181818;stroke-width:1.0;stroke-dasharray:7.0,7.0;"/><polygon fill="#181818" points="574.44,437.39,566.5057,431.5551,569.556,436.319,564.7921,439.3694,574.44,437.39" style="stroke:#181818;stroke-width:1.0;"/><text fill="#000000" font-family="sans-serif" font-size="13" lengthAdjust="spacing" textLength="57.5771" x="460.23" y="409.117">&#171;include&#187;</text></g><!--link carOwner to vehicleListing--><g id="link_carOwner_vehicleListing"><path d="M54.33,686.57 C65.64,714.13 84.59,749.37 112.93,769.72 C140.33,789.4 170.3688,797.7766 202.0988,801.8466 " fill="none" id="carOwner-to-vehicleListing" style="stroke:#181818;stroke-width:1.0;"/><polygon fill="#181818" points="208.05,802.61,199.632,797.4975,203.0906,801.9739,198.6142,805.4324,208.05,802.61" style="stroke:#181818;stroke-width:1.0;"/></g><!--link carOwner to lenderBorrowerCommunication--><g id="link_carOwner_lenderBorrowerCommunication"><path d="M53.49,606.85 C64.64,577.61 83.76,539.08 112.93,515.72 C128.92,502.92 142.467,495.4709 162.117,488.4809 " fill="none" id="carOwner-to-lenderBorrowerCommunication" style="stroke:#181818;stroke-width:1.0;"/><polygon fill="#181818" points="167.77,486.47,157.9499,485.7177,163.0592,488.1458,160.6311,493.255,167.77,486.47" style="stroke:#181818;stroke-width:1.0;"/></g><!--link carOwner to borrowerReviews--><g id="link_carOwner_borrowerReviews"><path d="M74.33,624.1 C86.14,616.82 99.77,609.23 112.93,603.72 C138.12,593.17 160.6857,586.0813 186.9057,579.4013 " fill="none" id="carOwner-to-borrowerReviews" style="stroke:#181818;stroke-width:1.0;"/><polygon fill="#181818" points="192.72,577.92,183.0111,576.2657,187.8748,579.1544,184.9861,584.0181,192.72,577.92" style="stroke:#181818;stroke-width:1.0;"/></g><!--link carOwner to defineCarUsageRules--><g id="link_carOwner_defineCarUsageRules"><path d="M74.26,669.51 C86.07,676.8 99.71,684.36 112.93,689.72 C141.45,701.29 168.2364,708.718 197.1864,714.998 " fill="none" id="carOwner-to-defineCarUsageRules" style="stroke:#181818;stroke-width:1.0;"/><polygon fill="#181818" points="203.05,716.27,195.1025,710.453,198.1636,715.21,193.4066,718.2711,203.05,716.27" style="stroke:#181818;stroke-width:1.0;"/></g><!--link carOwner to violationAlert--><g id="link_carOwner_violationAlert"><path d="M74.24,646.72 C98.85,646.72 127.92,646.72 162.26,646.72 " fill="none" id="carOwner-to-violationAlert" style="stroke:#181818;stroke-width:1.0;"/><polygon fill="#181818" points="168.26,646.72,159.26,642.72,163.26,646.72,159.26,650.72,168.26,646.72" style="stroke:#181818;stroke-width:1.0;"/></g><!--SRC=[bLLDJ-Cm4BtdLuou08Ucb6yGGk9Z3qW8f5Ri7X07DvacrgPsv76sowxuxpksuow62Ycz99vvVi_pCfuskB1WDHXPrHPAQR2mKgji6svn8HM2hH54ORMXp3_WMXkZLsX04Cpxzop5qojPN7AsKwKmhvaZ5Qfg4BPkX06gXP6g0j6sM_2NjpxTZ2OPy6_dEzQoO5mZoJ9arudy2h7x48BdvzhQbix7uqhQkfldXLwEvwRxquZnm-p7tTxXP2o9EgJnPF_b9T3l1_ePDgu-fms5C9wUOimTRGZvGIG_2EJNMlyCr84IoxN6FAHcVNoeqc5KEWnARd-9LiY6tP6uyXgiTUjZWwYF8lLneBxgh5uAAmkGYZeZL87yLZGTSLTu7H4HTsl04C6JA7WK1AVeAY3G2pQkrKHopjy_DjRk-owBq25onr7k9CZT-Ww71bM9PXIPWHcMdPA5iB7CW8ZDVlC-F-W0f_40fts7Izq4bgi6ZGMXIfWYjLeHXdQFW90VedKMjSw2reEsSX4FpGQlo-LtXIj-BD2GL-NberybUmQ8x-z5ySbURtKO2AvPdqXK2DEkmQ1M-XHdVCB71scvU_tcXiuKWrTKovPWePqKZwDreQFHPNB1qypdQvdcFxTwcl-YHrBW-cwcuOsckx9CB0lcQ5U82Zf2PY6aRCCioHkUulax6JY7YmlyRVbybvVP_t2Ukf72DbpiFDzaaj_cXqA9lA__N_2ZNQyKcgr-73swnSQFT5KkfSeYn7kHJlaqzvNF2V33f4YJ6vhkmn6IcvUv3_7DcqF-bjw5YWbsTEjGejdDjXCxyuzbi5F1NcAodNjTIHukZEAfLp72pRTpw9saVm00]--></g></svg>