<svg xmlns="http://www.w3.org/2000/svg" xmlns:xlink="http://www.w3.org/1999/xlink" contentStyleType="text/css" height="622px" preserveAspectRatio="none" style="width:1394px;height:622px;background:#FFFFFF;" version="1.1" viewBox="0 0 1394 622" width="1394px" zoomAndPan="magnify"><defs/><g><!--cluster Car sharing app--><g id="cluster_Car sharing app"><rect fill="none" height="609" rx="2.5" ry="2.5" style="stroke:#181818;stroke-width:1.0;" width="1267.97" x="120.93" y="7"/><text fill="#000000" font-family="sans-serif" font-size="14" font-weight="bold" lengthAdjust="spacing" textLength="109.8996" x="699.9652" y="23.9659">Car sharing app</text></g><a href="https://github.com/bruzla/NSWI041/issues/12" target="_top" title="https://github.com/bruzla/NSWI041/issues/12" xlink:actuate="onRequest" xlink:href="https://github.com/bruzla/NSWI041/issues/12" xlink:show="new" xlink:title="https://github.com/bruzla/NSWI041/issues/12" xlink:type="simple"><g id="elem_vehicleListing"><ellipse cx="283.0751" cy="493.995" fill="#F1F1F1" rx="75.4751" ry="17.495" style="stroke:#181818;stroke-width:0.5;"/><text fill="#000000" font-family="sans-serif" font-size="14" lengthAdjust="spacing" textLength="90.2856" x="234.9322" y="498.728">Vehicle listing</text></g></a><a href="https://github.com/bruzla/NSWI041/issues/13" target="_top" title="https://github.com/bruzla/NSWI041/issues/13" xlink:actuate="onRequest" xlink:href="https://github.com/bruzla/NSWI041/issues/13" xlink:show="new" xlink:title="https://github.com/bruzla/NSWI041/issues/13" xlink:type="simple"><g id="elem_selectingCar"><ellipse cx="283.0795" cy="62.9979" fill="#F1F1F1" rx="77.1395" ry="17.8279" style="stroke:#181818;stroke-width:0.5;"/><text fill="#000000" font-family="sans-serif" font-size="14" lengthAdjust="spacing" textLength="95.2276" x="232.4657" y="67.7309">Selecting a car</text></g></a><a href="https://github.com/bruzla/NSWI041/issues/14" target="_top" title="https://github.com/bruzla/NSWI041/issues/14" xlink:actuate="onRequest" xlink:href="https://github.com/bruzla/NSWI041/issues/14" xlink:show="new" xlink:title="https://github.com/bruzla/NSWI041/issues/14" xlink:type="simple"><g id="elem_bookingSelectedCar"><ellipse cx="919.8413" cy="106.0023" fill="#F1F1F1" rx="97.1113" ry="21.8223" style="stroke:#181818;stroke-width:0.5;"/><text fill="#000000" font-family="sans-serif" font-size="14" lengthAdjust="spacing" textLength="147.9094" x="842.8866" y="110.7352">Booking a selected car</text></g></a><a href="https://github.com/bruzla/NSWI041/issues/15" target="_top" title="https://github.com/bruzla/NSWI041/issues/15" xlink:actuate="onRequest" xlink:href="https://github.com/bruzla/NSWI041/issues/15" xlink:show="new" xlink:title="https://github.com/bruzla/NSWI041/issues/15" xlink:type="simple"><g id="elem_carDetail"><ellipse cx="625.9799" cy="106" fill="#F1F1F1" rx="79.7499" ry="18.35" style="stroke:#181818;stroke-width:0.5;"/><text fill="#000000" font-family="sans-serif" font-size="14" lengthAdjust="spacing" textLength="102.7316" x="571.6141" y="110.7329">Car details view</text></g></a><a href="https://github.com/bruzla/NSWI041/issues/17" target="_top" title="https://github.com/bruzla/NSWI041/issues/17" xlink:actuate="onRequest" xlink:href="https://github.com/bruzla/NSWI041/issues/17" xlink:show="new" xlink:title="https://github.com/bruzla/NSWI041/issues/17" xlink:type="simple"><g id="elem_automaticInsurance"><ellipse cx="1254.432" cy="106.0044" fill="#F1F1F1" rx="118.472" ry="26.0944" style="stroke:#181818;stroke-width:0.5;"/><text fill="#000000" font-family="sans-serif" font-size="14" lengthAdjust="spacing" textLength="197.9452" x="1152.7761" y="110.6181">Automatic insurance inclusion</text></g></a><a href="https://github.com/bruzla/NSWI041/issues/16" target="_top" title="https://github.com/bruzla/NSWI041/issues/16" xlink:actuate="onRequest" xlink:href="https://github.com/bruzla/NSWI041/issues/16" xlink:show="new" xlink:title="https://github.com/bruzla/NSWI041/issues/16" xlink:type="simple"><g id="elem_borrowerReviews"><ellipse cx="283.0798" cy="573.002" fill="#F1F1F1" rx="121.4598" ry="26.692" style="stroke:#181818;stroke-width:0.5;"/><text fill="#000000" font-family="sans-serif" font-size="14" lengthAdjust="spacing" textLength="204.6512" x="178.7056" y="577.365">Reviews of a possible borrower</text></g></a><a href="https://github.com/bruzla/NSWI041/issues/18" target="_top" title="https://github.com/bruzla/NSWI041/issues/18" xlink:actuate="onRequest" xlink:href="https://github.com/bruzla/NSWI041/issues/18" xlink:show="new" xlink:title="https://github.com/bruzla/NSWI041/issues/18" xlink:type="simple"><g id="elem_lenderBorrowerCommunication"><ellipse cx="283.0817" cy="244.0003" fill="#F1F1F1" rx="146.1517" ry="31.6303" style="stroke:#181818;stroke-width:0.5;"/><text fill="#000000" font-family="sans-serif" font-size="14" lengthAdjust="spacing" textLength="257.963" x="154.1002" y="247.4323">Direct lender-borrower communication</text></g></a><a href="https://github.com/bruzla/NSWI041/issues/19" target="_top" title="https://github.com/bruzla/NSWI041/issues/19" xlink:actuate="onRequest" xlink:href="https://github.com/bruzla/NSWI041/issues/19" xlink:show="new" xlink:title="https://github.com/bruzla/NSWI041/issues/19" xlink:type="simple"><g id="elem_violationAlert"><ellipse cx="283.0811" cy="336.0022" fill="#F1F1F1" rx="114.4111" ry="25.2822" style="stroke:#181818;stroke-width:0.5;"/><text fill="#000000" font-family="sans-serif" font-size="14" lengthAdjust="spacing" textLength="188.7053" x="185.7285" y="340.7352">Violation Alert and Response</text></g></a><a href="https://github.com/bruzla/NSWI041/issues/20" target="_top" title="https://github.com/bruzla/NSWI041/issues/20" xlink:actuate="onRequest" xlink:href="https://github.com/bruzla/NSWI041/issues/20" xlink:show="new" xlink:title="https://github.com/bruzla/NSWI041/issues/20" xlink:type="simple"><g id="elem_newOffersNotification"><ellipse cx="283.0843" cy="147.0029" fill="#F1F1F1" rx="142.0143" ry="30.8029" style="stroke:#181818;stroke-width:0.5;"/><text fill="#000000" font-family="sans-serif" font-size="14" lengthAdjust="spacing" textLength="249.171" x="158.4988" y="150.4348">Notification of borrower of new offers</text></g></a><a href="https://github.com/bruzla/NSWI041/issues/22" target="_top" title="https://github.com/bruzla/NSWI041/issues/22" xlink:actuate="onRequest" xlink:href="https://github.com/bruzla/NSWI041/issues/22" xlink:show="new" xlink:title="https://github.com/bruzla/NSWI041/issues/22" xlink:type="simple"><g id="elem_defineCarUsageRules"><ellipse cx="283.0764" cy="419.0013" fill="#F1F1F1" rx="99.3564" ry="22.2713" style="stroke:#181818;stroke-width:0.5;"/><text fill="#000000" font-family="sans-serif" font-size="14" lengthAdjust="spacing" textLength="153.3694" x="203.3917" y="423.7342">Define Car Usage Rules</text></g></a><!--entity borrower--><g id="elem_borrower"><ellipse cx="39.9629" cy="115.97" fill="#F1F1F1" rx="8" ry="8" style="stroke:#181818;stroke-width:0.5;"/><path d="M39.9629,123.97 L39.9629,150.97 M26.9629,131.97 L52.9629,131.97 M39.9629,150.97 L26.9629,165.97 M39.9629,150.97 L52.9629,165.97 " fill="none" style="stroke:#181818;stroke-width:0.5;"/><text fill="#000000" font-family="sans-serif" font-size="14" lengthAdjust="spacing" textLength="62.2858" x="8.82" y="182.4359">Borrower</text></g><!--entity carOwner--><g id="elem_carOwner"><ellipse cx="39.9639" cy="387.97" fill="#F1F1F1" rx="8" ry="8" style="stroke:#181818;stroke-width:0.5;"/><path d="M39.9639,395.97 L39.9639,422.97 M26.9639,403.97 L52.9639,403.97 M39.9639,422.97 L26.9639,437.97 M39.9639,422.97 L52.9639,437.97 " fill="none" style="stroke:#181818;stroke-width:0.5;"/><text fill="#000000" font-family="sans-serif" font-size="14" lengthAdjust="spacing" textLength="67.9277" x="6" y="454.4359">Car owner</text></g><!--link borrower to selectingCar--><g id="link_borrower_selectingCar"><path d="M71.37,122.99 C83.68,114.3 98.4,105.13 112.93,99 C145.02,85.47 176.8462,77.8236 208.5262,72.3936 " fill="none" id="borrower-to-selectingCar" style="stroke:#181818;stroke-width:1.0;"/><polygon fill="#181818" points="214.44,71.38,204.8936,68.9579,209.5119,72.2247,206.2451,76.8429,214.44,71.38" style="stroke:#181818;stroke-width:1.0;"/></g><!--link borrower to lenderBorrowerCommunication--><g id="link_borrower_lenderBorrowerCommunication"><path d="M71.26,170.22 C83.67,178.91 98.49,188.29 112.93,195 C134.83,205.18 153.5703,212.0249 176.9703,219.0049 " fill="none" id="borrower-to-lenderBorrowerCommunication" style="stroke:#181818;stroke-width:1.0;"/><polygon fill="#181818" points="182.72,220.72,175.2389,214.3143,177.9286,219.2908,172.9521,221.9805,182.72,220.72" style="stroke:#181818;stroke-width:1.0;"/></g><!--link borrower to newOffersNotification--><g id="link_borrower_newOffersNotification"><path d="M71.5,147 C89.81,147 108.56,147 134.65,147 " fill="none" id="borrower-to-newOffersNotification" style="stroke:#181818;stroke-width:1.0;"/><polygon fill="#181818" points="140.65,147,131.65,143,135.65,147,131.65,151,140.65,147" style="stroke:#181818;stroke-width:1.0;"/></g><!--reverse link carDetail to bookingSelectedCar--><g id="link_carDetail_bookingSelectedCar"><path d="M711.96,106 C747.84,106 784.6,106 822.36,106 " fill="none" id="carDetail-backto-bookingSelectedCar" style="stroke:#181818;stroke-width:1.0;stroke-dasharray:7.0,7.0;"/><polygon fill="#181818" points="705.96,106,714.96,110,710.96,106,714.96,102,705.96,106" style="stroke:#181818;stroke-width:1.0;"/><text fill="#000000" font-family="sans-serif" font-size="13" lengthAdjust="spacing" textLength="55.497" x="736.73" y="101.897">&#171;extend&#187;</text></g><!--reverse link selectingCar to carDetail--><g id="link_selectingCar_carDetail"><path d="M357.3829,72.2501 C416.2729,79.6701 495.52,89.67 555.13,97.19 " fill="none" id="selectingCar-backto-carDetail" style="stroke:#181818;stroke-width:1.0;stroke-dasharray:7.0,7.0;"/><polygon fill="#181818" points="351.43,71.5,359.8594,76.5937,356.3908,72.125,360.8594,68.6565,351.43,71.5" style="stroke:#181818;stroke-width:1.0;"/><text fill="#000000" font-family="sans-serif" font-size="13" lengthAdjust="spacing" textLength="55.497" x="460.23" y="81.687">&#171;extend&#187;</text></g><!--reverse link bookingSelectedCar to automaticInsurance--><g id="link_bookingSelectedCar_automaticInsurance"><path d="M1023.04,106 C1060.07,106 1096.77,106 1135.6,106 " fill="none" id="bookingSelectedCar-backto-automaticInsurance" style="stroke:#181818;stroke-width:1.0;stroke-dasharray:7.0,7.0;"/><polygon fill="#181818" points="1017.04,106,1026.04,110,1022.04,106,1026.04,102,1017.04,106" style="stroke:#181818;stroke-width:1.0;"/><text fill="#000000" font-family="sans-serif" font-size="13" lengthAdjust="spacing" textLength="57.5771" x="1047.95" y="101.897">&#171;include&#187;</text></g><!--reverse link newOffersNotification to carDetail--><g id="link_newOffersNotification_carDetail"><path d="M429.5045,141.4285 C460.1545,139.2185 486.38,136.5 516.23,132 C535.14,129.15 555.6,124.64 573.61,120.18 " fill="none" id="newOffersNotification-backto-carDetail" style="stroke:#181818;stroke-width:1.0;stroke-dasharray:7.0,7.0;"/><polygon fill="#181818" points="423.52,141.86,432.7844,145.2024,428.5071,141.5004,432.209,137.2231,423.52,141.86" style="stroke:#181818;stroke-width:1.0;"/><text fill="#000000" font-family="sans-serif" font-size="13" lengthAdjust="spacing" textLength="55.497" x="460.23" y="127.897">&#171;extend&#187;</text></g><!--link carOwner to vehicleListing--><g id="link_carOwner_vehicleListing"><path d="M74.36,440.33 C86.17,447.12 99.8,454.12 112.93,459 C146.24,471.37 179.0462,478.7766 211.0262,484.2566 " fill="none" id="carOwner-to-vehicleListing" style="stroke:#181818;stroke-width:1.0;"/><polygon fill="#181818" points="216.94,485.27,208.7449,479.8074,212.0118,484.4255,207.3937,487.6925,216.94,485.27" style="stroke:#181818;stroke-width:1.0;"/></g><!--link carOwner to lenderBorrowerCommunication--><g id="link_carOwner_lenderBorrowerCommunication"><path d="M54.47,379.16 C65.89,351.22 84.92,315.05 112.93,293 C129.14,280.23 142.911,272.7839 162.721,265.8039 " fill="none" id="carOwner-to-lenderBorrowerCommunication" style="stroke:#181818;stroke-width:1.0;"/><polygon fill="#181818" points="168.38,263.81,158.5622,263.0282,163.6642,265.4716,161.2208,270.5736,168.38,263.81" style="stroke:#181818;stroke-width:1.0;"/></g><!--link carOwner to borrowerReviews--><g id="link_carOwner_borrowerReviews"><path d="M57.9,458.78 C69.96,482.51 88.37,511.36 112.93,529 C132.27,542.9 149.8844,550.7844 173.0144,557.2944 " fill="none" id="carOwner-to-borrowerReviews" style="stroke:#181818;stroke-width:1.0;"/><polygon fill="#181818" points="178.79,558.92,171.2103,552.6313,173.977,557.5654,169.0429,560.3321,178.79,558.92" style="stroke:#181818;stroke-width:1.0;"/></g><!--link carOwner to defineCarUsageRules--><g id="link_carOwner_defineCarUsageRules"><path d="M74.24,419 C102.46,419 138.45,419 177.31,419 " fill="none" id="carOwner-to-defineCarUsageRules" style="stroke:#181818;stroke-width:1.0;"/><polygon fill="#181818" points="183.31,419,174.31,415,178.31,419,174.31,423,183.31,419" style="stroke:#181818;stroke-width:1.0;"/></g><!--link carOwner to violationAlert--><g id="link_carOwner_violationAlert"><path d="M74.13,398.21 C86.03,391.39 99.78,384.22 112.93,379 C139.68,368.37 164.0413,361.1336 191.4313,354.4436 " fill="none" id="carOwner-to-violationAlert" style="stroke:#181818;stroke-width:1.0;"/><polygon fill="#181818" points="197.26,353.02,187.5679,351.2697,192.4028,354.2064,189.4661,359.0412,197.26,353.02" style="stroke:#181818;stroke-width:1.0;"/></g><!--SRC=[bLLDJ-Cm4BtdLuou08Usb6yGGk9Z3qW8f29s3uY3cqmJQrCxyZZRPLVyzntRSHUN22cv99bvViypdXdNkB1WDHXPLXOAQJ2tKgji6svn8HM2hH14RhMXpB_WMXkZLsX04Coxxop5qnjPNBAtLOKmRvaZ5Qgi4RPkX06gX96g1D4qM_2NbpxVZAOPyBFp7IkPCwwMP1cowqH-1TjzCC7BIsLjG-UJIIbjrSx7kLvEvgRzKul9mzEFkxt3wKGIjKYJwVxhQw3V3_HFMBlud3RamdXwYZQtjI7a1v7y891VQ_qpK0TABDOQy-1wwkn3bGwZqc5GSkiBj4BMd1s9Aw_1MhVUDeZwA58V1-ghrkgbi387gQWrGkN8NtdT4bU5rn4HSRS6314yYO97GN26BW82lU34DPf8pldyOs7jVgoo21qYTnpbJeBShQzmg54LQ4QH6PXXsIgP2nl338XOx3SV_OCsS1etSDfLkDHrOBcgqLWGge0PKgCLOIZt20Z-8LfdKUiiQ3reAnTnqvpWTRZyhN35hmKQyghy- -Z_aZK3nFVtelXqhqjr60YkM9z9b0YpjiQWLdWNUxp3smTfkRv-TqDdXY5NLCc6OA6T58-ZTQ2ZqMNIuDbsulhSbnk0pyMUSdzH9HjCw_PC2NhpdhdGJ0mDvcXNY0fQGgOXfAnddepRPln11SxXuW9_MzxVvMNstnnWoSnBa3tT7PRqIBg5VZOKsAFHNr69MDPTAVvMq2k5PgkRP8_kf_TyhugbL5c4-1oc5qJg- -g04k36a4cTFVMwiOMaQVtvVVDHac_mkv0bWXtTE9IeTxFjv136cs5mfaAUYCbsxdKfUIunYWTcoGWt6i-Xopxz0m00]--></g></svg>