<svg xmlns="http://www.w3.org/2000/svg" xmlns:xlink="http://www.w3.org/1999/xlink" contentStyleType="text/css" height="691px" preserveAspectRatio="none" style="width:1178px;height:691px;background:#FFFFFF;" version="1.1" viewBox="0 0 1178 691" width="1178px" zoomAndPan="magnify"><defs/><g><!--class User--><g id="elem_User"><rect codeLine="4" fill="#F1F1F1" height="143.3396" id="User" rx="2.5" ry="2.5" style="stroke:#181818;stroke-width:0.5;" width="151.9995" x="701.18" y="7"/><ellipse cx="757.6208" cy="23" fill="#ADD1B2" rx="11" ry="11" style="stroke:#181818;stroke-width:1.0;"/><path d="M757.0895,29.9219 Q755.3395,29.9219 754.1989,29.1875 Q753.0739,28.4375 752.5114,27.0938 Q751.9645,25.7344 751.9645,23.9375 Q751.9645,21.9063 752.6208,20.4531 Q753.277,19 754.5583,18.2188 Q755.8395,17.4375 757.7145,17.4375 Q758.6052,17.4375 759.277,17.625 Q759.9489,17.7969 760.6364,18.1406 L759.8239,20.1563 Q759.1989,19.8438 758.652,19.7188 Q758.1208,19.5938 757.6364,19.5938 Q756.4645,19.5938 755.7614,20.125 Q755.0583,20.6563 754.7614,21.6094 Q754.4645,22.5625 754.4645,23.8281 Q754.4645,25.8438 755.1833,26.8125 Q755.902,27.7656 757.4958,27.7656 Q758.0895,27.7656 758.7145,27.6094 Q759.3395,27.4531 760.1677,27.0781 L760.1677,29.2969 Q759.4333,29.6094 758.6364,29.7656 Q757.8552,29.9219 757.0895,29.9219 Z " fill="#000000"/><text fill="#000000" font-family="sans-serif" font-size="14" lengthAdjust="spacing" textLength="30.6179" x="778.1208" y="28.432">User</text><line style="stroke:#181818;stroke-width:0.5;" x1="702.18" x2="852.1795" y1="39" y2="39"/><text fill="#000000" font-family="sans-serif" font-size="14" lengthAdjust="spacing" textLength="37.4919" x="707.18" y="57.9659">name</text><text fill="#000000" font-family="sans-serif" font-size="14" lengthAdjust="spacing" textLength="24.3599" x="707.18" y="77.0339">age</text><text fill="#000000" font-family="sans-serif" font-size="14" lengthAdjust="spacing" textLength="98.6016" x="707.18" y="96.1018">phone number</text><text fill="#000000" font-family="sans-serif" font-size="14" lengthAdjust="spacing" textLength="36.0639" x="707.18" y="115.1697">email</text><text fill="#000000" font-family="sans-serif" font-size="14" lengthAdjust="spacing" textLength="139.9995" x="707.18" y="134.2376">payment information</text><line style="stroke:#181818;stroke-width:0.5;" x1="702.18" x2="852.1795" y1="142.3396" y2="142.3396"/></g><!--class Lender--><g id="elem_Lender"><rect codeLine="12" fill="#F1F1F1" height="48" id="Lender" rx="2.5" ry="2.5" style="stroke:#181818;stroke-width:0.5;" width="78.1718" x="679.09" y="211.34"/><ellipse cx="694.09" cy="227.34" fill="#ADD1B2" rx="11" ry="11" style="stroke:#181818;stroke-width:1.0;"/><path d="M693.5588,234.2619 Q691.8088,234.2619 690.6681,233.5275 Q689.5431,232.7775 688.9806,231.4338 Q688.4338,230.0744 688.4338,228.2775 Q688.4338,226.2463 689.09,224.7931 Q689.7463,223.34 691.0275,222.5588 Q692.3088,221.7775 694.1838,221.7775 Q695.0744,221.7775 695.7463,221.965 Q696.4181,222.1369 697.1056,222.4806 L696.2931,224.4963 Q695.6681,224.1838 695.1213,224.0588 Q694.59,223.9338 694.1056,223.9338 Q692.9338,223.9338 692.2306,224.465 Q691.5275,224.9963 691.2306,225.9494 Q690.9338,226.9025 690.9338,228.1681 Q690.9338,230.1838 691.6525,231.1525 Q692.3713,232.1056 693.965,232.1056 Q694.5588,232.1056 695.1838,231.9494 Q695.8088,231.7931 696.6369,231.4181 L696.6369,233.6369 Q695.9025,233.9494 695.1056,234.1056 Q694.3244,234.2619 693.5588,234.2619 Z " fill="#000000"/><text fill="#000000" font-family="sans-serif" font-size="14" lengthAdjust="spacing" textLength="46.1718" x="708.09" y="232.772">Lender</text><line style="stroke:#181818;stroke-width:0.5;" x1="680.09" x2="756.2618" y1="243.34" y2="243.34"/><line style="stroke:#181818;stroke-width:0.5;" x1="680.09" x2="756.2618" y1="251.34" y2="251.34"/></g><!--class Borrower--><g id="elem_Borrower"><rect codeLine="16" fill="#F1F1F1" height="86.1358" id="Borrower" rx="2.5" ry="2.5" style="stroke:#181818;stroke-width:0.5;" width="170.6894" x="785.83" y="366.94"/><ellipse cx="835.7818" cy="382.94" fill="#ADD1B2" rx="11" ry="11" style="stroke:#181818;stroke-width:1.0;"/><path d="M835.2506,389.8619 Q833.5006,389.8619 832.3599,389.1275 Q831.2349,388.3775 830.6724,387.0338 Q830.1256,385.6744 830.1256,383.8775 Q830.1256,381.8463 830.7818,380.3931 Q831.4381,378.94 832.7193,378.1588 Q834.0006,377.3775 835.8756,377.3775 Q836.7662,377.3775 837.4381,377.565 Q838.1099,377.7369 838.7974,378.0806 L837.9849,380.0963 Q837.3599,379.7838 836.8131,379.6588 Q836.2818,379.5338 835.7974,379.5338 Q834.6256,379.5338 833.9224,380.065 Q833.2193,380.5963 832.9224,381.5494 Q832.6256,382.5025 832.6256,383.7681 Q832.6256,385.7838 833.3443,386.7525 Q834.0631,387.7056 835.6568,387.7056 Q836.2506,387.7056 836.8756,387.5494 Q837.5006,387.3931 838.3287,387.0181 L838.3287,389.2369 Q837.5943,389.5494 836.7974,389.7056 Q836.0162,389.8619 835.2506,389.8619 Z " fill="#000000"/><text fill="#000000" font-family="sans-serif" font-size="14" lengthAdjust="spacing" textLength="62.2858" x="856.2818" y="388.372">Borrower</text><line style="stroke:#181818;stroke-width:0.5;" x1="786.83" x2="955.5194" y1="398.94" y2="398.94"/><text fill="#000000" font-family="sans-serif" font-size="14" lengthAdjust="spacing" textLength="158.6894" x="791.83" y="417.9059">has valid driver's licence</text><text fill="#000000" font-family="sans-serif" font-size="14" lengthAdjust="spacing" textLength="39.5639" x="791.83" y="436.9739">rating</text><line style="stroke:#181818;stroke-width:0.5;" x1="786.83" x2="955.5194" y1="445.0758" y2="445.0758"/></g><!--class Photo--><g id="elem_Photo"><rect codeLine="23" fill="#F1F1F1" height="48" id="Photo" rx="2.5" ry="2.5" style="stroke:#181818;stroke-width:0.5;" width="71.1159" x="888.62" y="54.67"/><ellipse cx="903.62" cy="70.67" fill="#ADD1B2" rx="11" ry="11" style="stroke:#181818;stroke-width:1.0;"/><path d="M903.0888,77.5919 Q901.3388,77.5919 900.1981,76.8575 Q899.0731,76.1075 898.5106,74.7638 Q897.9638,73.4044 897.9638,71.6075 Q897.9638,69.5763 898.62,68.1231 Q899.2763,66.67 900.5575,65.8888 Q901.8388,65.1075 903.7138,65.1075 Q904.6044,65.1075 905.2763,65.295 Q905.9481,65.4669 906.6356,65.8106 L905.8231,67.8263 Q905.1981,67.5138 904.6513,67.3888 Q904.12,67.2638 903.6356,67.2638 Q902.4638,67.2638 901.7606,67.795 Q901.0575,68.3263 900.7606,69.2794 Q900.4638,70.2325 900.4638,71.4981 Q900.4638,73.5138 901.1825,74.4825 Q901.9013,75.4356 903.495,75.4356 Q904.0888,75.4356 904.7138,75.2794 Q905.3388,75.1231 906.1669,74.7481 L906.1669,76.9669 Q905.4325,77.2794 904.6356,77.4356 Q903.8544,77.5919 903.0888,77.5919 Z " fill="#000000"/><text fill="#000000" font-family="sans-serif" font-size="14" lengthAdjust="spacing" textLength="39.1159" x="917.62" y="76.102">Photo</text><line style="stroke:#181818;stroke-width:0.5;" x1="889.62" x2="958.7359" y1="86.67" y2="86.67"/><line style="stroke:#181818;stroke-width:0.5;" x1="889.62" x2="958.7359" y1="94.67" y2="94.67"/></g><!--class Vehicle--><g id="elem_Vehicle"><rect codeLine="25" fill="#F1F1F1" height="143.3396" id="Vehicle" rx="2.5" ry="2.5" style="stroke:#181818;stroke-width:0.5;" width="133.8416" x="573.26" y="338.34"/><ellipse cx="613.0342" cy="354.34" fill="#ADD1B2" rx="11" ry="11" style="stroke:#181818;stroke-width:1.0;"/><path d="M612.5029,361.2619 Q610.7529,361.2619 609.6123,360.5275 Q608.4873,359.7775 607.9248,358.4338 Q607.3779,357.0744 607.3779,355.2775 Q607.3779,353.2463 608.0342,351.7931 Q608.6904,350.34 609.9717,349.5588 Q611.2529,348.7775 613.1279,348.7775 Q614.0186,348.7775 614.6904,348.965 Q615.3623,349.1369 616.0498,349.4806 L615.2373,351.4963 Q614.6123,351.1838 614.0654,351.0588 Q613.5342,350.9338 613.0498,350.9338 Q611.8779,350.9338 611.1748,351.465 Q610.4717,351.9963 610.1748,352.9494 Q609.8779,353.9025 609.8779,355.1681 Q609.8779,357.1838 610.5967,358.1525 Q611.3154,359.1056 612.9092,359.1056 Q613.5029,359.1056 614.1279,358.9494 Q614.7529,358.7931 615.5811,358.4181 L615.5811,360.6369 Q614.8467,360.9494 614.0498,361.1056 Q613.2686,361.2619 612.5029,361.2619 Z " fill="#000000"/><text fill="#000000" font-family="sans-serif" font-size="14" lengthAdjust="spacing" textLength="46.7878" x="632.5396" y="359.772">Vehicle</text><line style="stroke:#181818;stroke-width:0.5;" x1="574.26" x2="706.1016" y1="370.34" y2="370.34"/><text fill="#000000" font-family="sans-serif" font-size="14" lengthAdjust="spacing" textLength="36.3159" x="579.26" y="389.3059">make</text><text fill="#000000" font-family="sans-serif" font-size="14" lengthAdjust="spacing" textLength="41.6778" x="579.26" y="408.3739">model</text><text fill="#000000" font-family="sans-serif" font-size="14" lengthAdjust="spacing" textLength="98.5316" x="579.26" y="427.4418">year of making</text><text fill="#000000" font-family="sans-serif" font-size="14" lengthAdjust="spacing" textLength="121.8416" x="579.26" y="446.5097">photo : Photo[0..*]</text><text fill="#000000" font-family="sans-serif" font-size="14" lengthAdjust="spacing" textLength="61.8518" x="579.26" y="465.5776">condition</text><line style="stroke:#181818;stroke-width:0.5;" x1="574.26" x2="706.1016" y1="473.6796" y2="473.6796"/></g><!--class AvailabilitySchedule--><g id="elem_AvailabilitySchedule"><rect codeLine="33" fill="#F1F1F1" height="86.1358" id="AvailabilitySchedule" rx="2.5" ry="2.5" style="stroke:#181818;stroke-width:0.5;" width="165.9935" x="380.18" y="579.75"/><ellipse cx="395.18" cy="595.75" fill="#ADD1B2" rx="11" ry="11" style="stroke:#181818;stroke-width:1.0;"/><path d="M394.6488,602.6719 Q392.8988,602.6719 391.7581,601.9375 Q390.6331,601.1875 390.0706,599.8438 Q389.5238,598.4844 389.5238,596.6875 Q389.5238,594.6563 390.18,593.2031 Q390.8363,591.75 392.1175,590.9688 Q393.3988,590.1875 395.2738,590.1875 Q396.1644,590.1875 396.8363,590.375 Q397.5081,590.5469 398.1956,590.8906 L397.3831,592.9063 Q396.7581,592.5938 396.2113,592.4688 Q395.68,592.3438 395.1956,592.3438 Q394.0238,592.3438 393.3206,592.875 Q392.6175,593.4063 392.3206,594.3594 Q392.0238,595.3125 392.0238,596.5781 Q392.0238,598.5938 392.7425,599.5625 Q393.4613,600.5156 395.055,600.5156 Q395.6488,600.5156 396.2738,600.3594 Q396.8988,600.2031 397.7269,599.8281 L397.7269,602.0469 Q396.9925,602.3594 396.1956,602.5156 Q395.4144,602.6719 394.6488,602.6719 Z " fill="#000000"/><text fill="#000000" font-family="sans-serif" font-size="14" lengthAdjust="spacing" textLength="133.9935" x="409.18" y="601.182">Availability Schedule</text><line style="stroke:#181818;stroke-width:0.5;" x1="381.18" x2="545.1735" y1="611.75" y2="611.75"/><text fill="#000000" font-family="sans-serif" font-size="14" lengthAdjust="spacing" textLength="65.4498" x="386.18" y="630.7159">time from</text><text fill="#000000" font-family="sans-serif" font-size="14" lengthAdjust="spacing" textLength="46.8158" x="386.18" y="649.7839">time to</text><line style="stroke:#181818;stroke-width:0.5;" x1="381.18" x2="545.1735" y1="657.8858" y2="657.8858"/></g><!--class RentalTerms--><g id="elem_RentalTerms"><rect codeLine="38" fill="#F1F1F1" height="124.2717" id="RentalTerms" rx="2.5" ry="2.5" style="stroke:#181818;stroke-width:0.5;" width="118.6737" x="580.84" y="560.68"/><ellipse cx="595.84" cy="576.68" fill="#ADD1B2" rx="11" ry="11" style="stroke:#181818;stroke-width:1.0;"/><path d="M595.3088,583.6019 Q593.5588,583.6019 592.4181,582.8675 Q591.2931,582.1175 590.7306,580.7738 Q590.1838,579.4144 590.1838,577.6175 Q590.1838,575.5863 590.84,574.1331 Q591.4963,572.68 592.7775,571.8988 Q594.0588,571.1175 595.9338,571.1175 Q596.8244,571.1175 597.4963,571.305 Q598.1681,571.4769 598.8556,571.8206 L598.0431,573.8363 Q597.4181,573.5238 596.8713,573.3988 Q596.34,573.2738 595.8556,573.2738 Q594.6838,573.2738 593.9806,573.805 Q593.2775,574.3363 592.9806,575.2894 Q592.6838,576.2425 592.6838,577.5081 Q592.6838,579.5238 593.4025,580.4925 Q594.1213,581.4456 595.715,581.4456 Q596.3088,581.4456 596.9338,581.2894 Q597.5588,581.1331 598.3869,580.7581 L598.3869,582.9769 Q597.6525,583.2894 596.8556,583.4456 Q596.0744,583.6019 595.3088,583.6019 Z " fill="#000000"/><text fill="#000000" font-family="sans-serif" font-size="14" lengthAdjust="spacing" textLength="86.6737" x="609.84" y="582.112">Rental Terms</text><line style="stroke:#181818;stroke-width:0.5;" x1="581.84" x2="698.5137" y1="592.68" y2="592.68"/><text fill="#000000" font-family="sans-serif" font-size="14" lengthAdjust="spacing" textLength="32.6199" x="586.84" y="611.6459">price</text><text fill="#000000" font-family="sans-serif" font-size="14" lengthAdjust="spacing" textLength="99.7636" x="586.84" y="630.7139">pickup location</text><text fill="#000000" font-family="sans-serif" font-size="14" lengthAdjust="spacing" textLength="97.9016" x="586.84" y="649.7818">return location</text><text fill="#000000" font-family="sans-serif" font-size="14" lengthAdjust="spacing" textLength="85.1897" x="586.84" y="668.8497">mileage limit</text><line style="stroke:#181818;stroke-width:0.5;" x1="581.84" x2="698.5137" y1="676.9517" y2="676.9517"/></g><!--class GeographicBoundary--><g id="elem_GeographicBoundary"><rect codeLine="45" fill="#F1F1F1" height="86.1358" id="GeographicBoundary" rx="2.5" ry="2.5" style="stroke:#181818;stroke-width:0.5;" width="176.2974" x="995.03" y="35.6"/><ellipse cx="1010.03" cy="51.6" fill="#ADD1B2" rx="11" ry="11" style="stroke:#181818;stroke-width:1.0;"/><path d="M1009.4988,58.5219 Q1007.7488,58.5219 1006.6081,57.7875 Q1005.4831,57.0375 1004.9206,55.6938 Q1004.3738,54.3344 1004.3738,52.5375 Q1004.3738,50.5063 1005.03,49.0531 Q1005.6863,47.6 1006.9675,46.8188 Q1008.2488,46.0375 1010.1238,46.0375 Q1011.0144,46.0375 1011.6863,46.225 Q1012.3581,46.3969 1013.0456,46.7406 L1012.2331,48.7563 Q1011.6081,48.4438 1011.0613,48.3188 Q1010.53,48.1938 1010.0456,48.1938 Q1008.8738,48.1938 1008.1706,48.725 Q1007.4675,49.2563 1007.1706,50.2094 Q1006.8738,51.1625 1006.8738,52.4281 Q1006.8738,54.4438 1007.5925,55.4125 Q1008.3113,56.3656 1009.905,56.3656 Q1010.4988,56.3656 1011.1238,56.2094 Q1011.7488,56.0531 1012.5769,55.6781 L1012.5769,57.8969 Q1011.8425,58.2094 1011.0456,58.3656 Q1010.2644,58.5219 1009.4988,58.5219 Z " fill="#000000"/><text fill="#000000" font-family="sans-serif" font-size="14" lengthAdjust="spacing" textLength="144.2974" x="1024.03" y="57.032">Geographic Boundary</text><line style="stroke:#181818;stroke-width:0.5;" x1="996.03" x2="1170.3274" y1="67.6" y2="67.6"/><text fill="#000000" font-family="sans-serif" font-size="14" lengthAdjust="spacing" textLength="28.6999" x="1001.03" y="86.5659">type</text><text fill="#000000" font-family="sans-serif" font-size="14" lengthAdjust="spacing" textLength="35.1259" x="1001.03" y="105.6339">value</text><line style="stroke:#181818;stroke-width:0.5;" x1="996.03" x2="1170.3274" y1="113.7358" y2="113.7358"/></g><!--class UsageRestriction--><g id="elem_UsageRestriction"><rect codeLine="50" fill="#F1F1F1" height="86.1358" id="UsageRestriction" rx="2.5" ry="2.5" style="stroke:#181818;stroke-width:0.5;" width="338.3528" x="7" y="579.75"/><ellipse cx="110.9706" cy="595.75" fill="#ADD1B2" rx="11" ry="11" style="stroke:#181818;stroke-width:1.0;"/><path d="M110.4394,602.6719 Q108.6894,602.6719 107.5488,601.9375 Q106.4238,601.1875 105.8613,599.8438 Q105.3144,598.4844 105.3144,596.6875 Q105.3144,594.6563 105.9706,593.2031 Q106.6269,591.75 107.9081,590.9688 Q109.1894,590.1875 111.0644,590.1875 Q111.955,590.1875 112.6269,590.375 Q113.2988,590.5469 113.9863,590.8906 L113.1738,592.9063 Q112.5488,592.5938 112.0019,592.4688 Q111.4706,592.3438 110.9863,592.3438 Q109.8144,592.3438 109.1113,592.875 Q108.4081,593.4063 108.1113,594.3594 Q107.8144,595.3125 107.8144,596.5781 Q107.8144,598.5938 108.5331,599.5625 Q109.2519,600.5156 110.8456,600.5156 Q111.4394,600.5156 112.0644,600.3594 Q112.6894,600.2031 113.5175,599.8281 L113.5175,602.0469 Q112.7831,602.3594 111.9863,602.5156 Q111.205,602.6719 110.4394,602.6719 Z " fill="#000000"/><text fill="#000000" font-family="sans-serif" font-size="14" lengthAdjust="spacing" textLength="121.9115" x="131.4706" y="601.182">Usage Restrictions</text><line style="stroke:#181818;stroke-width:0.5;" x1="8" x2="344.3528" y1="611.75" y2="611.75"/><text fill="#000000" font-family="sans-serif" font-size="14" lengthAdjust="spacing" textLength="326.3528" x="13" y="630.7159">geographic boundary : GeographicBoundary[0..*]</text><text fill="#000000" font-family="sans-serif" font-size="14" lengthAdjust="spacing" textLength="201.8652" x="13" y="649.7839">prohibited activity : String[0..1]</text><line style="stroke:#181818;stroke-width:0.5;" x1="8" x2="344.3528" y1="657.8858" y2="657.8858"/></g><!--class Review--><g id="elem_Review"><rect codeLine="57" fill="#F1F1F1" height="86.1358" id="Review" rx="2.5" ry="2.5" style="stroke:#181818;stroke-width:0.5;" width="78.2278" x="879.06" y="579.75"/><ellipse cx="894.06" cy="595.75" fill="#ADD1B2" rx="11" ry="11" style="stroke:#181818;stroke-width:1.0;"/><path d="M893.5288,602.6719 Q891.7788,602.6719 890.6381,601.9375 Q889.5131,601.1875 888.9506,599.8438 Q888.4038,598.4844 888.4038,596.6875 Q888.4038,594.6563 889.06,593.2031 Q889.7163,591.75 890.9975,590.9688 Q892.2788,590.1875 894.1538,590.1875 Q895.0444,590.1875 895.7163,590.375 Q896.3881,590.5469 897.0756,590.8906 L896.2631,592.9063 Q895.6381,592.5938 895.0913,592.4688 Q894.56,592.3438 894.0756,592.3438 Q892.9038,592.3438 892.2006,592.875 Q891.4975,593.4063 891.2006,594.3594 Q890.9038,595.3125 890.9038,596.5781 Q890.9038,598.5938 891.6225,599.5625 Q892.3413,600.5156 893.935,600.5156 Q894.5288,600.5156 895.1538,600.3594 Q895.7788,600.2031 896.6069,599.8281 L896.6069,602.0469 Q895.8725,602.3594 895.0756,602.5156 Q894.2944,602.6719 893.5288,602.6719 Z " fill="#000000"/><text fill="#000000" font-family="sans-serif" font-size="14" lengthAdjust="spacing" textLength="46.2278" x="908.06" y="601.182">Review</text><line style="stroke:#181818;stroke-width:0.5;" x1="880.06" x2="956.2878" y1="611.75" y2="611.75"/><text fill="#000000" font-family="sans-serif" font-size="14" lengthAdjust="spacing" textLength="39.5639" x="885.06" y="630.7159">rating</text><text fill="#000000" font-family="sans-serif" font-size="14" lengthAdjust="spacing" textLength="62.9718" x="885.06" y="649.7839">comment</text><line style="stroke:#181818;stroke-width:0.5;" x1="880.06" x2="956.2878" y1="657.8858" y2="657.8858"/></g><!--class Preferences--><g id="elem_Preferences"><rect codeLine="62" fill="#F1F1F1" height="124.2717" id="Preferences" rx="2.5" ry="2.5" style="stroke:#181818;stroke-width:0.5;" width="110.5117" x="991.92" y="560.68"/><ellipse cx="1006.92" cy="576.68" fill="#ADD1B2" rx="11" ry="11" style="stroke:#181818;stroke-width:1.0;"/><path d="M1006.3888,583.6019 Q1004.6388,583.6019 1003.4981,582.8675 Q1002.3731,582.1175 1001.8106,580.7738 Q1001.2638,579.4144 1001.2638,577.6175 Q1001.2638,575.5863 1001.92,574.1331 Q1002.5763,572.68 1003.8575,571.8988 Q1005.1388,571.1175 1007.0138,571.1175 Q1007.9044,571.1175 1008.5763,571.305 Q1009.2481,571.4769 1009.9356,571.8206 L1009.1231,573.8363 Q1008.4981,573.5238 1007.9513,573.3988 Q1007.42,573.2738 1006.9356,573.2738 Q1005.7638,573.2738 1005.0606,573.805 Q1004.3575,574.3363 1004.0606,575.2894 Q1003.7638,576.2425 1003.7638,577.5081 Q1003.7638,579.5238 1004.4825,580.4925 Q1005.2013,581.4456 1006.795,581.4456 Q1007.3888,581.4456 1008.0138,581.2894 Q1008.6388,581.1331 1009.4669,580.7581 L1009.4669,582.9769 Q1008.7325,583.2894 1007.9356,583.4456 Q1007.1544,583.6019 1006.3888,583.6019 Z " fill="#000000"/><text fill="#000000" font-family="sans-serif" font-size="14" lengthAdjust="spacing" textLength="78.5117" x="1020.92" y="582.112">Preferences</text><line style="stroke:#181818;stroke-width:0.5;" x1="992.92" x2="1101.4317" y1="592.68" y2="592.68"/><text fill="#000000" font-family="sans-serif" font-size="14" lengthAdjust="spacing" textLength="32.6199" x="997.92" y="611.6459">price</text><text fill="#000000" font-family="sans-serif" font-size="14" lengthAdjust="spacing" textLength="61.8518" x="997.92" y="630.7139">condition</text><text fill="#000000" font-family="sans-serif" font-size="14" lengthAdjust="spacing" textLength="36.3159" x="997.92" y="649.7818">make</text><text fill="#000000" font-family="sans-serif" font-size="14" lengthAdjust="spacing" textLength="41.6778" x="997.92" y="668.8497">model</text><line style="stroke:#181818;stroke-width:0.5;" x1="992.92" x2="1101.4317" y1="676.9517" y2="676.9517"/></g><!--class Booking--><g id="elem_Booking"><rect codeLine="69" fill="#F1F1F1" height="105.2038" id="Booking" rx="2.5" ry="2.5" style="stroke:#181818;stroke-width:0.5;" width="86.3898" x="734.98" y="570.21"/><ellipse cx="749.98" cy="586.21" fill="#ADD1B2" rx="11" ry="11" style="stroke:#181818;stroke-width:1.0;"/><path d="M749.4488,593.1319 Q747.6988,593.1319 746.5581,592.3975 Q745.4331,591.6475 744.8706,590.3038 Q744.3238,588.9444 744.3238,587.1475 Q744.3238,585.1163 744.98,583.6631 Q745.6363,582.21 746.9175,581.4288 Q748.1988,580.6475 750.0738,580.6475 Q750.9644,580.6475 751.6363,580.835 Q752.3081,581.0069 752.9956,581.3506 L752.1831,583.3663 Q751.5581,583.0538 751.0113,582.9288 Q750.48,582.8038 749.9956,582.8038 Q748.8238,582.8038 748.1206,583.335 Q747.4175,583.8663 747.1206,584.8194 Q746.8238,585.7725 746.8238,587.0381 Q746.8238,589.0538 747.5425,590.0225 Q748.2613,590.9756 749.855,590.9756 Q750.4488,590.9756 751.0738,590.8194 Q751.6988,590.6631 752.5269,590.2881 L752.5269,592.5069 Q751.7925,592.8194 750.9956,592.9756 Q750.2144,593.1319 749.4488,593.1319 Z " fill="#000000"/><text fill="#000000" font-family="sans-serif" font-size="14" lengthAdjust="spacing" textLength="54.3898" x="763.98" y="591.642">Booking</text><line style="stroke:#181818;stroke-width:0.5;" x1="735.98" x2="820.3698" y1="602.21" y2="602.21"/><text fill="#000000" font-family="sans-serif" font-size="14" lengthAdjust="spacing" textLength="32.1579" x="740.98" y="621.1759">from</text><text fill="#000000" font-family="sans-serif" font-size="14" lengthAdjust="spacing" textLength="13.524" x="740.98" y="640.2439">to</text><text fill="#000000" font-family="sans-serif" font-size="14" lengthAdjust="spacing" textLength="40.0259" x="740.98" y="659.3118">status</text><line style="stroke:#181818;stroke-width:0.5;" x1="735.98" x2="820.3698" y1="667.4138" y2="667.4138"/></g><!--reverse link User to Lender--><g id="link_User_Lender"><path codeLine="80" d="M743.675,167.4881 C735.375,189.2481 733.24,194.86 727.07,211.01 " fill="none" id="User-backto-Lender" style="stroke:#181818;stroke-width:1.0;"/><polygon fill="none" points="750.09,150.67,738.069,165.3498,749.281,169.6264,750.09,150.67" style="stroke:#181818;stroke-width:1.0;"/></g><!--reverse link User to Borrower--><g id="link_User_Borrower"><path codeLine="81" d="M802.4001,168.0388 C821.1801,233.8388 843.55,312.2 859.11,366.74 " fill="none" id="User-backto-Borrower" style="stroke:#181818;stroke-width:1.0;"/><polygon fill="none" points="797.46,150.73,796.6305,169.6855,808.1697,166.3921,797.46,150.73" style="stroke:#181818;stroke-width:1.0;"/></g><!--link Lender to Vehicle--><g id="link_Lender_Vehicle"><path codeLine="83" d="M707.66,259.63 C698.55,279.79 687.3612,304.5625 674.7012,332.5725 " fill="none" id="Lender-to-Vehicle" style="stroke:#181818;stroke-width:1.0;"/><polygon fill="#181818" points="672.23,338.04,679.5818,331.4863,674.2893,333.4838,672.2918,328.1913,672.23,338.04" style="stroke:#181818;stroke-width:1.0;"/><text fill="#000000" font-family="sans-serif" font-size="13" lengthAdjust="spacing" textLength="32.344" x="693.95" y="304.237">owns</text><text fill="#000000" font-family="sans-serif" font-size="13" lengthAdjust="spacing" textLength="7.436" x="697.4692" y="281.1913">1</text><text fill="#000000" font-family="sans-serif" font-size="13" lengthAdjust="spacing" textLength="21.567" x="653.4815" y="326.675">0..*</text></g><!--link Borrower to Booking--><g id="link_Borrower_Booking"><path codeLine="85" d="M852.47,453.41 C837.67,486.96 819.3615,528.4603 803.5615,564.2803 " fill="none" id="Borrower-to-Booking" style="stroke:#181818;stroke-width:1.0;"/><polygon fill="#181818" points="801.14,569.77,808.432,563.1498,803.1579,565.1953,801.1124,559.9212,801.14,569.77" style="stroke:#181818;stroke-width:1.0;"/><text fill="#000000" font-family="sans-serif" font-size="13" lengthAdjust="spacing" textLength="39.949" x="825.68" y="526.577">makes</text><text fill="#000000" font-family="sans-serif" font-size="13" lengthAdjust="spacing" textLength="7.436" x="842.2407" y="474.982">1</text><text fill="#000000" font-family="sans-serif" font-size="13" lengthAdjust="spacing" textLength="21.84" x="781.8714" y="558.4448">0..1</text></g><!--link Borrower to Review--><g id="link_Borrower_Review"><path codeLine="86" d="M880.63,453.41 C888.81,490.09 899.2649,536.9637 907.4349,573.6237 " fill="none" id="Borrower-to-Review" style="stroke:#181818;stroke-width:1.0;"/><polygon fill="#181818" points="908.74,579.48,910.6865,569.8254,907.6524,574.5997,902.8781,571.5656,908.74,579.48" style="stroke:#181818;stroke-width:1.0;"/><text fill="#000000" font-family="sans-serif" font-size="13" lengthAdjust="spacing" textLength="21.554" x="898.49" y="526.577">has</text><text fill="#000000" font-family="sans-serif" font-size="13" lengthAdjust="spacing" textLength="7.436" x="874.5367" y="474.982">1</text><text fill="#000000" font-family="sans-serif" font-size="13" lengthAdjust="spacing" textLength="21.567" x="884.4854" y="567.8498">0..*</text></g><!--link Booking to Review--><g id="link_Booking_Review"><path codeLine="87" d="M821.71,622.81 C840.01,622.81 855.14,622.81 872.95,622.81 " fill="none" id="Booking-to-Review" style="stroke:#181818;stroke-width:1.0;"/><polygon fill="#181818" points="878.95,622.81,869.95,618.81,873.95,622.81,869.95,626.81,878.95,622.81" style="stroke:#181818;stroke-width:1.0;"/><text fill="#000000" font-family="sans-serif" font-size="13" lengthAdjust="spacing" textLength="21.554" x="839.72" y="615.707">has</text><text fill="#000000" font-family="sans-serif" font-size="13" lengthAdjust="spacing" textLength="7.436" x="829.241" y="618.4083">1</text><text fill="#000000" font-family="sans-serif" font-size="13" lengthAdjust="spacing" textLength="21.84" x="849.1677" y="638.2825">0..1</text></g><!--link Borrower to Preferences--><g id="link_Borrower_Preferences"><path codeLine="88" d="M906.58,453.41 C932.18,484.07 963.3048,521.3641 991.9648,555.6941 " fill="none" id="Borrower-to-Preferences" style="stroke:#181818;stroke-width:1.0;"/><polygon fill="#181818" points="995.81,560.3,993.1128,550.8277,992.6057,556.4617,986.9716,555.9546,995.81,560.3" style="stroke:#181818;stroke-width:1.0;"/><text fill="#000000" font-family="sans-serif" font-size="13" lengthAdjust="spacing" textLength="21.554" x="970.71" y="526.577">has</text><text fill="#000000" font-family="sans-serif" font-size="13" lengthAdjust="spacing" textLength="7.436" x="904.2981" y="474.982">1</text><text fill="#000000" font-family="sans-serif" font-size="13" lengthAdjust="spacing" textLength="21.84" x="967.7053" y="549.0266">0..1</text></g><!--link Vehicle to Booking--><g id="link_Vehicle_Booking"><path codeLine="90" d="M686.7,482.08 C705.56,510.89 723.6439,538.5199 740.9839,565.0099 " fill="none" id="Vehicle-to-Booking" style="stroke:#181818;stroke-width:1.0;"/><polygon fill="#181818" points="744.27,570.03,742.6876,560.3091,741.5316,565.8466,735.9941,564.6906,744.27,570.03" style="stroke:#181818;stroke-width:1.0;"/><text fill="#000000" font-family="sans-serif" font-size="13" lengthAdjust="spacing" textLength="21.554" x="718.44" y="526.577">has</text><text fill="#000000" font-family="sans-serif" font-size="13" lengthAdjust="spacing" textLength="7.436" x="683.821" y="503.69">1</text><text fill="#000000" font-family="sans-serif" font-size="13" lengthAdjust="spacing" textLength="21.567" x="717.0654" y="558.3589">0..*</text></g><!--link Vehicle to RentalTerms--><g id="link_Vehicle_RentalTerms"><path codeLine="91" d="M640.18,482.08 C640.18,507.42 640.18,529.74 640.18,554.21 " fill="none" id="Vehicle-to-RentalTerms" style="stroke:#181818;stroke-width:1.0;"/><polygon fill="#181818" points="640.18,560.21,644.18,551.21,640.18,555.21,636.18,551.21,640.18,560.21" style="stroke:#181818;stroke-width:1.0;"/><text fill="#000000" font-family="sans-serif" font-size="13" lengthAdjust="spacing" textLength="21.554" x="641.18" y="526.577">has</text><text fill="#000000" font-family="sans-serif" font-size="13" lengthAdjust="spacing" textLength="7.436" x="632.8671" y="503.69">1</text><text fill="#000000" font-family="sans-serif" font-size="13" lengthAdjust="spacing" textLength="7.436" x="632.8009" y="548.9262">1</text></g><!--link Vehicle to UsageRestriction--><g id="link_Vehicle_UsageRestriction"><path codeLine="92" d="M573.2,441.44 C493.39,477.69 365.0327,536.0182 275.0727,576.8882 " fill="none" id="Vehicle-to-UsageRestriction" style="stroke:#181818;stroke-width:1.0;"/><polygon fill="#181818" points="269.61,579.37,279.4585,579.2891,274.1622,577.3019,276.1495,572.0056,269.61,579.37" style="stroke:#181818;stroke-width:1.0;"/><text fill="#000000" font-family="sans-serif" font-size="13" lengthAdjust="spacing" textLength="21.554" x="409.18" y="526.577">has</text><text fill="#000000" font-family="sans-serif" font-size="13" lengthAdjust="spacing" textLength="7.436" x="557.6367" y="441.1747">1</text><text fill="#000000" font-family="sans-serif" font-size="13" lengthAdjust="spacing" textLength="7.436" x="276.9779" y="568.0441">1</text></g><!--link Vehicle to AvailabilitySchedule--><g id="link_Vehicle_AvailabilitySchedule"><path codeLine="93" d="M580.5,482.08 C553.4,514.36 526.1188,546.8554 502.7288,574.7054 " fill="none" id="Vehicle-to-AvailabilitySchedule" style="stroke:#181818;stroke-width:1.0;"/><polygon fill="#181818" points="498.87,579.3,507.7212,574.9807,502.0856,575.4712,501.5951,569.8357,498.87,579.3" style="stroke:#181818;stroke-width:1.0;"/><text fill="#000000" font-family="sans-serif" font-size="13" lengthAdjust="spacing" textLength="21.554" x="552.68" y="526.577">has</text><text fill="#000000" font-family="sans-serif" font-size="13" lengthAdjust="spacing" textLength="7.436" x="567.4989" y="503.69">1</text><text fill="#000000" font-family="sans-serif" font-size="13" lengthAdjust="spacing" textLength="21.567" x="481.9304" y="567.9629">0..*</text></g><!--SRC=[TLFBQjmm5DthAuGtXiA4PcjAOBhf9j0mQRefMMZaExQ87aQIFPYc_ruzBMLcuetjgwDppdsrk-t1UsgLDWXHJep1BmOq_ekmUoGH43x84D_Jg2HWEOiZw100GHYFHsGL82rcygIq89OfYVvbpaUGVM0jeUzAQtNUf4PYy48uwt6lsGAwDPWp2f96OUq8vU1ljvNntp0ooY5JFetAgloJpXAz86-HIAWUek4LYCRgv8yyTKhFAjn5eZzVx-w-l8OuLR9d7pDgzelBd1mPPtR5ptI4VkRGO9T6VP8FaWtB1E2JLgByESU5zE0gI3Z-1LgOm1K3uJzHJ9gbcaoCliqJveh6QeSwWPsr_1WJZ8DheAkdOBOI-m5gq6HoPNBDc6LFz1eqIpo7i_jrYigkKJDKJ2_6yn_0M6VEwqRp8Ln54yrGT8zPeBkXMZLWqcfaHsQXnyHHBRxc7Nvsn7BmiFlNoz7uQKSteidW0HO6voIVHYdsLVYPBPayQJY1zbDtNUuo13S6gXfhvSSftIwjLk5bBB6pkVIwDqPH5Xhcjh1DoxBRlJ-4PKJjjYibXiAQVdjtroE-2cGuGecgkM_SrGVS-8esssfqM9szuaPVuzndpgKBsPhRECUNojlv9KRvKiHeDens8xm0tbQjUn2HA1k-q2t-FEeA50JB-doEkfhJJw1HzUPw9wF_0G00]--></g></svg>
