<svg xmlns="http://www.w3.org/2000/svg" xmlns:xlink="http://www.w3.org/1999/xlink" contentStyleType="text/css" data-diagram-type="CLASS" height="681px" preserveAspectRatio="none" style="width:971px;height:681px;background:#FFFFFF;" version="1.1" viewBox="0 0 971 681" width="971px" zoomAndPan="magnify"><defs/><g><!--class User--><g class="entity" data-entity="User" data-source-line="3" data-uid="ent0002" id="entity_User"><rect fill="#F1F1F1" height="129.4844" rx="2.5" ry="2.5" style="stroke:#181818;stroke-width:0.5;" width="159.8613" x="478.03" y="7"/><ellipse cx="537.7556" cy="23" fill="#ADD1B2" rx="11" ry="11" style="stroke:#181818;stroke-width:1;"/><path d="M540.7243,28.6406 Q540.1462,28.9375 539.5056,29.0781 Q538.865,29.2344 538.1618,29.2344 Q535.6618,29.2344 534.3337,27.5938 Q533.0212,25.9375 533.0212,22.8125 Q533.0212,19.6875 534.3337,18.0313 Q535.6618,16.375 538.1618,16.375 Q538.865,16.375 539.5056,16.5313 Q540.1618,16.6875 540.7243,16.9844 L540.7243,19.7031 Q540.0993,19.125 539.5056,18.8594 Q538.9118,18.5781 538.2868,18.5781 Q536.9431,18.5781 536.2556,19.6563 Q535.5681,20.7188 535.5681,22.8125 Q535.5681,24.9063 536.2556,25.9844 Q536.9431,27.0469 538.2868,27.0469 Q538.9118,27.0469 539.5056,26.7813 Q540.0993,26.5 540.7243,25.9219 L540.7243,28.6406 Z " fill="#000000"/><text fill="#000000" font-family="sans-serif" font-size="14" lengthAdjust="spacing" textLength="31.9102" x="558.2556" y="27.8467">User</text><line style="stroke:#181818;stroke-width:0.5;" x1="479.03" x2="636.8913" y1="39" y2="39"/><text fill="#000000" font-family="sans-serif" font-size="14" lengthAdjust="spacing" textLength="39.7031" x="484.03" y="55.9951">name</text><text fill="#000000" font-family="sans-serif" font-size="14" lengthAdjust="spacing" textLength="26.0791" x="484.03" y="72.292">age</text><text fill="#000000" font-family="sans-serif" font-size="14" lengthAdjust="spacing" textLength="102.9014" x="484.03" y="88.5889">phone number</text><text fill="#000000" font-family="sans-serif" font-size="14" lengthAdjust="spacing" textLength="38.6094" x="484.03" y="104.8857">email</text><text fill="#000000" font-family="sans-serif" font-size="14" lengthAdjust="spacing" textLength="147.8613" x="484.03" y="121.1826">payment information</text><line style="stroke:#181818;stroke-width:0.5;" x1="479.03" x2="636.8913" y1="128.4844" y2="128.4844"/></g><!--class Lender--><g class="entity" data-entity="Lender" data-source-line="11" data-uid="ent0003" id="entity_Lender"><rect fill="#F1F1F1" height="48" rx="2.5" ry="2.5" style="stroke:#181818;stroke-width:0.5;" width="80.542" x="434.69" y="213.78"/><ellipse cx="449.69" cy="229.78" fill="#ADD1B2" rx="11" ry="11" style="stroke:#181818;stroke-width:1;"/><path d="M452.6588,235.4206 Q452.0806,235.7175 451.44,235.8581 Q450.7994,236.0144 450.0963,236.0144 Q447.5963,236.0144 446.2681,234.3737 Q444.9556,232.7175 444.9556,229.5925 Q444.9556,226.4675 446.2681,224.8112 Q447.5963,223.155 450.0963,223.155 Q450.7994,223.155 451.44,223.3112 Q452.0963,223.4675 452.6588,223.7644 L452.6588,226.4831 Q452.0338,225.905 451.44,225.6394 Q450.8463,225.3581 450.2213,225.3581 Q448.8775,225.3581 448.19,226.4362 Q447.5025,227.4987 447.5025,229.5925 Q447.5025,231.6862 448.19,232.7644 Q448.8775,233.8269 450.2213,233.8269 Q450.8463,233.8269 451.44,233.5612 Q452.0338,233.28 452.6588,232.7019 L452.6588,235.4206 Z " fill="#000000"/><text fill="#000000" font-family="sans-serif" font-size="14" lengthAdjust="spacing" textLength="48.542" x="463.69" y="234.6267">Lender</text><line style="stroke:#181818;stroke-width:0.5;" x1="435.69" x2="514.232" y1="245.78" y2="245.78"/><line style="stroke:#181818;stroke-width:0.5;" x1="435.69" x2="514.232" y1="253.78" y2="253.78"/></g><!--class Borrower--><g class="entity" data-entity="Borrower" data-source-line="15" data-uid="ent0004" id="entity_Borrower"><rect fill="#F1F1F1" height="80.5938" rx="2.5" ry="2.5" style="stroke:#181818;stroke-width:0.5;" width="185.2295" x="570.34" y="197.48"/><ellipse cx="626.6715" cy="213.48" fill="#ADD1B2" rx="11" ry="11" style="stroke:#181818;stroke-width:1;"/><path d="M629.6403,219.1206 Q629.0622,219.4175 628.4215,219.5581 Q627.7809,219.7144 627.0778,219.7144 Q624.5778,219.7144 623.2497,218.0738 Q621.9372,216.4175 621.9372,213.2925 Q621.9372,210.1675 623.2497,208.5113 Q624.5778,206.855 627.0778,206.855 Q627.7809,206.855 628.4215,207.0113 Q629.0778,207.1675 629.6403,207.4644 L629.6403,210.1831 Q629.0153,209.605 628.4215,209.3394 Q627.8278,209.0581 627.2028,209.0581 Q625.859,209.0581 625.1715,210.1363 Q624.484,211.1988 624.484,213.2925 Q624.484,215.3863 625.1715,216.4644 Q625.859,217.5269 627.2028,217.5269 Q627.8278,217.5269 628.4215,217.2613 Q629.0153,216.98 629.6403,216.4019 L629.6403,219.1206 Z " fill="#000000"/><text fill="#000000" font-family="sans-serif" font-size="14" lengthAdjust="spacing" textLength="64.0664" x="647.1715" y="218.3267">Borrower</text><line style="stroke:#181818;stroke-width:0.5;" x1="571.34" x2="754.5695" y1="229.48" y2="229.48"/><text fill="#000000" font-family="sans-serif" font-size="14" lengthAdjust="spacing" textLength="173.2295" x="576.34" y="246.4751">has valid driver's licence</text><text fill="#000000" font-family="sans-serif" font-size="14" lengthAdjust="spacing" textLength="41.4736" x="576.34" y="262.772">rating</text><line style="stroke:#181818;stroke-width:0.5;" x1="571.34" x2="754.5695" y1="270.0738" y2="270.0738"/></g><!--class Photo--><g class="entity" data-entity="Photo" data-source-line="22" data-uid="ent0005" id="entity_Photo"><rect fill="#F1F1F1" height="48" rx="2.5" ry="2.5" style="stroke:#181818;stroke-width:0.5;" width="71.9355" x="672.99" y="47.74"/><ellipse cx="687.99" cy="63.74" fill="#ADD1B2" rx="11" ry="11" style="stroke:#181818;stroke-width:1;"/><path d="M690.9588,69.3806 Q690.3806,69.6775 689.74,69.8181 Q689.0994,69.9744 688.3963,69.9744 Q685.8963,69.9744 684.5681,68.3338 Q683.2556,66.6775 683.2556,63.5525 Q683.2556,60.4275 684.5681,58.7713 Q685.8963,57.115 688.3963,57.115 Q689.0994,57.115 689.74,57.2713 Q690.3963,57.4275 690.9588,57.7244 L690.9588,60.4431 Q690.3338,59.865 689.74,59.5994 Q689.1463,59.3181 688.5213,59.3181 Q687.1775,59.3181 686.49,60.3963 Q685.8025,61.4588 685.8025,63.5525 Q685.8025,65.6463 686.49,66.7244 Q687.1775,67.7869 688.5213,67.7869 Q689.1463,67.7869 689.74,67.5213 Q690.3338,67.24 690.9588,66.6619 L690.9588,69.3806 Z " fill="#000000"/><text fill="#000000" font-family="sans-serif" font-size="14" lengthAdjust="spacing" textLength="39.9355" x="701.99" y="68.5867">Photo</text><line style="stroke:#181818;stroke-width:0.5;" x1="673.99" x2="743.9255" y1="79.74" y2="79.74"/><line style="stroke:#181818;stroke-width:0.5;" x1="673.99" x2="743.9255" y1="87.74" y2="87.74"/></g><!--class Vehicle--><g class="entity" data-entity="Vehicle" data-source-line="24" data-uid="ent0006" id="entity_Vehicle"><rect fill="#F1F1F1" height="129.4844" rx="2.5" ry="2.5" style="stroke:#181818;stroke-width:0.5;" width="141.6641" x="339.12" y="355.08"/><ellipse cx="380.4498" cy="371.08" fill="#ADD1B2" rx="11" ry="11" style="stroke:#181818;stroke-width:1;"/><path d="M383.4186,376.7206 Q382.8405,377.0175 382.1998,377.1581 Q381.5592,377.3144 380.8561,377.3144 Q378.3561,377.3144 377.028,375.6738 Q375.7155,374.0175 375.7155,370.8925 Q375.7155,367.7675 377.028,366.1113 Q378.3561,364.455 380.8561,364.455 Q381.5592,364.455 382.1998,364.6113 Q382.8561,364.7675 383.4186,365.0644 L383.4186,367.7831 Q382.7936,367.205 382.1998,366.9394 Q381.6061,366.6581 380.9811,366.6581 Q379.6373,366.6581 378.9498,367.7363 Q378.2623,368.7988 378.2623,370.8925 Q378.2623,372.9863 378.9498,374.0644 Q379.6373,375.1269 380.9811,375.1269 Q381.6061,375.1269 382.1998,374.8613 Q382.7936,374.58 383.4186,374.0019 L383.4186,376.7206 Z " fill="#000000"/><text fill="#000000" font-family="sans-serif" font-size="14" lengthAdjust="spacing" textLength="51.1533" x="400.3009" y="375.9267">Vehicle</text><line style="stroke:#181818;stroke-width:0.5;" x1="340.12" x2="479.7841" y1="387.08" y2="387.08"/><text fill="#000000" font-family="sans-serif" font-size="14" lengthAdjust="spacing" textLength="38.9375" x="345.12" y="404.0751">make</text><text fill="#000000" font-family="sans-serif" font-size="14" lengthAdjust="spacing" textLength="43.5928" x="345.12" y="420.372">model</text><text fill="#000000" font-family="sans-serif" font-size="14" lengthAdjust="spacing" textLength="105.6016" x="345.12" y="436.6689">year of making</text><text fill="#000000" font-family="sans-serif" font-size="14" lengthAdjust="spacing" textLength="129.6641" x="345.12" y="452.9657">photo : Photo[0..*]</text><text fill="#000000" font-family="sans-serif" font-size="14" lengthAdjust="spacing" textLength="64.7295" x="345.12" y="469.2626">condition</text><line style="stroke:#181818;stroke-width:0.5;" x1="340.12" x2="479.7841" y1="476.5644" y2="476.5644"/></g><!--class AvailabilitySchedule--><g class="entity" data-entity="AvailabilitySchedule" data-source-line="32" data-uid="ent0007" id="entity_AvailabilitySchedule"><rect fill="#F1F1F1" height="80.5938" rx="2.5" ry="2.5" style="stroke:#181818;stroke-width:0.5;" width="177.9131" x="7" y="577.86"/><ellipse cx="22" cy="593.86" fill="#ADD1B2" rx="11" ry="11" style="stroke:#181818;stroke-width:1;"/><path d="M24.9688,599.5006 Q24.3906,599.7975 23.75,599.9381 Q23.1094,600.0944 22.4063,600.0944 Q19.9063,600.0944 18.5781,598.4538 Q17.2656,596.7975 17.2656,593.6725 Q17.2656,590.5475 18.5781,588.8913 Q19.9063,587.235 22.4063,587.235 Q23.1094,587.235 23.75,587.3913 Q24.4063,587.5475 24.9688,587.8444 L24.9688,590.5631 Q24.3438,589.985 23.75,589.7194 Q23.1563,589.4381 22.5313,589.4381 Q21.1875,589.4381 20.5,590.5163 Q19.8125,591.5788 19.8125,593.6725 Q19.8125,595.7663 20.5,596.8444 Q21.1875,597.9069 22.5313,597.9069 Q23.1563,597.9069 23.75,597.6413 Q24.3438,597.36 24.9688,596.7819 L24.9688,599.5006 Z " fill="#000000"/><text fill="#000000" font-family="sans-serif" font-size="14" lengthAdjust="spacing" textLength="145.9131" x="36" y="598.7067">Availability Schedule</text><line style="stroke:#181818;stroke-width:0.5;" x1="8" x2="183.9131" y1="609.86" y2="609.86"/><text fill="#000000" font-family="sans-serif" font-size="14" lengthAdjust="spacing" textLength="68.9678" x="13" y="626.8551">time from</text><text fill="#000000" font-family="sans-serif" font-size="14" lengthAdjust="spacing" textLength="50.1348" x="13" y="643.152">time to</text><line style="stroke:#181818;stroke-width:0.5;" x1="8" x2="183.9131" y1="650.4538" y2="650.4538"/></g><!--class RentalTerms--><g class="entity" data-entity="RentalTerms" data-source-line="37" data-uid="ent0008" id="entity_RentalTerms"><rect fill="#F1F1F1" height="113.1875" rx="2.5" ry="2.5" style="stroke:#181818;stroke-width:0.5;" width="125.4746" x="220.22" y="561.56"/><ellipse cx="235.22" cy="577.56" fill="#ADD1B2" rx="11" ry="11" style="stroke:#181818;stroke-width:1;"/><path d="M238.1888,583.2006 Q237.6106,583.4975 236.97,583.6381 Q236.3294,583.7944 235.6263,583.7944 Q233.1263,583.7944 231.7981,582.1538 Q230.4856,580.4975 230.4856,577.3725 Q230.4856,574.2475 231.7981,572.5913 Q233.1263,570.935 235.6263,570.935 Q236.3294,570.935 236.97,571.0913 Q237.6263,571.2475 238.1888,571.5444 L238.1888,574.2631 Q237.5638,573.685 236.97,573.4194 Q236.3763,573.1381 235.7513,573.1381 Q234.4075,573.1381 233.72,574.2163 Q233.0325,575.2788 233.0325,577.3725 Q233.0325,579.4663 233.72,580.5444 Q234.4075,581.6069 235.7513,581.6069 Q236.3763,581.6069 236.97,581.3413 Q237.5638,581.06 238.1888,580.4819 L238.1888,583.2006 Z " fill="#000000"/><text fill="#000000" font-family="sans-serif" font-size="14" lengthAdjust="spacing" textLength="93.4746" x="249.22" y="582.4067">Rental Terms</text><line style="stroke:#181818;stroke-width:0.5;" x1="221.22" x2="344.6946" y1="593.56" y2="593.56"/><text fill="#000000" font-family="sans-serif" font-size="14" lengthAdjust="spacing" textLength="34.8428" x="226.22" y="610.5551">price</text><text fill="#000000" font-family="sans-serif" font-size="14" lengthAdjust="spacing" textLength="106.3398" x="226.22" y="626.852">pickup location</text><text fill="#000000" font-family="sans-serif" font-size="14" lengthAdjust="spacing" textLength="103.3594" x="226.22" y="643.1489">return location</text><text fill="#000000" font-family="sans-serif" font-size="14" lengthAdjust="spacing" textLength="91.3555" x="226.22" y="659.4457">mileage limit</text><line style="stroke:#181818;stroke-width:0.5;" x1="221.22" x2="344.6946" y1="666.7475" y2="666.7475"/></g><!--class GeographicBoundary--><g class="entity" data-entity="GeographicBoundary" data-source-line="44" data-uid="ent0009" id="entity_GeographicBoundary"><rect fill="#F1F1F1" height="80.5938" rx="2.5" ry="2.5" style="stroke:#181818;stroke-width:0.5;" width="184.4688" x="779.72" y="31.45"/><ellipse cx="794.72" cy="47.45" fill="#ADD1B2" rx="11" ry="11" style="stroke:#181818;stroke-width:1;"/><path d="M797.6888,53.0906 Q797.1106,53.3875 796.47,53.5281 Q795.8294,53.6844 795.1263,53.6844 Q792.6263,53.6844 791.2981,52.0438 Q789.9856,50.3875 789.9856,47.2625 Q789.9856,44.1375 791.2981,42.4813 Q792.6263,40.825 795.1263,40.825 Q795.8294,40.825 796.47,40.9813 Q797.1263,41.1375 797.6888,41.4344 L797.6888,44.1531 Q797.0638,43.575 796.47,43.3094 Q795.8763,43.0281 795.2513,43.0281 Q793.9075,43.0281 793.22,44.1063 Q792.5325,45.1688 792.5325,47.2625 Q792.5325,49.3563 793.22,50.4344 Q793.9075,51.4969 795.2513,51.4969 Q795.8763,51.4969 796.47,51.2313 Q797.0638,50.95 797.6888,50.3719 L797.6888,53.0906 Z " fill="#000000"/><text fill="#000000" font-family="sans-serif" font-size="14" lengthAdjust="spacing" textLength="152.4688" x="808.72" y="52.2967">Geographic Boundary</text><line style="stroke:#181818;stroke-width:0.5;" x1="780.72" x2="963.1888" y1="63.45" y2="63.45"/><text fill="#000000" font-family="sans-serif" font-size="14" lengthAdjust="spacing" textLength="31.2744" x="785.72" y="80.4451">type</text><text fill="#000000" font-family="sans-serif" font-size="14" lengthAdjust="spacing" textLength="38.2402" x="785.72" y="96.742">value</text><line style="stroke:#181818;stroke-width:0.5;" x1="780.72" x2="963.1888" y1="104.0438" y2="104.0438"/></g><!--class UsageRestriction--><g class="entity" data-entity="UsageRestriction" data-source-line="49" data-uid="ent0010" id="entity_UsageRestriction"><rect fill="#F1F1F1" height="80.5938" rx="2.5" ry="2.5" style="stroke:#181818;stroke-width:0.5;" width="359.1563" x="380.38" y="577.86"/><ellipse cx="490.3839" cy="593.86" fill="#ADD1B2" rx="11" ry="11" style="stroke:#181818;stroke-width:1;"/><path d="M493.3527,599.5006 Q492.7745,599.7975 492.1339,599.9381 Q491.4933,600.0944 490.7902,600.0944 Q488.2902,600.0944 486.962,598.4538 Q485.6495,596.7975 485.6495,593.6725 Q485.6495,590.5475 486.962,588.8913 Q488.2902,587.235 490.7902,587.235 Q491.4933,587.235 492.1339,587.3913 Q492.7902,587.5475 493.3527,587.8444 L493.3527,590.5631 Q492.7277,589.985 492.1339,589.7194 Q491.5402,589.4381 490.9152,589.4381 Q489.5714,589.4381 488.8839,590.5163 Q488.1964,591.5788 488.1964,593.6725 Q488.1964,595.7663 488.8839,596.8444 Q489.5714,597.9069 490.9152,597.9069 Q491.5402,597.9069 492.1339,597.6413 Q492.7277,597.36 493.3527,596.7819 L493.3527,599.5006 Z " fill="#000000"/><text fill="#000000" font-family="sans-serif" font-size="14" lengthAdjust="spacing" textLength="130.6484" x="510.8839" y="598.7067">Usage Restrictions</text><line style="stroke:#181818;stroke-width:0.5;" x1="381.38" x2="738.5363" y1="609.86" y2="609.86"/><text fill="#000000" font-family="sans-serif" font-size="14" lengthAdjust="spacing" textLength="347.1563" x="386.38" y="626.8551">geographic boundary : GeographicBoundary[0..*]</text><text fill="#000000" font-family="sans-serif" font-size="14" lengthAdjust="spacing" textLength="220.8281" x="386.38" y="643.152">prohibited activity : String[0..1]</text><line style="stroke:#181818;stroke-width:0.5;" x1="381.38" x2="738.5363" y1="650.4538" y2="650.4538"/></g><!--class Review--><g class="entity" data-entity="Review" data-source-line="56" data-uid="ent0011" id="entity_Review"><rect fill="#F1F1F1" height="80.5938" rx="2.5" ry="2.5" style="stroke:#181818;stroke-width:0.5;" width="82.5791" x="515.67" y="379.52"/><ellipse cx="530.67" cy="395.52" fill="#ADD1B2" rx="11" ry="11" style="stroke:#181818;stroke-width:1;"/><path d="M533.6388,401.1606 Q533.0606,401.4575 532.42,401.5981 Q531.7794,401.7544 531.0763,401.7544 Q528.5763,401.7544 527.2481,400.1138 Q525.9356,398.4575 525.9356,395.3325 Q525.9356,392.2075 527.2481,390.5513 Q528.5763,388.895 531.0763,388.895 Q531.7794,388.895 532.42,389.0513 Q533.0763,389.2075 533.6388,389.5044 L533.6388,392.2231 Q533.0138,391.645 532.42,391.3794 Q531.8263,391.0981 531.2013,391.0981 Q529.8575,391.0981 529.17,392.1763 Q528.4825,393.2388 528.4825,395.3325 Q528.4825,397.4263 529.17,398.5044 Q529.8575,399.5669 531.2013,399.5669 Q531.8263,399.5669 532.42,399.3013 Q533.0138,399.02 533.6388,398.4419 L533.6388,401.1606 Z " fill="#000000"/><text fill="#000000" font-family="sans-serif" font-size="14" lengthAdjust="spacing" textLength="50.5791" x="544.67" y="400.3667">Review</text><line style="stroke:#181818;stroke-width:0.5;" x1="516.67" x2="597.2491" y1="411.52" y2="411.52"/><text fill="#000000" font-family="sans-serif" font-size="14" lengthAdjust="spacing" textLength="41.4736" x="521.67" y="428.5151">rating</text><text fill="#000000" font-family="sans-serif" font-size="14" lengthAdjust="spacing" textLength="66.5137" x="521.67" y="444.812">comment</text><line style="stroke:#181818;stroke-width:0.5;" x1="516.67" x2="597.2491" y1="452.1138" y2="452.1138"/></g><!--class Preferences--><g class="entity" data-entity="Preferences" data-source-line="61" data-uid="ent0012" id="entity_Preferences"><rect fill="#F1F1F1" height="113.1875" rx="2.5" ry="2.5" style="stroke:#181818;stroke-width:0.5;" width="115.2002" x="633.36" y="363.23"/><ellipse cx="648.36" cy="379.23" fill="#ADD1B2" rx="11" ry="11" style="stroke:#181818;stroke-width:1;"/><path d="M651.3288,384.8706 Q650.7506,385.1675 650.11,385.3081 Q649.4694,385.4644 648.7663,385.4644 Q646.2663,385.4644 644.9381,383.8238 Q643.6256,382.1675 643.6256,379.0425 Q643.6256,375.9175 644.9381,374.2613 Q646.2663,372.605 648.7663,372.605 Q649.4694,372.605 650.11,372.7613 Q650.7663,372.9175 651.3288,373.2144 L651.3288,375.9331 Q650.7038,375.355 650.11,375.0894 Q649.5163,374.8081 648.8913,374.8081 Q647.5475,374.8081 646.86,375.8863 Q646.1725,376.9488 646.1725,379.0425 Q646.1725,381.1363 646.86,382.2144 Q647.5475,383.2769 648.8913,383.2769 Q649.5163,383.2769 650.11,383.0113 Q650.7038,382.73 651.3288,382.1519 L651.3288,384.8706 Z " fill="#000000"/><text fill="#000000" font-family="sans-serif" font-size="14" lengthAdjust="spacing" textLength="83.2002" x="662.36" y="384.0767">Preferences</text><line style="stroke:#181818;stroke-width:0.5;" x1="634.36" x2="747.5602" y1="395.23" y2="395.23"/><text fill="#000000" font-family="sans-serif" font-size="14" lengthAdjust="spacing" textLength="34.8428" x="639.36" y="412.2251">price</text><text fill="#000000" font-family="sans-serif" font-size="14" lengthAdjust="spacing" textLength="64.7295" x="639.36" y="428.522">condition</text><text fill="#000000" font-family="sans-serif" font-size="14" lengthAdjust="spacing" textLength="38.9375" x="639.36" y="444.8189">make</text><text fill="#000000" font-family="sans-serif" font-size="14" lengthAdjust="spacing" textLength="43.5928" x="639.36" y="461.1157">model</text><line style="stroke:#181818;stroke-width:0.5;" x1="634.36" x2="747.5602" y1="468.4175" y2="468.4175"/></g><!--class Booking--><g class="entity" data-entity="Booking" data-source-line="68" data-uid="ent0013" id="entity_Booking"><rect fill="#F1F1F1" height="96.8906" rx="2.5" ry="2.5" style="stroke:#181818;stroke-width:0.5;" width="88.4922" x="774.71" y="569.71"/><ellipse cx="789.71" cy="585.71" fill="#ADD1B2" rx="11" ry="11" style="stroke:#181818;stroke-width:1;"/><path d="M792.6788,591.3506 Q792.1006,591.6475 791.46,591.7881 Q790.8194,591.9444 790.1163,591.9444 Q787.6163,591.9444 786.2881,590.3038 Q784.9756,588.6475 784.9756,585.5225 Q784.9756,582.3975 786.2881,580.7413 Q787.6163,579.085 790.1163,579.085 Q790.8194,579.085 791.46,579.2413 Q792.1163,579.3975 792.6788,579.6944 L792.6788,582.4131 Q792.0538,581.835 791.46,581.5694 Q790.8663,581.2881 790.2413,581.2881 Q788.8975,581.2881 788.21,582.3663 Q787.5225,583.4288 787.5225,585.5225 Q787.5225,587.6163 788.21,588.6944 Q788.8975,589.7569 790.2413,589.7569 Q790.8663,589.7569 791.46,589.4913 Q792.0538,589.21 792.6788,588.6319 L792.6788,591.3506 Z " fill="#000000"/><text fill="#000000" font-family="sans-serif" font-size="14" lengthAdjust="spacing" textLength="56.4922" x="803.71" y="590.5567">Booking</text><line style="stroke:#181818;stroke-width:0.5;" x1="775.71" x2="862.2022" y1="601.71" y2="601.71"/><text fill="#000000" font-family="sans-serif" font-size="14" lengthAdjust="spacing" textLength="32.8877" x="780.71" y="618.7051">from</text><text fill="#000000" font-family="sans-serif" font-size="14" lengthAdjust="spacing" textLength="14.0547" x="780.71" y="635.002">to</text><text fill="#000000" font-family="sans-serif" font-size="14" lengthAdjust="spacing" textLength="43.0186" x="780.71" y="651.2989">status</text><line style="stroke:#181818;stroke-width:0.5;" x1="775.71" x2="862.2022" y1="658.6006" y2="658.6006"/></g><!--reverse link User to Lender--><g class="link" data-entity-1="User" data-entity-2="Lender" data-source-line="79" data-uid="lnk14" id="link_User_Lender"><path codeLine="79" d="M517.5017,152.6902 C503.8417,179.6802 496.92,193.37 486.8,213.37" fill="none" id="User-backto-Lender" style="stroke:#181818;stroke-width:1;"/><polygon fill="none" points="525.63,136.63,512.1483,149.9808,522.8551,155.3997,525.63,136.63" style="stroke:#181818;stroke-width:1;"/></g><!--reverse link User to Borrower--><g class="link" data-entity-1="User" data-entity-2="Borrower" data-source-line="80" data-uid="lnk15" id="link_User_Borrower"><path codeLine="80" d="M608.5549,151.7897 C621.6849,172.2997 626.13,179.25 637.79,197.46" fill="none" id="User-backto-Borrower" style="stroke:#181818;stroke-width:1;"/><polygon fill="none" points="598.85,136.63,603.5016,155.0246,613.6081,148.5547,598.85,136.63" style="stroke:#181818;stroke-width:1;"/></g><!--link Lender to Vehicle--><g class="link" data-entity-1="Lender" data-entity-2="Vehicle" data-source-line="82" data-uid="lnk16" id="link_Lender_Vehicle"><path codeLine="82" d="M466.59,261.95 C458.16,285.31 446.7874,316.7965 435.1374,349.0665" fill="none" id="Lender-to-Vehicle" style="stroke:#181818;stroke-width:1;"/><polygon fill="#181818" points="433.1,354.71,439.9184,347.603,434.7978,350.0071,432.3938,344.8865,433.1,354.71" style="stroke:#181818;stroke-width:1;"/><text fill="#000000" font-family="sans-serif" font-size="13" lengthAdjust="spacing" textLength="33.5981" x="449.96" y="321.1469">owns</text><text fill="#000000" font-family="sans-serif" font-size="13" lengthAdjust="spacing" textLength="8.271" x="455.6076" y="281.7526">1</text><text fill="#000000" font-family="sans-serif" font-size="13" lengthAdjust="spacing" textLength="23.0356" x="411.3759" y="343.8422">0..*</text></g><!--link Borrower to Booking--><g class="link" data-entity-1="Borrower" data-entity-2="Booking" data-source-line="84" data-uid="lnk17" id="link_Borrower_Booking"><path codeLine="84" d="M707.58,278.37 C728.38,299.2 751.65,326.35 765.96,355.08 C800.52,424.47 812.0908,508.8676 816.2708,563.3276" fill="none" id="Borrower-to-Booking" style="stroke:#181818;stroke-width:1;"/><polygon fill="#181818" points="816.73,569.31,820.0295,560.0303,816.3474,564.3247,812.053,560.6425,816.73,569.31" style="stroke:#181818;stroke-width:1;"/><text fill="#000000" font-family="sans-serif" font-size="13" lengthAdjust="spacing" textLength="42.9292" x="805.96" y="424.3869">makes</text><text fill="#000000" font-family="sans-serif" font-size="13" lengthAdjust="spacing" textLength="8.271" x="706.0762" y="298.1123">1</text><text fill="#000000" font-family="sans-serif" font-size="13" lengthAdjust="spacing" textLength="24.8066" x="790.8726" y="558.8144">0..1</text></g><!--link Borrower to Review--><g class="link" data-entity-1="Borrower" data-entity-2="Review" data-source-line="85" data-uid="lnk18" id="link_Borrower_Review"><path codeLine="85" d="M639.69,278.29 C622.08,308.21 601.0335,343.9492 583.3935,373.9192" fill="none" id="Borrower-to-Review" style="stroke:#181818;stroke-width:1;"/><polygon fill="#181818" points="580.35,379.09,588.3624,373.3628,582.8862,374.781,581.468,369.3048,580.35,379.09" style="stroke:#181818;stroke-width:1;"/><text fill="#000000" font-family="sans-serif" font-size="13" lengthAdjust="spacing" textLength="22.9785" x="620.96" y="321.1469">has</text><text fill="#000000" font-family="sans-serif" font-size="13" lengthAdjust="spacing" textLength="8.271" x="627.3663" y="298.0196">1</text><text fill="#000000" font-family="sans-serif" font-size="13" lengthAdjust="spacing" textLength="23.0356" x="559.2479" y="368.4813">0..*</text></g><!--link Borrower to Preferences--><g class="link" data-entity-1="Borrower" data-entity-2="Preferences" data-source-line="86" data-uid="lnk19" id="link_Borrower_Preferences"><path codeLine="86" d="M669.1,278.29 C672.96,303.13 677.0878,329.6313 681.3578,357.0813" fill="none" id="Borrower-to-Preferences" style="stroke:#181818;stroke-width:1;"/><polygon fill="#181818" points="682.28,363.01,684.8491,353.5021,681.5115,358.0694,676.9442,354.7318,682.28,363.01" style="stroke:#181818;stroke-width:1;"/><text fill="#000000" font-family="sans-serif" font-size="13" lengthAdjust="spacing" textLength="22.9785" x="677.96" y="321.1469">has</text><text fill="#000000" font-family="sans-serif" font-size="13" lengthAdjust="spacing" textLength="8.271" x="661.4635" y="298.0196">1</text><text fill="#000000" font-family="sans-serif" font-size="13" lengthAdjust="spacing" textLength="24.8066" x="655.8088" y="352.2467">0..1</text></g><!--link Vehicle to Booking--><g class="link" data-entity-1="Vehicle" data-entity-2="Booking" data-source-line="88" data-uid="lnk20" id="link_Vehicle_Booking"><path codeLine="88" d="M481.24,475.39 C486.77,478.71 492.37,481.81 497.96,484.56 C605.67,537.65 652.15,502.94 756.96,561.56 C762.89,564.88 763.966,565.2025 769.556,569.4825" fill="none" id="Vehicle-to-Booking" style="stroke:#181818;stroke-width:1;"/><polygon fill="#181818" points="774.32,573.13,769.6057,564.4827,770.35,570.0904,764.7423,570.8347,774.32,573.13" style="stroke:#181818;stroke-width:1;"/><text fill="#000000" font-family="sans-serif" font-size="13" lengthAdjust="spacing" textLength="22.9785" x="681.96" y="527.6269">has</text><text fill="#000000" font-family="sans-serif" font-size="13" lengthAdjust="spacing" textLength="8.271" x="489.018" y="477.4207">1</text><text fill="#000000" font-family="sans-serif" font-size="13" lengthAdjust="spacing" textLength="23.0356" x="743.7791" y="563.1477">0..*</text></g><!--link Vehicle to RentalTerms--><g class="link" data-entity-1="Vehicle" data-entity-2="RentalTerms" data-source-line="89" data-uid="lnk21" id="link_Vehicle_RentalTerms"><path codeLine="89" d="M368.55,484.84 C352.62,509.46 337.8395,532.3126 322.4395,556.1126" fill="none" id="Vehicle-to-RentalTerms" style="stroke:#181818;stroke-width:1;"/><polygon fill="#181818" points="319.18,561.15,327.4275,555.7669,321.8963,556.9521,320.711,551.4209,319.18,561.15" style="stroke:#181818;stroke-width:1;"/><text fill="#000000" font-family="sans-serif" font-size="13" lengthAdjust="spacing" textLength="22.9785" x="347.96" y="527.6269">has</text><text fill="#000000" font-family="sans-serif" font-size="13" lengthAdjust="spacing" textLength="8.271" x="355.599" y="504.8458">1</text><text fill="#000000" font-family="sans-serif" font-size="13" lengthAdjust="spacing" textLength="8.271" x="315.1237" y="550.3636">1</text></g><!--link Vehicle to UsageRestriction--><g class="link" data-entity-1="Vehicle" data-entity-2="UsageRestriction" data-source-line="90" data-uid="lnk22" id="link_Vehicle_UsageRestriction"><path codeLine="90" d="M458.86,484.84 C482.2,515.39 505.7574,546.2123 526.0574,572.7823" fill="none" id="Vehicle-to-UsageRestriction" style="stroke:#181818;stroke-width:1;"/><polygon fill="#181818" points="529.7,577.55,527.4145,567.97,526.6645,573.5769,521.0576,572.8268,529.7,577.55" style="stroke:#181818;stroke-width:1;"/><text fill="#000000" font-family="sans-serif" font-size="13" lengthAdjust="spacing" textLength="22.9785" x="494.96" y="527.6269">has</text><text fill="#000000" font-family="sans-serif" font-size="13" lengthAdjust="spacing" textLength="8.271" x="455.7866" y="504.8458">1</text><text fill="#000000" font-family="sans-serif" font-size="13" lengthAdjust="spacing" textLength="8.271" x="516.0484" y="566.6602">1</text></g><!--link Vehicle to AvailabilitySchedule--><g class="link" data-entity-1="Vehicle" data-entity-2="AvailabilitySchedule" data-source-line="91" data-uid="lnk23" id="link_Vehicle_AvailabilitySchedule"><path codeLine="91" d="M338.71,465.37 C284.78,499.09 216.4874,541.789 164.5574,574.259" fill="none" id="Vehicle-to-AvailabilitySchedule" style="stroke:#181818;stroke-width:1;"/><polygon fill="#181818" points="159.47,577.44,169.2217,576.0601,163.7095,574.7892,164.9804,569.277,159.47,577.44" style="stroke:#181818;stroke-width:1;"/><text fill="#000000" font-family="sans-serif" font-size="13" lengthAdjust="spacing" textLength="22.9785" x="253.96" y="527.6269">has</text><text fill="#000000" font-family="sans-serif" font-size="13" lengthAdjust="spacing" textLength="8.271" x="322.9646" y="466.3674">1</text><text fill="#000000" font-family="sans-serif" font-size="13" lengthAdjust="spacing" textLength="23.0356" x="144.7625" y="566.8329">0..*</text></g><!--SRC=[TLDBYzim4BxxLmo-10fPcgif2-cbbuKksSUbx46H9xPOIpAIx62w_UyTFHmhBrzaVJFwldckrgSFjjnfOuk2TynQUBDeu6y1z2acCVom9fvzgnM26kGUJG1GCj554viaAWT27RIHp0cjYdypvnEgEh0kq4zjZ3wUf5fcOMITgA4sOaIpij09Zef7OKE4gl6lLrdWxzWAtk5C-Tngf-TBiYLwoJuZaTGrne0dP0RqmPiyTKhFQQWYqP_l3m_VFWBEjQh5UKRbTgJCsLvqmatmmbkiXmvBe3Hoosn8OJWX4Gv6o-L64I-aEweWw-0LZRI1AmBXdYXw8r9DUi4_XnuwpMErGvtG3KQTOr9qI0saUahXCh5Vg1l3UYeJDMDGDJDJq5pm6PwZd_geJ8qQC6Dwivv_XzPHS5ut1X_W34qqpQAxdmMg6wfP0tgZMx4N3cjWH3NwcbVmGiIgyMwRZylH-ErQ6j4Ku0v7WSSadqOfzbNwcLqoUJPuGEEdxhhSon3S6AXihBKVf_HwQRKEXtNC3VOorgsrcelGC0jaIjkoNdyzXcqiLgTbMR0YxEcFBteV_JDWTY-AH5LkIdhw2AKlQNdQZGhqKT7Yd-XpF_gTawb2klQs7_6b-bP-Y- -IvRMDdiKSnmNT8kkzhfmsvTbQtFUwchyxhb7rvjg65_y1]--></g></svg>