<svg xmlns="http://www.w3.org/2000/svg" xmlns:xlink="http://www.w3.org/1999/xlink" contentStyleType="text/css" data-diagram-type="CLASS" height="879px" preserveAspectRatio="none" style="width:1782px;height:879px;background:#FFFFFF;" version="1.1" viewBox="0 0 1782 879" width="1782px" zoomAndPan="magnify"><defs/><g><!--class User--><g class="entity" data-entity="User" data-source-line="6" data-uid="ent0002" id="entity_User"><rect fill="#F1F1F1" height="129.4844" rx="2.5" ry="2.5" style="stroke:#181818;stroke-width:0.5;" width="159.8613" x="1160.65" y="7"/><ellipse cx="1220.3756" cy="23" fill="#ADD1B2" rx="11" ry="11" style="stroke:#181818;stroke-width:1;"/><path d="M1223.3443,28.6406 Q1222.7662,28.9375 1222.1256,29.0781 Q1221.485,29.2344 1220.7818,29.2344 Q1218.2818,29.2344 1216.9537,27.5938 Q1215.6412,25.9375 1215.6412,22.8125 Q1215.6412,19.6875 1216.9537,18.0313 Q1218.2818,16.375 1220.7818,16.375 Q1221.485,16.375 1222.1256,16.5313 Q1222.7818,16.6875 1223.3443,16.9844 L1223.3443,19.7031 Q1222.7193,19.125 1222.1256,18.8594 Q1221.5318,18.5781 1220.9068,18.5781 Q1219.5631,18.5781 1218.8756,19.6563 Q1218.1881,20.7188 1218.1881,22.8125 Q1218.1881,24.9063 1218.8756,25.9844 Q1219.5631,27.0469 1220.9068,27.0469 Q1221.5318,27.0469 1222.1256,26.7813 Q1222.7193,26.5 1223.3443,25.9219 L1223.3443,28.6406 Z " fill="#000000"/><text fill="#000000" font-family="sans-serif" font-size="14" lengthAdjust="spacing" textLength="31.9102" x="1240.8756" y="27.8467">User</text><line style="stroke:#181818;stroke-width:0.5;" x1="1161.65" x2="1319.5113" y1="39" y2="39"/><text fill="#000000" font-family="sans-serif" font-size="14" lengthAdjust="spacing" textLength="39.7031" x="1166.65" y="55.9951">name</text><text fill="#000000" font-family="sans-serif" font-size="14" lengthAdjust="spacing" textLength="26.0791" x="1166.65" y="72.292">age</text><text fill="#000000" font-family="sans-serif" font-size="14" lengthAdjust="spacing" textLength="102.9014" x="1166.65" y="88.5889">phone number</text><text fill="#000000" font-family="sans-serif" font-size="14" lengthAdjust="spacing" textLength="38.6094" x="1166.65" y="104.8857">email</text><text fill="#000000" font-family="sans-serif" font-size="14" lengthAdjust="spacing" textLength="147.8613" x="1166.65" y="121.1826">payment information</text><line style="stroke:#181818;stroke-width:0.5;" x1="1161.65" x2="1319.5113" y1="128.4844" y2="128.4844"/></g><!--class Lender--><g class="entity" data-entity="Lender" data-source-line="14" data-uid="ent0003" id="entity_Lender"><rect fill="#F1F1F1" height="48" rx="2.5" ry="2.5" style="stroke:#181818;stroke-width:0.5;" width="80.542" x="1090.31" y="223.78"/><ellipse cx="1105.31" cy="239.78" fill="#ADD1B2" rx="11" ry="11" style="stroke:#181818;stroke-width:1;"/><path d="M1108.2788,245.4206 Q1107.7006,245.7175 1107.06,245.8581 Q1106.4194,246.0144 1105.7163,246.0144 Q1103.2163,246.0144 1101.8881,244.3738 Q1100.5756,242.7175 1100.5756,239.5925 Q1100.5756,236.4675 1101.8881,234.8113 Q1103.2163,233.155 1105.7163,233.155 Q1106.4194,233.155 1107.06,233.3113 Q1107.7163,233.4675 1108.2788,233.7644 L1108.2788,236.4831 Q1107.6538,235.905 1107.06,235.6394 Q1106.4663,235.3581 1105.8413,235.3581 Q1104.4975,235.3581 1103.81,236.4363 Q1103.1225,237.4988 1103.1225,239.5925 Q1103.1225,241.6863 1103.81,242.7644 Q1104.4975,243.8269 1105.8413,243.8269 Q1106.4663,243.8269 1107.06,243.5613 Q1107.6538,243.28 1108.2788,242.7019 L1108.2788,245.4206 Z " fill="#000000"/><text fill="#000000" font-family="sans-serif" font-size="14" lengthAdjust="spacing" textLength="48.542" x="1119.31" y="244.6267">Lender</text><line style="stroke:#181818;stroke-width:0.5;" x1="1091.31" x2="1169.852" y1="255.78" y2="255.78"/><line style="stroke:#181818;stroke-width:0.5;" x1="1091.31" x2="1169.852" y1="263.78" y2="263.78"/></g><!--class Borrower--><g class="entity" data-entity="Borrower" data-source-line="18" data-uid="ent0004" id="entity_Borrower"><rect fill="#F1F1F1" height="80.5938" rx="2.5" ry="2.5" style="stroke:#181818;stroke-width:0.5;" width="185.2295" x="1314.96" y="207.48"/><ellipse cx="1371.2915" cy="223.48" fill="#ADD1B2" rx="11" ry="11" style="stroke:#181818;stroke-width:1;"/><path d="M1374.2603,229.1206 Q1373.6822,229.4175 1373.0415,229.5581 Q1372.4009,229.7144 1371.6978,229.7144 Q1369.1978,229.7144 1367.8697,228.0738 Q1366.5572,226.4175 1366.5572,223.2925 Q1366.5572,220.1675 1367.8697,218.5113 Q1369.1978,216.855 1371.6978,216.855 Q1372.4009,216.855 1373.0415,217.0113 Q1373.6978,217.1675 1374.2603,217.4644 L1374.2603,220.1831 Q1373.6353,219.605 1373.0415,219.3394 Q1372.4478,219.0581 1371.8228,219.0581 Q1370.479,219.0581 1369.7915,220.1363 Q1369.104,221.1988 1369.104,223.2925 Q1369.104,225.3863 1369.7915,226.4644 Q1370.479,227.5269 1371.8228,227.5269 Q1372.4478,227.5269 1373.0415,227.2613 Q1373.6353,226.98 1374.2603,226.4019 L1374.2603,229.1206 Z " fill="#000000"/><text fill="#000000" font-family="sans-serif" font-size="14" lengthAdjust="spacing" textLength="64.0664" x="1391.7915" y="228.3267">Borrower</text><line style="stroke:#181818;stroke-width:0.5;" x1="1315.96" x2="1499.1895" y1="239.48" y2="239.48"/><text fill="#000000" font-family="sans-serif" font-size="14" lengthAdjust="spacing" textLength="173.2295" x="1320.96" y="256.4751">has valid driver's licence</text><text fill="#000000" font-family="sans-serif" font-size="14" lengthAdjust="spacing" textLength="41.4736" x="1320.96" y="272.772">rating</text><line style="stroke:#181818;stroke-width:0.5;" x1="1315.96" x2="1499.1895" y1="280.0738" y2="280.0738"/></g><!--class Photo--><g class="entity" data-entity="Photo" data-source-line="25" data-uid="ent0005" id="entity_Photo"><rect fill="#F1F1F1" height="48" rx="2.5" ry="2.5" style="stroke:#181818;stroke-width:0.5;" width="71.9355" x="1187.61" y="415.82"/><ellipse cx="1202.61" cy="431.82" fill="#ADD1B2" rx="11" ry="11" style="stroke:#181818;stroke-width:1;"/><path d="M1205.5788,437.4606 Q1205.0006,437.7575 1204.36,437.8981 Q1203.7194,438.0544 1203.0163,438.0544 Q1200.5163,438.0544 1199.1881,436.4138 Q1197.8756,434.7575 1197.8756,431.6325 Q1197.8756,428.5075 1199.1881,426.8513 Q1200.5163,425.195 1203.0163,425.195 Q1203.7194,425.195 1204.36,425.3513 Q1205.0163,425.5075 1205.5788,425.8044 L1205.5788,428.5231 Q1204.9538,427.945 1204.36,427.6794 Q1203.7663,427.3981 1203.1413,427.3981 Q1201.7975,427.3981 1201.11,428.4763 Q1200.4225,429.5388 1200.4225,431.6325 Q1200.4225,433.7263 1201.11,434.8044 Q1201.7975,435.8669 1203.1413,435.8669 Q1203.7663,435.8669 1204.36,435.6013 Q1204.9538,435.32 1205.5788,434.7419 L1205.5788,437.4606 Z " fill="#000000"/><text fill="#000000" font-family="sans-serif" font-size="14" lengthAdjust="spacing" textLength="39.9355" x="1216.61" y="436.6667">Photo</text><line style="stroke:#181818;stroke-width:0.5;" x1="1188.61" x2="1258.5455" y1="447.82" y2="447.82"/><line style="stroke:#181818;stroke-width:0.5;" x1="1188.61" x2="1258.5455" y1="455.82" y2="455.82"/></g><!--class Vehicle--><g class="entity" data-entity="Vehicle" data-source-line="27" data-uid="ent0006" id="entity_Vehicle"><rect fill="#F1F1F1" height="129.4844" rx="2.5" ry="2.5" style="stroke:#181818;stroke-width:0.5;" width="141.6641" x="676.75" y="375.07"/><ellipse cx="718.0798" cy="391.07" fill="#ADD1B2" rx="11" ry="11" style="stroke:#181818;stroke-width:1;"/><path d="M721.0486,396.7106 Q720.4705,397.0075 719.8298,397.1481 Q719.1892,397.3044 718.4861,397.3044 Q715.9861,397.3044 714.658,395.6638 Q713.3455,394.0075 713.3455,390.8825 Q713.3455,387.7575 714.658,386.1013 Q715.9861,384.445 718.4861,384.445 Q719.1892,384.445 719.8298,384.6013 Q720.4861,384.7575 721.0486,385.0544 L721.0486,387.7731 Q720.4236,387.195 719.8298,386.9294 Q719.2361,386.6481 718.6111,386.6481 Q717.2673,386.6481 716.5798,387.7263 Q715.8923,388.7888 715.8923,390.8825 Q715.8923,392.9763 716.5798,394.0544 Q717.2673,395.1169 718.6111,395.1169 Q719.2361,395.1169 719.8298,394.8513 Q720.4236,394.57 721.0486,393.9919 L721.0486,396.7106 Z " fill="#000000"/><text fill="#000000" font-family="sans-serif" font-size="14" lengthAdjust="spacing" textLength="51.1533" x="737.9309" y="395.9167">Vehicle</text><line style="stroke:#181818;stroke-width:0.5;" x1="677.75" x2="817.4141" y1="407.07" y2="407.07"/><text fill="#000000" font-family="sans-serif" font-size="14" lengthAdjust="spacing" textLength="38.9375" x="682.75" y="424.0651">make</text><text fill="#000000" font-family="sans-serif" font-size="14" lengthAdjust="spacing" textLength="43.5928" x="682.75" y="440.362">model</text><text fill="#000000" font-family="sans-serif" font-size="14" lengthAdjust="spacing" textLength="105.6016" x="682.75" y="456.6589">year of making</text><text fill="#000000" font-family="sans-serif" font-size="14" lengthAdjust="spacing" textLength="129.6641" x="682.75" y="472.9557">photo : Photo[0..*]</text><text fill="#000000" font-family="sans-serif" font-size="14" lengthAdjust="spacing" textLength="64.7295" x="682.75" y="489.2526">condition</text><line style="stroke:#181818;stroke-width:0.5;" x1="677.75" x2="817.4141" y1="496.5544" y2="496.5544"/></g><!--class AvailabilitySchedule--><g class="entity" data-entity="AvailabilitySchedule" data-source-line="35" data-uid="ent0007" id="entity_AvailabilitySchedule"><rect fill="#F1F1F1" height="80.5938" rx="2.5" ry="2.5" style="stroke:#181818;stroke-width:0.5;" width="177.9131" x="436.62" y="607.86"/><ellipse cx="451.62" cy="623.86" fill="#ADD1B2" rx="11" ry="11" style="stroke:#181818;stroke-width:1;"/><path d="M454.5888,629.5006 Q454.0106,629.7975 453.37,629.9381 Q452.7294,630.0944 452.0263,630.0944 Q449.5263,630.0944 448.1981,628.4538 Q446.8856,626.7975 446.8856,623.6725 Q446.8856,620.5475 448.1981,618.8913 Q449.5263,617.235 452.0263,617.235 Q452.7294,617.235 453.37,617.3913 Q454.0263,617.5475 454.5888,617.8444 L454.5888,620.5631 Q453.9638,619.985 453.37,619.7194 Q452.7763,619.4381 452.1513,619.4381 Q450.8075,619.4381 450.12,620.5163 Q449.4325,621.5788 449.4325,623.6725 Q449.4325,625.7663 450.12,626.8444 Q450.8075,627.9069 452.1513,627.9069 Q452.7763,627.9069 453.37,627.6413 Q453.9638,627.36 454.5888,626.7819 L454.5888,629.5006 Z " fill="#000000"/><text fill="#000000" font-family="sans-serif" font-size="14" lengthAdjust="spacing" textLength="145.9131" x="465.62" y="628.7067">Availability Schedule</text><line style="stroke:#181818;stroke-width:0.5;" x1="437.62" x2="613.5331" y1="639.86" y2="639.86"/><text fill="#000000" font-family="sans-serif" font-size="14" lengthAdjust="spacing" textLength="68.9678" x="442.62" y="656.8551">time from</text><text fill="#000000" font-family="sans-serif" font-size="14" lengthAdjust="spacing" textLength="50.1348" x="442.62" y="673.152">time to</text><line style="stroke:#181818;stroke-width:0.5;" x1="437.62" x2="613.5331" y1="680.4538" y2="680.4538"/></g><!--class RentalTerms--><g class="entity" data-entity="RentalTerms" data-source-line="40" data-uid="ent0008" id="entity_RentalTerms"><rect fill="#F1F1F1" height="113.1875" rx="2.5" ry="2.5" style="stroke:#181818;stroke-width:0.5;" width="125.4746" x="684.84" y="591.56"/><ellipse cx="699.84" cy="607.56" fill="#ADD1B2" rx="11" ry="11" style="stroke:#181818;stroke-width:1;"/><path d="M702.8088,613.2006 Q702.2306,613.4975 701.59,613.6381 Q700.9494,613.7944 700.2463,613.7944 Q697.7463,613.7944 696.4181,612.1538 Q695.1056,610.4975 695.1056,607.3725 Q695.1056,604.2475 696.4181,602.5913 Q697.7463,600.935 700.2463,600.935 Q700.9494,600.935 701.59,601.0913 Q702.2463,601.2475 702.8088,601.5444 L702.8088,604.2631 Q702.1838,603.685 701.59,603.4194 Q700.9963,603.1381 700.3713,603.1381 Q699.0275,603.1381 698.34,604.2163 Q697.6525,605.2788 697.6525,607.3725 Q697.6525,609.4663 698.34,610.5444 Q699.0275,611.6069 700.3713,611.6069 Q700.9963,611.6069 701.59,611.3413 Q702.1838,611.06 702.8088,610.4819 L702.8088,613.2006 Z " fill="#000000"/><text fill="#000000" font-family="sans-serif" font-size="14" lengthAdjust="spacing" textLength="93.4746" x="713.84" y="612.4067">Rental Terms</text><line style="stroke:#181818;stroke-width:0.5;" x1="685.84" x2="809.3146" y1="623.56" y2="623.56"/><text fill="#000000" font-family="sans-serif" font-size="14" lengthAdjust="spacing" textLength="34.8428" x="690.84" y="640.5551">price</text><text fill="#000000" font-family="sans-serif" font-size="14" lengthAdjust="spacing" textLength="106.3398" x="690.84" y="656.852">pickup location</text><text fill="#000000" font-family="sans-serif" font-size="14" lengthAdjust="spacing" textLength="103.3594" x="690.84" y="673.1489">return location</text><text fill="#000000" font-family="sans-serif" font-size="14" lengthAdjust="spacing" textLength="91.3555" x="690.84" y="689.4457">mileage limit</text><line style="stroke:#181818;stroke-width:0.5;" x1="685.84" x2="809.3146" y1="696.7475" y2="696.7475"/></g><!--class GeographicBoundary--><g class="entity" data-entity="GeographicBoundary" data-source-line="47" data-uid="ent0009" id="entity_GeographicBoundary"><rect fill="#F1F1F1" height="80.5938" rx="2.5" ry="2.5" style="stroke:#181818;stroke-width:0.5;" width="184.4688" x="1390.34" y="31.44"/><ellipse cx="1405.34" cy="47.44" fill="#ADD1B2" rx="11" ry="11" style="stroke:#181818;stroke-width:1;"/><path d="M1408.3088,53.0806 Q1407.7306,53.3775 1407.09,53.5181 Q1406.4494,53.6744 1405.7463,53.6744 Q1403.2463,53.6744 1401.9181,52.0338 Q1400.6056,50.3775 1400.6056,47.2525 Q1400.6056,44.1275 1401.9181,42.4713 Q1403.2463,40.815 1405.7463,40.815 Q1406.4494,40.815 1407.09,40.9713 Q1407.7463,41.1275 1408.3088,41.4244 L1408.3088,44.1431 Q1407.6838,43.565 1407.09,43.2994 Q1406.4963,43.0181 1405.8713,43.0181 Q1404.5275,43.0181 1403.84,44.0963 Q1403.1525,45.1588 1403.1525,47.2525 Q1403.1525,49.3463 1403.84,50.4244 Q1404.5275,51.4869 1405.8713,51.4869 Q1406.4963,51.4869 1407.09,51.2213 Q1407.6838,50.94 1408.3088,50.3619 L1408.3088,53.0806 Z " fill="#000000"/><text fill="#000000" font-family="sans-serif" font-size="14" lengthAdjust="spacing" textLength="152.4688" x="1419.34" y="52.2867">Geographic Boundary</text><line style="stroke:#181818;stroke-width:0.5;" x1="1391.34" x2="1573.8088" y1="63.44" y2="63.44"/><text fill="#000000" font-family="sans-serif" font-size="14" lengthAdjust="spacing" textLength="31.2744" x="1396.34" y="80.4351">type</text><text fill="#000000" font-family="sans-serif" font-size="14" lengthAdjust="spacing" textLength="38.2402" x="1396.34" y="96.732">value</text><line style="stroke:#181818;stroke-width:0.5;" x1="1391.34" x2="1573.8088" y1="104.0338" y2="104.0338"/></g><!--class UsageRestriction--><g class="entity" data-entity="UsageRestriction" data-source-line="52" data-uid="ent0010" id="entity_UsageRestriction"><rect fill="#F1F1F1" height="80.5938" rx="2.5" ry="2.5" style="stroke:#181818;stroke-width:0.5;" width="359.1563" x="7" y="607.86"/><ellipse cx="117.0039" cy="623.86" fill="#ADD1B2" rx="11" ry="11" style="stroke:#181818;stroke-width:1;"/><path d="M119.9727,629.5006 Q119.3945,629.7975 118.7539,629.9381 Q118.1133,630.0944 117.4102,630.0944 Q114.9102,630.0944 113.582,628.4538 Q112.2695,626.7975 112.2695,623.6725 Q112.2695,620.5475 113.582,618.8913 Q114.9102,617.235 117.4102,617.235 Q118.1133,617.235 118.7539,617.3913 Q119.4102,617.5475 119.9727,617.8444 L119.9727,620.5631 Q119.3477,619.985 118.7539,619.7194 Q118.1602,619.4381 117.5352,619.4381 Q116.1914,619.4381 115.5039,620.5163 Q114.8164,621.5788 114.8164,623.6725 Q114.8164,625.7663 115.5039,626.8444 Q116.1914,627.9069 117.5352,627.9069 Q118.1602,627.9069 118.7539,627.6413 Q119.3477,627.36 119.9727,626.7819 L119.9727,629.5006 Z " fill="#000000"/><text fill="#000000" font-family="sans-serif" font-size="14" lengthAdjust="spacing" textLength="130.6484" x="137.5039" y="628.7067">Usage Restrictions</text><line style="stroke:#181818;stroke-width:0.5;" x1="8" x2="365.1563" y1="639.86" y2="639.86"/><text fill="#000000" font-family="sans-serif" font-size="14" lengthAdjust="spacing" textLength="347.1563" x="13" y="656.8551">geographic boundary : GeographicBoundary[0..*]</text><text fill="#000000" font-family="sans-serif" font-size="14" lengthAdjust="spacing" textLength="220.8281" x="13" y="673.152">prohibited activity : String[0..1]</text><line style="stroke:#181818;stroke-width:0.5;" x1="8" x2="365.1563" y1="680.4538" y2="680.4538"/></g><!--class Review--><g class="entity" data-entity="Review" data-source-line="59" data-uid="ent0011" id="entity_Review"><rect fill="#F1F1F1" height="80.5938" rx="2.5" ry="2.5" style="stroke:#181818;stroke-width:0.5;" width="82.5791" x="1033.29" y="791.75"/><ellipse cx="1048.29" cy="807.75" fill="#ADD1B2" rx="11" ry="11" style="stroke:#181818;stroke-width:1;"/><path d="M1051.2588,813.3906 Q1050.6806,813.6875 1050.04,813.8281 Q1049.3994,813.9844 1048.6963,813.9844 Q1046.1963,813.9844 1044.8681,812.3438 Q1043.5556,810.6875 1043.5556,807.5625 Q1043.5556,804.4375 1044.8681,802.7813 Q1046.1963,801.125 1048.6963,801.125 Q1049.3994,801.125 1050.04,801.2813 Q1050.6963,801.4375 1051.2588,801.7344 L1051.2588,804.4531 Q1050.6338,803.875 1050.04,803.6094 Q1049.4463,803.3281 1048.8213,803.3281 Q1047.4775,803.3281 1046.79,804.4063 Q1046.1025,805.4688 1046.1025,807.5625 Q1046.1025,809.6563 1046.79,810.7344 Q1047.4775,811.7969 1048.8213,811.7969 Q1049.4463,811.7969 1050.04,811.5313 Q1050.6338,811.25 1051.2588,810.6719 L1051.2588,813.3906 Z " fill="#000000"/><text fill="#000000" font-family="sans-serif" font-size="14" lengthAdjust="spacing" textLength="50.5791" x="1062.29" y="812.5967">Review</text><line style="stroke:#181818;stroke-width:0.5;" x1="1034.29" x2="1114.8691" y1="823.75" y2="823.75"/><text fill="#000000" font-family="sans-serif" font-size="14" lengthAdjust="spacing" textLength="41.4736" x="1039.29" y="840.7451">rating</text><text fill="#000000" font-family="sans-serif" font-size="14" lengthAdjust="spacing" textLength="66.5137" x="1039.29" y="857.042">comment</text><line style="stroke:#181818;stroke-width:0.5;" x1="1034.29" x2="1114.8691" y1="864.3438" y2="864.3438"/></g><!--class Preferences--><g class="entity" data-entity="Preferences" data-source-line="64" data-uid="ent0012" id="entity_Preferences"><rect fill="#F1F1F1" height="113.1875" rx="2.5" ry="2.5" style="stroke:#181818;stroke-width:0.5;" width="115.2002" x="1659.98" y="383.22"/><ellipse cx="1674.98" cy="399.22" fill="#ADD1B2" rx="11" ry="11" style="stroke:#181818;stroke-width:1;"/><path d="M1677.9488,404.8606 Q1677.3706,405.1575 1676.73,405.2981 Q1676.0894,405.4544 1675.3863,405.4544 Q1672.8863,405.4544 1671.5581,403.8138 Q1670.2456,402.1575 1670.2456,399.0325 Q1670.2456,395.9075 1671.5581,394.2513 Q1672.8863,392.595 1675.3863,392.595 Q1676.0894,392.595 1676.73,392.7513 Q1677.3863,392.9075 1677.9488,393.2044 L1677.9488,395.9231 Q1677.3238,395.345 1676.73,395.0794 Q1676.1363,394.7981 1675.5113,394.7981 Q1674.1675,394.7981 1673.48,395.8763 Q1672.7925,396.9388 1672.7925,399.0325 Q1672.7925,401.1263 1673.48,402.2044 Q1674.1675,403.2669 1675.5113,403.2669 Q1676.1363,403.2669 1676.73,403.0013 Q1677.3238,402.72 1677.9488,402.1419 L1677.9488,404.8606 Z " fill="#000000"/><text fill="#000000" font-family="sans-serif" font-size="14" lengthAdjust="spacing" textLength="83.2002" x="1688.98" y="404.0667">Preferences</text><line style="stroke:#181818;stroke-width:0.5;" x1="1660.98" x2="1774.1802" y1="415.22" y2="415.22"/><text fill="#000000" font-family="sans-serif" font-size="14" lengthAdjust="spacing" textLength="34.8428" x="1665.98" y="432.2151">price</text><text fill="#000000" font-family="sans-serif" font-size="14" lengthAdjust="spacing" textLength="64.7295" x="1665.98" y="448.512">condition</text><text fill="#000000" font-family="sans-serif" font-size="14" lengthAdjust="spacing" textLength="38.9375" x="1665.98" y="464.8089">make</text><text fill="#000000" font-family="sans-serif" font-size="14" lengthAdjust="spacing" textLength="43.5928" x="1665.98" y="481.1057">model</text><line style="stroke:#181818;stroke-width:0.5;" x1="1660.98" x2="1774.1802" y1="488.4075" y2="488.4075"/></g><!--class Booking--><g class="entity" data-entity="Booking" data-source-line="72" data-uid="ent0013" id="entity_Booking"><rect fill="#F1F1F1" height="113.1875" rx="2.5" ry="2.5" style="stroke:#181818;stroke-width:0.5;" width="88.4922" x="880.33" y="591.56"/><ellipse cx="895.33" cy="607.56" fill="#ADD1B2" rx="11" ry="11" style="stroke:#181818;stroke-width:1;"/><path d="M898.2988,613.2006 Q897.7206,613.4975 897.08,613.6381 Q896.4394,613.7944 895.7363,613.7944 Q893.2363,613.7944 891.9081,612.1538 Q890.5956,610.4975 890.5956,607.3725 Q890.5956,604.2475 891.9081,602.5913 Q893.2363,600.935 895.7363,600.935 Q896.4394,600.935 897.08,601.0913 Q897.7363,601.2475 898.2988,601.5444 L898.2988,604.2631 Q897.6738,603.685 897.08,603.4194 Q896.4863,603.1381 895.8613,603.1381 Q894.5175,603.1381 893.83,604.2163 Q893.1425,605.2788 893.1425,607.3725 Q893.1425,609.4663 893.83,610.5444 Q894.5175,611.6069 895.8613,611.6069 Q896.4863,611.6069 897.08,611.3413 Q897.6738,611.06 898.2988,610.4819 L898.2988,613.2006 Z " fill="#000000"/><text fill="#000000" font-family="sans-serif" font-size="14" lengthAdjust="spacing" textLength="56.4922" x="909.33" y="612.4067">Booking</text><line style="stroke:#181818;stroke-width:0.5;" x1="881.33" x2="967.8222" y1="623.56" y2="623.56"/><text fill="#000000" font-family="sans-serif" font-size="14" lengthAdjust="spacing" textLength="32.8877" x="886.33" y="640.5551">from</text><text fill="#000000" font-family="sans-serif" font-size="14" lengthAdjust="spacing" textLength="14.0547" x="886.33" y="656.852">to</text><text fill="#000000" font-family="sans-serif" font-size="14" lengthAdjust="spacing" textLength="34.8428" x="886.33" y="673.1489">price</text><text fill="#000000" font-family="sans-serif" font-size="14" lengthAdjust="spacing" textLength="43.0186" x="886.33" y="689.4457">status</text><line style="stroke:#181818;stroke-width:0.5;" x1="881.33" x2="967.8222" y1="696.7475" y2="696.7475"/></g><!--reverse link User to Lender--><g class="link" data-entity-1="User" data-entity-2="Lender" data-source-line="87" data-uid="lnk14" id="link_User_Lender"><path codeLine="87" d="M1190.6215,151.7746 C1171.4915,182.0346 1159.43,201.13 1145.41,223.32" fill="none" id="User-backto-Lender" style="stroke:#181818;stroke-width:1;"/><polygon fill="none" points="1200.24,136.56,1185.55,148.5685,1195.693,154.9808,1200.24,136.56" style="stroke:#181818;stroke-width:1;"/></g><!--reverse link User to Borrower--><g class="link" data-entity-1="User" data-entity-2="Borrower" data-source-line="88" data-uid="lnk15" id="link_User_Borrower"><path codeLine="88" d="M1314.2764,149.5442 C1336.9064,173.1142 1349.41,186.16 1369.4,206.99" fill="none" id="User-backto-Borrower" style="stroke:#181818;stroke-width:1;"/><polygon fill="none" points="1301.81,136.56,1309.9483,153.6997,1318.6044,145.3887,1301.81,136.56" style="stroke:#181818;stroke-width:1;"/></g><!--link Lender to Vehicle--><g class="link" data-entity-1="Lender" data-entity-2="Vehicle" data-source-line="91" data-uid="lnk16" id="link_Lender_Vehicle"><path codeLine="91" d="M1089.95,268.94 C1025.36,300.98 903.7847,361.3132 823.9347,400.9332" fill="none" id="Lender-to-Vehicle" style="stroke:#181818;stroke-width:1;"/><polygon fill="#181818" points="818.56,403.6,828.4,403.1829,823.039,401.3776,824.8442,396.0166,818.56,403.6" style="stroke:#181818;stroke-width:1;"/><text fill="#000000" font-family="sans-serif" font-size="13" lengthAdjust="spacing" textLength="33.5981" x="974.58" y="336.1369">owns</text><text fill="#000000" font-family="sans-serif" font-size="13" lengthAdjust="spacing" textLength="8.271" x="1074.0242" y="268.4519">1</text><text fill="#000000" font-family="sans-serif" font-size="13" lengthAdjust="spacing" textLength="23.0356" x="826.4229" y="396.5069">0..*</text></g><!--link Lender to Review--><g class="link" data-entity-1="Lender" data-entity-2="Review" data-source-line="92" data-uid="lnk17" id="link_Lender_Review"><path codeLine="92" d="M1128.35,271.96 C1119.81,360.69 1089.7447,673.3676 1078.9447,785.6076" fill="none" id="Lender-to-Review" style="stroke:#181818;stroke-width:1;"/><polygon fill="#181818" points="1078.37,791.58,1083.2136,783.0045,1078.8489,786.603,1075.2504,782.2383,1078.37,791.58" style="stroke:#181818;stroke-width:1;"/><text fill="#000000" font-family="sans-serif" font-size="13" lengthAdjust="spacing" textLength="39.457" x="1103.58" y="552.6269">writes</text><text fill="#000000" font-family="sans-serif" font-size="13" lengthAdjust="spacing" textLength="8.271" x="1118.8642" y="291.7651">1</text><text fill="#000000" font-family="sans-serif" font-size="13" lengthAdjust="spacing" textLength="23.0356" x="1054.0961" y="780.7134">0..*</text></g><!--link Borrower to Booking--><g class="link" data-entity-1="Borrower" data-entity-2="Booking" data-source-line="94" data-uid="lnk18" id="link_Borrower_Booking"><path codeLine="94" d="M1400.04,288.49 C1387.53,344.04 1357.36,444.83 1294.58,504.56 C1200.81,593.76 1051.1424,627.8881 975.1024,640.2381" fill="none" id="Borrower-to-Booking" style="stroke:#181818;stroke-width:1;"/><polygon fill="#181818" points="969.18,641.2,978.7049,643.7054,974.1153,640.3984,977.4223,635.8089,969.18,641.2" style="stroke:#181818;stroke-width:1;"/><text fill="#000000" font-family="sans-serif" font-size="13" lengthAdjust="spacing" textLength="42.9292" x="1374.58" y="444.3869">makes</text><text fill="#000000" font-family="sans-serif" font-size="13" lengthAdjust="spacing" textLength="8.271" x="1390.2232" y="308.2514">1</text><text fill="#000000" font-family="sans-serif" font-size="13" lengthAdjust="spacing" textLength="23.0356" x="976.7214" y="636.3336">0..*</text></g><!--link Borrower to Review--><g class="link" data-entity-1="Borrower" data-entity-2="Review" data-source-line="95" data-uid="lnk19" id="link_Borrower_Review"><path codeLine="95" d="M1430.2,288.5 C1435.3,299.37 1439.96,311.39 1442.58,323.07 C1453.94,373.87 1533.64,294.9 1434.58,504.56 C1364.92,651.98 1200.489,759.8849 1121.509,805.3849" fill="none" id="Borrower-to-Review" style="stroke:#181818;stroke-width:1;"/><polygon fill="#181818" points="1116.31,808.38,1126.1052,807.3533,1120.6425,805.8841,1122.1117,800.4214,1116.31,808.38" style="stroke:#181818;stroke-width:1;"/><text fill="#000000" font-family="sans-serif" font-size="13" lengthAdjust="spacing" textLength="54.5645" x="1417.58" y="552.6269">receives</text><text fill="#000000" font-family="sans-serif" font-size="13" lengthAdjust="spacing" textLength="8.271" x="1425.19" y="308.263">1</text><text fill="#000000" font-family="sans-serif" font-size="13" lengthAdjust="spacing" textLength="23.0356" x="1123.798" y="801.0734">0..*</text></g><!--link Booking to Review--><g class="link" data-entity-1="Booking" data-entity-2="Review" data-source-line="96" data-uid="lnk20" id="link_Booking_Review"><path codeLine="96" d="M914.11,705.16 C913.58,722.81 916.12,741.62 925.58,756.75 C949.02,794.25 991.8712,811.9192 1027.2112,821.3092" fill="none" id="Booking-to-Review" style="stroke:#181818;stroke-width:1;"/><polygon fill="#181818" points="1033.01,822.85,1025.339,816.673,1028.1777,821.566,1023.2846,824.4047,1033.01,822.85" style="stroke:#181818;stroke-width:1;"/><text fill="#000000" font-family="sans-serif" font-size="13" lengthAdjust="spacing" textLength="94.123" x="926.58" y="752.8169">is reviewed by</text><text fill="#000000" font-family="sans-serif" font-size="13" lengthAdjust="spacing" textLength="8.271" x="904.453" y="724.6931">1</text><text fill="#000000" font-family="sans-serif" font-size="13" lengthAdjust="spacing" textLength="24.8066" x="1000.5366" y="817.2664">0..1</text></g><!--link Borrower to Preferences--><g class="link" data-entity-1="Borrower" data-entity-2="Preferences" data-source-line="97" data-uid="lnk21" id="link_Borrower_Preferences"><path codeLine="97" d="M1500.59,273.88 C1535.5,285.71 1574.46,301.95 1606.58,323.07 C1631.23,339.29 1650.4926,357.4545 1669.3026,378.4145" fill="none" id="Borrower-to-Preferences" style="stroke:#181818;stroke-width:1;"/><polygon fill="#181818" points="1673.31,382.88,1670.2758,373.5102,1669.9705,379.1588,1664.3219,378.8534,1673.31,382.88" style="stroke:#181818;stroke-width:1;"/><text fill="#000000" font-family="sans-serif" font-size="13" lengthAdjust="spacing" textLength="26.6411" x="1629.58" y="336.1369">sets</text><text fill="#000000" font-family="sans-serif" font-size="13" lengthAdjust="spacing" textLength="8.271" x="1508.3317" y="272.4346">1</text><text fill="#000000" font-family="sans-serif" font-size="13" lengthAdjust="spacing" textLength="24.8066" x="1642.5012" y="372.1021">0..1</text></g><!--link Vehicle to Booking--><g class="link" data-entity-1="Vehicle" data-entity-2="Booking" data-source-line="99" data-uid="lnk22" id="link_Vehicle_Booking"><path codeLine="99" d="M802.61,504.97 C827.47,533.96 852.5633,563.2061 876.0433,590.5761" fill="none" id="Vehicle-to-Booking" style="stroke:#181818;stroke-width:1;"/><polygon fill="#181818" points="879.95,595.13,877.1259,585.6947,876.6944,591.3351,871.0541,590.9036,879.95,595.13" style="stroke:#181818;stroke-width:1;"/><text fill="#000000" font-family="sans-serif" font-size="13" lengthAdjust="spacing" textLength="68.0151" x="848.58" y="552.6269">booked by</text><text fill="#000000" font-family="sans-serif" font-size="13" lengthAdjust="spacing" textLength="8.271" x="799.8862" y="524.5366">1</text><text fill="#000000" font-family="sans-serif" font-size="13" lengthAdjust="spacing" textLength="23.0356" x="849.4105" y="584.0729">0..*</text></g><!--link Vehicle to RentalTerms--><g class="link" data-entity-1="Vehicle" data-entity-2="RentalTerms" data-source-line="100" data-uid="lnk23" id="link_Vehicle_RentalTerms"><path codeLine="100" d="M747.58,504.97 C747.58,532.54 747.58,558.46 747.58,585.06" fill="none" id="Vehicle-to-RentalTerms" style="stroke:#181818;stroke-width:1;"/><polygon fill="#181818" points="747.58,591.06,751.58,582.06,747.58,586.06,743.58,582.06,747.58,591.06" style="stroke:#181818;stroke-width:1;"/><text fill="#000000" font-family="sans-serif" font-size="13" lengthAdjust="spacing" textLength="47.4487" x="748.58" y="552.6269">defines</text><text fill="#000000" font-family="sans-serif" font-size="13" lengthAdjust="spacing" textLength="8.271" x="739.1813" y="524.5366">1</text><text fill="#000000" font-family="sans-serif" font-size="13" lengthAdjust="spacing" textLength="8.271" x="739.1335" y="580.6659">1</text></g><!--link Vehicle to UsageRestriction--><g class="link" data-entity-1="Vehicle" data-entity-2="UsageRestriction" data-source-line="101" data-uid="lnk24" id="link_Vehicle_UsageRestriction"><path codeLine="101" d="M676.53,466.95 C580.19,502.38 412.9011,563.9086 300.3811,605.2986" fill="none" id="Vehicle-to-UsageRestriction" style="stroke:#181818;stroke-width:1;"/><polygon fill="#181818" points="294.75,607.37,304.5776,608.017,299.4426,605.6439,301.8157,600.5089,294.75,607.37" style="stroke:#181818;stroke-width:1;"/><text fill="#000000" font-family="sans-serif" font-size="13" lengthAdjust="spacing" textLength="47.4487" x="468.58" y="552.6269">defines</text><text fill="#000000" font-family="sans-serif" font-size="13" lengthAdjust="spacing" textLength="8.271" x="660.336" y="466.172">1</text><text fill="#000000" font-family="sans-serif" font-size="13" lengthAdjust="spacing" textLength="8.271" x="303.374" y="596.7518">1</text></g><!--link Vehicle to AvailabilitySchedule--><g class="link" data-entity-1="Vehicle" data-entity-2="AvailabilitySchedule" data-source-line="102" data-uid="lnk25" id="link_Vehicle_AvailabilitySchedule"><path codeLine="102" d="M676.44,494.92 C659.05,508.96 640.78,524.41 624.58,539.56 C601.77,560.88 581.9959,582.0564 563.4859,602.9764" fill="none" id="Vehicle-to-AvailabilitySchedule" style="stroke:#181818;stroke-width:1;"/><polygon fill="#181818" points="559.51,607.47,568.4696,603.3803,562.8233,603.7254,562.4781,598.079,559.51,607.47" style="stroke:#181818;stroke-width:1;"/><text fill="#000000" font-family="sans-serif" font-size="13" lengthAdjust="spacing" textLength="104.749" x="625.58" y="552.6269">available during</text><text fill="#000000" font-family="sans-serif" font-size="13" lengthAdjust="spacing" textLength="8.271" x="660.705" y="496.9033">1</text><text fill="#000000" font-family="sans-serif" font-size="13" lengthAdjust="spacing" textLength="23.0356" x="540.0882" y="596.8677">0..*</text></g><!--link Borrower to Photo--><g class="link" data-entity-1="Borrower" data-entity-2="Photo" data-source-line="106" data-uid="lnk26" id="link_Borrower_Photo"><path codeLine="106" d="M1342.91,288.44 C1328.5,298.78 1313.86,310.57 1301.58,323.07 C1273.74,351.43 1252.4812,385.7192 1238.6912,410.4592" fill="none" id="Borrower-to-Photo" style="stroke:#181818;stroke-width:1;"/><polygon fill="#181818" points="1235.77,415.7,1243.6457,409.7862,1238.2044,411.3326,1236.6579,405.8913,1235.77,415.7" style="stroke:#181818;stroke-width:1;"/><text fill="#000000" font-family="sans-serif" font-size="13" lengthAdjust="spacing" textLength="51.0479" x="1302.58" y="336.1369">uploads</text><text fill="#000000" font-family="sans-serif" font-size="13" lengthAdjust="spacing" textLength="8.271" x="1323.9882" y="308.1935">1</text><text fill="#000000" font-family="sans-serif" font-size="13" lengthAdjust="spacing" textLength="23.0356" x="1212.952" y="404.6813">0..*</text></g><!--link Lender to Photo--><g class="link" data-entity-1="Lender" data-entity-2="Photo" data-source-line="107" data-uid="lnk27" id="link_Lender_Photo"><path codeLine="107" d="M1141.35,272.13 C1149.94,290.63 1162.35,317.09 1173.58,340.07 C1186.23,365.97 1198.478,390.0832 1208.728,410.0332" fill="none" id="Lender-to-Photo" style="stroke:#181818;stroke-width:1;"/><polygon fill="#181818" points="1211.47,415.37,1210.9149,405.5368,1209.185,410.9227,1203.7992,409.1928,1211.47,415.37" style="stroke:#181818;stroke-width:1;"/><text fill="#000000" font-family="sans-serif" font-size="13" lengthAdjust="spacing" textLength="51.0479" x="1174.58" y="336.1369">uploads</text><text fill="#000000" font-family="sans-serif" font-size="13" lengthAdjust="spacing" textLength="8.271" x="1135.033" y="291.9765">1</text><text fill="#000000" font-family="sans-serif" font-size="13" lengthAdjust="spacing" textLength="23.0356" x="1182.7199" y="404.6653">0..*</text></g><!--SRC=[VLHDYzim4BtxLmo-10fPDgU2AGlRIo-5Xcotbx87nPx48fPaHdA2wVQ_T_JXZqsS-cBvwUdDqtpOdgHk1Ga5sbHeiONFZvaTGHBwbC1ijHuVU2wT8PjbPIEiXLUB17you4SBXM4XZl7TraOZw4xjaGA0IiWcRebUeNOWzS6G4auQdVqTDB-ZheBg17qrHEOoXgg5XRDeP0KLoJFIoa8ZIzHb34mig8_-zDpuBwnbsU0WkQsDCyD7saloIfoYaEB4HCCz2W9py5jUEbtF6IYYqE_7XuTFRm4lZQxannlbpsU-kTZBHheUNieQgwx17FWQyvrX8zbmKY4SoAZfYnrFeZlEe6ZW9vAoGIi2uJj9j2HJJbfPdheM6bF6R8SyeUj8VyIKR90BoFbKqis2VKDp9D5ochWOdQu4zI7cX0_muBvlOsGkL8SpfLVhzNTe7PlpSQFv0C_G97ESukw70CL2r5a1MZArt4k75GYMElkS5_32mlheQPktwzRuuMfkqMHmXsU9bnG-jLAig_8zEzraItX0ybrtc-wf2HOQYXN6lZQ-dzBngTRcIiuwuJeR3dwOHMjDAKFnhDzAaxDUlp-5oSnMu-1CM9Q5eVtopWBnm0mO-CnAOlacvyDFaFi4v-Ea560k77IPb59Om8Mu36njj7557EvVX1JPkxnHaB14ddZFZ2VdnCsCA2rp_PgxODyl2_DoNiC2B3esErpnhjSzhwBi3JLOcAQmW0eFKhFV9UPDo_-77Zqi_YqA417cTTNvBkVgtKtbDlsskhOnehfNmIlMFm00]--></g></svg>