<svg xmlns="http://www.w3.org/2000/svg" xmlns:xlink="http://www.w3.org/1999/xlink" contentStyleType="text/css" data-diagram-type="CLASS" height="846px" preserveAspectRatio="none" style="width:1461px;height:846px;background:#FFFFFF;" version="1.1" viewBox="0 0 1461 846" width="1461px" zoomAndPan="magnify"><defs/><g><!--class User--><g class="entity" data-entity="User" data-source-line="6" data-uid="ent0002" id="entity_User"><rect fill="#F1F1F1" height="129.4844" rx="2.5" ry="2.5" style="stroke:#181818;stroke-width:0.5;" width="159.8613" x="848.04" y="7"/><ellipse cx="907.7656" cy="23" fill="#ADD1B2" rx="11" ry="11" style="stroke:#181818;stroke-width:1;"/><path d="M910.7343,28.6406 Q910.1562,28.9375 909.5156,29.0781 Q908.875,29.2344 908.1718,29.2344 Q905.6718,29.2344 904.3437,27.5938 Q903.0312,25.9375 903.0312,22.8125 Q903.0312,19.6875 904.3437,18.0313 Q905.6718,16.375 908.1718,16.375 Q908.875,16.375 909.5156,16.5313 Q910.1718,16.6875 910.7343,16.9844 L910.7343,19.7031 Q910.1093,19.125 909.5156,18.8594 Q908.9218,18.5781 908.2968,18.5781 Q906.9531,18.5781 906.2656,19.6563 Q905.5781,20.7188 905.5781,22.8125 Q905.5781,24.9063 906.2656,25.9844 Q906.9531,27.0469 908.2968,27.0469 Q908.9218,27.0469 909.5156,26.7813 Q910.1093,26.5 910.7343,25.9219 L910.7343,28.6406 Z " fill="#000000"/><text fill="#000000" font-family="sans-serif" font-size="14" lengthAdjust="spacing" textLength="31.9102" x="928.2656" y="27.8467">User</text><line style="stroke:#181818;stroke-width:0.5;" x1="849.04" x2="1006.9013" y1="39" y2="39"/><text fill="#000000" font-family="sans-serif" font-size="14" lengthAdjust="spacing" textLength="39.7031" x="854.04" y="55.9951">name</text><text fill="#000000" font-family="sans-serif" font-size="14" lengthAdjust="spacing" textLength="26.0791" x="854.04" y="72.292">age</text><text fill="#000000" font-family="sans-serif" font-size="14" lengthAdjust="spacing" textLength="102.9014" x="854.04" y="88.5889">phone number</text><text fill="#000000" font-family="sans-serif" font-size="14" lengthAdjust="spacing" textLength="38.6094" x="854.04" y="104.8857">email</text><text fill="#000000" font-family="sans-serif" font-size="14" lengthAdjust="spacing" textLength="147.8613" x="854.04" y="121.1826">payment information</text><line style="stroke:#181818;stroke-width:0.5;" x1="849.04" x2="1006.9013" y1="128.4844" y2="128.4844"/></g><!--class Lender--><g class="entity" data-entity="Lender" data-source-line="14" data-uid="ent0003" id="entity_Lender"><rect fill="#F1F1F1" height="48" rx="2.5" ry="2.5" style="stroke:#181818;stroke-width:0.5;" width="80.542" x="584.7" y="207.48"/><ellipse cx="599.7" cy="223.48" fill="#ADD1B2" rx="11" ry="11" style="stroke:#181818;stroke-width:1;"/><path d="M602.6688,229.1206 Q602.0906,229.4175 601.45,229.5581 Q600.8094,229.7144 600.1063,229.7144 Q597.6063,229.7144 596.2781,228.0738 Q594.9656,226.4175 594.9656,223.2925 Q594.9656,220.1675 596.2781,218.5113 Q597.6063,216.855 600.1063,216.855 Q600.8094,216.855 601.45,217.0113 Q602.1063,217.1675 602.6688,217.4644 L602.6688,220.1831 Q602.0438,219.605 601.45,219.3394 Q600.8563,219.0581 600.2313,219.0581 Q598.8875,219.0581 598.2,220.1363 Q597.5125,221.1988 597.5125,223.2925 Q597.5125,225.3863 598.2,226.4644 Q598.8875,227.5269 600.2313,227.5269 Q600.8563,227.5269 601.45,227.2613 Q602.0438,226.98 602.6688,226.4019 L602.6688,229.1206 Z " fill="#000000"/><text fill="#000000" font-family="sans-serif" font-size="14" lengthAdjust="spacing" textLength="48.542" x="613.7" y="228.3267">Lender</text><line style="stroke:#181818;stroke-width:0.5;" x1="585.7" x2="664.242" y1="239.48" y2="239.48"/><line style="stroke:#181818;stroke-width:0.5;" x1="585.7" x2="664.242" y1="247.48" y2="247.48"/></g><!--class Borrower--><g class="entity" data-entity="Borrower" data-source-line="18" data-uid="ent0004" id="entity_Borrower"><rect fill="#F1F1F1" height="80.5938" rx="2.5" ry="2.5" style="stroke:#181818;stroke-width:0.5;" width="185.2295" x="1135.36" y="366.93"/><ellipse cx="1191.6915" cy="382.93" fill="#ADD1B2" rx="11" ry="11" style="stroke:#181818;stroke-width:1;"/><path d="M1194.6603,388.5706 Q1194.0822,388.8675 1193.4415,389.0081 Q1192.8009,389.1644 1192.0978,389.1644 Q1189.5978,389.1644 1188.2697,387.5238 Q1186.9572,385.8675 1186.9572,382.7425 Q1186.9572,379.6175 1188.2697,377.9613 Q1189.5978,376.305 1192.0978,376.305 Q1192.8009,376.305 1193.4415,376.4613 Q1194.0978,376.6175 1194.6603,376.9144 L1194.6603,379.6331 Q1194.0353,379.055 1193.4415,378.7894 Q1192.8478,378.5081 1192.2228,378.5081 Q1190.879,378.5081 1190.1915,379.5863 Q1189.504,380.6488 1189.504,382.7425 Q1189.504,384.8363 1190.1915,385.9144 Q1190.879,386.9769 1192.2228,386.9769 Q1192.8478,386.9769 1193.4415,386.7113 Q1194.0353,386.43 1194.6603,385.8519 L1194.6603,388.5706 Z " fill="#000000"/><text fill="#000000" font-family="sans-serif" font-size="14" lengthAdjust="spacing" textLength="64.0664" x="1212.1915" y="387.7767">Borrower</text><line style="stroke:#181818;stroke-width:0.5;" x1="1136.36" x2="1319.5895" y1="398.93" y2="398.93"/><text fill="#000000" font-family="sans-serif" font-size="14" lengthAdjust="spacing" textLength="173.2295" x="1141.36" y="415.9251">has valid driver's licence</text><text fill="#000000" font-family="sans-serif" font-size="14" lengthAdjust="spacing" textLength="41.4736" x="1141.36" y="432.222">rating</text><line style="stroke:#181818;stroke-width:0.5;" x1="1136.36" x2="1319.5895" y1="439.5238" y2="439.5238"/></g><!--class Photo--><g class="entity" data-entity="Photo" data-source-line="25" data-uid="ent0005" id="entity_Photo"><rect fill="#F1F1F1" height="48" rx="2.5" ry="2.5" style="stroke:#181818;stroke-width:0.5;" width="71.9355" x="1078.01" y="47.74"/><ellipse cx="1093.01" cy="63.74" fill="#ADD1B2" rx="11" ry="11" style="stroke:#181818;stroke-width:1;"/><path d="M1095.9788,69.3806 Q1095.4006,69.6775 1094.76,69.8181 Q1094.1194,69.9744 1093.4163,69.9744 Q1090.9163,69.9744 1089.5881,68.3338 Q1088.2756,66.6775 1088.2756,63.5525 Q1088.2756,60.4275 1089.5881,58.7713 Q1090.9163,57.115 1093.4163,57.115 Q1094.1194,57.115 1094.76,57.2713 Q1095.4163,57.4275 1095.9788,57.7244 L1095.9788,60.4431 Q1095.3538,59.865 1094.76,59.5994 Q1094.1663,59.3181 1093.5413,59.3181 Q1092.1975,59.3181 1091.51,60.3963 Q1090.8225,61.4588 1090.8225,63.5525 Q1090.8225,65.6463 1091.51,66.7244 Q1092.1975,67.7869 1093.5413,67.7869 Q1094.1663,67.7869 1094.76,67.5213 Q1095.3538,67.24 1095.9788,66.6619 L1095.9788,69.3806 Z " fill="#000000"/><text fill="#000000" font-family="sans-serif" font-size="14" lengthAdjust="spacing" textLength="39.9355" x="1107.01" y="68.5867">Photo</text><line style="stroke:#181818;stroke-width:0.5;" x1="1079.01" x2="1148.9455" y1="79.74" y2="79.74"/><line style="stroke:#181818;stroke-width:0.5;" x1="1079.01" x2="1148.9455" y1="87.74" y2="87.74"/></g><!--class Vehicle--><g class="entity" data-entity="Vehicle" data-source-line="27" data-uid="ent0006" id="entity_Vehicle"><rect fill="#F1F1F1" height="129.4844" rx="2.5" ry="2.5" style="stroke:#181818;stroke-width:0.5;" width="141.6641" x="554.14" y="342.48"/><ellipse cx="595.4698" cy="358.48" fill="#ADD1B2" rx="11" ry="11" style="stroke:#181818;stroke-width:1;"/><path d="M598.4386,364.1206 Q597.8605,364.4175 597.2198,364.5581 Q596.5792,364.7144 595.8761,364.7144 Q593.3761,364.7144 592.048,363.0738 Q590.7355,361.4175 590.7355,358.2925 Q590.7355,355.1675 592.048,353.5113 Q593.3761,351.855 595.8761,351.855 Q596.5792,351.855 597.2198,352.0113 Q597.8761,352.1675 598.4386,352.4644 L598.4386,355.1831 Q597.8136,354.605 597.2198,354.3394 Q596.6261,354.0581 596.0011,354.0581 Q594.6573,354.0581 593.9698,355.1363 Q593.2823,356.1988 593.2823,358.2925 Q593.2823,360.3863 593.9698,361.4644 Q594.6573,362.5269 596.0011,362.5269 Q596.6261,362.5269 597.2198,362.2613 Q597.8136,361.98 598.4386,361.4019 L598.4386,364.1206 Z " fill="#000000"/><text fill="#000000" font-family="sans-serif" font-size="14" lengthAdjust="spacing" textLength="51.1533" x="615.3209" y="363.3267">Vehicle</text><line style="stroke:#181818;stroke-width:0.5;" x1="555.14" x2="694.8041" y1="374.48" y2="374.48"/><text fill="#000000" font-family="sans-serif" font-size="14" lengthAdjust="spacing" textLength="38.9375" x="560.14" y="391.4751">make</text><text fill="#000000" font-family="sans-serif" font-size="14" lengthAdjust="spacing" textLength="43.5928" x="560.14" y="407.772">model</text><text fill="#000000" font-family="sans-serif" font-size="14" lengthAdjust="spacing" textLength="105.6016" x="560.14" y="424.0689">year of making</text><text fill="#000000" font-family="sans-serif" font-size="14" lengthAdjust="spacing" textLength="129.6641" x="560.14" y="440.3657">photo : Photo[0..*]</text><text fill="#000000" font-family="sans-serif" font-size="14" lengthAdjust="spacing" textLength="64.7295" x="560.14" y="456.6626">condition</text><line style="stroke:#181818;stroke-width:0.5;" x1="555.14" x2="694.8041" y1="463.9644" y2="463.9644"/></g><!--class AvailabilitySchedule--><g class="entity" data-entity="AvailabilitySchedule" data-source-line="35" data-uid="ent0007" id="entity_AvailabilitySchedule"><rect fill="#F1F1F1" height="80.5938" rx="2.5" ry="2.5" style="stroke:#181818;stroke-width:0.5;" width="177.9131" x="199.02" y="575.27"/><ellipse cx="214.02" cy="591.27" fill="#ADD1B2" rx="11" ry="11" style="stroke:#181818;stroke-width:1;"/><path d="M216.9887,596.9106 Q216.4106,597.2075 215.77,597.3481 Q215.1294,597.5044 214.4262,597.5044 Q211.9262,597.5044 210.5981,595.8638 Q209.2856,594.2075 209.2856,591.0825 Q209.2856,587.9575 210.5981,586.3013 Q211.9262,584.645 214.4262,584.645 Q215.1294,584.645 215.77,584.8013 Q216.4262,584.9575 216.9887,585.2544 L216.9887,587.9731 Q216.3637,587.395 215.77,587.1294 Q215.1762,586.8481 214.5512,586.8481 Q213.2075,586.8481 212.52,587.9263 Q211.8325,588.9888 211.8325,591.0825 Q211.8325,593.1763 212.52,594.2544 Q213.2075,595.3169 214.5512,595.3169 Q215.1762,595.3169 215.77,595.0513 Q216.3637,594.77 216.9887,594.1919 L216.9887,596.9106 Z " fill="#000000"/><text fill="#000000" font-family="sans-serif" font-size="14" lengthAdjust="spacing" textLength="145.9131" x="228.02" y="596.1167">Availability Schedule</text><line style="stroke:#181818;stroke-width:0.5;" x1="200.02" x2="375.9331" y1="607.27" y2="607.27"/><text fill="#000000" font-family="sans-serif" font-size="14" lengthAdjust="spacing" textLength="68.9678" x="205.02" y="624.2651">time from</text><text fill="#000000" font-family="sans-serif" font-size="14" lengthAdjust="spacing" textLength="50.1348" x="205.02" y="640.562">time to</text><line style="stroke:#181818;stroke-width:0.5;" x1="200.02" x2="375.9331" y1="647.8638" y2="647.8638"/></g><!--class RentalTerms--><g class="entity" data-entity="RentalTerms" data-source-line="40" data-uid="ent0008" id="entity_RentalTerms"><rect fill="#F1F1F1" height="113.1875" rx="2.5" ry="2.5" style="stroke:#181818;stroke-width:0.5;" width="125.4746" x="447.24" y="558.97"/><ellipse cx="462.24" cy="574.97" fill="#ADD1B2" rx="11" ry="11" style="stroke:#181818;stroke-width:1;"/><path d="M465.2088,580.6106 Q464.6306,580.9075 463.99,581.0481 Q463.3494,581.2044 462.6463,581.2044 Q460.1463,581.2044 458.8181,579.5638 Q457.5056,577.9075 457.5056,574.7825 Q457.5056,571.6575 458.8181,570.0013 Q460.1463,568.345 462.6463,568.345 Q463.3494,568.345 463.99,568.5013 Q464.6463,568.6575 465.2088,568.9544 L465.2088,571.6731 Q464.5838,571.095 463.99,570.8294 Q463.3963,570.5481 462.7713,570.5481 Q461.4275,570.5481 460.74,571.6263 Q460.0525,572.6888 460.0525,574.7825 Q460.0525,576.8763 460.74,577.9544 Q461.4275,579.0169 462.7713,579.0169 Q463.3963,579.0169 463.99,578.7513 Q464.5838,578.47 465.2088,577.8919 L465.2088,580.6106 Z " fill="#000000"/><text fill="#000000" font-family="sans-serif" font-size="14" lengthAdjust="spacing" textLength="93.4746" x="476.24" y="579.8167">Rental Terms</text><line style="stroke:#181818;stroke-width:0.5;" x1="448.24" x2="571.7146" y1="590.97" y2="590.97"/><text fill="#000000" font-family="sans-serif" font-size="14" lengthAdjust="spacing" textLength="34.8428" x="453.24" y="607.9651">price</text><text fill="#000000" font-family="sans-serif" font-size="14" lengthAdjust="spacing" textLength="106.3398" x="453.24" y="624.262">pickup location</text><text fill="#000000" font-family="sans-serif" font-size="14" lengthAdjust="spacing" textLength="103.3594" x="453.24" y="640.5589">return location</text><text fill="#000000" font-family="sans-serif" font-size="14" lengthAdjust="spacing" textLength="91.3555" x="453.24" y="656.8557">mileage limit</text><line style="stroke:#181818;stroke-width:0.5;" x1="448.24" x2="571.7146" y1="664.1575" y2="664.1575"/></g><!--class GeographicBoundary--><g class="entity" data-entity="GeographicBoundary" data-source-line="47" data-uid="ent0009" id="entity_GeographicBoundary"><rect fill="#F1F1F1" height="80.5938" rx="2.5" ry="2.5" style="stroke:#181818;stroke-width:0.5;" width="184.4688" x="1219.74" y="31.45"/><ellipse cx="1234.74" cy="47.45" fill="#ADD1B2" rx="11" ry="11" style="stroke:#181818;stroke-width:1;"/><path d="M1237.7088,53.0906 Q1237.1306,53.3875 1236.49,53.5281 Q1235.8494,53.6844 1235.1463,53.6844 Q1232.6463,53.6844 1231.3181,52.0438 Q1230.0056,50.3875 1230.0056,47.2625 Q1230.0056,44.1375 1231.3181,42.4813 Q1232.6463,40.825 1235.1463,40.825 Q1235.8494,40.825 1236.49,40.9813 Q1237.1463,41.1375 1237.7088,41.4344 L1237.7088,44.1531 Q1237.0838,43.575 1236.49,43.3094 Q1235.8963,43.0281 1235.2713,43.0281 Q1233.9275,43.0281 1233.24,44.1063 Q1232.5525,45.1688 1232.5525,47.2625 Q1232.5525,49.3563 1233.24,50.4344 Q1233.9275,51.4969 1235.2713,51.4969 Q1235.8963,51.4969 1236.49,51.2313 Q1237.0838,50.95 1237.7088,50.3719 L1237.7088,53.0906 Z " fill="#000000"/><text fill="#000000" font-family="sans-serif" font-size="14" lengthAdjust="spacing" textLength="152.4688" x="1248.74" y="52.2967">Geographic Boundary</text><line style="stroke:#181818;stroke-width:0.5;" x1="1220.74" x2="1403.2088" y1="63.45" y2="63.45"/><text fill="#000000" font-family="sans-serif" font-size="14" lengthAdjust="spacing" textLength="31.2744" x="1225.74" y="80.4451">type</text><text fill="#000000" font-family="sans-serif" font-size="14" lengthAdjust="spacing" textLength="38.2402" x="1225.74" y="96.742">value</text><line style="stroke:#181818;stroke-width:0.5;" x1="1220.74" x2="1403.2088" y1="104.0438" y2="104.0438"/></g><!--class UsageRestriction--><g class="entity" data-entity="UsageRestriction" data-source-line="52" data-uid="ent0010" id="entity_UsageRestriction"><rect fill="#F1F1F1" height="80.5938" rx="2.5" ry="2.5" style="stroke:#181818;stroke-width:0.5;" width="359.1563" x="642.4" y="575.27"/><ellipse cx="752.4039" cy="591.27" fill="#ADD1B2" rx="11" ry="11" style="stroke:#181818;stroke-width:1;"/><path d="M755.3727,596.9106 Q754.7945,597.2075 754.1539,597.3481 Q753.5133,597.5044 752.8102,597.5044 Q750.3102,597.5044 748.982,595.8638 Q747.6695,594.2075 747.6695,591.0825 Q747.6695,587.9575 748.982,586.3013 Q750.3102,584.645 752.8102,584.645 Q753.5133,584.645 754.1539,584.8013 Q754.8102,584.9575 755.3727,585.2544 L755.3727,587.9731 Q754.7477,587.395 754.1539,587.1294 Q753.5602,586.8481 752.9352,586.8481 Q751.5914,586.8481 750.9039,587.9263 Q750.2164,588.9888 750.2164,591.0825 Q750.2164,593.1763 750.9039,594.2544 Q751.5914,595.3169 752.9352,595.3169 Q753.5602,595.3169 754.1539,595.0513 Q754.7477,594.77 755.3727,594.1919 L755.3727,596.9106 Z " fill="#000000"/><text fill="#000000" font-family="sans-serif" font-size="14" lengthAdjust="spacing" textLength="130.6484" x="772.9039" y="596.1167">Usage Restrictions</text><line style="stroke:#181818;stroke-width:0.5;" x1="643.4" x2="1000.5563" y1="607.27" y2="607.27"/><text fill="#000000" font-family="sans-serif" font-size="14" lengthAdjust="spacing" textLength="347.1563" x="648.4" y="624.2651">geographic boundary : GeographicBoundary[0..*]</text><text fill="#000000" font-family="sans-serif" font-size="14" lengthAdjust="spacing" textLength="220.8281" x="648.4" y="640.562">prohibited activity : String[0..1]</text><line style="stroke:#181818;stroke-width:0.5;" x1="643.4" x2="1000.5563" y1="647.8638" y2="647.8638"/></g><!--class Review--><g class="entity" data-entity="Review" data-source-line="59" data-uid="ent0011" id="entity_Review"><rect fill="#F1F1F1" height="80.5938" rx="2.5" ry="2.5" style="stroke:#181818;stroke-width:0.5;" width="82.5791" x="1074.68" y="759.16"/><ellipse cx="1089.68" cy="775.16" fill="#ADD1B2" rx="11" ry="11" style="stroke:#181818;stroke-width:1;"/><path d="M1092.6488,780.8006 Q1092.0706,781.0975 1091.43,781.2381 Q1090.7894,781.3944 1090.0863,781.3944 Q1087.5863,781.3944 1086.2581,779.7538 Q1084.9456,778.0975 1084.9456,774.9725 Q1084.9456,771.8475 1086.2581,770.1913 Q1087.5863,768.535 1090.0863,768.535 Q1090.7894,768.535 1091.43,768.6913 Q1092.0863,768.8475 1092.6488,769.1444 L1092.6488,771.8631 Q1092.0238,771.285 1091.43,771.0194 Q1090.8363,770.7381 1090.2113,770.7381 Q1088.8675,770.7381 1088.18,771.8163 Q1087.4925,772.8788 1087.4925,774.9725 Q1087.4925,777.0663 1088.18,778.1444 Q1088.8675,779.2069 1090.2113,779.2069 Q1090.8363,779.2069 1091.43,778.9413 Q1092.0238,778.66 1092.6488,778.0819 L1092.6488,780.8006 Z " fill="#000000"/><text fill="#000000" font-family="sans-serif" font-size="14" lengthAdjust="spacing" textLength="50.5791" x="1103.68" y="780.0067">Review</text><line style="stroke:#181818;stroke-width:0.5;" x1="1075.68" x2="1156.2591" y1="791.16" y2="791.16"/><text fill="#000000" font-family="sans-serif" font-size="14" lengthAdjust="spacing" textLength="41.4736" x="1080.68" y="808.1551">rating</text><text fill="#000000" font-family="sans-serif" font-size="14" lengthAdjust="spacing" textLength="66.5137" x="1080.68" y="824.452">comment</text><line style="stroke:#181818;stroke-width:0.5;" x1="1075.68" x2="1156.2591" y1="831.7538" y2="831.7538"/></g><!--class Preferences--><g class="entity" data-entity="Preferences" data-source-line="64" data-uid="ent0012" id="entity_Preferences"><rect fill="#F1F1F1" height="113.1875" rx="2.5" ry="2.5" style="stroke:#181818;stroke-width:0.5;" width="115.2002" x="1230.37" y="558.97"/><ellipse cx="1245.37" cy="574.97" fill="#ADD1B2" rx="11" ry="11" style="stroke:#181818;stroke-width:1;"/><path d="M1248.3388,580.6106 Q1247.7606,580.9075 1247.12,581.0481 Q1246.4794,581.2044 1245.7763,581.2044 Q1243.2763,581.2044 1241.9481,579.5638 Q1240.6356,577.9075 1240.6356,574.7825 Q1240.6356,571.6575 1241.9481,570.0013 Q1243.2763,568.345 1245.7763,568.345 Q1246.4794,568.345 1247.12,568.5013 Q1247.7763,568.6575 1248.3388,568.9544 L1248.3388,571.6731 Q1247.7138,571.095 1247.12,570.8294 Q1246.5263,570.5481 1245.9013,570.5481 Q1244.5575,570.5481 1243.87,571.6263 Q1243.1825,572.6888 1243.1825,574.7825 Q1243.1825,576.8763 1243.87,577.9544 Q1244.5575,579.0169 1245.9013,579.0169 Q1246.5263,579.0169 1247.12,578.7513 Q1247.7138,578.47 1248.3388,577.8919 L1248.3388,580.6106 Z " fill="#000000"/><text fill="#000000" font-family="sans-serif" font-size="14" lengthAdjust="spacing" textLength="83.2002" x="1259.37" y="579.8167">Preferences</text><line style="stroke:#181818;stroke-width:0.5;" x1="1231.37" x2="1344.5702" y1="590.97" y2="590.97"/><text fill="#000000" font-family="sans-serif" font-size="14" lengthAdjust="spacing" textLength="34.8428" x="1236.37" y="607.9651">price</text><text fill="#000000" font-family="sans-serif" font-size="14" lengthAdjust="spacing" textLength="64.7295" x="1236.37" y="624.262">condition</text><text fill="#000000" font-family="sans-serif" font-size="14" lengthAdjust="spacing" textLength="38.9375" x="1236.37" y="640.5589">make</text><text fill="#000000" font-family="sans-serif" font-size="14" lengthAdjust="spacing" textLength="43.5928" x="1236.37" y="656.8557">model</text><line style="stroke:#181818;stroke-width:0.5;" x1="1231.37" x2="1344.5702" y1="664.1575" y2="664.1575"/></g><!--class Booking--><g class="entity" data-entity="Booking" data-source-line="71" data-uid="ent0013" id="entity_Booking"><rect fill="#F1F1F1" height="113.1875" rx="2.5" ry="2.5" style="stroke:#181818;stroke-width:0.5;" width="88.4922" x="1071.73" y="558.97"/><ellipse cx="1086.73" cy="574.97" fill="#ADD1B2" rx="11" ry="11" style="stroke:#181818;stroke-width:1;"/><path d="M1089.6988,580.6106 Q1089.1206,580.9075 1088.48,581.0481 Q1087.8394,581.2044 1087.1363,581.2044 Q1084.6363,581.2044 1083.3081,579.5638 Q1081.9956,577.9075 1081.9956,574.7825 Q1081.9956,571.6575 1083.3081,570.0013 Q1084.6363,568.345 1087.1363,568.345 Q1087.8394,568.345 1088.48,568.5013 Q1089.1363,568.6575 1089.6988,568.9544 L1089.6988,571.6731 Q1089.0738,571.095 1088.48,570.8294 Q1087.8863,570.5481 1087.2613,570.5481 Q1085.9175,570.5481 1085.23,571.6263 Q1084.5425,572.6888 1084.5425,574.7825 Q1084.5425,576.8763 1085.23,577.9544 Q1085.9175,579.0169 1087.2613,579.0169 Q1087.8863,579.0169 1088.48,578.7513 Q1089.0738,578.47 1089.6988,577.8919 L1089.6988,580.6106 Z " fill="#000000"/><text fill="#000000" font-family="sans-serif" font-size="14" lengthAdjust="spacing" textLength="56.4922" x="1100.73" y="579.8167">Booking</text><line style="stroke:#181818;stroke-width:0.5;" x1="1072.73" x2="1159.2222" y1="590.97" y2="590.97"/><text fill="#000000" font-family="sans-serif" font-size="14" lengthAdjust="spacing" textLength="32.8877" x="1077.73" y="607.9651">from</text><text fill="#000000" font-family="sans-serif" font-size="14" lengthAdjust="spacing" textLength="14.0547" x="1077.73" y="624.262">to</text><text fill="#000000" font-family="sans-serif" font-size="14" lengthAdjust="spacing" textLength="34.8428" x="1077.73" y="640.5589">price</text><text fill="#000000" font-family="sans-serif" font-size="14" lengthAdjust="spacing" textLength="43.0186" x="1077.73" y="656.8557">status</text><line style="stroke:#181818;stroke-width:0.5;" x1="1072.73" x2="1159.2222" y1="664.1575" y2="664.1575"/></g><!--reverse link User to Lender--><g class="link" data-entity-1="User" data-entity-2="Lender" data-source-line="83" data-uid="lnk14" id="link_User_Lender"><path codeLine="83" d="M831.6046,122.913 C772.8746,153.493 711.67,185.35 665.33,209.47" fill="none" id="User-backto-Lender" style="stroke:#181818;stroke-width:1;"/><polygon fill="none" points="847.57,114.6,828.8336,117.5912,834.3756,128.2348,847.57,114.6" style="stroke:#181818;stroke-width:1;"/></g><!--reverse link User to Borrower--><g class="link" data-entity-1="User" data-entity-2="Borrower" data-source-line="84" data-uid="lnk15" id="link_User_Borrower"><path codeLine="84" d="M997.4991,150.0314 C1058.5791,217.9214 1141.19,309.76 1192.31,366.58" fill="none" id="User-backto-Borrower" style="stroke:#181818;stroke-width:1;"/><polygon fill="none" points="985.46,136.65,993.0386,154.0444,1001.9595,146.0183,985.46,136.65" style="stroke:#181818;stroke-width:1;"/></g><!--link Lender to Vehicle--><g class="link" data-entity-1="Lender" data-entity-2="Vehicle" data-source-line="86" data-uid="lnk16" id="link_Lender_Vehicle"><path codeLine="86" d="M624.97,255.92 C624.97,277.96 624.97,305.99 624.97,336.1" fill="none" id="Lender-to-Vehicle" style="stroke:#181818;stroke-width:1;"/><polygon fill="#181818" points="624.97,342.1,628.97,333.1,624.97,337.1,620.97,333.1,624.97,342.1" style="stroke:#181818;stroke-width:1;"/><text fill="#000000" font-family="sans-serif" font-size="13" lengthAdjust="spacing" textLength="33.5981" x="625.97" y="303.5469">owns</text><text fill="#000000" font-family="sans-serif" font-size="13" lengthAdjust="spacing" textLength="8.271" x="616.0761" y="275.3884">1</text><text fill="#000000" font-family="sans-serif" font-size="13" lengthAdjust="spacing" textLength="23.0356" x="600.7139" y="331.2311">0..*</text></g><!--link Lender to Review--><g class="link" data-entity-1="Lender" data-entity-2="Review" data-source-line="87" data-uid="lnk17" id="link_Lender_Review"><path codeLine="87" d="M584.65,247.61 C446.01,301.68 6,491.84 163.97,672.16 C225.09,741.91 893.1203,785.4685 1068.4803,795.7585" fill="none" id="Lender-to-Review" style="stroke:#181818;stroke-width:1;"/><polygon fill="#181818" points="1074.47,796.11,1065.7198,791.5897,1069.4786,795.8171,1065.2511,799.5759,1074.47,796.11" style="stroke:#181818;stroke-width:1;"/><text fill="#000000" font-family="sans-serif" font-size="13" lengthAdjust="spacing" textLength="39.457" x="159.97" y="520.0369">writes</text><text fill="#000000" font-family="sans-serif" font-size="13" lengthAdjust="spacing" textLength="8.271" x="568.5033" y="246.2803">1</text><text fill="#000000" font-family="sans-serif" font-size="13" lengthAdjust="spacing" textLength="23.0356" x="1043.6883" y="791.5935">0..*</text></g><!--link Borrower to Booking--><g class="link" data-entity-1="Borrower" data-entity-2="Booking" data-source-line="89" data-uid="lnk18" id="link_Borrower_Booking"><path codeLine="89" d="M1206.38,448.01 C1189.34,479.39 1168.2328,518.287 1149.2528,553.247" fill="none" id="Borrower-to-Booking" style="stroke:#181818;stroke-width:1;"/><polygon fill="#181818" points="1146.39,558.52,1154.1995,552.519,1148.7756,554.1258,1147.1688,548.702,1146.39,558.52" style="stroke:#181818;stroke-width:1;"/><text fill="#000000" font-family="sans-serif" font-size="13" lengthAdjust="spacing" textLength="42.9292" x="1172.97" y="520.0369">makes</text><text fill="#000000" font-family="sans-serif" font-size="13" lengthAdjust="spacing" textLength="8.271" x="1194.4816" y="467.4804">1</text><text fill="#000000" font-family="sans-serif" font-size="13" lengthAdjust="spacing" textLength="23.0356" x="1125.6973" y="547.7287">0..*</text></g><!--link Borrower to Review--><g class="link" data-entity-1="Borrower" data-entity-2="Review" data-source-line="90" data-uid="lnk19" id="link_Borrower_Review"><path codeLine="90" d="M1287.12,447.8 C1321.58,474.61 1361.9,513.39 1380.97,558.97 C1400.4,605.37 1407.82,629.62 1380.97,672.16 C1331.6,750.38 1224.9308,780.0837 1163.6008,791.3737" fill="none" id="Borrower-to-Review" style="stroke:#181818;stroke-width:1;"/><polygon fill="#181818" points="1157.7,792.46,1167.2755,794.7645,1162.6174,791.5548,1165.8271,786.8967,1157.7,792.46" style="stroke:#181818;stroke-width:1;"/><text fill="#000000" font-family="sans-serif" font-size="13" lengthAdjust="spacing" textLength="54.5645" x="1398.97" y="620.1269">receives</text><text fill="#000000" font-family="sans-serif" font-size="13" lengthAdjust="spacing" textLength="8.271" x="1287.9304" y="467.5391">1</text><text fill="#000000" font-family="sans-serif" font-size="13" lengthAdjust="spacing" textLength="23.0356" x="1165.188" y="787.4976">0..*</text></g><!--link Booking to Review--><g class="link" data-entity-1="Booking" data-entity-2="Review" data-source-line="91" data-uid="lnk20" id="link_Booking_Review"><path codeLine="91" d="M1115.97,672.62 C1115.97,700.49 1115.97,727.51 1115.97,752.73" fill="none" id="Booking-to-Review" style="stroke:#181818;stroke-width:1;"/><polygon fill="#181818" points="1115.97,758.73,1119.97,749.73,1115.97,753.73,1111.97,749.73,1115.97,758.73" style="stroke:#181818;stroke-width:1;"/><text fill="#000000" font-family="sans-serif" font-size="13" lengthAdjust="spacing" textLength="94.123" x="1116.97" y="720.2269">is reviewed by</text><text fill="#000000" font-family="sans-serif" font-size="13" lengthAdjust="spacing" textLength="8.271" x="1107.5225" y="692.1589">1</text><text fill="#000000" font-family="sans-serif" font-size="13" lengthAdjust="spacing" textLength="24.8066" x="1090.1219" y="748.1213">0..1</text></g><!--link Borrower to Preferences--><g class="link" data-entity-1="Borrower" data-entity-2="Preferences" data-source-line="92" data-uid="lnk21" id="link_Borrower_Preferences"><path codeLine="92" d="M1239.54,448.01 C1248.67,479.39 1259.8341,517.7988 1270.0041,552.7588" fill="none" id="Borrower-to-Preferences" style="stroke:#181818;stroke-width:1;"/><polygon fill="#181818" points="1271.68,558.52,1273.0069,548.7609,1270.2834,553.719,1265.3253,550.9955,1271.68,558.52" style="stroke:#181818;stroke-width:1;"/><text fill="#000000" font-family="sans-serif" font-size="13" lengthAdjust="spacing" textLength="26.6411" x="1261.97" y="520.0369">sets</text><text fill="#000000" font-family="sans-serif" font-size="13" lengthAdjust="spacing" textLength="8.271" x="1232.7192" y="467.4804">1</text><text fill="#000000" font-family="sans-serif" font-size="13" lengthAdjust="spacing" textLength="24.8066" x="1244.2813" y="547.7287">0..1</text></g><!--link Vehicle to Booking--><g class="link" data-entity-1="Vehicle" data-entity-2="Booking" data-source-line="94" data-uid="lnk22" id="link_Vehicle_Booking"><path codeLine="94" d="M696.24,428.06 C780.32,452.86 923.09,499.39 1036.97,558.97 C1048.56,565.03 1055.497,569.1445 1066.387,576.6845" fill="none" id="Vehicle-to-Booking" style="stroke:#181818;stroke-width:1;"/><polygon fill="#181818" points="1071.32,580.1,1066.1975,571.6881,1067.2092,577.2538,1061.6435,578.2654,1071.32,580.1" style="stroke:#181818;stroke-width:1;"/><text fill="#000000" font-family="sans-serif" font-size="13" lengthAdjust="spacing" textLength="68.0151" x="962.97" y="520.0369">booked by</text><text fill="#000000" font-family="sans-serif" font-size="13" lengthAdjust="spacing" textLength="8.271" x="704.016" y="426.5092">1</text><text fill="#000000" font-family="sans-serif" font-size="13" lengthAdjust="spacing" textLength="23.0356" x="1040.7764" y="571.4026">0..*</text></g><!--link Vehicle to RentalTerms--><g class="link" data-entity-1="Vehicle" data-entity-2="RentalTerms" data-source-line="95" data-uid="lnk23" id="link_Vehicle_RentalTerms"><path codeLine="95" d="M589.22,472.38 C573.85,499.95 558.9802,526.6286 544.1602,553.2286" fill="none" id="Vehicle-to-RentalTerms" style="stroke:#181818;stroke-width:1;"/><polygon fill="#181818" points="541.24,558.47,549.1146,552.5547,543.6735,554.1022,542.126,548.6611,541.24,558.47" style="stroke:#181818;stroke-width:1;"/><text fill="#000000" font-family="sans-serif" font-size="13" lengthAdjust="spacing" textLength="47.4487" x="568.97" y="520.0369">defines</text><text fill="#000000" font-family="sans-serif" font-size="13" lengthAdjust="spacing" textLength="8.271" x="577.1345" y="491.9466">1</text><text fill="#000000" font-family="sans-serif" font-size="13" lengthAdjust="spacing" textLength="8.271" x="536.4079" y="548.0759">1</text></g><!--link Vehicle to UsageRestriction--><g class="link" data-entity-1="Vehicle" data-entity-2="UsageRestriction" data-source-line="96" data-uid="lnk24" id="link_Vehicle_UsageRestriction"><path codeLine="96" d="M686.23,472.38 C718.19,505.86 752.1465,541.4305 779.8365,570.4305" fill="none" id="Vehicle-to-UsageRestriction" style="stroke:#181818;stroke-width:1;"/><polygon fill="#181818" points="783.98,574.77,780.6578,565.4984,780.5271,571.1537,774.8717,571.023,783.98,574.77" style="stroke:#181818;stroke-width:1;"/><text fill="#000000" font-family="sans-serif" font-size="13" lengthAdjust="spacing" textLength="47.4487" x="736.97" y="520.0369">defines</text><text fill="#000000" font-family="sans-serif" font-size="13" lengthAdjust="spacing" textLength="8.271" x="684.1487" y="491.9466">1</text><text fill="#000000" font-family="sans-serif" font-size="13" lengthAdjust="spacing" textLength="8.271" x="769.3081" y="564.1502">1</text></g><!--link Vehicle to AvailabilitySchedule--><g class="link" data-entity-1="Vehicle" data-entity-2="AvailabilitySchedule" data-source-line="97" data-uid="lnk25" id="link_Vehicle_AvailabilitySchedule"><path codeLine="97" d="M554,442.82 C518.51,460.84 475.28,483.89 437.97,506.97 C404.18,527.88 372.7422,550.1863 344.3422,571.3363" fill="none" id="Vehicle-to-AvailabilitySchedule" style="stroke:#181818;stroke-width:1;"/><polygon fill="#181818" points="339.53,574.92,349.1374,572.7525,343.5401,571.9336,344.3591,566.3363,339.53,574.92" style="stroke:#181818;stroke-width:1;"/><text fill="#000000" font-family="sans-serif" font-size="13" lengthAdjust="spacing" textLength="104.749" x="438.97" y="520.0369">available during</text><text fill="#000000" font-family="sans-serif" font-size="13" lengthAdjust="spacing" textLength="8.271" x="537.8148" y="442.9674">1</text><text fill="#000000" font-family="sans-serif" font-size="13" lengthAdjust="spacing" textLength="23.0356" x="322.9164" y="564.3241">0..*</text></g><!--SRC=[VLJBRjim4BphAnQw62ZW83uL48e0wQMN0WsSffSY1qfQMuH5KbXIDeIc_zxbGu_OIdKnEHpE3lTXUvAw4oGKQ5EZnGu-tsTs0adeKmAppNRwuB5oXcoMLQsm5bui4lp9W3yj58Q5ECRVhZ4QGVUgH0e0AY7RU2G6XTg1r0T3IZXfTFPtrFoEkWwgC_JL49dB5AeH5iwYbJNK9Cz86mkjh51NCJ2ne3xwsqlZlx2HLOkZv5DZd1atwIp9At6AGeeJ4mqFA0ZCmHzvwVGyPw28Gh_lx-u-lGQyChgMxr-KFvxvvQAKhNG3F5SDrdsBEV0pbYVZGRBXf48ua57pZXtFedlEe6ZX9vAoGIi2OPyaEf8f9vsiJdq7hQbYjaEUqFMatsDAjiW5v7mgwHR1lg4vakWuJLoCNjU2XX1pnaTuT3zqCJ8NgiU5qelr-dkqZitvkD5yW1TeaZdESSinGB4ITL60ZamZI-cm1i5IPv_p0fvPM1yzRVTwtHe_NCCjcWpkyIpnaiAdLefrLRvdvvSy4HwGVDVTfdjkWfM6MhIryUsKRi-bDbTgrWdNsslNZzQQIeRIyJnkqjXijsyFOIoppJGrCvQ5WVtonjSZVm6Cz2nBKlakvwiFaFlSvjEG560k776TbB9Nm8Mu0knhCd557DzUXEpO3tcJ8665FEoU6MykYRi5KLhc-ZKtG3ci2_DoMRu2B3esEpxnGwybhwBi3JLOc0UmW1eFKhFVDUPDj_-77Zsi_b4K82BCwxht3VuF]--></g></svg>