<svg xmlns="http://www.w3.org/2000/svg" xmlns:xlink="http://www.w3.org/1999/xlink" contentStyleType="text/css" data-diagram-type="CLASS" height="846px" preserveAspectRatio="none" style="width:1937px;height:846px;background:#FFFFFF;" version="1.1" viewBox="0 0 1937 846" width="1937px" zoomAndPan="magnify"><defs/><g><!--class User--><g class="entity" data-entity="User" data-source-line="6" data-uid="ent0002" id="entity_User"><rect fill="#F1F1F1" height="129.4844" rx="2.5" ry="2.5" style="stroke:#181818;stroke-width:0.5;" width="159.8613" x="173.82" y="7"/><ellipse cx="233.5456" cy="23" fill="#ADD1B2" rx="11" ry="11" style="stroke:#181818;stroke-width:1;"/><path d="M236.5143,28.6406 Q235.9362,28.9375 235.2956,29.0781 Q234.655,29.2344 233.9518,29.2344 Q231.4518,29.2344 230.1237,27.5938 Q228.8112,25.9375 228.8112,22.8125 Q228.8112,19.6875 230.1237,18.0313 Q231.4518,16.375 233.9518,16.375 Q234.655,16.375 235.2956,16.5313 Q235.9518,16.6875 236.5143,16.9844 L236.5143,19.7031 Q235.8893,19.125 235.2956,18.8594 Q234.7018,18.5781 234.0768,18.5781 Q232.7331,18.5781 232.0456,19.6563 Q231.3581,20.7188 231.3581,22.8125 Q231.3581,24.9063 232.0456,25.9844 Q232.7331,27.0469 234.0768,27.0469 Q234.7018,27.0469 235.2956,26.7813 Q235.8893,26.5 236.5143,25.9219 L236.5143,28.6406 Z " fill="#000000"/><text fill="#000000" font-family="sans-serif" font-size="14" lengthAdjust="spacing" textLength="31.9102" x="254.0456" y="27.8467">User</text><line style="stroke:#181818;stroke-width:0.5;" x1="174.82" x2="332.6813" y1="39" y2="39"/><text fill="#000000" font-family="sans-serif" font-size="14" lengthAdjust="spacing" textLength="39.7031" x="179.82" y="55.9951">name</text><text fill="#000000" font-family="sans-serif" font-size="14" lengthAdjust="spacing" textLength="26.0791" x="179.82" y="72.292">age</text><text fill="#000000" font-family="sans-serif" font-size="14" lengthAdjust="spacing" textLength="102.9014" x="179.82" y="88.5889">phone number</text><text fill="#000000" font-family="sans-serif" font-size="14" lengthAdjust="spacing" textLength="38.6094" x="179.82" y="104.8857">email</text><text fill="#000000" font-family="sans-serif" font-size="14" lengthAdjust="spacing" textLength="147.8613" x="179.82" y="121.1826">payment information</text><line style="stroke:#181818;stroke-width:0.5;" x1="174.82" x2="332.6813" y1="128.4844" y2="128.4844"/></g><!--class Lender--><g class="entity" data-entity="Lender" data-source-line="14" data-uid="ent0003" id="entity_Lender"><rect fill="#F1F1F1" height="48" rx="2.5" ry="2.5" style="stroke:#181818;stroke-width:0.5;" width="80.542" x="647.48" y="207.48"/><ellipse cx="662.48" cy="223.48" fill="#ADD1B2" rx="11" ry="11" style="stroke:#181818;stroke-width:1;"/><path d="M665.4488,229.1206 Q664.8706,229.4175 664.23,229.5581 Q663.5894,229.7144 662.8863,229.7144 Q660.3863,229.7144 659.0581,228.0738 Q657.7456,226.4175 657.7456,223.2925 Q657.7456,220.1675 659.0581,218.5113 Q660.3863,216.855 662.8863,216.855 Q663.5894,216.855 664.23,217.0113 Q664.8863,217.1675 665.4488,217.4644 L665.4488,220.1831 Q664.8238,219.605 664.23,219.3394 Q663.6363,219.0581 663.0113,219.0581 Q661.6675,219.0581 660.98,220.1363 Q660.2925,221.1988 660.2925,223.2925 Q660.2925,225.3863 660.98,226.4644 Q661.6675,227.5269 663.0113,227.5269 Q663.6363,227.5269 664.23,227.2613 Q664.8238,226.98 665.4488,226.4019 L665.4488,229.1206 Z " fill="#000000"/><text fill="#000000" font-family="sans-serif" font-size="14" lengthAdjust="spacing" textLength="48.542" x="676.48" y="228.3267">Lender</text><line style="stroke:#181818;stroke-width:0.5;" x1="648.48" x2="727.022" y1="239.48" y2="239.48"/><line style="stroke:#181818;stroke-width:0.5;" x1="648.48" x2="727.022" y1="247.48" y2="247.48"/></g><!--class Borrower--><g class="entity" data-entity="Borrower" data-source-line="18" data-uid="ent0004" id="entity_Borrower"><rect fill="#F1F1F1" height="80.5938" rx="2.5" ry="2.5" style="stroke:#181818;stroke-width:0.5;" width="185.2295" x="45.14" y="366.93"/><ellipse cx="101.4715" cy="382.93" fill="#ADD1B2" rx="11" ry="11" style="stroke:#181818;stroke-width:1;"/><path d="M104.4403,388.5706 Q103.8622,388.8675 103.2215,389.0081 Q102.5809,389.1644 101.8778,389.1644 Q99.3778,389.1644 98.0497,387.5238 Q96.7372,385.8675 96.7372,382.7425 Q96.7372,379.6175 98.0497,377.9613 Q99.3778,376.305 101.8778,376.305 Q102.5809,376.305 103.2215,376.4613 Q103.8778,376.6175 104.4403,376.9144 L104.4403,379.6331 Q103.8153,379.055 103.2215,378.7894 Q102.6278,378.5081 102.0028,378.5081 Q100.659,378.5081 99.9715,379.5863 Q99.284,380.6488 99.284,382.7425 Q99.284,384.8363 99.9715,385.9144 Q100.659,386.9769 102.0028,386.9769 Q102.6278,386.9769 103.2215,386.7113 Q103.8153,386.43 104.4403,385.8519 L104.4403,388.5706 Z " fill="#000000"/><text fill="#000000" font-family="sans-serif" font-size="14" lengthAdjust="spacing" textLength="64.0664" x="121.9715" y="387.7767">Borrower</text><line style="stroke:#181818;stroke-width:0.5;" x1="46.14" x2="229.3695" y1="398.93" y2="398.93"/><text fill="#000000" font-family="sans-serif" font-size="14" lengthAdjust="spacing" textLength="173.2295" x="51.14" y="415.9251">has valid driver's licence</text><text fill="#000000" font-family="sans-serif" font-size="14" lengthAdjust="spacing" textLength="41.4736" x="51.14" y="432.222">rating</text><line style="stroke:#181818;stroke-width:0.5;" x1="46.14" x2="229.3695" y1="439.5238" y2="439.5238"/></g><!--class Photo--><g class="entity" data-entity="Photo" data-source-line="25" data-uid="ent0005" id="entity_Photo"><rect fill="#F1F1F1" height="48" rx="2.5" ry="2.5" style="stroke:#181818;stroke-width:0.5;" width="71.9355" x="149.79" y="591.56"/><ellipse cx="164.79" cy="607.56" fill="#ADD1B2" rx="11" ry="11" style="stroke:#181818;stroke-width:1;"/><path d="M167.7588,613.2006 Q167.1806,613.4975 166.54,613.6381 Q165.8994,613.7944 165.1963,613.7944 Q162.6963,613.7944 161.3681,612.1538 Q160.0556,610.4975 160.0556,607.3725 Q160.0556,604.2475 161.3681,602.5913 Q162.6963,600.935 165.1963,600.935 Q165.8994,600.935 166.54,601.0913 Q167.1963,601.2475 167.7588,601.5444 L167.7588,604.2631 Q167.1338,603.685 166.54,603.4194 Q165.9463,603.1381 165.3213,603.1381 Q163.9775,603.1381 163.29,604.2163 Q162.6025,605.2788 162.6025,607.3725 Q162.6025,609.4663 163.29,610.5444 Q163.9775,611.6069 165.3213,611.6069 Q165.9463,611.6069 166.54,611.3413 Q167.1338,611.06 167.7588,610.4819 L167.7588,613.2006 Z " fill="#000000"/><text fill="#000000" font-family="sans-serif" font-size="14" lengthAdjust="spacing" textLength="39.9355" x="178.79" y="612.4067">Photo</text><line style="stroke:#181818;stroke-width:0.5;" x1="150.79" x2="220.7255" y1="623.56" y2="623.56"/><line style="stroke:#181818;stroke-width:0.5;" x1="150.79" x2="220.7255" y1="631.56" y2="631.56"/></g><!--class Vehicle--><g class="entity" data-entity="Vehicle" data-source-line="27" data-uid="ent0006" id="entity_Vehicle"><rect fill="#F1F1F1" height="129.4844" rx="2.5" ry="2.5" style="stroke:#181818;stroke-width:0.5;" width="141.6641" x="871.92" y="342.48"/><ellipse cx="913.2498" cy="358.48" fill="#ADD1B2" rx="11" ry="11" style="stroke:#181818;stroke-width:1;"/><path d="M916.2186,364.1206 Q915.6405,364.4175 914.9998,364.5581 Q914.3592,364.7144 913.6561,364.7144 Q911.1561,364.7144 909.828,363.0738 Q908.5155,361.4175 908.5155,358.2925 Q908.5155,355.1675 909.828,353.5113 Q911.1561,351.855 913.6561,351.855 Q914.3592,351.855 914.9998,352.0113 Q915.6561,352.1675 916.2186,352.4644 L916.2186,355.1831 Q915.5936,354.605 914.9998,354.3394 Q914.4061,354.0581 913.7811,354.0581 Q912.4373,354.0581 911.7498,355.1363 Q911.0623,356.1988 911.0623,358.2925 Q911.0623,360.3863 911.7498,361.4644 Q912.4373,362.5269 913.7811,362.5269 Q914.4061,362.5269 914.9998,362.2613 Q915.5936,361.98 916.2186,361.4019 L916.2186,364.1206 Z " fill="#000000"/><text fill="#000000" font-family="sans-serif" font-size="14" lengthAdjust="spacing" textLength="51.1533" x="933.1009" y="363.3267">Vehicle</text><line style="stroke:#181818;stroke-width:0.5;" x1="872.92" x2="1012.5841" y1="374.48" y2="374.48"/><text fill="#000000" font-family="sans-serif" font-size="14" lengthAdjust="spacing" textLength="38.9375" x="877.92" y="391.4751">make</text><text fill="#000000" font-family="sans-serif" font-size="14" lengthAdjust="spacing" textLength="43.5928" x="877.92" y="407.772">model</text><text fill="#000000" font-family="sans-serif" font-size="14" lengthAdjust="spacing" textLength="105.6016" x="877.92" y="424.0689">year of making</text><text fill="#000000" font-family="sans-serif" font-size="14" lengthAdjust="spacing" textLength="129.6641" x="877.92" y="440.3657">photo : Photo[0..*]</text><text fill="#000000" font-family="sans-serif" font-size="14" lengthAdjust="spacing" textLength="64.7295" x="877.92" y="456.6626">condition</text><line style="stroke:#181818;stroke-width:0.5;" x1="872.92" x2="1012.5841" y1="463.9644" y2="463.9644"/></g><!--class AvailabilitySchedule--><g class="entity" data-entity="AvailabilitySchedule" data-source-line="35" data-uid="ent0007" id="entity_AvailabilitySchedule"><rect fill="#F1F1F1" height="80.5938" rx="2.5" ry="2.5" style="stroke:#181818;stroke-width:0.5;" width="177.9131" x="1316.8" y="575.27"/><ellipse cx="1331.8" cy="591.27" fill="#ADD1B2" rx="11" ry="11" style="stroke:#181818;stroke-width:1;"/><path d="M1334.7688,596.9106 Q1334.1906,597.2075 1333.55,597.3481 Q1332.9094,597.5044 1332.2063,597.5044 Q1329.7063,597.5044 1328.3781,595.8638 Q1327.0656,594.2075 1327.0656,591.0825 Q1327.0656,587.9575 1328.3781,586.3013 Q1329.7063,584.645 1332.2063,584.645 Q1332.9094,584.645 1333.55,584.8013 Q1334.2063,584.9575 1334.7688,585.2544 L1334.7688,587.9731 Q1334.1438,587.395 1333.55,587.1294 Q1332.9563,586.8481 1332.3313,586.8481 Q1330.9875,586.8481 1330.3,587.9263 Q1329.6125,588.9888 1329.6125,591.0825 Q1329.6125,593.1763 1330.3,594.2544 Q1330.9875,595.3169 1332.3313,595.3169 Q1332.9563,595.3169 1333.55,595.0513 Q1334.1438,594.77 1334.7688,594.1919 L1334.7688,596.9106 Z " fill="#000000"/><text fill="#000000" font-family="sans-serif" font-size="14" lengthAdjust="spacing" textLength="145.9131" x="1345.8" y="596.1167">Availability Schedule</text><line style="stroke:#181818;stroke-width:0.5;" x1="1317.8" x2="1493.7131" y1="607.27" y2="607.27"/><text fill="#000000" font-family="sans-serif" font-size="14" lengthAdjust="spacing" textLength="68.9678" x="1322.8" y="624.2651">time from</text><text fill="#000000" font-family="sans-serif" font-size="14" lengthAdjust="spacing" textLength="50.1348" x="1322.8" y="640.562">time to</text><line style="stroke:#181818;stroke-width:0.5;" x1="1317.8" x2="1493.7131" y1="647.8638" y2="647.8638"/></g><!--class RentalTerms--><g class="entity" data-entity="RentalTerms" data-source-line="40" data-uid="ent0008" id="entity_RentalTerms"><rect fill="#F1F1F1" height="113.1875" rx="2.5" ry="2.5" style="stroke:#181818;stroke-width:0.5;" width="125.4746" x="692.02" y="558.97"/><ellipse cx="707.02" cy="574.97" fill="#ADD1B2" rx="11" ry="11" style="stroke:#181818;stroke-width:1;"/><path d="M709.9888,580.6106 Q709.4106,580.9075 708.77,581.0481 Q708.1294,581.2044 707.4263,581.2044 Q704.9263,581.2044 703.5981,579.5638 Q702.2856,577.9075 702.2856,574.7825 Q702.2856,571.6575 703.5981,570.0013 Q704.9263,568.345 707.4263,568.345 Q708.1294,568.345 708.77,568.5013 Q709.4263,568.6575 709.9888,568.9544 L709.9888,571.6731 Q709.3638,571.095 708.77,570.8294 Q708.1763,570.5481 707.5513,570.5481 Q706.2075,570.5481 705.52,571.6263 Q704.8325,572.6888 704.8325,574.7825 Q704.8325,576.8763 705.52,577.9544 Q706.2075,579.0169 707.5513,579.0169 Q708.1763,579.0169 708.77,578.7513 Q709.3638,578.47 709.9888,577.8919 L709.9888,580.6106 Z " fill="#000000"/><text fill="#000000" font-family="sans-serif" font-size="14" lengthAdjust="spacing" textLength="93.4746" x="721.02" y="579.8167">Rental Terms</text><line style="stroke:#181818;stroke-width:0.5;" x1="693.02" x2="816.4946" y1="590.97" y2="590.97"/><text fill="#000000" font-family="sans-serif" font-size="14" lengthAdjust="spacing" textLength="34.8428" x="698.02" y="607.9651">price</text><text fill="#000000" font-family="sans-serif" font-size="14" lengthAdjust="spacing" textLength="106.3398" x="698.02" y="624.262">pickup location</text><text fill="#000000" font-family="sans-serif" font-size="14" lengthAdjust="spacing" textLength="103.3594" x="698.02" y="640.5589">return location</text><text fill="#000000" font-family="sans-serif" font-size="14" lengthAdjust="spacing" textLength="91.3555" x="698.02" y="656.8557">mileage limit</text><line style="stroke:#181818;stroke-width:0.5;" x1="693.02" x2="816.4946" y1="664.1575" y2="664.1575"/></g><!--class GeographicBoundary--><g class="entity" data-entity="GeographicBoundary" data-source-line="47" data-uid="ent0009" id="entity_GeographicBoundary"><rect fill="#F1F1F1" height="80.5938" rx="2.5" ry="2.5" style="stroke:#181818;stroke-width:0.5;" width="184.4688" x="403.52" y="31.45"/><ellipse cx="418.52" cy="47.45" fill="#ADD1B2" rx="11" ry="11" style="stroke:#181818;stroke-width:1;"/><path d="M421.4888,53.0906 Q420.9106,53.3875 420.27,53.5281 Q419.6294,53.6844 418.9263,53.6844 Q416.4263,53.6844 415.0981,52.0438 Q413.7856,50.3875 413.7856,47.2625 Q413.7856,44.1375 415.0981,42.4813 Q416.4263,40.825 418.9263,40.825 Q419.6294,40.825 420.27,40.9813 Q420.9263,41.1375 421.4888,41.4344 L421.4888,44.1531 Q420.8638,43.575 420.27,43.3094 Q419.6763,43.0281 419.0513,43.0281 Q417.7075,43.0281 417.02,44.1063 Q416.3325,45.1688 416.3325,47.2625 Q416.3325,49.3563 417.02,50.4344 Q417.7075,51.4969 419.0513,51.4969 Q419.6763,51.4969 420.27,51.2313 Q420.8638,50.95 421.4888,50.3719 L421.4888,53.0906 Z " fill="#000000"/><text fill="#000000" font-family="sans-serif" font-size="14" lengthAdjust="spacing" textLength="152.4688" x="432.52" y="52.2967">Geographic Boundary</text><line style="stroke:#181818;stroke-width:0.5;" x1="404.52" x2="586.9888" y1="63.45" y2="63.45"/><text fill="#000000" font-family="sans-serif" font-size="14" lengthAdjust="spacing" textLength="31.2744" x="409.52" y="80.4451">type</text><text fill="#000000" font-family="sans-serif" font-size="14" lengthAdjust="spacing" textLength="38.2402" x="409.52" y="96.742">value</text><line style="stroke:#181818;stroke-width:0.5;" x1="404.52" x2="586.9888" y1="104.0438" y2="104.0438"/></g><!--class UsageRestriction--><g class="entity" data-entity="UsageRestriction" data-source-line="52" data-uid="ent0010" id="entity_UsageRestriction"><rect fill="#F1F1F1" height="80.5938" rx="2.5" ry="2.5" style="stroke:#181818;stroke-width:0.5;" width="359.1563" x="887.18" y="575.27"/><ellipse cx="997.1839" cy="591.27" fill="#ADD1B2" rx="11" ry="11" style="stroke:#181818;stroke-width:1;"/><path d="M1000.1527,596.9106 Q999.5745,597.2075 998.9339,597.3481 Q998.2933,597.5044 997.5902,597.5044 Q995.0902,597.5044 993.762,595.8638 Q992.4495,594.2075 992.4495,591.0825 Q992.4495,587.9575 993.762,586.3013 Q995.0902,584.645 997.5902,584.645 Q998.2933,584.645 998.9339,584.8013 Q999.5902,584.9575 1000.1527,585.2544 L1000.1527,587.9731 Q999.5277,587.395 998.9339,587.1294 Q998.3402,586.8481 997.7152,586.8481 Q996.3714,586.8481 995.6839,587.9263 Q994.9964,588.9888 994.9964,591.0825 Q994.9964,593.1763 995.6839,594.2544 Q996.3714,595.3169 997.7152,595.3169 Q998.3402,595.3169 998.9339,595.0513 Q999.5277,594.77 1000.1527,594.1919 L1000.1527,596.9106 Z " fill="#000000"/><text fill="#000000" font-family="sans-serif" font-size="14" lengthAdjust="spacing" textLength="130.6484" x="1017.6839" y="596.1167">Usage Restrictions</text><line style="stroke:#181818;stroke-width:0.5;" x1="888.18" x2="1245.3362" y1="607.27" y2="607.27"/><text fill="#000000" font-family="sans-serif" font-size="14" lengthAdjust="spacing" textLength="347.1563" x="893.18" y="624.2651">geographic boundary : GeographicBoundary[0..*]</text><text fill="#000000" font-family="sans-serif" font-size="14" lengthAdjust="spacing" textLength="220.8281" x="893.18" y="640.562">prohibited activity : String[0..1]</text><line style="stroke:#181818;stroke-width:0.5;" x1="888.18" x2="1245.3362" y1="647.8638" y2="647.8638"/></g><!--class Review--><g class="entity" data-entity="Review" data-source-line="59" data-uid="ent0011" id="entity_Review"><rect fill="#F1F1F1" height="80.5938" rx="2.5" ry="2.5" style="stroke:#181818;stroke-width:0.5;" width="82.5791" x="536.46" y="759.16"/><ellipse cx="551.46" cy="775.16" fill="#ADD1B2" rx="11" ry="11" style="stroke:#181818;stroke-width:1;"/><path d="M554.4288,780.8006 Q553.8506,781.0975 553.21,781.2381 Q552.5694,781.3944 551.8663,781.3944 Q549.3663,781.3944 548.0381,779.7538 Q546.7256,778.0975 546.7256,774.9725 Q546.7256,771.8475 548.0381,770.1913 Q549.3663,768.535 551.8663,768.535 Q552.5694,768.535 553.21,768.6913 Q553.8663,768.8475 554.4288,769.1444 L554.4288,771.8631 Q553.8038,771.285 553.21,771.0194 Q552.6163,770.7381 551.9913,770.7381 Q550.6475,770.7381 549.96,771.8163 Q549.2725,772.8788 549.2725,774.9725 Q549.2725,777.0663 549.96,778.1444 Q550.6475,779.2069 551.9913,779.2069 Q552.6163,779.2069 553.21,778.9413 Q553.8038,778.66 554.4288,778.0819 L554.4288,780.8006 Z " fill="#000000"/><text fill="#000000" font-family="sans-serif" font-size="14" lengthAdjust="spacing" textLength="50.5791" x="565.46" y="780.0067">Review</text><line style="stroke:#181818;stroke-width:0.5;" x1="537.46" x2="618.0391" y1="791.16" y2="791.16"/><text fill="#000000" font-family="sans-serif" font-size="14" lengthAdjust="spacing" textLength="41.4736" x="542.46" y="808.1551">rating</text><text fill="#000000" font-family="sans-serif" font-size="14" lengthAdjust="spacing" textLength="66.5137" x="542.46" y="824.452">comment</text><line style="stroke:#181818;stroke-width:0.5;" x1="537.46" x2="618.0391" y1="831.7538" y2="831.7538"/></g><!--class Preferences--><g class="entity" data-entity="Preferences" data-source-line="64" data-uid="ent0012" id="entity_Preferences"><rect fill="#F1F1F1" height="113.1875" rx="2.5" ry="2.5" style="stroke:#181818;stroke-width:0.5;" width="115.2002" x="329.15" y="558.97"/><ellipse cx="344.15" cy="574.97" fill="#ADD1B2" rx="11" ry="11" style="stroke:#181818;stroke-width:1;"/><path d="M347.1188,580.6106 Q346.5406,580.9075 345.9,581.0481 Q345.2594,581.2044 344.5563,581.2044 Q342.0563,581.2044 340.7281,579.5638 Q339.4156,577.9075 339.4156,574.7825 Q339.4156,571.6575 340.7281,570.0013 Q342.0563,568.345 344.5563,568.345 Q345.2594,568.345 345.9,568.5013 Q346.5563,568.6575 347.1188,568.9544 L347.1188,571.6731 Q346.4938,571.095 345.9,570.8294 Q345.3063,570.5481 344.6813,570.5481 Q343.3375,570.5481 342.65,571.6263 Q341.9625,572.6888 341.9625,574.7825 Q341.9625,576.8763 342.65,577.9544 Q343.3375,579.0169 344.6813,579.0169 Q345.3063,579.0169 345.9,578.7513 Q346.4938,578.47 347.1188,577.8919 L347.1188,580.6106 Z " fill="#000000"/><text fill="#000000" font-family="sans-serif" font-size="14" lengthAdjust="spacing" textLength="83.2002" x="358.15" y="579.8167">Preferences</text><line style="stroke:#181818;stroke-width:0.5;" x1="330.15" x2="443.3502" y1="590.97" y2="590.97"/><text fill="#000000" font-family="sans-serif" font-size="14" lengthAdjust="spacing" textLength="34.8428" x="335.15" y="607.9651">price</text><text fill="#000000" font-family="sans-serif" font-size="14" lengthAdjust="spacing" textLength="64.7295" x="335.15" y="624.262">condition</text><text fill="#000000" font-family="sans-serif" font-size="14" lengthAdjust="spacing" textLength="38.9375" x="335.15" y="640.5589">make</text><text fill="#000000" font-family="sans-serif" font-size="14" lengthAdjust="spacing" textLength="43.5928" x="335.15" y="656.8557">model</text><line style="stroke:#181818;stroke-width:0.5;" x1="330.15" x2="443.3502" y1="664.1575" y2="664.1575"/></g><!--class Notification--><g class="entity" data-entity="Notification" data-source-line="71" data-uid="ent0013" id="entity_Notification"><rect fill="#F1F1F1" height="80.5938" rx="2.5" ry="2.5" style="stroke:#181818;stroke-width:0.5;" width="112.3291" x="1762.59" y="575.27"/><ellipse cx="1777.59" cy="591.27" fill="#ADD1B2" rx="11" ry="11" style="stroke:#181818;stroke-width:1;"/><path d="M1780.5588,596.9106 Q1779.9806,597.2075 1779.34,597.3481 Q1778.6994,597.5044 1777.9963,597.5044 Q1775.4963,597.5044 1774.1681,595.8638 Q1772.8556,594.2075 1772.8556,591.0825 Q1772.8556,587.9575 1774.1681,586.3013 Q1775.4963,584.645 1777.9963,584.645 Q1778.6994,584.645 1779.34,584.8013 Q1779.9963,584.9575 1780.5588,585.2544 L1780.5588,587.9731 Q1779.9338,587.395 1779.34,587.1294 Q1778.7463,586.8481 1778.1213,586.8481 Q1776.7775,586.8481 1776.09,587.9263 Q1775.4025,588.9888 1775.4025,591.0825 Q1775.4025,593.1763 1776.09,594.2544 Q1776.7775,595.3169 1778.1213,595.3169 Q1778.7463,595.3169 1779.34,595.0513 Q1779.9338,594.77 1780.5588,594.1919 L1780.5588,596.9106 Z " fill="#000000"/><text fill="#000000" font-family="sans-serif" font-size="14" lengthAdjust="spacing" textLength="80.3291" x="1791.59" y="596.1167">Notification</text><line style="stroke:#181818;stroke-width:0.5;" x1="1763.59" x2="1873.9191" y1="607.27" y2="607.27"/><text fill="#000000" font-family="sans-serif" font-size="14" lengthAdjust="spacing" textLength="27.877" x="1768.59" y="624.2651">text</text><text fill="#000000" font-family="sans-serif" font-size="14" lengthAdjust="spacing" textLength="48.0361" x="1768.59" y="640.562">sender</text><line style="stroke:#181818;stroke-width:0.5;" x1="1763.59" x2="1873.9191" y1="647.8638" y2="647.8638"/></g><!--class NotificationViolation--><g class="entity" data-entity="NotificationViolation" data-source-line="77" data-uid="ent0014" id="entity_NotificationViolation"><rect fill="#F1F1F1" height="48" rx="2.5" ry="2.5" style="stroke:#181818;stroke-width:0.5;" width="223.5088" x="1707" y="383.23"/><ellipse cx="1722" cy="399.23" fill="#ADD1B2" rx="11" ry="11" style="stroke:#181818;stroke-width:1;"/><path d="M1724.9688,404.8706 Q1724.3906,405.1675 1723.75,405.3081 Q1723.1094,405.4644 1722.4063,405.4644 Q1719.9063,405.4644 1718.5781,403.8238 Q1717.2656,402.1675 1717.2656,399.0425 Q1717.2656,395.9175 1718.5781,394.2613 Q1719.9063,392.605 1722.4063,392.605 Q1723.1094,392.605 1723.75,392.7613 Q1724.4063,392.9175 1724.9688,393.2144 L1724.9688,395.9331 Q1724.3438,395.355 1723.75,395.0894 Q1723.1563,394.8081 1722.5313,394.8081 Q1721.1875,394.8081 1720.5,395.8863 Q1719.8125,396.9488 1719.8125,399.0425 Q1719.8125,401.1363 1720.5,402.2144 Q1721.1875,403.2769 1722.5313,403.2769 Q1723.1563,403.2769 1723.75,403.0113 Q1724.3438,402.73 1724.9688,402.1519 L1724.9688,404.8706 Z " fill="#000000"/><text fill="#000000" font-family="sans-serif" font-size="14" lengthAdjust="spacing" textLength="191.5088" x="1736" y="404.0767">Terms violation notification</text><line style="stroke:#181818;stroke-width:0.5;" x1="1708" x2="1929.5088" y1="415.23" y2="415.23"/><line style="stroke:#181818;stroke-width:0.5;" x1="1708" x2="1929.5088" y1="423.23" y2="423.23"/></g><!--class Booking--><g class="entity" data-entity="Booking" data-source-line="80" data-uid="ent0015" id="entity_Booking"><rect fill="#F1F1F1" height="113.1875" rx="2.5" ry="2.5" style="stroke:#181818;stroke-width:0.5;" width="88.4922" x="533.51" y="558.97"/><ellipse cx="548.51" cy="574.97" fill="#ADD1B2" rx="11" ry="11" style="stroke:#181818;stroke-width:1;"/><path d="M551.4788,580.6106 Q550.9006,580.9075 550.26,581.0481 Q549.6194,581.2044 548.9163,581.2044 Q546.4163,581.2044 545.0881,579.5638 Q543.7756,577.9075 543.7756,574.7825 Q543.7756,571.6575 545.0881,570.0013 Q546.4163,568.345 548.9163,568.345 Q549.6194,568.345 550.26,568.5013 Q550.9163,568.6575 551.4788,568.9544 L551.4788,571.6731 Q550.8538,571.095 550.26,570.8294 Q549.6663,570.5481 549.0413,570.5481 Q547.6975,570.5481 547.01,571.6263 Q546.3225,572.6888 546.3225,574.7825 Q546.3225,576.8763 547.01,577.9544 Q547.6975,579.0169 549.0413,579.0169 Q549.6663,579.0169 550.26,578.7513 Q550.8538,578.47 551.4788,577.8919 L551.4788,580.6106 Z " fill="#000000"/><text fill="#000000" font-family="sans-serif" font-size="14" lengthAdjust="spacing" textLength="56.4922" x="562.51" y="579.8167">Booking</text><line style="stroke:#181818;stroke-width:0.5;" x1="534.51" x2="621.0022" y1="590.97" y2="590.97"/><text fill="#000000" font-family="sans-serif" font-size="14" lengthAdjust="spacing" textLength="32.8877" x="539.51" y="607.9651">from</text><text fill="#000000" font-family="sans-serif" font-size="14" lengthAdjust="spacing" textLength="14.0547" x="539.51" y="624.262">to</text><text fill="#000000" font-family="sans-serif" font-size="14" lengthAdjust="spacing" textLength="34.8428" x="539.51" y="640.5589">price</text><text fill="#000000" font-family="sans-serif" font-size="14" lengthAdjust="spacing" textLength="43.0186" x="539.51" y="656.8557">status</text><line style="stroke:#181818;stroke-width:0.5;" x1="534.51" x2="621.0022" y1="664.1575" y2="664.1575"/></g><!--class Offer--><g class="entity" data-entity="Offer" data-source-line="87" data-uid="ent0016" id="entity_Offer"><rect fill="#F1F1F1" height="48" rx="2.5" ry="2.5" style="stroke:#181818;stroke-width:0.5;" width="67.2461" x="509.13" y="383.23"/><ellipse cx="524.13" cy="399.23" fill="#ADD1B2" rx="11" ry="11" style="stroke:#181818;stroke-width:1;"/><path d="M527.0988,404.8706 Q526.5206,405.1675 525.88,405.3081 Q525.2394,405.4644 524.5363,405.4644 Q522.0363,405.4644 520.7081,403.8238 Q519.3956,402.1675 519.3956,399.0425 Q519.3956,395.9175 520.7081,394.2613 Q522.0363,392.605 524.5363,392.605 Q525.2394,392.605 525.88,392.7613 Q526.5363,392.9175 527.0988,393.2144 L527.0988,395.9331 Q526.4738,395.355 525.88,395.0894 Q525.2863,394.8081 524.6613,394.8081 Q523.3175,394.8081 522.63,395.8863 Q521.9425,396.9488 521.9425,399.0425 Q521.9425,401.1363 522.63,402.2144 Q523.3175,403.2769 524.6613,403.2769 Q525.2863,403.2769 525.88,403.0113 Q526.4738,402.73 527.0988,402.1519 L527.0988,404.8706 Z " fill="#000000"/><text fill="#000000" font-family="sans-serif" font-size="14" lengthAdjust="spacing" textLength="35.2461" x="538.13" y="404.0767">Offer</text><line style="stroke:#181818;stroke-width:0.5;" x1="510.13" x2="575.3761" y1="415.23" y2="415.23"/><line style="stroke:#181818;stroke-width:0.5;" x1="510.13" x2="575.3761" y1="423.23" y2="423.23"/></g><!--link NotificationViolation to Notification--><g class="link" data-entity-1="NotificationViolation" data-entity-2="Notification" data-source-line="97" data-uid="lnk17" id="link_NotificationViolation_Notification"><path codeLine="97" d="M1818.75,431.49 C1818.75,466.28 1818.75,514.27 1818.75,556.8" fill="none" id="NotificationViolation-to-Notification" style="stroke:#181818;stroke-width:1;"/><polygon fill="none" points="1818.75,574.8,1824.75,556.8,1812.75,556.8,1818.75,574.8" style="stroke:#181818;stroke-width:1;"/></g><!--reverse link User to Lender--><g class="link" data-entity-1="User" data-entity-2="Lender" data-source-line="99" data-uid="lnk18" id="link_User_Lender"><path codeLine="99" d="M350.0109,128.3646 C361.4809,134.2746 357.28,131.68 368.75,136.48 C465.42,176.94 585.37,207.28 646.99,221.51" fill="none" id="User-backto-Lender" style="stroke:#181818;stroke-width:1;"/><polygon fill="none" points="334.01,120.12,347.2627,133.6982,352.759,123.0309,334.01,120.12" style="stroke:#181818;stroke-width:1;"/></g><!--reverse link User to Borrower--><g class="link" data-entity-1="User" data-entity-2="Borrower" data-source-line="100" data-uid="lnk19" id="link_User_Borrower"><path codeLine="100" d="M225.6075,153.6512 C201.9975,221.5412 171.31,309.76 151.54,366.58" fill="none" id="User-backto-Borrower" style="stroke:#181818;stroke-width:1;"/><polygon fill="none" points="231.52,136.65,219.9404,151.6804,231.2746,155.6221,231.52,136.65" style="stroke:#181818;stroke-width:1;"/></g><!--link Lender to NotificationViolation--><g class="link" data-entity-1="Lender" data-entity-2="NotificationViolation" data-source-line="102" data-uid="lnk20" id="link_Lender_NotificationViolation"><path codeLine="102" d="M728.51,232 C889.26,230.52 1478.97,229.47 1653.75,290.48 C1710.25,310.2 1760.4792,351.1525 1790.5392,378.8725" fill="none" id="Lender-to-NotificationViolation" style="stroke:#181818;stroke-width:1;"/><polygon fill="#181818" points="1794.95,382.94,1791.0454,373.8982,1791.2743,379.5504,1785.6221,379.7793,1794.95,382.94" style="stroke:#181818;stroke-width:1;"/><text fill="#000000" font-family="sans-serif" font-size="13" lengthAdjust="spacing" textLength="46.5664" x="1689.75" y="303.5469">recives</text><text fill="#000000" font-family="sans-serif" font-size="13" lengthAdjust="spacing" textLength="8.271" x="735.9457" y="227.9218">1</text><text fill="#000000" font-family="sans-serif" font-size="13" lengthAdjust="spacing" textLength="23.0356" x="1763.3489" y="372.2743">0..*</text></g><!--link Lender to Offer--><g class="link" data-entity-1="Lender" data-entity-2="Offer" data-source-line="104" data-uid="lnk21" id="link_Lender_Offer"><path codeLine="104" d="M668.2,255.92 C640.45,289.17 593.7847,345.0836 566.0747,378.2836" fill="none" id="Lender-to-Offer" style="stroke:#181818;stroke-width:1;"/><polygon fill="#181818" points="562.23,382.89,571.0679,378.5435,565.4339,379.0514,564.9261,373.4173,562.23,382.89" style="stroke:#181818;stroke-width:1;"/><text fill="#000000" font-family="sans-serif" font-size="13" lengthAdjust="spacing" textLength="42.9292" x="636.75" y="303.5469">makes</text><text fill="#000000" font-family="sans-serif" font-size="13" lengthAdjust="spacing" textLength="8.271" x="654.7852" y="275.3884">1</text><text fill="#000000" font-family="sans-serif" font-size="13" lengthAdjust="spacing" textLength="23.0356" x="541.1787" y="372.2121">0..*</text></g><!--link Offer to Booking--><g class="link" data-entity-1="Offer" data-entity-2="Booking" data-source-line="105" data-uid="lnk22" id="link_Offer_Booking"><path codeLine="105" d="M558.11,431.4 C569.92,450.7 585.29,479.39 591.75,506.97 C595.65,523.57 595.8985,535.9317 593.4785,552.6717" fill="none" id="Offer-to-Booking" style="stroke:#181818;stroke-width:1;"/><polygon fill="#181818" points="592.62,558.61,597.8665,550.2749,593.3354,553.6614,589.9488,549.1303,592.62,558.61" style="stroke:#181818;stroke-width:1;"/><text fill="#000000" font-family="sans-serif" font-size="13" lengthAdjust="spacing" textLength="55.0278" x="594.75" y="520.0369">contains</text><text fill="#000000" font-family="sans-serif" font-size="13" lengthAdjust="spacing" textLength="8.271" x="552.9113" y="451.2026">1</text><text fill="#000000" font-family="sans-serif" font-size="13" lengthAdjust="spacing" textLength="8.271" x="585.9606" y="547.8297">1</text></g><!--link Borrower to Offer--><g class="link" data-entity-1="Borrower" data-entity-2="Offer" data-source-line="106" data-uid="lnk23" id="link_Borrower_Offer"><path codeLine="106" d="M222.42,366.59 C242.27,357.93 263.53,349.34 283.75,342.48 C366.24,314.52 399.94,267.48 476.75,308.52 C506.03,324.16 522.3079,353.6168 532.0579,377.4468" fill="none" id="Borrower-to-Offer" style="stroke:#181818;stroke-width:1;"/><polygon fill="#181818" points="534.33,383,534.624,373.1555,532.4366,378.3724,527.2198,376.185,534.33,383" style="stroke:#181818;stroke-width:1;"/><text fill="#000000" font-family="sans-serif" font-size="13" lengthAdjust="spacing" textLength="50.0513" x="425.75" y="303.5469">reviews</text><text fill="#000000" font-family="sans-serif" font-size="13" lengthAdjust="spacing" textLength="23.0356" x="211.0836" y="355.9957">0..*</text><text fill="#000000" font-family="sans-serif" font-size="13" lengthAdjust="spacing" textLength="23.0356" x="506.4781" y="372.3489">0..*</text></g><!--link Lender to Vehicle--><g class="link" data-entity-1="Lender" data-entity-2="Vehicle" data-source-line="108" data-uid="lnk24" id="link_Lender_Vehicle"><path codeLine="108" d="M722.14,255.92 C760.28,281.9 817.8813,321.152 866.6613,354.382" fill="none" id="Lender-to-Vehicle" style="stroke:#181818;stroke-width:1;"/><polygon fill="#181818" points="871.62,357.76,866.4339,349.3872,867.4877,354.945,861.9299,355.9988,871.62,357.76" style="stroke:#181818;stroke-width:1;"/><text fill="#000000" font-family="sans-serif" font-size="13" lengthAdjust="spacing" textLength="33.5981" x="792.75" y="303.5469">owns</text><text fill="#000000" font-family="sans-serif" font-size="13" lengthAdjust="spacing" textLength="8.271" x="721.1988" y="275.3884">1</text><text fill="#000000" font-family="sans-serif" font-size="13" lengthAdjust="spacing" textLength="23.0356" x="841.004" y="349.5818">0..*</text></g><!--link Lender to Review--><g class="link" data-entity-1="Lender" data-entity-2="Review" data-source-line="109" data-uid="lnk25" id="link_Lender_Review"><path codeLine="109" d="M728.2,237.42 C926.42,263.09 1776.03,391.05 1529.75,672.16 C1468.64,741.91 800.5997,785.4685 625.2397,795.7585" fill="none" id="Lender-to-Review" style="stroke:#181818;stroke-width:1;"/><polygon fill="#181818" points="619.25,796.11,628.4689,799.5759,624.2414,795.8171,628.0002,791.5897,619.25,796.11" style="stroke:#181818;stroke-width:1;"/><text fill="#000000" font-family="sans-serif" font-size="13" lengthAdjust="spacing" textLength="39.457" x="1560.75" y="520.0369">writes</text><text fill="#000000" font-family="sans-serif" font-size="13" lengthAdjust="spacing" textLength="8.271" x="736.1416" y="251.8927">1</text><text fill="#000000" font-family="sans-serif" font-size="13" lengthAdjust="spacing" textLength="23.0356" x="627.0371" y="791.5935">0..*</text></g><!--link Borrower to Booking--><g class="link" data-entity-1="Borrower" data-entity-2="Booking" data-source-line="111" data-uid="lnk26" id="link_Borrower_Booking"><path codeLine="111" d="M228.63,448.01 C325.8,490.59 467.65,552.89 479.75,558.97 C497.58,567.93 511.5604,575.576 528.1804,585.146" fill="none" id="Borrower-to-Booking" style="stroke:#181818;stroke-width:1;"/><polygon fill="#181818" points="533.38,588.14,527.5766,580.1826,529.047,585.645,523.5846,587.1154,533.38,588.14" style="stroke:#181818;stroke-width:1;"/><text fill="#000000" font-family="sans-serif" font-size="13" lengthAdjust="spacing" textLength="42.9292" x="397.75" y="520.0369">makes</text><text fill="#000000" font-family="sans-serif" font-size="13" lengthAdjust="spacing" textLength="8.271" x="233.9535" y="467.4804">1</text><text fill="#000000" font-family="sans-serif" font-size="13" lengthAdjust="spacing" textLength="23.0356" x="502.5249" y="580.3051">0..*</text></g><!--link Borrower to Review--><g class="link" data-entity-1="Borrower" data-entity-2="Review" data-source-line="112" data-uid="lnk27" id="link_Borrower_Review"><path codeLine="112" d="M105.91,447.69 C65.22,503.19 6,605.03 58.75,672.16 C118.34,747.99 417.7476,783.3947 530.1676,794.2247" fill="none" id="Borrower-to-Review" style="stroke:#181818;stroke-width:1;"/><polygon fill="#181818" points="536.14,794.8,527.565,789.9554,531.163,794.3205,526.7979,797.9185,536.14,794.8" style="stroke:#181818;stroke-width:1;"/><text fill="#000000" font-family="sans-serif" font-size="13" lengthAdjust="spacing" textLength="54.5645" x="59.75" y="620.1269">receives</text><text fill="#000000" font-family="sans-serif" font-size="13" lengthAdjust="spacing" textLength="8.271" x="91.9957" y="467.7118">1</text><text fill="#000000" font-family="sans-serif" font-size="13" lengthAdjust="spacing" textLength="23.0356" x="505.3422" y="790.0911">0..*</text></g><!--link Booking to Review--><g class="link" data-entity-1="Booking" data-entity-2="Review" data-source-line="113" data-uid="lnk28" id="link_Booking_Review"><path codeLine="113" d="M577.75,672.62 C577.75,700.49 577.75,727.51 577.75,752.73" fill="none" id="Booking-to-Review" style="stroke:#181818;stroke-width:1;"/><polygon fill="#181818" points="577.75,758.73,581.75,749.73,577.75,753.73,573.75,749.73,577.75,758.73" style="stroke:#181818;stroke-width:1;"/><text fill="#000000" font-family="sans-serif" font-size="13" lengthAdjust="spacing" textLength="94.123" x="578.75" y="720.2269">is reviewed by</text><text fill="#000000" font-family="sans-serif" font-size="13" lengthAdjust="spacing" textLength="8.271" x="569.3025" y="692.1589">1</text><text fill="#000000" font-family="sans-serif" font-size="13" lengthAdjust="spacing" textLength="24.8066" x="551.9019" y="748.1213">0..1</text></g><!--link Borrower to Preferences--><g class="link" data-entity-1="Borrower" data-entity-2="Preferences" data-source-line="114" data-uid="lnk29" id="link_Borrower_Preferences"><path codeLine="114" d="M185.76,448.01 C226.61,481.85 280.7598,526.732 324.2098,562.732" fill="none" id="Borrower-to-Preferences" style="stroke:#181818;stroke-width:1;"/><polygon fill="#181818" points="328.83,566.56,324.4517,557.7378,324.9798,563.37,319.3477,563.8981,328.83,566.56" style="stroke:#181818;stroke-width:1;"/><text fill="#000000" font-family="sans-serif" font-size="13" lengthAdjust="spacing" textLength="26.6411" x="277.75" y="520.0369">sets</text><text fill="#000000" font-family="sans-serif" font-size="13" lengthAdjust="spacing" textLength="8.271" x="184.5191" y="467.4804">1</text><text fill="#000000" font-family="sans-serif" font-size="13" lengthAdjust="spacing" textLength="24.8066" x="296.3576" y="556.7486">0..1</text></g><!--link Vehicle to Booking--><g class="link" data-entity-1="Vehicle" data-entity-2="Booking" data-source-line="116" data-uid="lnk30" id="link_Vehicle_Booking"><path codeLine="116" d="M871.42,442.63 C812.7,471.71 727.85,515.46 656.75,558.97 C645.31,565.97 638.2175,570.5922 627.1175,578.3522" fill="none" id="Vehicle-to-Booking" style="stroke:#181818;stroke-width:1;"/><polygon fill="#181818" points="622.2,581.79,631.8681,579.9116,626.2979,578.9252,627.2843,573.355,622.2,581.79" style="stroke:#181818;stroke-width:1;"/><text fill="#000000" font-family="sans-serif" font-size="13" lengthAdjust="spacing" textLength="68.0151" x="741.75" y="520.0369">booked by</text><text fill="#000000" font-family="sans-serif" font-size="13" lengthAdjust="spacing" textLength="8.271" x="855.6654" y="442.5817">1</text><text fill="#000000" font-family="sans-serif" font-size="13" lengthAdjust="spacing" textLength="23.0356" x="630.0696" y="573.0621">0..*</text></g><!--link Vehicle to RentalTerms--><g class="link" data-entity-1="Vehicle" data-entity-2="RentalTerms" data-source-line="117" data-uid="lnk31" id="link_Vehicle_RentalTerms"><path codeLine="117" d="M907.14,472.21 C895.95,489.84 882.81,508.39 868.75,523.97 C853.68,540.67 840.0239,552.998 822.4739,566.818" fill="none" id="Vehicle-to-RentalTerms" style="stroke:#181818;stroke-width:1;"/><polygon fill="#181818" points="817.76,570.53,827.3055,568.1046,821.6882,567.4366,822.3562,561.8194,817.76,570.53" style="stroke:#181818;stroke-width:1;"/><text fill="#000000" font-family="sans-serif" font-size="13" lengthAdjust="spacing" textLength="47.4487" x="881.75" y="520.0369">defines</text><text fill="#000000" font-family="sans-serif" font-size="13" lengthAdjust="spacing" textLength="8.271" x="894.8223" y="492.2125">1</text><text fill="#000000" font-family="sans-serif" font-size="13" lengthAdjust="spacing" textLength="8.271" x="825.5229" y="561.5304">1</text></g><!--link Vehicle to UsageRestriction--><g class="link" data-entity-1="Vehicle" data-entity-2="UsageRestriction" data-source-line="118" data-uid="lnk32" id="link_Vehicle_UsageRestriction"><path codeLine="118" d="M981.31,472.38 C1001.43,505.86 1022.3191,540.6274 1039.7491,569.6274" fill="none" id="Vehicle-to-UsageRestriction" style="stroke:#181818;stroke-width:1;"/><polygon fill="#181818" points="1042.84,574.77,1041.6321,564.9955,1040.2643,570.4845,1034.7753,569.1167,1042.84,574.77" style="stroke:#181818;stroke-width:1;"/><text fill="#000000" font-family="sans-serif" font-size="13" lengthAdjust="spacing" textLength="47.4487" x="1012.75" y="520.0369">defines</text><text fill="#000000" font-family="sans-serif" font-size="13" lengthAdjust="spacing" textLength="8.271" x="976.8878" y="491.9466">1</text><text fill="#000000" font-family="sans-serif" font-size="13" lengthAdjust="spacing" textLength="8.271" x="1030.4121" y="564.1502">1</text></g><!--link Vehicle to AvailabilitySchedule--><g class="link" data-entity-1="Vehicle" data-entity-2="AvailabilitySchedule" data-source-line="119" data-uid="lnk33" id="link_Vehicle_AvailabilitySchedule"><path codeLine="119" d="M1013.88,439.78 C1082.49,470.23 1189.27,517.67 1281.75,558.97 C1293.28,564.11 1299.9239,567.0879 1311.8939,572.4479" fill="none" id="Vehicle-to-AvailabilitySchedule" style="stroke:#181818;stroke-width:1;"/><polygon fill="#181818" points="1317.37,574.9,1310.7907,567.5711,1312.8066,572.8566,1307.5212,574.8726,1317.37,574.9" style="stroke:#181818;stroke-width:1;"/><text fill="#000000" font-family="sans-serif" font-size="13" lengthAdjust="spacing" textLength="104.749" x="1198.75" y="520.0369">available during</text><text fill="#000000" font-family="sans-serif" font-size="13" lengthAdjust="spacing" textLength="8.271" x="1021.6415" y="439.4378">1</text><text fill="#000000" font-family="sans-serif" font-size="13" lengthAdjust="spacing" textLength="23.0356" x="1285.7875" y="567.8333">0..*</text></g><!--link Offer to Preferences--><g class="link" data-entity-1="Offer" data-entity-2="Preferences" data-source-line="121" data-uid="lnk34" id="link_Offer_Preferences"><path codeLine="121" d="M529.37,431.61 C515.32,455.54 492.06,493.45 468.75,523.97 C459.87,535.6 453.797,543.0574 443.847,554.2974" fill="none" id="Offer-to-Preferences" style="stroke:#181818;stroke-width:1;"/><polygon fill="#181818" points="439.87,558.79,448.8306,554.7024,443.1842,555.0462,442.8404,549.3998,439.87,558.79" style="stroke:#181818;stroke-width:1;"/><text fill="#000000" font-family="sans-serif" font-size="13" lengthAdjust="spacing" textLength="46.979" x="480.75" y="520.0369">has set</text><text fill="#000000" font-family="sans-serif" font-size="13" lengthAdjust="spacing" textLength="8.271" x="517.1659" y="451.4638">1</text><text fill="#000000" font-family="sans-serif" font-size="13" lengthAdjust="spacing" textLength="8.271" x="437.873" y="548.0316">1</text></g><!--link Borrower to Photo--><g class="link" data-entity-1="Borrower" data-entity-2="Photo" data-source-line="123" data-uid="lnk35" id="link_Borrower_Photo"><path codeLine="123" d="M113.27,447.87 C102.48,470.47 94.19,499.15 103.75,523.97 C114.13,550.89 132.1059,570.8274 150.9159,587.2974" fill="none" id="Borrower-to-Photo" style="stroke:#181818;stroke-width:1;"/><polygon fill="#181818" points="155.43,591.25,151.2939,582.3118,151.6682,587.9562,146.0238,588.3306,155.43,591.25" style="stroke:#181818;stroke-width:1;"/><text fill="#000000" font-family="sans-serif" font-size="13" lengthAdjust="spacing" textLength="51.0479" x="104.75" y="520.0369">uploads</text><text fill="#000000" font-family="sans-serif" font-size="13" lengthAdjust="spacing" textLength="8.271" x="100.7518" y="467.6203">1</text><text fill="#000000" font-family="sans-serif" font-size="13" lengthAdjust="spacing" textLength="23.0356" x="122.2388" y="580.5794">0..*</text></g><!--link Lender to Photo--><g class="link" data-entity-1="Lender" data-entity-2="Photo" data-source-line="124" data-uid="lnk36" id="link_Lender_Photo"><path codeLine="124" d="M647.18,236.93 C579.74,244.96 448.25,263.62 410.75,290.48 C312.77,360.69 345.65,427.97 272.75,523.97 C254.03,548.63 233.6439,569.6607 215.3339,587.1907" fill="none" id="Lender-to-Photo" style="stroke:#181818;stroke-width:1;"/><polygon fill="#181818" points="211,591.34,220.2671,588.0053,214.6116,587.8822,214.7347,582.2267,211,591.34" style="stroke:#181818;stroke-width:1;"/><text fill="#000000" font-family="sans-serif" font-size="13" lengthAdjust="spacing" textLength="51.0479" x="357.75" y="411.7969">uploads</text><text fill="#000000" font-family="sans-serif" font-size="13" lengthAdjust="spacing" textLength="8.271" x="631.2649" y="233.6436">1</text><text fill="#000000" font-family="sans-serif" font-size="13" lengthAdjust="spacing" textLength="23.0356" x="191.354" y="580.6913">0..*</text></g><!--SRC=[VLKzRzim4DtvAmWj1WeaIAO2GX4WNR8KJP0qMOeCj7Io28kaG59sZQJ_lSSlaRRbQf5uV7ptxeCdi-LoP9e9AbKB1aRwzOQOsQYPt4OZMLtD3xrlhDA6a6PWnj1N0vf-48gFP0By1zk4zzWh2LHEOWtQ6q0mFeGjTX0WBUMoKremovKaVnFd3v2jPyscxqfhjPzTzSpG7HjuIrlDTw1NXWwy0Ta4nne9vSQTBeM_GS-R0HBbKw-iIeku5-a5smOYWOa9WW_0D5MTstBKCJohQ1s8VjzSNtzvz_P6oPOVHrJTxp1ojkO3jmVwqlJGJWDK5CCeTz96b66v0Dff9V8A5MVIPymW6-WlqC9uhc3mwqWnQXvpCl9cEurqK4t8jiyJs4dBOvlW0s01CP-2syBP0wYDPYEc2OinoPRfW_UPxScSr1_6u1aBDK71z6eS_pCOY-ASto3UcmjhfDbal-lae5xmMXHWrAhdQswXfGofTYxdDNr1OhbniDltqzPuj3ssQ1Ju33iE- -W-jbAegt0zcoDvqj21TbrtdkxS10iDDJFyL9PtF6GVAIpyiSJuxYzwlme5tN4r1A0iJldKbJHl2VPHtXxbkZQAp1sbJaGRo-nayhd73kCBr_1e0XYZ6kwTu1mWgtXVhwu-x_my8AlvkcORMHGP0EKM8NwaVFj4Hu6uC2HUGgBFwhP2YZjQkUfNoud0scjeS4oOIyTyd0XpPJ8ah6O8lbF-QbTMopY6FKSOASx9j6-ZYpxJnAcfsYFVCYYsOatt6jiPkRBROs1M66AuX9i9CIFWKv9Ebi3R0iXDZ0Hlq_gmJ8oVvLsegG6BObE85xMkyIlGda6zX3pDQjf2noNgNKAUZOx_m8E6nQbRKnRC-DrERbgGXMOe8gtzZmY3lLoOf_YJcCP1iVPIdKzG_m00]--></g></svg>