<svg xmlns="http://www.w3.org/2000/svg" xmlns:xlink="http://www.w3.org/1999/xlink" contentStyleType="text/css" data-diagram-type="ACTIVITY" height="1390px" preserveAspectRatio="none" style="width:678px;height:1390px;background:#FFFFFF;" version="1.1" viewBox="0 0 678 1390" width="678px" zoomAndPan="magnify"><defs/><g><rect fill="#FFFFCC" height="49.9219" rx="2.5" ry="2.5" style="stroke:#FFDD88;stroke-width:3;" width="667.6953" x="5" y="5"/><text fill="#000000" font-family="monospace" font-size="10" lengthAdjust="spacing" textLength="295.0049" x="10" y="20">The&#160;syntax&#160;using&#160;the&#160;]&#160;character&#160;is&#160;now&#160;obsolete.</text><text fill="#000000" font-family="monospace" font-size="10" lengthAdjust="spacing" textLength="258.8818" x="10" y="31.6406">Please&#160;use&#160;the&#160;&lt;&lt;task&gt;&gt;&#160;stereotype&#160;instead.</text><text fill="#000000" font-family="monospace" font-size="10" lengthAdjust="spacing" textLength="397.3535" x="10" y="43.2813">For&#160;more&#160;details,&#160;visit&#160;https://plantuml.com/activity-diagram-beta</text><ellipse cx="278.501" cy="79.9219" fill="#222222" rx="10" ry="10" style="stroke:#222222;stroke-width:1;"/><rect fill="#F1F1F1" height="33.9688" rx="12.5" ry="12.5" style="stroke:#181818;stroke-width:0.5;" width="170.3633" x="193.3193" y="109.9219"/><text fill="#000000" font-family="sans-serif" font-size="12" lengthAdjust="spacing" textLength="146.5488" x="207.1338" y="131.0605">Borrower opens booking</text><rect fill="#F1F1F1" height="33.9688" rx="12.5" ry="12.5" style="stroke:#181818;stroke-width:0.5;" width="227.5332" x="164.7344" y="163.8906"/><text fill="#000000" font-family="sans-serif" font-size="12" lengthAdjust="spacing" textLength="203.7188" x="178.5488" y="185.0293">Borrower selects "Return Vehicle"</text><rect fill="#F1F1F1" height="33.9688" rx="12.5" ry="12.5" style="stroke:#181818;stroke-width:0.5;" width="252.043" x="152.4795" y="217.8594"/><text fill="#000000" font-family="sans-serif" font-size="12" lengthAdjust="spacing" textLength="228.2285" x="166.2939" y="238.998">System shows "Return vehicle pop-up</text><rect fill="#F1F1F1" height="33.9688" rx="12.5" ry="12.5" style="stroke:#181818;stroke-width:0.5;" width="180.6934" x="188.1543" y="320.2305"/><text fill="#000000" font-family="sans-serif" font-size="12" lengthAdjust="spacing" textLength="156.8789" x="201.9688" y="341.3691">Borrower creates car data</text><rect fill="#F1F1F1" height="33.9688" style="stroke:#181818;stroke-width:0.5;" width="250.6836" x="153.1592" y="374.1992"/><text fill="#000000" font-family="sans-serif" font-size="12" lengthAdjust="spacing" textLength="226.8691" x="166.9736" y="395.3379">Car data (GPS coordinates, photos,...)</text><rect fill="#F1F1F1" height="33.9688" rx="12.5" ry="12.5" style="stroke:#181818;stroke-width:0.5;" width="325.1621" x="115.9199" y="428.168"/><text fill="#000000" font-family="sans-serif" font-size="12" lengthAdjust="spacing" textLength="301.3477" x="129.7344" y="449.3066">System sends car data to the car owner's account</text><polygon fill="#F1F1F1" points="177.1833,271.8281,379.8186,271.8281,391.8186,283.8281,379.8186,295.8281,177.1833,295.8281,165.1833,283.8281,177.1833,271.8281" style="stroke:#181818;stroke-width:0.5;"/><text fill="#000000" font-family="sans-serif" font-size="11" lengthAdjust="spacing" textLength="19.0083" x="282.501" y="306.0386">yes</text><text fill="#000000" font-family="sans-serif" font-size="11" lengthAdjust="spacing" textLength="202.6353" x="177.1833" y="287.6362">Create and send data about the car?</text><text fill="#000000" font-family="sans-serif" font-size="11" lengthAdjust="spacing" textLength="13.7017" x="391.8186" y="281.2339">no</text><polygon fill="#F1F1F1" points="278.501,482.1367,290.501,494.1367,278.501,506.1367,266.501,494.1367,278.501,482.1367" style="stroke:#181818;stroke-width:0.5;"/><rect fill="#F1F1F1" height="33.9688" rx="12.5" ry="12.5" style="stroke:#181818;stroke-width:0.5;" width="269.6211" x="143.6904" y="574.5391"/><text fill="#000000" font-family="sans-serif" font-size="12" lengthAdjust="spacing" textLength="245.8066" x="157.5049" y="595.6777">Borrower directly contacts the car owner</text><polygon fill="#F1F1F1" points="191.9592,526.1367,365.0427,526.1367,377.0427,538.1367,365.0427,550.1367,191.9592,550.1367,179.9592,538.1367,191.9592,526.1367" style="stroke:#181818;stroke-width:0.5;"/><text fill="#000000" font-family="sans-serif" font-size="11" lengthAdjust="spacing" textLength="19.0083" x="282.501" y="560.3472">yes</text><text fill="#000000" font-family="sans-serif" font-size="11" lengthAdjust="spacing" textLength="173.0835" x="191.9592" y="541.9448">Directly contact the car owner?</text><text fill="#000000" font-family="sans-serif" font-size="11" lengthAdjust="spacing" textLength="13.7017" x="377.0427" y="535.5425">no</text><polygon fill="#F1F1F1" points="278.501,628.5078,290.501,640.5078,278.501,652.5078,266.501,640.5078,278.501,628.5078" style="stroke:#181818;stroke-width:0.5;"/><rect fill="#F1F1F1" height="33.9688" rx="12.5" ry="12.5" style="stroke:#181818;stroke-width:0.5;" width="188.2813" x="184.3604" y="672.5078"/><text fill="#000000" font-family="sans-serif" font-size="12" lengthAdjust="spacing" textLength="164.4668" x="198.1748" y="693.6465">System creates notification</text><rect fill="#F1F1F1" height="33.9688" style="stroke:#181818;stroke-width:0.5;" width="92.668" x="232.167" y="726.4766"/><text fill="#000000" font-family="sans-serif" font-size="12" lengthAdjust="spacing" textLength="68.8535" x="245.9814" y="747.6152">Notification</text><rect fill="#F1F1F1" height="33.9688" rx="12.5" ry="12.5" style="stroke:#181818;stroke-width:0.5;" width="342.916" x="107.043" y="780.4453"/><text fill="#000000" font-family="sans-serif" font-size="12" lengthAdjust="spacing" textLength="319.1016" x="120.8574" y="801.584">System sends notification to the car owner's account</text><rect fill="#F1F1F1" height="33.9688" rx="12.5" ry="12.5" style="stroke:#181818;stroke-width:0.5;" width="195.3945" x="180.8037" y="834.4141"/><text fill="#000000" font-family="sans-serif" font-size="12" lengthAdjust="spacing" textLength="171.5801" x="194.6182" y="855.5527">Car owner opens application</text><rect fill="#F1F1F1" height="33.9688" rx="12.5" ry="12.5" style="stroke:#181818;stroke-width:0.5;" width="276.4238" x="140.2891" y="888.3828"/><text fill="#000000" font-family="sans-serif" font-size="12" lengthAdjust="spacing" textLength="252.6094" x="154.1035" y="909.5215">Car owner navigates to the booking detail</text><polygon fill="#F1F1F1" points="188.0088,942.3516,368.9932,942.3516,380.9932,954.3516,368.9932,966.3516,188.0088,966.3516,176.0088,954.3516,188.0088,942.3516" style="stroke:#181818;stroke-width:0.5;"/><text fill="#000000" font-family="sans-serif" font-size="11" lengthAdjust="spacing" textLength="180.9844" x="188.0088" y="958.1597">Confirm the return of the vehicle</text><text fill="#000000" font-family="sans-serif" font-size="11" lengthAdjust="spacing" textLength="19.0083" x="157.0005" y="951.7573">yes</text><text fill="#000000" font-family="sans-serif" font-size="11" lengthAdjust="spacing" textLength="13.7017" x="380.9932" y="951.7573">no</text><rect fill="#F1F1F1" height="33.9688" rx="12.5" ry="12.5" style="stroke:#181818;stroke-width:0.5;" width="205.6543" x="11" y="976.3516"/><text fill="#000000" font-family="sans-serif" font-size="12" lengthAdjust="spacing" textLength="181.8398" x="24.8145" y="997.4902">Car owner confirms the return</text><rect fill="#F1F1F1" height="33.9688" rx="12.5" ry="12.5" style="stroke:#181818;stroke-width:0.5;" width="193.25" x="346.5498" y="976.3516"/><text fill="#000000" font-family="sans-serif" font-size="12" lengthAdjust="spacing" textLength="169.4355" x="360.3643" y="997.4902">Car owner denies the return</text><rect fill="#F1F1F1" height="33.9688" rx="12.5" ry="12.5" style="stroke:#181818;stroke-width:0.5;" width="365.041" x="260.6543" y="1030.3203"/><text fill="#000000" font-family="sans-serif" font-size="12" lengthAdjust="spacing" textLength="341.2266" x="274.4688" y="1051.459">System presents means of solving issues with the return</text><rect fill="#F1F1F1" height="33.9688" rx="12.5" ry="12.5" style="stroke:#181818;stroke-width:0.5;" width="365.041" x="260.6543" y="1128.2891"/><text fill="#000000" font-family="sans-serif" font-size="12" lengthAdjust="spacing" textLength="341.2266" x="274.4688" y="1149.4277">System presents means of solving issues with the return</text><rect fill="#F1F1F1" height="33.9688" rx="12.5" ry="12.5" style="stroke:#181818;stroke-width:0.5;" width="315.2246" x="285.5625" y="1197.2578"/><text fill="#000000" font-family="sans-serif" font-size="12" lengthAdjust="spacing" textLength="291.4102" x="299.377" y="1218.3965">Car owner tries to handle issues outside the app</text><polygon fill="#F1F1F1" points="356.249,1084.2891,530.1006,1084.2891,542.1006,1096.2891,530.1006,1108.2891,356.249,1108.2891,344.249,1096.2891,356.249,1084.2891" style="stroke:#181818;stroke-width:0.5;"/><text fill="#000000" font-family="sans-serif" font-size="11" lengthAdjust="spacing" textLength="173.8516" x="356.249" y="1100.0972">Not all issues have been solved</text><text fill="#000000" font-family="sans-serif" font-size="11" lengthAdjust="spacing" textLength="90.3955" x="253.8535" y="1093.6948">All issues solved</text><polygon fill="#F1F1F1" points="278.501,1259.2266,290.501,1271.2266,278.501,1283.2266,266.501,1271.2266,278.501,1259.2266" style="stroke:#181818;stroke-width:0.5;"/><rect fill="#F1F1F1" height="33.9688" rx="12.5" ry="12.5" style="stroke:#181818;stroke-width:0.5;" width="201.4766" x="177.7627" y="1303.2266"/><text fill="#000000" font-family="sans-serif" font-size="12" lengthAdjust="spacing" textLength="177.6621" x="191.5771" y="1324.3652">Car owner closes the booking</text><ellipse cx="278.501" cy="1368.1953" fill="none" rx="11" ry="11" style="stroke:#222222;stroke-width:1;"/><ellipse cx="278.501" cy="1368.1953" fill="#222222" rx="6" ry="6" style="stroke:#222222;stroke-width:1;"/><line style="stroke:#181818;stroke-width:1;" x1="278.501" x2="278.501" y1="89.9219" y2="109.9219"/><polygon fill="#181818" points="274.501,99.9219,278.501,109.9219,282.501,99.9219,278.501,103.9219" style="stroke:#181818;stroke-width:1;"/><line style="stroke:#181818;stroke-width:1;" x1="278.501" x2="278.501" y1="143.8906" y2="163.8906"/><polygon fill="#181818" points="274.501,153.8906,278.501,163.8906,282.501,153.8906,278.501,157.8906" style="stroke:#181818;stroke-width:1;"/><line style="stroke:#181818;stroke-width:1;" x1="278.501" x2="278.501" y1="197.8594" y2="217.8594"/><polygon fill="#181818" points="274.501,207.8594,278.501,217.8594,282.501,207.8594,278.501,211.8594" style="stroke:#181818;stroke-width:1;"/><line style="stroke:#181818;stroke-width:1;" x1="278.501" x2="278.501" y1="354.1992" y2="374.1992"/><polygon fill="#181818" points="274.501,364.1992,278.501,374.1992,282.501,364.1992,278.501,368.1992" style="stroke:#181818;stroke-width:1;"/><line style="stroke:#181818;stroke-width:1;" x1="278.501" x2="278.501" y1="408.168" y2="428.168"/><polygon fill="#181818" points="274.501,418.168,278.501,428.168,282.501,418.168,278.501,422.168" style="stroke:#181818;stroke-width:1;"/><line style="stroke:#181818;stroke-width:1;" x1="278.501" x2="278.501" y1="295.8281" y2="320.2305"/><polygon fill="#181818" points="274.501,310.2305,278.501,320.2305,282.501,310.2305,278.501,314.2305" style="stroke:#181818;stroke-width:1;"/><line style="stroke:#181818;stroke-width:1;" x1="391.8186" x2="451.082" y1="283.8281" y2="283.8281"/><polygon fill="#181818" points="447.082,381.1836,451.082,391.1836,455.082,381.1836,451.082,385.1836" style="stroke:#181818;stroke-width:1;"/><line style="stroke:#181818;stroke-width:1;" x1="451.082" x2="451.082" y1="283.8281" y2="494.1367"/><line style="stroke:#181818;stroke-width:1;" x1="451.082" x2="290.501" y1="494.1367" y2="494.1367"/><polygon fill="#181818" points="300.501,490.1367,290.501,494.1367,300.501,498.1367,296.501,494.1367" style="stroke:#181818;stroke-width:1;"/><line style="stroke:#181818;stroke-width:1;" x1="278.501" x2="278.501" y1="462.1367" y2="482.1367"/><polygon fill="#181818" points="274.501,472.1367,278.501,482.1367,282.501,472.1367,278.501,476.1367" style="stroke:#181818;stroke-width:1;"/><line style="stroke:#181818;stroke-width:1;" x1="278.501" x2="278.501" y1="251.8281" y2="271.8281"/><polygon fill="#181818" points="274.501,261.8281,278.501,271.8281,282.501,261.8281,278.501,265.8281" style="stroke:#181818;stroke-width:1;"/><line style="stroke:#181818;stroke-width:1;" x1="278.501" x2="278.501" y1="550.1367" y2="574.5391"/><polygon fill="#181818" points="274.501,564.5391,278.501,574.5391,282.501,564.5391,278.501,568.5391" style="stroke:#181818;stroke-width:1;"/><line style="stroke:#181818;stroke-width:1;" x1="377.0427" x2="423.3115" y1="538.1367" y2="538.1367"/><polygon fill="#181818" points="419.3115,581.5234,423.3115,591.5234,427.3115,581.5234,423.3115,585.5234" style="stroke:#181818;stroke-width:1;"/><line style="stroke:#181818;stroke-width:1;" x1="423.3115" x2="423.3115" y1="538.1367" y2="640.5078"/><line style="stroke:#181818;stroke-width:1;" x1="423.3115" x2="290.501" y1="640.5078" y2="640.5078"/><polygon fill="#181818" points="300.501,636.5078,290.501,640.5078,300.501,644.5078,296.501,640.5078" style="stroke:#181818;stroke-width:1;"/><line style="stroke:#181818;stroke-width:1;" x1="278.501" x2="278.501" y1="608.5078" y2="628.5078"/><polygon fill="#181818" points="274.501,618.5078,278.501,628.5078,282.501,618.5078,278.501,622.5078" style="stroke:#181818;stroke-width:1;"/><line style="stroke:#181818;stroke-width:1;" x1="278.501" x2="278.501" y1="506.1367" y2="526.1367"/><polygon fill="#181818" points="274.501,516.1367,278.501,526.1367,282.501,516.1367,278.501,520.1367" style="stroke:#181818;stroke-width:1;"/><line style="stroke:#181818;stroke-width:1;" x1="278.501" x2="278.501" y1="652.5078" y2="672.5078"/><polygon fill="#181818" points="274.501,662.5078,278.501,672.5078,282.501,662.5078,278.501,666.5078" style="stroke:#181818;stroke-width:1;"/><line style="stroke:#181818;stroke-width:1;" x1="278.501" x2="278.501" y1="706.4766" y2="726.4766"/><polygon fill="#181818" points="274.501,716.4766,278.501,726.4766,282.501,716.4766,278.501,720.4766" style="stroke:#181818;stroke-width:1;"/><line style="stroke:#181818;stroke-width:1;" x1="278.501" x2="278.501" y1="760.4453" y2="780.4453"/><polygon fill="#181818" points="274.501,770.4453,278.501,780.4453,282.501,770.4453,278.501,774.4453" style="stroke:#181818;stroke-width:1;"/><line style="stroke:#181818;stroke-width:1;" x1="278.501" x2="278.501" y1="814.4141" y2="834.4141"/><polygon fill="#181818" points="274.501,824.4141,278.501,834.4141,282.501,824.4141,278.501,828.4141" style="stroke:#181818;stroke-width:1;"/><line style="stroke:#181818;stroke-width:1;" x1="278.501" x2="278.501" y1="868.3828" y2="888.3828"/><polygon fill="#181818" points="274.501,878.3828,278.501,888.3828,282.501,878.3828,278.501,882.3828" style="stroke:#181818;stroke-width:1;"/><line style="stroke:#181818;stroke-width:1;" x1="443.1748" x2="443.1748" y1="1010.3203" y2="1030.3203"/><polygon fill="#181818" points="439.1748,1020.3203,443.1748,1030.3203,447.1748,1020.3203,443.1748,1024.3203" style="stroke:#181818;stroke-width:1;"/><line style="stroke:#181818;stroke-width:1;" x1="443.1748" x2="443.1748" y1="1162.2578" y2="1197.2578"/><polygon fill="#181818" points="439.1748,1187.2578,443.1748,1197.2578,447.1748,1187.2578,443.1748,1191.2578" style="stroke:#181818;stroke-width:1;"/><line style="stroke:#181818;stroke-width:1;" x1="443.1748" x2="443.1748" y1="1108.2891" y2="1128.2891"/><polygon fill="#181818" points="439.1748,1118.2891,443.1748,1128.2891,447.1748,1118.2891,443.1748,1122.2891" style="stroke:#181818;stroke-width:1;"/><line style="stroke:#181818;stroke-width:1;" x1="443.1748" x2="443.1748" y1="1231.2266" y2="1241.2266"/><line style="stroke:#181818;stroke-width:1;" x1="443.1748" x2="637.6953" y1="1241.2266" y2="1241.2266"/><polygon fill="#181818" points="633.6953,1177.7578,637.6953,1167.7578,641.6953,1177.7578,637.6953,1173.7578" style="stroke:#181818;stroke-width:1;"/><line style="stroke:#181818;stroke-width:1;" x1="637.6953" x2="637.6953" y1="1096.2891" y2="1241.2266"/><line style="stroke:#181818;stroke-width:1;" x1="637.6953" x2="542.1006" y1="1096.2891" y2="1096.2891"/><polygon fill="#181818" points="552.1006,1092.2891,542.1006,1096.2891,552.1006,1100.2891,548.1006,1096.2891" style="stroke:#181818;stroke-width:1;"/><line style="stroke:#181818;stroke-width:1;" x1="344.249" x2="248.6543" y1="1096.2891" y2="1096.2891"/><polygon fill="#181818" points="244.6543,1163.7578,248.6543,1173.7578,252.6543,1163.7578,248.6543,1167.7578" style="stroke:#181818;stroke-width:1;"/><line style="stroke:#181818;stroke-width:1;" x1="248.6543" x2="248.6543" y1="1096.2891" y2="1253.2266"/><line style="stroke:#181818;stroke-width:1;" x1="248.6543" x2="443.1748" y1="1253.2266" y2="1253.2266"/><line style="stroke:#181818;stroke-width:1;" x1="443.1748" x2="443.1748" y1="1253.2266" y2="1271.2266"/><line style="stroke:#181818;stroke-width:1;" x1="443.1748" x2="290.501" y1="1271.2266" y2="1271.2266"/><polygon fill="#181818" points="300.501,1267.2266,290.501,1271.2266,300.501,1275.2266,296.501,1271.2266" style="stroke:#181818;stroke-width:1;"/><line style="stroke:#181818;stroke-width:1;" x1="443.1748" x2="443.1748" y1="1064.2891" y2="1084.2891"/><polygon fill="#181818" points="439.1748,1074.2891,443.1748,1084.2891,447.1748,1074.2891,443.1748,1078.2891" style="stroke:#181818;stroke-width:1;"/><line style="stroke:#181818;stroke-width:1;" x1="176.0088" x2="113.8271" y1="954.3516" y2="954.3516"/><line style="stroke:#181818;stroke-width:1;" x1="113.8271" x2="113.8271" y1="954.3516" y2="976.3516"/><polygon fill="#181818" points="109.8271,966.3516,113.8271,976.3516,117.8271,966.3516,113.8271,970.3516" style="stroke:#181818;stroke-width:1;"/><line style="stroke:#181818;stroke-width:1;" x1="380.9932" x2="443.1748" y1="954.3516" y2="954.3516"/><line style="stroke:#181818;stroke-width:1;" x1="443.1748" x2="443.1748" y1="954.3516" y2="976.3516"/><polygon fill="#181818" points="439.1748,966.3516,443.1748,976.3516,447.1748,966.3516,443.1748,970.3516" style="stroke:#181818;stroke-width:1;"/><line style="stroke:#181818;stroke-width:1;" x1="113.8271" x2="113.8271" y1="1010.3203" y2="1271.2266"/><line style="stroke:#181818;stroke-width:1;" x1="113.8271" x2="266.501" y1="1271.2266" y2="1271.2266"/><polygon fill="#181818" points="256.501,1267.2266,266.501,1271.2266,256.501,1275.2266,260.501,1271.2266" style="stroke:#181818;stroke-width:1;"/><line style="stroke:#181818;stroke-width:1;" x1="278.501" x2="278.501" y1="922.3516" y2="942.3516"/><polygon fill="#181818" points="274.501,932.3516,278.501,942.3516,282.501,932.3516,278.501,936.3516" style="stroke:#181818;stroke-width:1;"/><line style="stroke:#181818;stroke-width:1;" x1="278.501" x2="278.501" y1="1283.2266" y2="1303.2266"/><polygon fill="#181818" points="274.501,1293.2266,278.501,1303.2266,282.501,1293.2266,278.501,1297.2266" style="stroke:#181818;stroke-width:1;"/><line style="stroke:#181818;stroke-width:1;" x1="278.501" x2="278.501" y1="1337.1953" y2="1357.1953"/><polygon fill="#181818" points="274.501,1347.1953,278.501,1357.1953,282.501,1347.1953,278.501,1351.1953" style="stroke:#181818;stroke-width:1;"/><!--SRC=[fLFBZjim3BphAzYzr05sym7DeUXkWTwAHGFqjWUjJCT25L4GwHZv-r9-n7RGzj9B45apdE6G-f2oFPqjT8pFAFOeru0WkKDZM6mMOpx1C-LCFMQWX97XdUYNZwV3-eOne1E6XnyeNOxm4rll0ZuKqF7AWcVWble5S1a1a2WzTUbWZ6-WUibe1S76MWlgJst5WdsdJa1Q16Vpvrtv5w6w8kyCh1ouWSi5DF0EvVPbEa3rxVK8ZYZNFXRO8wIMXFXnlz_ltWfqTgcwIn4GcfM1-eZv8uDrZhee1uE14Qf8EwCStvYnXwy-QnBXgcfHh9Cj_-_-wpiURub_aBjvdbkF9BxnpegdM8B_lZg_cRiMr-1_jcd668VlqmRObC9APxcEzk9FWvUfuhGhKEjk-J2FcMBZyta0v74Tg1bEqrPiGu9vagE66zcyekkiL_5iq3L6ZtVOMn8feuQXKP_HQbjgWYbSYb_Ft2cjzz9kkNthTMihZHPi23EkjHVj5TLpAO1rSVq_AfiM9Finq5OVXefFB7qLx6iSY3eGPUbS9tjV5ckpeMLhLb46uYcSswFMPq_fDm00]--></g></svg>