<svg xmlns="http://www.w3.org/2000/svg" xmlns:xlink="http://www.w3.org/1999/xlink" contentStyleType="text/css" data-diagram-type="ACTIVITY" height="1336px" preserveAspectRatio="none" style="width:678px;height:1336px;background:#FFFFFF;" version="1.1" viewBox="0 0 678 1336" width="678px" zoomAndPan="magnify"><defs/><g><rect fill="#FFFFCC" height="49.9219" rx="2.5" ry="2.5" style="stroke:#FFDD88;stroke-width:3;" width="667.6953" x="5" y="5"/><text fill="#000000" font-family="monospace" font-size="10" lengthAdjust="spacing" textLength="295.0049" x="10" y="20">The&#160;syntax&#160;using&#160;the&#160;]&#160;character&#160;is&#160;now&#160;obsolete.</text><text fill="#000000" font-family="monospace" font-size="10" lengthAdjust="spacing" textLength="258.8818" x="10" y="31.6406">Please&#160;use&#160;the&#160;&lt;&lt;task&gt;&gt;&#160;stereotype&#160;instead.</text><text fill="#000000" font-family="monospace" font-size="10" lengthAdjust="spacing" textLength="397.3535" x="10" y="43.2813">For&#160;more&#160;details,&#160;visit&#160;https://plantuml.com/activity-diagram-beta</text><ellipse cx="278.501" cy="79.9219" fill="#222222" rx="10" ry="10" style="stroke:#222222;stroke-width:1;"/><rect fill="#F1F1F1" height="33.9688" rx="12.5" ry="12.5" style="stroke:#181818;stroke-width:0.5;" width="170.3633" x="193.3193" y="109.9219"/><text fill="#000000" font-family="sans-serif" font-size="12" lengthAdjust="spacing" textLength="146.5488" x="207.1338" y="131.0605">Borrower opens booking</text><rect fill="#F1F1F1" height="33.9688" rx="12.5" ry="12.5" style="stroke:#181818;stroke-width:0.5;" width="227.5332" x="164.7344" y="163.8906"/><text fill="#000000" font-family="sans-serif" font-size="12" lengthAdjust="spacing" textLength="203.7188" x="178.5488" y="185.0293">Borrower selects "Return Vehicle"</text><rect fill="#F1F1F1" height="33.9688" rx="12.5" ry="12.5" style="stroke:#181818;stroke-width:0.5;" width="180.6934" x="188.1543" y="266.2617"/><text fill="#000000" font-family="sans-serif" font-size="12" lengthAdjust="spacing" textLength="156.8789" x="201.9688" y="287.4004">Borrower creates car data</text><rect fill="#F1F1F1" height="33.9688" style="stroke:#181818;stroke-width:0.5;" width="250.6836" x="153.1592" y="320.2305"/><text fill="#000000" font-family="sans-serif" font-size="12" lengthAdjust="spacing" textLength="226.8691" x="166.9736" y="341.3691">Car data (GPS coordinates, photos,...)</text><rect fill="#F1F1F1" height="33.9688" rx="12.5" ry="12.5" style="stroke:#181818;stroke-width:0.5;" width="325.1621" x="115.9199" y="374.1992"/><text fill="#000000" font-family="sans-serif" font-size="12" lengthAdjust="spacing" textLength="301.3477" x="129.7344" y="395.3379">System sends car data to the car owner's account</text><polygon fill="#F1F1F1" points="177.1833,217.8594,379.8186,217.8594,391.8186,229.8594,379.8186,241.8594,177.1833,241.8594,165.1833,229.8594,177.1833,217.8594" style="stroke:#181818;stroke-width:0.5;"/><text fill="#000000" font-family="sans-serif" font-size="11" lengthAdjust="spacing" textLength="19.0083" x="282.501" y="252.0698">yes</text><text fill="#000000" font-family="sans-serif" font-size="11" lengthAdjust="spacing" textLength="202.6353" x="177.1833" y="233.6675">Create and send data about the car?</text><text fill="#000000" font-family="sans-serif" font-size="11" lengthAdjust="spacing" textLength="13.7017" x="391.8186" y="227.2651">no</text><polygon fill="#F1F1F1" points="278.501,428.168,290.501,440.168,278.501,452.168,266.501,440.168,278.501,428.168" style="stroke:#181818;stroke-width:0.5;"/><rect fill="#F1F1F1" height="33.9688" rx="12.5" ry="12.5" style="stroke:#181818;stroke-width:0.5;" width="269.6211" x="143.6904" y="520.5703"/><text fill="#000000" font-family="sans-serif" font-size="12" lengthAdjust="spacing" textLength="245.8066" x="157.5049" y="541.709">Borrower directly contacts the car owner</text><polygon fill="#F1F1F1" points="191.9592,472.168,365.0427,472.168,377.0427,484.168,365.0427,496.168,191.9592,496.168,179.9592,484.168,191.9592,472.168" style="stroke:#181818;stroke-width:0.5;"/><text fill="#000000" font-family="sans-serif" font-size="11" lengthAdjust="spacing" textLength="19.0083" x="282.501" y="506.3784">yes</text><text fill="#000000" font-family="sans-serif" font-size="11" lengthAdjust="spacing" textLength="173.0835" x="191.9592" y="487.9761">Directly contact the car owner?</text><text fill="#000000" font-family="sans-serif" font-size="11" lengthAdjust="spacing" textLength="13.7017" x="377.0427" y="481.5737">no</text><polygon fill="#F1F1F1" points="278.501,574.5391,290.501,586.5391,278.501,598.5391,266.501,586.5391,278.501,574.5391" style="stroke:#181818;stroke-width:0.5;"/><rect fill="#F1F1F1" height="33.9688" rx="12.5" ry="12.5" style="stroke:#181818;stroke-width:0.5;" width="188.2813" x="184.3604" y="618.5391"/><text fill="#000000" font-family="sans-serif" font-size="12" lengthAdjust="spacing" textLength="164.4668" x="198.1748" y="639.6777">System creates notification</text><rect fill="#F1F1F1" height="33.9688" style="stroke:#181818;stroke-width:0.5;" width="92.668" x="232.167" y="672.5078"/><text fill="#000000" font-family="sans-serif" font-size="12" lengthAdjust="spacing" textLength="68.8535" x="245.9814" y="693.6465">Notification</text><rect fill="#F1F1F1" height="33.9688" rx="12.5" ry="12.5" style="stroke:#181818;stroke-width:0.5;" width="342.916" x="107.043" y="726.4766"/><text fill="#000000" font-family="sans-serif" font-size="12" lengthAdjust="spacing" textLength="319.1016" x="120.8574" y="747.6152">System sends notification to the car owner's account</text><rect fill="#F1F1F1" height="33.9688" rx="12.5" ry="12.5" style="stroke:#181818;stroke-width:0.5;" width="195.3945" x="180.8037" y="780.4453"/><text fill="#000000" font-family="sans-serif" font-size="12" lengthAdjust="spacing" textLength="171.5801" x="194.6182" y="801.584">Car owner opens application</text><rect fill="#F1F1F1" height="33.9688" rx="12.5" ry="12.5" style="stroke:#181818;stroke-width:0.5;" width="276.4238" x="140.2891" y="834.4141"/><text fill="#000000" font-family="sans-serif" font-size="12" lengthAdjust="spacing" textLength="252.6094" x="154.1035" y="855.5527">Car owner navigates to the booking detail</text><polygon fill="#F1F1F1" points="188.0088,888.3828,368.9932,888.3828,380.9932,900.3828,368.9932,912.3828,188.0088,912.3828,176.0088,900.3828,188.0088,888.3828" style="stroke:#181818;stroke-width:0.5;"/><text fill="#000000" font-family="sans-serif" font-size="11" lengthAdjust="spacing" textLength="180.9844" x="188.0088" y="904.1909">Confirm the return of the vehicle</text><text fill="#000000" font-family="sans-serif" font-size="11" lengthAdjust="spacing" textLength="19.0083" x="157.0005" y="897.7886">yes</text><text fill="#000000" font-family="sans-serif" font-size="11" lengthAdjust="spacing" textLength="13.7017" x="380.9932" y="897.7886">no</text><rect fill="#F1F1F1" height="33.9688" rx="12.5" ry="12.5" style="stroke:#181818;stroke-width:0.5;" width="205.6543" x="11" y="922.3828"/><text fill="#000000" font-family="sans-serif" font-size="12" lengthAdjust="spacing" textLength="181.8398" x="24.8145" y="943.5215">Car owner confirms the return</text><rect fill="#F1F1F1" height="33.9688" rx="12.5" ry="12.5" style="stroke:#181818;stroke-width:0.5;" width="193.25" x="346.5498" y="922.3828"/><text fill="#000000" font-family="sans-serif" font-size="12" lengthAdjust="spacing" textLength="169.4355" x="360.3643" y="943.5215">Car owner denies the return</text><rect fill="#F1F1F1" height="33.9688" rx="12.5" ry="12.5" style="stroke:#181818;stroke-width:0.5;" width="365.041" x="260.6543" y="976.3516"/><text fill="#000000" font-family="sans-serif" font-size="12" lengthAdjust="spacing" textLength="341.2266" x="274.4688" y="997.4902">System presents means of solving issues with the return</text><rect fill="#F1F1F1" height="33.9688" rx="12.5" ry="12.5" style="stroke:#181818;stroke-width:0.5;" width="365.041" x="260.6543" y="1074.3203"/><text fill="#000000" font-family="sans-serif" font-size="12" lengthAdjust="spacing" textLength="341.2266" x="274.4688" y="1095.459">System presents means of solving issues with the return</text><rect fill="#F1F1F1" height="33.9688" rx="12.5" ry="12.5" style="stroke:#181818;stroke-width:0.5;" width="315.2246" x="285.5625" y="1143.2891"/><text fill="#000000" font-family="sans-serif" font-size="12" lengthAdjust="spacing" textLength="291.4102" x="299.377" y="1164.4277">Car owner tries to handle issues outside the app</text><polygon fill="#F1F1F1" points="356.249,1030.3203,530.1006,1030.3203,542.1006,1042.3203,530.1006,1054.3203,356.249,1054.3203,344.249,1042.3203,356.249,1030.3203" style="stroke:#181818;stroke-width:0.5;"/><text fill="#000000" font-family="sans-serif" font-size="11" lengthAdjust="spacing" textLength="173.8516" x="356.249" y="1046.1284">Not all issues have been solved</text><text fill="#000000" font-family="sans-serif" font-size="11" lengthAdjust="spacing" textLength="90.3955" x="253.8535" y="1039.7261">All issues solved</text><polygon fill="#F1F1F1" points="278.501,1205.2578,290.501,1217.2578,278.501,1229.2578,266.501,1217.2578,278.501,1205.2578" style="stroke:#181818;stroke-width:0.5;"/><rect fill="#F1F1F1" height="33.9688" rx="12.5" ry="12.5" style="stroke:#181818;stroke-width:0.5;" width="201.4766" x="177.7627" y="1249.2578"/><text fill="#000000" font-family="sans-serif" font-size="12" lengthAdjust="spacing" textLength="177.6621" x="191.5771" y="1270.3965">Car owner closes the booking</text><ellipse cx="278.501" cy="1314.2266" fill="none" rx="11" ry="11" style="stroke:#222222;stroke-width:1;"/><ellipse cx="278.501" cy="1314.2266" fill="#222222" rx="6" ry="6" style="stroke:#222222;stroke-width:1;"/><line style="stroke:#181818;stroke-width:1;" x1="278.501" x2="278.501" y1="89.9219" y2="109.9219"/><polygon fill="#181818" points="274.501,99.9219,278.501,109.9219,282.501,99.9219,278.501,103.9219" style="stroke:#181818;stroke-width:1;"/><line style="stroke:#181818;stroke-width:1;" x1="278.501" x2="278.501" y1="143.8906" y2="163.8906"/><polygon fill="#181818" points="274.501,153.8906,278.501,163.8906,282.501,153.8906,278.501,157.8906" style="stroke:#181818;stroke-width:1;"/><line style="stroke:#181818;stroke-width:1;" x1="278.501" x2="278.501" y1="300.2305" y2="320.2305"/><polygon fill="#181818" points="274.501,310.2305,278.501,320.2305,282.501,310.2305,278.501,314.2305" style="stroke:#181818;stroke-width:1;"/><line style="stroke:#181818;stroke-width:1;" x1="278.501" x2="278.501" y1="354.1992" y2="374.1992"/><polygon fill="#181818" points="274.501,364.1992,278.501,374.1992,282.501,364.1992,278.501,368.1992" style="stroke:#181818;stroke-width:1;"/><line style="stroke:#181818;stroke-width:1;" x1="278.501" x2="278.501" y1="241.8594" y2="266.2617"/><polygon fill="#181818" points="274.501,256.2617,278.501,266.2617,282.501,256.2617,278.501,260.2617" style="stroke:#181818;stroke-width:1;"/><line style="stroke:#181818;stroke-width:1;" x1="391.8186" x2="451.082" y1="229.8594" y2="229.8594"/><polygon fill="#181818" points="447.082,327.2148,451.082,337.2148,455.082,327.2148,451.082,331.2148" style="stroke:#181818;stroke-width:1;"/><line style="stroke:#181818;stroke-width:1;" x1="451.082" x2="451.082" y1="229.8594" y2="440.168"/><line style="stroke:#181818;stroke-width:1;" x1="451.082" x2="290.501" y1="440.168" y2="440.168"/><polygon fill="#181818" points="300.501,436.168,290.501,440.168,300.501,444.168,296.501,440.168" style="stroke:#181818;stroke-width:1;"/><line style="stroke:#181818;stroke-width:1;" x1="278.501" x2="278.501" y1="408.168" y2="428.168"/><polygon fill="#181818" points="274.501,418.168,278.501,428.168,282.501,418.168,278.501,422.168" style="stroke:#181818;stroke-width:1;"/><line style="stroke:#181818;stroke-width:1;" x1="278.501" x2="278.501" y1="197.8594" y2="217.8594"/><polygon fill="#181818" points="274.501,207.8594,278.501,217.8594,282.501,207.8594,278.501,211.8594" style="stroke:#181818;stroke-width:1;"/><line style="stroke:#181818;stroke-width:1;" x1="278.501" x2="278.501" y1="496.168" y2="520.5703"/><polygon fill="#181818" points="274.501,510.5703,278.501,520.5703,282.501,510.5703,278.501,514.5703" style="stroke:#181818;stroke-width:1;"/><line style="stroke:#181818;stroke-width:1;" x1="377.0427" x2="423.3115" y1="484.168" y2="484.168"/><polygon fill="#181818" points="419.3115,527.5547,423.3115,537.5547,427.3115,527.5547,423.3115,531.5547" style="stroke:#181818;stroke-width:1;"/><line style="stroke:#181818;stroke-width:1;" x1="423.3115" x2="423.3115" y1="484.168" y2="586.5391"/><line style="stroke:#181818;stroke-width:1;" x1="423.3115" x2="290.501" y1="586.5391" y2="586.5391"/><polygon fill="#181818" points="300.501,582.5391,290.501,586.5391,300.501,590.5391,296.501,586.5391" style="stroke:#181818;stroke-width:1;"/><line style="stroke:#181818;stroke-width:1;" x1="278.501" x2="278.501" y1="554.5391" y2="574.5391"/><polygon fill="#181818" points="274.501,564.5391,278.501,574.5391,282.501,564.5391,278.501,568.5391" style="stroke:#181818;stroke-width:1;"/><line style="stroke:#181818;stroke-width:1;" x1="278.501" x2="278.501" y1="452.168" y2="472.168"/><polygon fill="#181818" points="274.501,462.168,278.501,472.168,282.501,462.168,278.501,466.168" style="stroke:#181818;stroke-width:1;"/><line style="stroke:#181818;stroke-width:1;" x1="278.501" x2="278.501" y1="598.5391" y2="618.5391"/><polygon fill="#181818" points="274.501,608.5391,278.501,618.5391,282.501,608.5391,278.501,612.5391" style="stroke:#181818;stroke-width:1;"/><line style="stroke:#181818;stroke-width:1;" x1="278.501" x2="278.501" y1="652.5078" y2="672.5078"/><polygon fill="#181818" points="274.501,662.5078,278.501,672.5078,282.501,662.5078,278.501,666.5078" style="stroke:#181818;stroke-width:1;"/><line style="stroke:#181818;stroke-width:1;" x1="278.501" x2="278.501" y1="706.4766" y2="726.4766"/><polygon fill="#181818" points="274.501,716.4766,278.501,726.4766,282.501,716.4766,278.501,720.4766" style="stroke:#181818;stroke-width:1;"/><line style="stroke:#181818;stroke-width:1;" x1="278.501" x2="278.501" y1="760.4453" y2="780.4453"/><polygon fill="#181818" points="274.501,770.4453,278.501,780.4453,282.501,770.4453,278.501,774.4453" style="stroke:#181818;stroke-width:1;"/><line style="stroke:#181818;stroke-width:1;" x1="278.501" x2="278.501" y1="814.4141" y2="834.4141"/><polygon fill="#181818" points="274.501,824.4141,278.501,834.4141,282.501,824.4141,278.501,828.4141" style="stroke:#181818;stroke-width:1;"/><line style="stroke:#181818;stroke-width:1;" x1="443.1748" x2="443.1748" y1="956.3516" y2="976.3516"/><polygon fill="#181818" points="439.1748,966.3516,443.1748,976.3516,447.1748,966.3516,443.1748,970.3516" style="stroke:#181818;stroke-width:1;"/><line style="stroke:#181818;stroke-width:1;" x1="443.1748" x2="443.1748" y1="1108.2891" y2="1143.2891"/><polygon fill="#181818" points="439.1748,1133.2891,443.1748,1143.2891,447.1748,1133.2891,443.1748,1137.2891" style="stroke:#181818;stroke-width:1;"/><line style="stroke:#181818;stroke-width:1;" x1="443.1748" x2="443.1748" y1="1054.3203" y2="1074.3203"/><polygon fill="#181818" points="439.1748,1064.3203,443.1748,1074.3203,447.1748,1064.3203,443.1748,1068.3203" style="stroke:#181818;stroke-width:1;"/><line style="stroke:#181818;stroke-width:1;" x1="443.1748" x2="443.1748" y1="1177.2578" y2="1187.2578"/><line style="stroke:#181818;stroke-width:1;" x1="443.1748" x2="637.6953" y1="1187.2578" y2="1187.2578"/><polygon fill="#181818" points="633.6953,1123.7891,637.6953,1113.7891,641.6953,1123.7891,637.6953,1119.7891" style="stroke:#181818;stroke-width:1;"/><line style="stroke:#181818;stroke-width:1;" x1="637.6953" x2="637.6953" y1="1042.3203" y2="1187.2578"/><line style="stroke:#181818;stroke-width:1;" x1="637.6953" x2="542.1006" y1="1042.3203" y2="1042.3203"/><polygon fill="#181818" points="552.1006,1038.3203,542.1006,1042.3203,552.1006,1046.3203,548.1006,1042.3203" style="stroke:#181818;stroke-width:1;"/><line style="stroke:#181818;stroke-width:1;" x1="344.249" x2="248.6543" y1="1042.3203" y2="1042.3203"/><polygon fill="#181818" points="244.6543,1109.7891,248.6543,1119.7891,252.6543,1109.7891,248.6543,1113.7891" style="stroke:#181818;stroke-width:1;"/><line style="stroke:#181818;stroke-width:1;" x1="248.6543" x2="248.6543" y1="1042.3203" y2="1199.2578"/><line style="stroke:#181818;stroke-width:1;" x1="248.6543" x2="443.1748" y1="1199.2578" y2="1199.2578"/><line style="stroke:#181818;stroke-width:1;" x1="443.1748" x2="443.1748" y1="1199.2578" y2="1217.2578"/><line style="stroke:#181818;stroke-width:1;" x1="443.1748" x2="290.501" y1="1217.2578" y2="1217.2578"/><polygon fill="#181818" points="300.501,1213.2578,290.501,1217.2578,300.501,1221.2578,296.501,1217.2578" style="stroke:#181818;stroke-width:1;"/><line style="stroke:#181818;stroke-width:1;" x1="443.1748" x2="443.1748" y1="1010.3203" y2="1030.3203"/><polygon fill="#181818" points="439.1748,1020.3203,443.1748,1030.3203,447.1748,1020.3203,443.1748,1024.3203" style="stroke:#181818;stroke-width:1;"/><line style="stroke:#181818;stroke-width:1;" x1="176.0088" x2="113.8271" y1="900.3828" y2="900.3828"/><line style="stroke:#181818;stroke-width:1;" x1="113.8271" x2="113.8271" y1="900.3828" y2="922.3828"/><polygon fill="#181818" points="109.8271,912.3828,113.8271,922.3828,117.8271,912.3828,113.8271,916.3828" style="stroke:#181818;stroke-width:1;"/><line style="stroke:#181818;stroke-width:1;" x1="380.9932" x2="443.1748" y1="900.3828" y2="900.3828"/><line style="stroke:#181818;stroke-width:1;" x1="443.1748" x2="443.1748" y1="900.3828" y2="922.3828"/><polygon fill="#181818" points="439.1748,912.3828,443.1748,922.3828,447.1748,912.3828,443.1748,916.3828" style="stroke:#181818;stroke-width:1;"/><line style="stroke:#181818;stroke-width:1;" x1="113.8271" x2="113.8271" y1="956.3516" y2="1217.2578"/><line style="stroke:#181818;stroke-width:1;" x1="113.8271" x2="266.501" y1="1217.2578" y2="1217.2578"/><polygon fill="#181818" points="256.501,1213.2578,266.501,1217.2578,256.501,1221.2578,260.501,1217.2578" style="stroke:#181818;stroke-width:1;"/><line style="stroke:#181818;stroke-width:1;" x1="278.501" x2="278.501" y1="868.3828" y2="888.3828"/><polygon fill="#181818" points="274.501,878.3828,278.501,888.3828,282.501,878.3828,278.501,882.3828" style="stroke:#181818;stroke-width:1;"/><line style="stroke:#181818;stroke-width:1;" x1="278.501" x2="278.501" y1="1229.2578" y2="1249.2578"/><polygon fill="#181818" points="274.501,1239.2578,278.501,1249.2578,282.501,1239.2578,278.501,1243.2578" style="stroke:#181818;stroke-width:1;"/><line style="stroke:#181818;stroke-width:1;" x1="278.501" x2="278.501" y1="1283.2266" y2="1303.2266"/><polygon fill="#181818" points="274.501,1293.2266,278.501,1303.2266,282.501,1293.2266,278.501,1297.2266" style="stroke:#181818;stroke-width:1;"/><!--SRC=[fLFBZjim3BphAzYzr04M-O3DeUXkWTwAOWFqjWUkJCV2Ag8XqWdozwNyIEoWxQMN8B9cECCXzQdBU3WYz4BFfBZNIoJGt9DpefZLkITuvfpvJ1cueoJmplmHqc6tl16Av5NWuPMqpmb-KHjyf8UTSw61wYKJAW6csf3sKwCYu3lt2jeIUCnVDkLVWkf2id6mAEq7hXJGmDkLsvVf0DNtdtlmpBaEgS0UeMjPMHwts-tchK3t5r4w3hgt8g0yAmEV4-NF0kWzzqbtZg8GL8atpZYXSMCFtqAs5kF5r9AYrpN_x_xhEvwiYN-GktgUMq-ieGaUDN0giVzOdD_SNOjBy3_RT6ECm_TfjDXrSQ5pkqvu2eV1orHnMWAeRMb2dCVCgGdvE03ok0ZS3AVJk0_ha62UvAZXHxOiw3RhHJmhT4qfq1tscaINoSAmg8-4rfQP48wduZU8z4Ox1stNt7CRRFChYnOmnXdNuibw9VDS2b1TNF-Foge5pM4CjBM7OU8Jorw5X9e6eWt4M3RNoTxNcxNPq6rh5b56bYcSwskrzypTRm00]--></g></svg>