<svg xmlns="http://www.w3.org/2000/svg" xmlns:xlink="http://www.w3.org/1999/xlink" contentStyleType="text/css" data-diagram-type="ACTIVITY" height="684px" preserveAspectRatio="none" style="width:445px;height:684px;background:#FFFFFF;" version="1.1" viewBox="0 0 445 684" width="445px" zoomAndPan="magnify"><defs/><g><ellipse cx="178.4507" cy="20" fill="#222222" rx="10" ry="10" style="stroke:#222222;stroke-width:1;"/><rect fill="#F1F1F1" height="33.9688" rx="12.5" ry="12.5" style="stroke:#181818;stroke-width:0.5;" width="215.2754" x="70.813" y="50"/><text fill="#000000" font-family="sans-serif" font-size="12" lengthAdjust="spacing" textLength="195.2754" x="80.813" y="71.1387">User navigates to "Browse Cars"</text><rect fill="#F1F1F1" height="33.9688" rx="12.5" ry="12.5" style="stroke:#181818;stroke-width:0.5;" width="222.1895" x="67.356" y="103.9688"/><text fill="#000000" font-family="sans-serif" font-size="12" lengthAdjust="spacing" textLength="202.1895" x="77.356" y="125.1074">System displays all available cars</text><rect fill="#F1F1F1" height="33.9688" rx="12.5" ry="12.5" style="stroke:#181818;stroke-width:0.5;" width="129.6758" x="113.6128" y="157.9375"/><text fill="#000000" font-family="sans-serif" font-size="12" lengthAdjust="spacing" textLength="109.6758" x="123.6128" y="179.0762">User clicks "Filter"</text><rect fill="#F1F1F1" height="33.9688" rx="12.5" ry="12.5" style="stroke:#181818;stroke-width:0.5;" width="183.9453" x="86.478" y="211.9063"/><text fill="#000000" font-family="sans-serif" font-size="12" lengthAdjust="spacing" textLength="163.9453" x="96.478" y="233.0449">System shows filter criteria</text><rect fill="#F1F1F1" height="33.9688" rx="12.5" ry="12.5" style="stroke:#181818;stroke-width:0.5;" width="150.3301" x="103.2856" y="265.875"/><text fill="#000000" font-family="sans-serif" font-size="12" lengthAdjust="spacing" textLength="130.3301" x="113.2856" y="287.0137">User sets filter values</text><rect fill="#F1F1F1" height="33.9688" rx="12.5" ry="12.5" style="stroke:#181818;stroke-width:0.5;" width="205.8594" x="75.521" y="319.8438"/><text fill="#000000" font-family="sans-serif" font-size="12" lengthAdjust="spacing" textLength="185.8594" x="85.521" y="340.9824">User submits filter preferences</text><rect fill="#F1F1F1" height="33.9688" rx="12.5" ry="12.5" style="stroke:#181818;stroke-width:0.5;" width="149.4336" x="103.7339" y="373.8125"/><text fill="#000000" font-family="sans-serif" font-size="12" lengthAdjust="spacing" textLength="129.4336" x="113.7339" y="394.9512">System applies filters</text><polygon fill="#F1F1F1" points="132.6165,427.7813,224.2849,427.7813,236.2849,439.7813,224.2849,451.7813,132.6165,451.7813,120.6165,439.7813,132.6165,427.7813" style="stroke:#181818;stroke-width:0.5;"/><text fill="#000000" font-family="sans-serif" font-size="11" lengthAdjust="spacing" textLength="91.6685" x="132.6165" y="443.5894">Any cars match?</text><text fill="#000000" font-family="sans-serif" font-size="11" lengthAdjust="spacing" textLength="19.0083" x="101.6082" y="437.187">yes</text><text fill="#000000" font-family="sans-serif" font-size="11" lengthAdjust="spacing" textLength="13.7017" x="236.2849" y="437.187">no</text><rect fill="#F1F1F1" height="33.9688" rx="12.5" ry="12.5" style="stroke:#181818;stroke-width:0.5;" width="139.9121" x="11" y="461.7813"/><text fill="#000000" font-family="sans-serif" font-size="12" lengthAdjust="spacing" textLength="119.9121" x="21" y="482.9199">Display filtered cars</text><ellipse cx="80.9561" cy="526.75" fill="none" rx="11" ry="11" style="stroke:#222222;stroke-width:1;"/><ellipse cx="80.9561" cy="526.75" fill="#222222" rx="6" ry="6" style="stroke:#222222;stroke-width:1;"/><rect fill="#F1F1F1" height="33.9688" rx="12.5" ry="12.5" style="stroke:#181818;stroke-width:0.5;" width="196.0566" x="177.917" y="461.7813"/><text fill="#000000" font-family="sans-serif" font-size="12" lengthAdjust="spacing" textLength="176.0566" x="187.917" y="482.9199">Display "no results" message</text><rect fill="#F1F1F1" height="33.9688" rx="12.5" ry="12.5" style="stroke:#181818;stroke-width:0.5;" width="210.0664" x="170.9121" y="515.75"/><text fill="#000000" font-family="sans-serif" font-size="12" lengthAdjust="spacing" textLength="190.0664" x="180.9121" y="536.8887">Offer to broaden search criteria</text><rect fill="#F1F1F1" height="33.9688" rx="12.5" ry="12.5" style="stroke:#181818;stroke-width:0.5;" width="90.377" x="230.7568" y="618.1211"/><text fill="#000000" font-family="sans-serif" font-size="12" lengthAdjust="spacing" textLength="70.377" x="240.7568" y="639.2598">-&gt; continue</text><polygon fill="#F1F1F1" points="204.5205,569.7188,347.3701,569.7188,359.3701,581.7188,347.3701,593.7188,204.5205,593.7188,192.5205,581.7188,204.5205,569.7188" style="stroke:#181818;stroke-width:0.5;"/><text fill="#000000" font-family="sans-serif" font-size="11" lengthAdjust="spacing" textLength="153.9893" x="279.9453" y="603.9292">:System shows filter criteria</text><text fill="#000000" font-family="sans-serif" font-size="11" lengthAdjust="spacing" textLength="142.8496" x="204.5205" y="585.5269">User chooses to broaden?</text><text fill="#000000" font-family="sans-serif" font-size="11" lengthAdjust="spacing" textLength="13.7017" x="359.3701" y="579.1245">no</text><ellipse cx="395.0718" cy="581.7188" fill="none" rx="11" ry="11" style="stroke:#222222;stroke-width:1;"/><ellipse cx="395.0718" cy="581.7188" fill="#222222" rx="6" ry="6" style="stroke:#222222;stroke-width:1;"/><line style="stroke:#181818;stroke-width:1;" x1="178.4507" x2="178.4507" y1="30" y2="50"/><polygon fill="#181818" points="174.4507,40,178.4507,50,182.4507,40,178.4507,44" style="stroke:#181818;stroke-width:1;"/><line style="stroke:#181818;stroke-width:1;" x1="178.4507" x2="178.4507" y1="83.9688" y2="103.9688"/><polygon fill="#181818" points="174.4507,93.9688,178.4507,103.9688,182.4507,93.9688,178.4507,97.9688" style="stroke:#181818;stroke-width:1;"/><line style="stroke:#181818;stroke-width:1;" x1="178.4507" x2="178.4507" y1="137.9375" y2="157.9375"/><polygon fill="#181818" points="174.4507,147.9375,178.4507,157.9375,182.4507,147.9375,178.4507,151.9375" style="stroke:#181818;stroke-width:1;"/><line style="stroke:#181818;stroke-width:1;" x1="178.4507" x2="178.4507" y1="191.9063" y2="211.9063"/><polygon fill="#181818" points="174.4507,201.9063,178.4507,211.9063,182.4507,201.9063,178.4507,205.9063" style="stroke:#181818;stroke-width:1;"/><line style="stroke:#181818;stroke-width:1;" x1="178.4507" x2="178.4507" y1="245.875" y2="265.875"/><polygon fill="#181818" points="174.4507,255.875,178.4507,265.875,182.4507,255.875,178.4507,259.875" style="stroke:#181818;stroke-width:1;"/><line style="stroke:#181818;stroke-width:1;" x1="178.4507" x2="178.4507" y1="299.8438" y2="319.8438"/><polygon fill="#181818" points="174.4507,309.8438,178.4507,319.8438,182.4507,309.8438,178.4507,313.8438" style="stroke:#181818;stroke-width:1;"/><line style="stroke:#181818;stroke-width:1;" x1="178.4507" x2="178.4507" y1="353.8125" y2="373.8125"/><polygon fill="#181818" points="174.4507,363.8125,178.4507,373.8125,182.4507,363.8125,178.4507,367.8125" style="stroke:#181818;stroke-width:1;"/><line style="stroke:#181818;stroke-width:1;" x1="80.9561" x2="80.9561" y1="495.75" y2="515.75"/><polygon fill="#181818" points="76.9561,505.75,80.9561,515.75,84.9561,505.75,80.9561,509.75" style="stroke:#181818;stroke-width:1;"/><line style="stroke:#181818;stroke-width:1;" x1="275.9453" x2="275.9453" y1="495.75" y2="515.75"/><polygon fill="#181818" points="271.9453,505.75,275.9453,515.75,279.9453,505.75,275.9453,509.75" style="stroke:#181818;stroke-width:1;"/><line style="stroke:#0000FF;stroke-width:1;" x1="275.9453" x2="275.9453" y1="593.7188" y2="618.1211"/><polygon fill="#0000FF" points="271.9453,608.1211,275.9453,618.1211,279.9453,608.1211,275.9453,612.1211" style="stroke:#0000FF;stroke-width:1;"/><line style="stroke:#181818;stroke-width:1;" x1="359.3701" x2="384.0718" y1="581.7188" y2="581.7188"/><polygon fill="#181818" points="374.0718,577.7188,384.0718,581.7188,374.0718,585.7188,378.0718,581.7188" style="stroke:#181818;stroke-width:1;"/><line style="stroke:#181818;stroke-width:1;" x1="275.9453" x2="275.9453" y1="652.0898" y2="672.0898"/><line style="stroke:#181818;stroke-width:1;" x1="275.9453" x2="178.4507" y1="672.0898" y2="672.0898"/><polygon fill="#181818" points="174.4507,662.0898,178.4507,672.0898,182.4507,662.0898,178.4507,666.0898" style="stroke:#181818;stroke-width:1;"/><line style="stroke:#181818;stroke-width:1;" x1="275.9453" x2="275.9453" y1="549.7188" y2="569.7188"/><polygon fill="#181818" points="271.9453,559.7188,275.9453,569.7188,279.9453,559.7188,275.9453,563.7188" style="stroke:#181818;stroke-width:1;"/><line style="stroke:#181818;stroke-width:1;" x1="120.6165" x2="80.9561" y1="439.7813" y2="439.7813"/><line style="stroke:#181818;stroke-width:1;" x1="80.9561" x2="80.9561" y1="439.7813" y2="461.7813"/><polygon fill="#181818" points="76.9561,451.7813,80.9561,461.7813,84.9561,451.7813,80.9561,455.7813" style="stroke:#181818;stroke-width:1;"/><line style="stroke:#181818;stroke-width:1;" x1="236.2849" x2="275.9453" y1="439.7813" y2="439.7813"/><line style="stroke:#181818;stroke-width:1;" x1="275.9453" x2="275.9453" y1="439.7813" y2="461.7813"/><polygon fill="#181818" points="271.9453,451.7813,275.9453,461.7813,279.9453,451.7813,275.9453,455.7813" style="stroke:#181818;stroke-width:1;"/><line style="stroke:#181818;stroke-width:1;" x1="178.4507" x2="178.4507" y1="407.7813" y2="427.7813"/><polygon fill="#181818" points="174.4507,417.7813,178.4507,427.7813,182.4507,417.7813,178.4507,421.7813" style="stroke:#181818;stroke-width:1;"/><!--SRC=[XL2xJiGm4Epz5QFGv8hxWPm4uY5Q2aI5A3REvcBXs97N2ShVuoI-8z3GsDBkpEpCIAGGbQhUX0CSJUPCaGNHetW8_aiOZnIaEAdgTPR8FHeZWwLPGDQ29ZAMQilG2NNACjeQ_IaedesD77PSwP8YsdKC7Kpw35rOml6wcyYEVDMJiUxDpt88t79WfrT4bgPXi8OlcBHGfaLvx-RL6NgAkhix87RiKCui1mLKJrkMJE8cfm0a-a6nJUbBvtz12-SHM4ORfK3F8dJcXL6zjCdKqbiTF3NfYZ05tUrY0ekbhQ7EUzbgpl2_te3Z-qsTMlWutkAV_bPqWcdled4Zfy7UUuwJXgunhLhVRm00]--></g></svg>