<svg xmlns="http://www.w3.org/2000/svg" xmlns:xlink="http://www.w3.org/1999/xlink" contentStyleType="text/css" data-diagram-type="ACTIVITY" height="858px" preserveAspectRatio="none" style="width:846px;height:858px;background:#FFFFFF;" version="1.1" viewBox="0 0 846 858" width="846px" zoomAndPan="magnify"><defs/><g><ellipse cx="400.145" cy="20" fill="#222222" rx="10" ry="10" style="stroke:#222222;stroke-width:1;"/><rect fill="#F1F1F1" height="33.9688" rx="12.5" ry="12.5" style="stroke:#181818;stroke-width:0.5;" width="194.3633" x="302.9634" y="50"/><text fill="#000000" font-family="sans-serif" font-size="12" lengthAdjust="spacing" textLength="174.3633" x="312.9634" y="71.1387">User Browses Search Results</text><rect fill="#F1F1F1" height="33.9688" rx="12.5" ry="12.5" style="stroke:#181818;stroke-width:0.5;" width="173.4336" x="313.4282" y="103.9688"/><text fill="#000000" font-family="sans-serif" font-size="12" lengthAdjust="spacing" textLength="153.4336" x="323.4282" y="125.1074">User Selects a Car Listing</text><rect fill="#F1F1F1" height="33.9688" rx="12.5" ry="12.5" style="stroke:#181818;stroke-width:0.5;" width="222.3477" x="288.9712" y="157.9375"/><text fill="#000000" font-family="sans-serif" font-size="12" lengthAdjust="spacing" textLength="202.3477" x="298.9712" y="179.0762">System Displays Car Details Page</text><rect fill="#F1F1F1" height="33.9688" rx="12.5" ry="12.5" style="stroke:#181818;stroke-width:0.5;" width="207.3066" x="296.4917" y="211.9063"/><text fill="#000000" font-family="sans-serif" font-size="12" lengthAdjust="spacing" textLength="187.3066" x="306.4917" y="233.0449">User Views Vehicle Information</text><rect fill="#F1F1F1" height="33.9688" rx="12.5" ry="12.5" style="stroke:#181818;stroke-width:0.5;" width="257.3867" x="271.4517" y="265.875"/><text fill="#000000" font-family="sans-serif" font-size="12" lengthAdjust="spacing" textLength="237.3867" x="281.4517" y="287.0137">User Reviews Specifications &amp; Features</text><rect fill="#F1F1F1" height="33.9688" rx="12.5" ry="12.5" style="stroke:#181818;stroke-width:0.5;" width="174.7109" x="312.7896" y="319.8438"/><text fill="#000000" font-family="sans-serif" font-size="12" lengthAdjust="spacing" textLength="154.7109" x="322.7896" y="340.9824">User Checks Rental Rates</text><rect fill="#F1F1F1" height="33.9688" rx="12.5" ry="12.5" style="stroke:#181818;stroke-width:0.5;" width="237.166" x="281.562" y="373.8125"/><text fill="#000000" font-family="sans-serif" font-size="12" lengthAdjust="spacing" textLength="217.166" x="291.562" y="394.9512">User Examines Availability Calendar</text><rect fill="#F1F1F1" height="33.9688" rx="12.5" ry="12.5" style="stroke:#181818;stroke-width:0.5;" width="228.7051" x="285.7925" y="427.7813"/><text fill="#000000" font-family="sans-serif" font-size="12" lengthAdjust="spacing" textLength="208.7051" x="295.7925" y="448.9199">User Views Pickup/Return Location</text><rect fill="#F1F1F1" height="33.9688" rx="12.5" ry="12.5" style="stroke:#181818;stroke-width:0.5;" width="183.377" x="308.4565" y="481.75"/><text fill="#000000" font-family="sans-serif" font-size="12" lengthAdjust="spacing" textLength="163.377" x="318.4565" y="502.8887">User Reviews Usage Terms</text><rect fill="#F1F1F1" height="33.9688" rx="12.5" ry="12.5" style="stroke:#181818;stroke-width:0.5;" width="234.8691" x="282.7104" y="535.7188"/><text fill="#000000" font-family="sans-serif" font-size="12" lengthAdjust="spacing" textLength="214.8691" x="292.7104" y="556.8574">User Checks Owner Profile &amp; Rating</text><rect fill="#F1F1F1" height="33.9688" rx="12.5" ry="12.5" style="stroke:#181818;stroke-width:0.5;" width="196.5313" x="301.8794" y="589.6875"/><text fill="#000000" font-family="sans-serif" font-size="12" lengthAdjust="spacing" textLength="176.5313" x="311.8794" y="610.8262">User Reads Previous Reviews</text><polygon fill="#F1F1F1" points="335.1467,643.6563,465.1433,643.6563,477.1433,655.6563,465.1433,667.6563,335.1467,667.6563,323.1467,655.6563,335.1467,643.6563" style="stroke:#181818;stroke-width:0.5;"/><text fill="#000000" font-family="sans-serif" font-size="11" lengthAdjust="spacing" textLength="129.9966" x="335.1467" y="659.4644">User wants to proceed?</text><text fill="#000000" font-family="sans-serif" font-size="11" lengthAdjust="spacing" textLength="19.2178" x="303.929" y="653.062">Yes</text><text fill="#000000" font-family="sans-serif" font-size="11" lengthAdjust="spacing" textLength="14.9585" x="477.1433" y="653.062">No</text><polygon fill="#F1F1F1" points="125.438,677.6563,236.0396,677.6563,248.0396,689.6563,236.0396,701.6563,125.438,701.6563,113.438,689.6563,125.438,677.6563" style="stroke:#181818;stroke-width:0.5;"/><text fill="#000000" font-family="sans-serif" font-size="11" lengthAdjust="spacing" textLength="110.6016" x="125.438" y="693.4644">User has questions?</text><text fill="#000000" font-family="sans-serif" font-size="11" lengthAdjust="spacing" textLength="19.2178" x="94.2202" y="687.062">Yes</text><text fill="#000000" font-family="sans-serif" font-size="11" lengthAdjust="spacing" textLength="14.9585" x="248.0396" y="687.062">No</text><rect fill="#F1F1F1" height="33.9688" rx="12.5" ry="12.5" style="stroke:#181818;stroke-width:0.5;" width="153.0078" x="11" y="711.6563"/><text fill="#000000" font-family="sans-serif" font-size="12" lengthAdjust="spacing" textLength="133.0078" x="21" y="732.7949">User Messages Owner</text><rect fill="#F1F1F1" height="33.9688" rx="12.5" ry="12.5" style="stroke:#181818;stroke-width:0.5;" width="179.9316" x="184.0078" y="711.6563"/><text fill="#000000" font-family="sans-serif" font-size="12" lengthAdjust="spacing" textLength="159.9316" x="194.0078" y="732.7949">User Proceeds to Book Car</text><polygon fill="#F1F1F1" points="180.7388,751.625,192.7388,763.625,180.7388,775.625,168.7388,763.625,180.7388,751.625" style="stroke:#181818;stroke-width:0.5;"/><polygon fill="#F1F1F1" points="540.3196,677.6563,698.783,677.6563,710.783,689.6563,698.783,701.6563,540.3196,701.6563,528.3196,689.6563,540.3196,677.6563" style="stroke:#181818;stroke-width:0.5;"/><text fill="#000000" font-family="sans-serif" font-size="11" lengthAdjust="spacing" textLength="158.4634" x="540.3196" y="693.4644">User wants to save for later?</text><text fill="#000000" font-family="sans-serif" font-size="11" lengthAdjust="spacing" textLength="19.2178" x="509.1018" y="687.062">Yes</text><text fill="#000000" font-family="sans-serif" font-size="11" lengthAdjust="spacing" textLength="14.9585" x="710.783" y="687.062">No</text><rect fill="#F1F1F1" height="33.9688" rx="12.5" ry="12.5" style="stroke:#181818;stroke-width:0.5;" width="205.2031" x="403.9395" y="711.6563"/><text fill="#000000" font-family="sans-serif" font-size="12" lengthAdjust="spacing" textLength="185.2031" x="413.9395" y="732.7949">User Saves Listing to Favorites</text><rect fill="#F1F1F1" height="33.9688" rx="12.5" ry="12.5" style="stroke:#181818;stroke-width:0.5;" width="206.8379" x="629.1426" y="711.6563"/><text fill="#000000" font-family="sans-serif" font-size="12" lengthAdjust="spacing" textLength="186.8379" x="639.1426" y="732.7949">User Returns to Search Results</text><polygon fill="#F1F1F1" points="619.5513,751.625,631.5513,763.625,619.5513,775.625,607.5513,763.625,619.5513,751.625" style="stroke:#181818;stroke-width:0.5;"/><polygon fill="#F1F1F1" points="400.145,781.625,412.145,793.625,400.145,805.625,388.145,793.625,400.145,781.625" style="stroke:#181818;stroke-width:0.5;"/><ellipse cx="400.145" cy="836.625" fill="none" rx="11" ry="11" style="stroke:#222222;stroke-width:1;"/><ellipse cx="400.145" cy="836.625" fill="#222222" rx="6" ry="6" style="stroke:#222222;stroke-width:1;"/><line style="stroke:#181818;stroke-width:1;" x1="400.145" x2="400.145" y1="30" y2="50"/><polygon fill="#181818" points="396.145,40,400.145,50,404.145,40,400.145,44" style="stroke:#181818;stroke-width:1;"/><line style="stroke:#181818;stroke-width:1;" x1="400.145" x2="400.145" y1="83.9688" y2="103.9688"/><polygon fill="#181818" points="396.145,93.9688,400.145,103.9688,404.145,93.9688,400.145,97.9688" style="stroke:#181818;stroke-width:1;"/><line style="stroke:#181818;stroke-width:1;" x1="400.145" x2="400.145" y1="137.9375" y2="157.9375"/><polygon fill="#181818" points="396.145,147.9375,400.145,157.9375,404.145,147.9375,400.145,151.9375" style="stroke:#181818;stroke-width:1;"/><line style="stroke:#181818;stroke-width:1;" x1="400.145" x2="400.145" y1="191.9063" y2="211.9063"/><polygon fill="#181818" points="396.145,201.9063,400.145,211.9063,404.145,201.9063,400.145,205.9063" style="stroke:#181818;stroke-width:1;"/><line style="stroke:#181818;stroke-width:1;" x1="400.145" x2="400.145" y1="245.875" y2="265.875"/><polygon fill="#181818" points="396.145,255.875,400.145,265.875,404.145,255.875,400.145,259.875" style="stroke:#181818;stroke-width:1;"/><line style="stroke:#181818;stroke-width:1;" x1="400.145" x2="400.145" y1="299.8438" y2="319.8438"/><polygon fill="#181818" points="396.145,309.8438,400.145,319.8438,404.145,309.8438,400.145,313.8438" style="stroke:#181818;stroke-width:1;"/><line style="stroke:#181818;stroke-width:1;" x1="400.145" x2="400.145" y1="353.8125" y2="373.8125"/><polygon fill="#181818" points="396.145,363.8125,400.145,373.8125,404.145,363.8125,400.145,367.8125" style="stroke:#181818;stroke-width:1;"/><line style="stroke:#181818;stroke-width:1;" x1="400.145" x2="400.145" y1="407.7813" y2="427.7813"/><polygon fill="#181818" points="396.145,417.7813,400.145,427.7813,404.145,417.7813,400.145,421.7813" style="stroke:#181818;stroke-width:1;"/><line style="stroke:#181818;stroke-width:1;" x1="400.145" x2="400.145" y1="461.75" y2="481.75"/><polygon fill="#181818" points="396.145,471.75,400.145,481.75,404.145,471.75,400.145,475.75" style="stroke:#181818;stroke-width:1;"/><line style="stroke:#181818;stroke-width:1;" x1="400.145" x2="400.145" y1="515.7188" y2="535.7188"/><polygon fill="#181818" points="396.145,525.7188,400.145,535.7188,404.145,525.7188,400.145,529.7188" style="stroke:#181818;stroke-width:1;"/><line style="stroke:#181818;stroke-width:1;" x1="400.145" x2="400.145" y1="569.6875" y2="589.6875"/><polygon fill="#181818" points="396.145,579.6875,400.145,589.6875,404.145,579.6875,400.145,583.6875" style="stroke:#181818;stroke-width:1;"/><line style="stroke:#181818;stroke-width:1;" x1="113.438" x2="87.5039" y1="689.6563" y2="689.6563"/><line style="stroke:#181818;stroke-width:1;" x1="87.5039" x2="87.5039" y1="689.6563" y2="711.6563"/><polygon fill="#181818" points="83.5039,701.6563,87.5039,711.6563,91.5039,701.6563,87.5039,705.6563" style="stroke:#181818;stroke-width:1;"/><line style="stroke:#181818;stroke-width:1;" x1="248.0396" x2="273.9736" y1="689.6563" y2="689.6563"/><line style="stroke:#181818;stroke-width:1;" x1="273.9736" x2="273.9736" y1="689.6563" y2="711.6563"/><polygon fill="#181818" points="269.9736,701.6563,273.9736,711.6563,277.9736,701.6563,273.9736,705.6563" style="stroke:#181818;stroke-width:1;"/><line style="stroke:#181818;stroke-width:1;" x1="87.5039" x2="87.5039" y1="745.625" y2="763.625"/><line style="stroke:#181818;stroke-width:1;" x1="87.5039" x2="168.7388" y1="763.625" y2="763.625"/><polygon fill="#181818" points="158.7388,759.625,168.7388,763.625,158.7388,767.625,162.7388,763.625" style="stroke:#181818;stroke-width:1;"/><line style="stroke:#181818;stroke-width:1;" x1="273.9736" x2="273.9736" y1="745.625" y2="763.625"/><line style="stroke:#181818;stroke-width:1;" x1="273.9736" x2="192.7388" y1="763.625" y2="763.625"/><polygon fill="#181818" points="202.7388,759.625,192.7388,763.625,202.7388,767.625,198.7388,763.625" style="stroke:#181818;stroke-width:1;"/><line style="stroke:#181818;stroke-width:1;" x1="528.3196" x2="506.541" y1="689.6563" y2="689.6563"/><line style="stroke:#181818;stroke-width:1;" x1="506.541" x2="506.541" y1="689.6563" y2="711.6563"/><polygon fill="#181818" points="502.541,701.6563,506.541,711.6563,510.541,701.6563,506.541,705.6563" style="stroke:#181818;stroke-width:1;"/><line style="stroke:#181818;stroke-width:1;" x1="710.783" x2="732.5615" y1="689.6563" y2="689.6563"/><line style="stroke:#181818;stroke-width:1;" x1="732.5615" x2="732.5615" y1="689.6563" y2="711.6563"/><polygon fill="#181818" points="728.5615,701.6563,732.5615,711.6563,736.5615,701.6563,732.5615,705.6563" style="stroke:#181818;stroke-width:1;"/><line style="stroke:#181818;stroke-width:1;" x1="506.541" x2="506.541" y1="745.625" y2="763.625"/><line style="stroke:#181818;stroke-width:1;" x1="506.541" x2="607.5513" y1="763.625" y2="763.625"/><polygon fill="#181818" points="597.5513,759.625,607.5513,763.625,597.5513,767.625,601.5513,763.625" style="stroke:#181818;stroke-width:1;"/><line style="stroke:#181818;stroke-width:1;" x1="732.5615" x2="732.5615" y1="745.625" y2="763.625"/><line style="stroke:#181818;stroke-width:1;" x1="732.5615" x2="631.5513" y1="763.625" y2="763.625"/><polygon fill="#181818" points="641.5513,759.625,631.5513,763.625,641.5513,767.625,637.5513,763.625" style="stroke:#181818;stroke-width:1;"/><line style="stroke:#181818;stroke-width:1;" x1="323.1467" x2="180.7388" y1="655.6563" y2="655.6563"/><line style="stroke:#181818;stroke-width:1;" x1="180.7388" x2="180.7388" y1="655.6563" y2="677.6563"/><polygon fill="#181818" points="176.7388,667.6563,180.7388,677.6563,184.7388,667.6563,180.7388,671.6563" style="stroke:#181818;stroke-width:1;"/><line style="stroke:#181818;stroke-width:1;" x1="477.1433" x2="619.5513" y1="655.6563" y2="655.6563"/><line style="stroke:#181818;stroke-width:1;" x1="619.5513" x2="619.5513" y1="655.6563" y2="677.6563"/><polygon fill="#181818" points="615.5513,667.6563,619.5513,677.6563,623.5513,667.6563,619.5513,671.6563" style="stroke:#181818;stroke-width:1;"/><line style="stroke:#181818;stroke-width:1;" x1="180.7388" x2="180.7388" y1="775.625" y2="793.625"/><line style="stroke:#181818;stroke-width:1;" x1="180.7388" x2="388.145" y1="793.625" y2="793.625"/><polygon fill="#181818" points="378.145,789.625,388.145,793.625,378.145,797.625,382.145,793.625" style="stroke:#181818;stroke-width:1;"/><line style="stroke:#181818;stroke-width:1;" x1="619.5513" x2="619.5513" y1="775.625" y2="793.625"/><line style="stroke:#181818;stroke-width:1;" x1="619.5513" x2="412.145" y1="793.625" y2="793.625"/><polygon fill="#181818" points="422.145,789.625,412.145,793.625,422.145,797.625,418.145,793.625" style="stroke:#181818;stroke-width:1;"/><line style="stroke:#181818;stroke-width:1;" x1="400.145" x2="400.145" y1="623.6563" y2="643.6563"/><polygon fill="#181818" points="396.145,633.6563,400.145,643.6563,404.145,633.6563,400.145,637.6563" style="stroke:#181818;stroke-width:1;"/><line style="stroke:#181818;stroke-width:1;" x1="400.145" x2="400.145" y1="805.625" y2="825.625"/><polygon fill="#181818" points="396.145,815.625,400.145,825.625,404.145,815.625,400.145,819.625" style="stroke:#181818;stroke-width:1;"/><!--SRC=[VP91Ry8m38Nl_HK-8JZjFWxJW25DOXkY0sb7BxZK8YHTdCBuztD3OGCcSgXKlMU_BtOaOeZP_Lmem23udP10JXXC2JEIsaRfjsfEbamKG1XYW0bBPBTICTzBf0sCM2gBUqdgY2Ao5PZYYlfPss31j1DOKCd64ZoxmeSDHlRkc32ZRRBa5Haks2HHe0DZmbW7Eg4CIp9hKR-BQ666yLTw-iODExt4urO9y9CjnxqoMN9B3Fqpb2cRTLtTpKYREvXuyo_DNFGIy4vXSvd_jdFwCms-OBrGfm4vZAIjnwLc16tZQpcsqsbm0TtasA7JUKOFLV26QFdGWrYIW-u7IIy3FIThYG9VDKcQoBMlEOVK5vA6juNh9vMi47HV_QLtUeXD20FlrytgsWgtv28xhxl65jmIw1R1wWR2BQfSdN9yCqtf6BS-SDhRBSB3QbBOvQFyWvc-cKHV_G00]--></g></svg>