<svg xmlns="http://www.w3.org/2000/svg" xmlns:xlink="http://www.w3.org/1999/xlink" contentStyleType="text/css" data-diagram-type="ACTIVITY" height="711px" preserveAspectRatio="none" style="width:689px;height:711px;background:#FFFFFF;" version="1.1" viewBox="0 0 689 711" width="689px" zoomAndPan="magnify"><title>Activity Diagram: Automatic Insurance Inclusion</title><defs/><g><g class="title" data-source-line="1"><text fill="#000000" font-family="sans-serif" font-size="14" font-weight="bold" lengthAdjust="spacing" textLength="381.7734" x="152.2356" y="32.9951">Activity Diagram: Automatic Insurance Inclusion</text></g><ellipse cx="413.0602" cy="57.2969" fill="#222222" rx="10" ry="10" style="stroke:#222222;stroke-width:1;"/><rect fill="#F1F1F1" height="33.9688" rx="12.5" ry="12.5" style="stroke:#181818;stroke-width:0.5;" width="198.875" x="313.6227" y="87.2969"/><text fill="#000000" font-family="sans-serif" font-size="12" lengthAdjust="spacing" textLength="178.875" x="323.6227" y="108.4355">Borrower initiates reservation</text><rect fill="#F1F1F1" height="33.9688" rx="12.5" ry="12.5" style="stroke:#181818;stroke-width:0.5;" width="223.209" x="301.4557" y="141.2656"/><text fill="#000000" font-family="sans-serif" font-size="12" lengthAdjust="spacing" textLength="203.209" x="311.4557" y="162.4043">Platform adds standard insurance</text><rect fill="#F1F1F1" height="33.9688" rx="12.5" ry="12.5" style="stroke:#181818;stroke-width:0.5;" width="167.5508" x="329.2848" y="195.2344"/><text fill="#000000" font-family="sans-serif" font-size="12" lengthAdjust="spacing" textLength="147.5508" x="339.2848" y="216.373">Display coverage details</text><polygon fill="#F1F1F1" points="326.6259,249.2031,499.4945,249.2031,511.4945,261.2031,499.4945,273.2031,326.6259,273.2031,314.6259,261.2031,326.6259,249.2031" style="stroke:#181818;stroke-width:0.5;"/><text fill="#000000" font-family="sans-serif" font-size="11" lengthAdjust="spacing" textLength="172.8687" x="326.6259" y="265.0112">"Does borrower accept terms?"</text><text fill="#000000" font-family="sans-serif" font-size="11" lengthAdjust="spacing" textLength="19.2178" x="295.4081" y="258.6089">Yes</text><text fill="#000000" font-family="sans-serif" font-size="11" lengthAdjust="spacing" textLength="14.9585" x="511.4945" y="258.6089">No</text><rect fill="#F1F1F1" height="33.9688" rx="12.5" ry="12.5" style="stroke:#181818;stroke-width:0.5;" width="233.5273" x="136.699" y="283.2031"/><text fill="#000000" font-family="sans-serif" font-size="12" lengthAdjust="spacing" textLength="213.5273" x="146.699" y="304.3418">Borrower accepts mandatory terms</text><polygon fill="#F1F1F1" points="156.2646,337.1719,350.6606,337.1719,362.6606,349.1719,350.6606,361.1719,156.2646,361.1719,144.2646,349.1719,156.2646,337.1719" style="stroke:#181818;stroke-width:0.5;"/><text fill="#000000" font-family="sans-serif" font-size="11" lengthAdjust="spacing" textLength="194.396" x="156.2646" y="352.98">"Wants supplementary insurance?"</text><text fill="#000000" font-family="sans-serif" font-size="11" lengthAdjust="spacing" textLength="19.2178" x="125.0469" y="346.5776">Yes</text><text fill="#000000" font-family="sans-serif" font-size="11" lengthAdjust="spacing" textLength="14.9585" x="362.6606" y="346.5776">No</text><rect fill="#F1F1F1" height="33.9688" rx="12.5" ry="12.5" style="stroke:#181818;stroke-width:0.5;" width="195.207" x="36.6611" y="371.1719"/><text fill="#000000" font-family="sans-serif" font-size="12" lengthAdjust="spacing" textLength="175.207" x="46.6611" y="392.3105">Show extra coverage options</text><rect fill="#F1F1F1" height="33.9688" rx="12.5" ry="12.5" style="stroke:#181818;stroke-width:0.5;" width="246.5293" x="11" y="425.1406"/><text fill="#000000" font-family="sans-serif" font-size="12" lengthAdjust="spacing" textLength="226.5293" x="21" y="446.2793">Borrower selects additional insurance</text><rect fill="#F1F1F1" height="33.9688" rx="12.5" ry="12.5" style="stroke:#181818;stroke-width:0.5;" width="162.6699" x="52.9297" y="479.1094"/><text fill="#000000" font-family="sans-serif" font-size="12" lengthAdjust="spacing" textLength="142.6699" x="62.9297" y="500.248">Update price and policy</text><rect fill="#F1F1F1" height="33.9688" rx="12.5" ry="12.5" style="stroke:#181818;stroke-width:0.5;" width="128.8203" x="308.2505" y="371.1719"/><text fill="#000000" font-family="sans-serif" font-size="12" lengthAdjust="spacing" textLength="108.8203" x="318.2505" y="392.3105">Skip extra options</text><polygon fill="#F1F1F1" points="253.4626,519.0781,265.4626,531.0781,253.4626,543.0781,241.4626,531.0781,253.4626,519.0781" style="stroke:#181818;stroke-width:0.5;"/><rect fill="#F1F1F1" height="33.9688" rx="12.5" ry="12.5" style="stroke:#181818;stroke-width:0.5;" width="128.0293" x="189.448" y="563.0781"/><text fill="#000000" font-family="sans-serif" font-size="12" lengthAdjust="spacing" textLength="108.0293" x="199.448" y="584.2168">Finalize insurance</text><rect fill="#F1F1F1" height="33.9688" rx="12.5" ry="12.5" style="stroke:#181818;stroke-width:0.5;" width="146.0996" x="180.4128" y="617.0469"/><text fill="#000000" font-family="sans-serif" font-size="12" lengthAdjust="spacing" textLength="126.0996" x="190.4128" y="638.1855">Continue reservation</text><ellipse cx="253.4626" cy="682.0156" fill="none" rx="11" ry="11" style="stroke:#222222;stroke-width:1;"/><ellipse cx="253.4626" cy="682.0156" fill="#222222" rx="6" ry="6" style="stroke:#222222;stroke-width:1;"/><rect fill="#F1F1F1" height="33.9688" rx="12.5" ry="12.5" style="stroke:#181818;stroke-width:0.5;" width="211.1738" x="467.0708" y="283.2031"/><text fill="#000000" font-family="sans-serif" font-size="12" lengthAdjust="spacing" textLength="191.1738" x="477.0708" y="304.3418">Show error - Insurance required</text><rect fill="#F1F1F1" height="33.9688" rx="12.5" ry="12.5" style="stroke:#181818;stroke-width:0.5;" width="164.1641" x="490.5757" y="337.1719"/><text fill="#000000" font-family="sans-serif" font-size="12" lengthAdjust="spacing" textLength="144.1641" x="500.5757" y="358.3105">Return to review screen</text><line style="stroke:#181818;stroke-width:1;" x1="413.0602" x2="413.0602" y1="67.2969" y2="87.2969"/><polygon fill="#181818" points="409.0602,77.2969,413.0602,87.2969,417.0602,77.2969,413.0602,81.2969" style="stroke:#181818;stroke-width:1;"/><line style="stroke:#181818;stroke-width:1;" x1="413.0602" x2="413.0602" y1="121.2656" y2="141.2656"/><polygon fill="#181818" points="409.0602,131.2656,413.0602,141.2656,417.0602,131.2656,413.0602,135.2656" style="stroke:#181818;stroke-width:1;"/><line style="stroke:#181818;stroke-width:1;" x1="413.0602" x2="413.0602" y1="175.2344" y2="195.2344"/><polygon fill="#181818" points="409.0602,185.2344,413.0602,195.2344,417.0602,185.2344,413.0602,189.2344" style="stroke:#181818;stroke-width:1;"/><line style="stroke:#181818;stroke-width:1;" x1="134.2646" x2="134.2646" y1="405.1406" y2="425.1406"/><polygon fill="#181818" points="130.2646,415.1406,134.2646,425.1406,138.2646,415.1406,134.2646,419.1406" style="stroke:#181818;stroke-width:1;"/><line style="stroke:#181818;stroke-width:1;" x1="134.2646" x2="134.2646" y1="459.1094" y2="479.1094"/><polygon fill="#181818" points="130.2646,469.1094,134.2646,479.1094,138.2646,469.1094,134.2646,473.1094" style="stroke:#181818;stroke-width:1;"/><line style="stroke:#181818;stroke-width:1;" x1="144.2646" x2="134.2646" y1="349.1719" y2="349.1719"/><line style="stroke:#181818;stroke-width:1;" x1="134.2646" x2="134.2646" y1="349.1719" y2="371.1719"/><polygon fill="#181818" points="130.2646,361.1719,134.2646,371.1719,138.2646,361.1719,134.2646,365.1719" style="stroke:#181818;stroke-width:1;"/><line style="stroke:#181818;stroke-width:1;" x1="362.6606" x2="372.6606" y1="349.1719" y2="349.1719"/><line style="stroke:#181818;stroke-width:1;" x1="372.6606" x2="372.6606" y1="349.1719" y2="371.1719"/><polygon fill="#181818" points="368.6606,361.1719,372.6606,371.1719,376.6606,361.1719,372.6606,365.1719" style="stroke:#181818;stroke-width:1;"/><line style="stroke:#181818;stroke-width:1;" x1="134.2646" x2="134.2646" y1="513.0781" y2="531.0781"/><line style="stroke:#181818;stroke-width:1;" x1="134.2646" x2="241.4626" y1="531.0781" y2="531.0781"/><polygon fill="#181818" points="231.4626,527.0781,241.4626,531.0781,231.4626,535.0781,235.4626,531.0781" style="stroke:#181818;stroke-width:1;"/><line style="stroke:#181818;stroke-width:1;" x1="372.6606" x2="372.6606" y1="405.1406" y2="531.0781"/><line style="stroke:#181818;stroke-width:1;" x1="372.6606" x2="265.4626" y1="531.0781" y2="531.0781"/><polygon fill="#181818" points="275.4626,527.0781,265.4626,531.0781,275.4626,535.0781,271.4626,531.0781" style="stroke:#181818;stroke-width:1;"/><line style="stroke:#181818;stroke-width:1;" x1="253.4626" x2="253.4626" y1="317.1719" y2="337.1719"/><polygon fill="#181818" points="249.4626,327.1719,253.4626,337.1719,257.4626,327.1719,253.4626,331.1719" style="stroke:#181818;stroke-width:1;"/><line style="stroke:#181818;stroke-width:1;" x1="253.4626" x2="253.4626" y1="543.0781" y2="563.0781"/><polygon fill="#181818" points="249.4626,553.0781,253.4626,563.0781,257.4626,553.0781,253.4626,557.0781" style="stroke:#181818;stroke-width:1;"/><line style="stroke:#181818;stroke-width:1;" x1="253.4626" x2="253.4626" y1="597.0469" y2="617.0469"/><polygon fill="#181818" points="249.4626,607.0469,253.4626,617.0469,257.4626,607.0469,253.4626,611.0469" style="stroke:#181818;stroke-width:1;"/><line style="stroke:#181818;stroke-width:1;" x1="253.4626" x2="253.4626" y1="651.0156" y2="671.0156"/><polygon fill="#181818" points="249.4626,661.0156,253.4626,671.0156,257.4626,661.0156,253.4626,665.0156" style="stroke:#181818;stroke-width:1;"/><line style="stroke:#181818;stroke-width:1;" x1="572.6577" x2="572.6577" y1="317.1719" y2="337.1719"/><polygon fill="#181818" points="568.6577,327.1719,572.6577,337.1719,576.6577,327.1719,572.6577,331.1719" style="stroke:#181818;stroke-width:1;"/><line style="stroke:#181818;stroke-width:1;" x1="314.6259" x2="253.4626" y1="261.2031" y2="261.2031"/><line style="stroke:#181818;stroke-width:1;" x1="253.4626" x2="253.4626" y1="261.2031" y2="283.2031"/><polygon fill="#181818" points="249.4626,273.2031,253.4626,283.2031,257.4626,273.2031,253.4626,277.2031" style="stroke:#181818;stroke-width:1;"/><line style="stroke:#181818;stroke-width:1;" x1="511.4945" x2="572.6577" y1="261.2031" y2="261.2031"/><line style="stroke:#181818;stroke-width:1;" x1="572.6577" x2="572.6577" y1="261.2031" y2="283.2031"/><polygon fill="#181818" points="568.6577,273.2031,572.6577,283.2031,576.6577,273.2031,572.6577,277.2031" style="stroke:#181818;stroke-width:1;"/><line style="stroke:#181818;stroke-width:1;" x1="572.6577" x2="572.6577" y1="371.1406" y2="699.0156"/><line style="stroke:#181818;stroke-width:1;" x1="572.6577" x2="413.0602" y1="699.0156" y2="699.0156"/><line style="stroke:#181818;stroke-width:1;" x1="413.0602" x2="413.0602" y1="229.2031" y2="249.2031"/><polygon fill="#181818" points="409.0602,239.2031,413.0602,249.2031,417.0602,239.2031,413.0602,243.2031" style="stroke:#181818;stroke-width:1;"/><!--SRC=[PP91Jy9048Nl-oicdk307oY91YGcNepH66ECXt4xm8JjxZex1UklTrf08DwQpflllTUfiWQ2cLVUidQmO5m9DXNCMaqDAdkuZwKLZ9xioOUsS8hE5KLHvwfv4aax4k38ogXKGAYGR6qrnQch7WFgCaa3MDS5R2tMABN93r2JBBZaW1tuj2N15K5DYXpAr3bUmkXgaOpwUJH2xoahA4bJRgx6e6kAC7gZCdO0fpnxMO6cDzGatNx3c003zHMZZKkRSw26elNfJgd-WGtzl4uxe6yLF2LDkQzfr47nPruea3UwTUPUWE6yyA1zoHQB80lRXxMCa5DWt_LJ2eLWz92ElXlE1zypEuerB_iorHqRdt_eqgAwJL4vjdHv3x0JfEpEBGx5BBh0vEpQGbyj2zK3xOcqbGYQxFMMQGV52z40d5p3-npzfX_MvBd_GJwcRWZu2m00]--></g></svg>