<svg xmlns="http://www.w3.org/2000/svg" xmlns:xlink="http://www.w3.org/1999/xlink" contentStyleType="text/css" height="969px" preserveAspectRatio="none" style="width:996px;height:969px;background:#FFFFFF;" version="1.1" viewBox="0 0 996 969" width="996px" zoomAndPan="magnify"><defs/><g><ellipse cx="486.7043" cy="20" fill="#222222" rx="10" ry="10" style="stroke:#222222;stroke-width:1.0;"/><rect fill="#F1F1F1" height="36.3441" rx="12.5" ry="12.5" style="stroke:#181818;stroke-width:0.5;" width="183.2372" x="395.0857" y="50"/><text fill="#000000" font-family="sans-serif" font-size="12" lengthAdjust="spacing" textLength="163.2372" x="405.0857" y="72.8281">User navigates to "bookings"</text><rect fill="#F1F1F1" height="36.3441" rx="12.5" ry="12.5" style="stroke:#181818;stroke-width:0.5;" width="313.9061" x="329.7513" y="106.3441"/><text fill="#000000" font-family="sans-serif" font-size="12" lengthAdjust="spacing" textLength="293.9061" x="339.7513" y="129.1722">System displays all active bookings linked to his cars</text><rect fill="#F1F1F1" height="36.3441" rx="12.5" ry="12.5" style="stroke:#181818;stroke-width:0.5;" width="279.2979" x="347.0554" y="162.6882"/><text fill="#000000" font-family="sans-serif" font-size="12" lengthAdjust="spacing" textLength="259.2979" x="357.0554" y="185.5163">User selects one of the unconfirmed bookings</text><rect fill="#F1F1F1" height="36.3441" rx="12.5" ry="12.5" style="stroke:#181818;stroke-width:0.5;" width="448.3551" x="262.5268" y="219.0323"/><text fill="#000000" font-family="sans-serif" font-size="12" lengthAdjust="spacing" textLength="428.3551" x="272.5268" y="241.8604">System displays information about the booking and the person who made it</text><rect fill="#F1F1F1" height="36.3441" rx="12.5" ry="12.5" style="stroke:#181818;stroke-width:0.5;" width="219.0815" x="377.1636" y="275.3765"/><text fill="#000000" font-family="sans-serif" font-size="12" lengthAdjust="spacing" textLength="199.0815" x="387.1636" y="298.2045">User reviews displayed information</text><polygon fill="#F1F1F1" points="329.3889,375.7206,644.0197,375.7206,656.0197,387.7206,644.0197,399.7206,329.3889,399.7206,317.3889,387.7206,329.3889,375.7206" style="stroke:#181818;stroke-width:0.5;"/><text fill="#000000" font-family="sans-serif" font-size="11" lengthAdjust="spacing" textLength="314.6308" x="329.3889" y="391.9885">User wants to see only reviews with specific amount of stars?</text><text fill="#000000" font-family="sans-serif" font-size="11" lengthAdjust="spacing" textLength="17.0829" x="300.3061" y="384.4976">yes</text><text fill="#000000" font-family="sans-serif" font-size="11" lengthAdjust="spacing" textLength="13.4529" x="656.0197" y="384.4976">no</text><rect fill="#F1F1F1" height="36.3441" rx="12.5" ry="12.5" style="stroke:#181818;stroke-width:0.5;" width="347.8424" x="133.4677" y="409.7206"/><text fill="#000000" font-family="sans-serif" font-size="12" lengthAdjust="spacing" textLength="327.8424" x="143.4677" y="432.5487">System loads next 5 reviews with selected amount of stars</text><rect fill="#F1F1F1" height="36.3441" rx="12.5" ry="12.5" style="stroke:#181818;stroke-width:0.5;" width="178.0651" x="576.9872" y="409.7206"/><text fill="#000000" font-family="sans-serif" font-size="12" lengthAdjust="spacing" textLength="158.0651" x="586.9872" y="432.5487">System loads next 5 reviews</text><polygon fill="#F1F1F1" points="486.7043,452.0647,498.7043,464.0647,486.7043,476.0647,474.7043,464.0647,486.7043,452.0647" style="stroke:#181818;stroke-width:0.5;"/><rect fill="#F1F1F1" height="36.3441" rx="12.5" ry="12.5" style="stroke:#181818;stroke-width:0.5;" width="168.6691" x="402.3698" y="496.0647"/><text fill="#000000" font-family="sans-serif" font-size="12" lengthAdjust="spacing" textLength="148.6691" x="412.3698" y="518.8928">User reads loaded reviews</text><polygon fill="#F1F1F1" points="486.7043,331.7206,498.7043,343.7206,486.7043,355.7206,474.7043,343.7206,486.7043,331.7206" style="stroke:#181818;stroke-width:0.5;"/><polygon fill="#F1F1F1" points="408.8139,552.4088,564.5948,552.4088,576.5948,564.4088,564.5948,576.4088,408.8139,576.4088,396.8139,564.4088,408.8139,552.4088" style="stroke:#181818;stroke-width:0.5;"/><text fill="#000000" font-family="sans-serif" font-size="11" lengthAdjust="spacing" textLength="155.7809" x="408.8139" y="568.6768">User wants see more reviews?</text><text fill="#000000" font-family="sans-serif" font-size="11" lengthAdjust="spacing" textLength="206.4465" x="576.5948" y="561.1858">yes and there are more reviews to show</text><rect fill="#F1F1F1" height="36.3441" rx="12.5" ry="12.5" style="stroke:#181818;stroke-width:0.5;" width="274.5819" x="349.4134" y="620.6137"/><text fill="#000000" font-family="sans-serif" font-size="12" lengthAdjust="spacing" textLength="254.5819" x="359.4134" y="643.4418">User forms opinion about potential borrower</text><polygon fill="#F1F1F1" points="399.156,676.9578,574.2527,676.9578,586.2527,688.9578,574.2527,700.9578,399.156,700.9578,387.156,688.9578,399.156,676.9578" style="stroke:#181818;stroke-width:0.5;"/><text fill="#000000" font-family="sans-serif" font-size="11" lengthAdjust="spacing" textLength="175.0968" x="399.156" y="693.2257">Does the user trust the borrower?</text><text fill="#000000" font-family="sans-serif" font-size="11" lengthAdjust="spacing" textLength="17.0829" x="370.0731" y="685.7348">yes</text><text fill="#000000" font-family="sans-serif" font-size="11" lengthAdjust="spacing" textLength="13.4529" x="586.2527" y="685.7348">no</text><rect fill="#F1F1F1" height="36.3441" rx="12.5" ry="12.5" style="stroke:#181818;stroke-width:0.5;" width="187.9292" x="144.075" y="710.9578"/><text fill="#000000" font-family="sans-serif" font-size="12" lengthAdjust="spacing" textLength="167.9292" x="154.075" y="733.7859">User clicks on "accept" button</text><rect fill="#F1F1F1" height="36.3441" rx="12.5" ry="12.5" style="stroke:#181818;stroke-width:0.5;" width="454.0792" x="11" y="767.3019"/><text fill="#000000" font-family="sans-serif" font-size="12" lengthAdjust="spacing" textLength="434.0792" x="21" y="790.13">System marks the booking as accepted and send notification to the borrower</text><ellipse cx="238.0396" cy="834.646" fill="none" rx="11" ry="11" style="stroke:#222222;stroke-width:1.0;"/><ellipse cx="238.0396" cy="834.646" fill="#222222" rx="6" ry="6" style="stroke:#222222;stroke-width:1.0;"/><rect fill="#F1F1F1" height="36.3441" rx="12.5" ry="12.5" style="stroke:#181818;stroke-width:0.5;" width="182.8772" x="643.9304" y="710.9578"/><text fill="#000000" font-family="sans-serif" font-size="12" lengthAdjust="spacing" textLength="162.8772" x="653.9304" y="733.7859">User clicks on "reject" button</text><rect fill="#F1F1F1" height="36.3441" rx="12.5" ry="12.5" style="stroke:#181818;stroke-width:0.5;" width="317.9742" x="576.382" y="767.3019"/><text fill="#000000" font-family="sans-serif" font-size="12" lengthAdjust="spacing" textLength="297.9742" x="586.382" y="790.13">System notifies the borrower about rejected booking</text><rect fill="#F1F1F1" height="36.3441" rx="12.5" ry="12.5" style="stroke:#181818;stroke-width:0.5;" width="253.2337" x="608.7522" y="823.646"/><text fill="#000000" font-family="sans-serif" font-size="12" lengthAdjust="spacing" textLength="233.2337" x="618.7522" y="846.4741">System refunds payment to the borrower</text><rect fill="#F1F1F1" height="36.3441" rx="12.5" ry="12.5" style="stroke:#181818;stroke-width:0.5;" width="500.5797" x="485.0792" y="879.9901"/><text fill="#000000" font-family="sans-serif" font-size="12" lengthAdjust="spacing" textLength="480.5797" x="495.0792" y="902.8182">System marks the car as available in the timeslots previously booked by the borrower</text><ellipse cx="735.369" cy="947.3342" fill="none" rx="11" ry="11" style="stroke:#222222;stroke-width:1.0;"/><ellipse cx="735.369" cy="947.3342" fill="#222222" rx="6" ry="6" style="stroke:#222222;stroke-width:1.0;"/><line style="stroke:#181818;stroke-width:1.0;" x1="486.7043" x2="486.7043" y1="30" y2="50"/><polygon fill="#181818" points="482.7043,40,486.7043,50,490.7043,40,486.7043,44" style="stroke:#181818;stroke-width:1.0;"/><line style="stroke:#181818;stroke-width:1.0;" x1="486.7043" x2="486.7043" y1="86.3441" y2="106.3441"/><polygon fill="#181818" points="482.7043,96.3441,486.7043,106.3441,490.7043,96.3441,486.7043,100.3441" style="stroke:#181818;stroke-width:1.0;"/><line style="stroke:#181818;stroke-width:1.0;" x1="486.7043" x2="486.7043" y1="142.6882" y2="162.6882"/><polygon fill="#181818" points="482.7043,152.6882,486.7043,162.6882,490.7043,152.6882,486.7043,156.6882" style="stroke:#181818;stroke-width:1.0;"/><line style="stroke:#181818;stroke-width:1.0;" x1="486.7043" x2="486.7043" y1="199.0323" y2="219.0323"/><polygon fill="#181818" points="482.7043,209.0323,486.7043,219.0323,490.7043,209.0323,486.7043,213.0323" style="stroke:#181818;stroke-width:1.0;"/><line style="stroke:#181818;stroke-width:1.0;" x1="486.7043" x2="486.7043" y1="255.3765" y2="275.3765"/><polygon fill="#181818" points="482.7043,265.3765,486.7043,275.3765,490.7043,265.3765,486.7043,269.3765" style="stroke:#181818;stroke-width:1.0;"/><line style="stroke:#181818;stroke-width:1.0;" x1="317.3889" x2="307.3889" y1="387.7206" y2="387.7206"/><line style="stroke:#181818;stroke-width:1.0;" x1="307.3889" x2="307.3889" y1="387.7206" y2="409.7206"/><polygon fill="#181818" points="303.3889,399.7206,307.3889,409.7206,311.3889,399.7206,307.3889,403.7206" style="stroke:#181818;stroke-width:1.0;"/><line style="stroke:#181818;stroke-width:1.0;" x1="656.0197" x2="666.0197" y1="387.7206" y2="387.7206"/><line style="stroke:#181818;stroke-width:1.0;" x1="666.0197" x2="666.0197" y1="387.7206" y2="409.7206"/><polygon fill="#181818" points="662.0197,399.7206,666.0197,409.7206,670.0197,399.7206,666.0197,403.7206" style="stroke:#181818;stroke-width:1.0;"/><line style="stroke:#181818;stroke-width:1.0;" x1="307.3889" x2="307.3889" y1="446.0647" y2="464.0647"/><line style="stroke:#181818;stroke-width:1.0;" x1="307.3889" x2="474.7043" y1="464.0647" y2="464.0647"/><polygon fill="#181818" points="464.7043,460.0647,474.7043,464.0647,464.7043,468.0647,468.7043,464.0647" style="stroke:#181818;stroke-width:1.0;"/><line style="stroke:#181818;stroke-width:1.0;" x1="666.0197" x2="666.0197" y1="446.0647" y2="464.0647"/><line style="stroke:#181818;stroke-width:1.0;" x1="666.0197" x2="498.7043" y1="464.0647" y2="464.0647"/><polygon fill="#181818" points="508.7043,460.0647,498.7043,464.0647,508.7043,468.0647,504.7043,464.0647" style="stroke:#181818;stroke-width:1.0;"/><line style="stroke:#181818;stroke-width:1.0;" x1="486.7043" x2="486.7043" y1="476.0647" y2="496.0647"/><polygon fill="#181818" points="482.7043,486.0647,486.7043,496.0647,490.7043,486.0647,486.7043,490.0647" style="stroke:#181818;stroke-width:1.0;"/><line style="stroke:#181818;stroke-width:1.0;" x1="486.7043" x2="486.7043" y1="355.7206" y2="375.7206"/><polygon fill="#181818" points="482.7043,365.7206,486.7043,375.7206,490.7043,365.7206,486.7043,369.7206" style="stroke:#181818;stroke-width:1.0;"/><line style="stroke:#181818;stroke-width:1.0;" x1="576.5948" x2="777.0523" y1="564.4088" y2="564.4088"/><polygon fill="#181818" points="773.0523,471.5647,777.0523,461.5647,781.0523,471.5647,777.0523,467.5647" style="stroke:#181818;stroke-width:1.0;"/><line style="stroke:#181818;stroke-width:1.0;" x1="777.0523" x2="777.0523" y1="343.7206" y2="564.4088"/><line style="stroke:#181818;stroke-width:1.0;" x1="777.0523" x2="498.7043" y1="343.7206" y2="343.7206"/><polygon fill="#181818" points="508.7043,339.7206,498.7043,343.7206,508.7043,347.7206,504.7043,343.7206" style="stroke:#181818;stroke-width:1.0;"/><line style="stroke:#181818;stroke-width:1.0;" x1="486.7043" x2="486.7043" y1="532.4088" y2="552.4088"/><polygon fill="#181818" points="482.7043,542.4088,486.7043,552.4088,490.7043,542.4088,486.7043,546.4088" style="stroke:#181818;stroke-width:1.0;"/><line style="stroke:#181818;stroke-width:1.0;" x1="486.7043" x2="486.7043" y1="311.7206" y2="331.7206"/><polygon fill="#181818" points="482.7043,321.7206,486.7043,331.7206,490.7043,321.7206,486.7043,325.7206" style="stroke:#181818;stroke-width:1.0;"/><line style="stroke:#181818;stroke-width:1.0;" x1="486.7043" x2="486.7043" y1="576.4088" y2="620.6137"/><polygon fill="#181818" points="482.7043,610.6137,486.7043,620.6137,490.7043,610.6137,486.7043,614.6137" style="stroke:#181818;stroke-width:1.0;"/><text fill="#000000" font-family="sans-serif" font-size="11" lengthAdjust="spacing" textLength="13.4529" x="490.7043" y="599.8907">no</text><line style="stroke:#181818;stroke-width:1.0;" x1="238.0396" x2="238.0396" y1="747.3019" y2="767.3019"/><polygon fill="#181818" points="234.0396,757.3019,238.0396,767.3019,242.0396,757.3019,238.0396,761.3019" style="stroke:#181818;stroke-width:1.0;"/><line style="stroke:#181818;stroke-width:1.0;" x1="238.0396" x2="238.0396" y1="803.646" y2="823.646"/><polygon fill="#181818" points="234.0396,813.646,238.0396,823.646,242.0396,813.646,238.0396,817.646" style="stroke:#181818;stroke-width:1.0;"/><line style="stroke:#181818;stroke-width:1.0;" x1="735.369" x2="735.369" y1="747.3019" y2="767.3019"/><polygon fill="#181818" points="731.369,757.3019,735.369,767.3019,739.369,757.3019,735.369,761.3019" style="stroke:#181818;stroke-width:1.0;"/><line style="stroke:#181818;stroke-width:1.0;" x1="735.369" x2="735.369" y1="803.646" y2="823.646"/><polygon fill="#181818" points="731.369,813.646,735.369,823.646,739.369,813.646,735.369,817.646" style="stroke:#181818;stroke-width:1.0;"/><line style="stroke:#181818;stroke-width:1.0;" x1="735.369" x2="735.369" y1="859.9901" y2="879.9901"/><polygon fill="#181818" points="731.369,869.9901,735.369,879.9901,739.369,869.9901,735.369,873.9901" style="stroke:#181818;stroke-width:1.0;"/><line style="stroke:#181818;stroke-width:1.0;" x1="735.369" x2="735.369" y1="916.3342" y2="936.3342"/><polygon fill="#181818" points="731.369,926.3342,735.369,936.3342,739.369,926.3342,735.369,930.3342" style="stroke:#181818;stroke-width:1.0;"/><line style="stroke:#181818;stroke-width:1.0;" x1="387.156" x2="238.0396" y1="688.9578" y2="688.9578"/><line style="stroke:#181818;stroke-width:1.0;" x1="238.0396" x2="238.0396" y1="688.9578" y2="710.9578"/><polygon fill="#181818" points="234.0396,700.9578,238.0396,710.9578,242.0396,700.9578,238.0396,704.9578" style="stroke:#181818;stroke-width:1.0;"/><line style="stroke:#181818;stroke-width:1.0;" x1="586.2527" x2="735.369" y1="688.9578" y2="688.9578"/><line style="stroke:#181818;stroke-width:1.0;" x1="735.369" x2="735.369" y1="688.9578" y2="710.9578"/><polygon fill="#181818" points="731.369,700.9578,735.369,710.9578,739.369,700.9578,735.369,704.9578" style="stroke:#181818;stroke-width:1.0;"/><line style="stroke:#181818;stroke-width:1.0;" x1="486.7043" x2="486.7043" y1="656.9578" y2="676.9578"/><polygon fill="#181818" points="482.7043,666.9578,486.7043,676.9578,490.7043,666.9578,486.7043,670.9578" style="stroke:#181818;stroke-width:1.0;"/><!--SRC=[XLDBafj03Drp2fLNzYBBR8QgP9CRf7806SHOSIDHBM72xQC6uyzuKl4Ey_Iazy4SirVLso-Z388NVaSd0rVO7LNFBE-sgwktdxCvzT2o3Gbd0qm9i76-46mmI2ndQileYGqQp5PVUOqIDMwWGg0T-8bWb4Qbuzp7nCRmoHwMJdEFpYg0Hnrz6RuE04gxF0-KBG3JIQ77be1zsvpfmZJPHXZB7XZhgieq47h57UmN_8JYYtgZE5NIV6EOs4zW0pNSSGFOwoXUn5WOQDyFvGw1_Knsg2k8toObARO6GdySlduWMro9apwGrHKb8zYB7lxB55XfkRkfBOY22zOROjKOxd2Y9vb5Ow-PDcYeYE2AXitPU8Vv6RIOSzBfK7tv9bflrIccHi03opsgGPt46LC4bhDEb0DUhFwXfMAb1MNKysXRhYlinSvrHvEuEPSMmGwRXWRVmN5qBq7UNUend-sv9I5dWHUhGvU5PI3g9SYrMI7fSNsXCzVXAOUN4pBzZlW-Es7b9diYlNgoJjrB_pYNgHib0XnmxiEupyvwLHdVsQBmWfpm60cpBFyxzsH98-QX9AUZHPdBqh9x_eVUfKj_0G00]--></g></svg>