<svg xmlns="http://www.w3.org/2000/svg" xmlns:xlink="http://www.w3.org/1999/xlink" contentStyleType="text/css" data-diagram-type="STATE" height="254px" preserveAspectRatio="none" style="width:1178px;height:254px;background:#FFFFFF;" version="1.1" viewBox="0 0 1178 254" width="1178px" zoomAndPan="magnify"><defs/><g><rect fill="#F1F1F1" height="40" rx="12.5" ry="12.5" style="stroke:#181818;stroke-width:0.5;" width="135.0156" x="61.49" y="76.04"/><text fill="#000000" font-family="sans-serif" font-size="14" lengthAdjust="spacing" textLength="125.0156" x="66.49" y="100.8867">Return is initiated</text><rect fill="#F1F1F1" height="40" rx="12.5" ry="12.5" style="stroke:#181818;stroke-width:0.5;" width="143.1709" x="346.41" y="76.04"/><text fill="#000000" font-family="sans-serif" font-size="14" lengthAdjust="spacing" textLength="133.1709" x="351.41" y="100.8867">Uploading car data</text><rect fill="#F1F1F1" height="40" rx="12.5" ry="12.5" style="stroke:#181818;stroke-width:0.5;" width="228.5928" x="652.7" y="76.04"/><text fill="#000000" font-family="sans-serif" font-size="14" lengthAdjust="spacing" textLength="218.5928" x="657.7" y="100.8867">Return waiting to be confirmed</text><rect fill="#F1F1F1" height="40" rx="12.5" ry="12.5" style="stroke:#181818;stroke-width:0.5;" width="132.6299" x="700.69" y="208.04"/><text fill="#000000" font-family="sans-serif" font-size="14" lengthAdjust="spacing" textLength="122.6299" x="705.69" y="232.8867">Return confirmed</text><rect fill="#F1F1F1" height="40" rx="12.5" ry="12.5" style="stroke:#181818;stroke-width:0.5;" width="115.8887" x="956.06" y="208.04"/><text fill="#000000" font-family="sans-serif" font-size="14" lengthAdjust="spacing" textLength="105.8887" x="961.06" y="232.8867">Booking closed</text><rect fill="#F1F1F1" height="40" rx="12.5" ry="12.5" style="stroke:#181818;stroke-width:0.5;" width="125.7324" x="1047.13" y="76.04"/><text fill="#000000" font-family="sans-serif" font-size="14" lengthAdjust="spacing" textLength="115.7324" x="1052.13" y="100.8867">Resolving issues</text><ellipse cx="16" cy="96.04" fill="#222222" rx="10" ry="10" style="stroke:#222222;stroke-width:1;"/><ellipse cx="1118" cy="228.04" fill="none" rx="11" ry="11" style="stroke:#222222;stroke-width:1;"/><ellipse cx="1118" cy="228.04" fill="#222222" rx="6" ry="6" style="stroke:#222222;stroke-width:1;"/><!--link *start* to ReturnInitialization--><g class="link" data-entity-1="*start*" data-entity-2="ReturnInitialization" data-source-line="12" data-uid="lnk3" id="link_*start*_ReturnInitialization"><path d="M26.15,96.04 C37.8,96.04 43.45,96.04 55.1,96.04" fill="none" id="*start*-to-ReturnInitialization" style="stroke:#181818;stroke-width:1;"/><polygon fill="#181818" points="61.1,96.04,52.1,92.04,56.1,96.04,52.1,100.04,61.1,96.04" style="stroke:#181818;stroke-width:1;"/></g><!--link ReturnInitialization to CarDataUpload--><g class="link" data-entity-1="ReturnInitialization" data-entity-2="CarDataUpload" data-source-line="13" data-uid="lnk4" id="link_ReturnInitialization_CarDataUpload"><path d="M196.76,96.04 C241.64,96.04 294.43,96.04 340.13,96.04" fill="none" id="ReturnInitialization-to-CarDataUpload" style="stroke:#181818;stroke-width:1;"/><polygon fill="#181818" points="346.13,96.04,337.13,92.04,341.13,96.04,337.13,100.04,346.13,96.04" style="stroke:#181818;stroke-width:1;"/><text fill="#000000" font-family="sans-serif" font-size="13" lengthAdjust="spacing" textLength="113.6548" x="214.96" y="74.1069">Borrower decides</text><text fill="#000000" font-family="sans-serif" font-size="13" lengthAdjust="spacing" textLength="94.8721" x="224.3514" y="89.2397">to upload data</text></g><!--link CarDataUpload to ReturnWaits--><g class="link" data-entity-1="CarDataUpload" data-entity-2="ReturnWaits" data-source-line="14" data-uid="lnk5" id="link_CarDataUpload_ReturnWaits"><path d="M489.89,96.04 C536.68,96.04 592.74,96.04 646.27,96.04" fill="none" id="CarDataUpload-to-ReturnWaits" style="stroke:#181818;stroke-width:1;"/><polygon fill="#181818" points="652.27,96.04,643.27,92.04,647.27,96.04,643.27,100.04,652.27,96.04" style="stroke:#181818;stroke-width:1;"/><text fill="#000000" font-family="sans-serif" font-size="13" lengthAdjust="spacing" textLength="127.9307" x="507.64" y="74.1069">Borrower confirmes</text><text fill="#000000" font-family="sans-serif" font-size="13" lengthAdjust="spacing" textLength="65.73" x="538.7403" y="89.2397">the return</text></g><!--link ReturnInitialization to ReturnWaits--><g class="link" data-entity-1="ReturnInitialization" data-entity-2="ReturnWaits" data-source-line="15" data-uid="lnk6" id="link_ReturnInitialization_ReturnWaits"><path d="M179.93,75.61 C226.17,58.23 296.68,34.61 360.5,25.04 C487.5,6 630.2869,46.4477 707.8769,73.6077" fill="none" id="ReturnInitialization-to-ReturnWaits" style="stroke:#181818;stroke-width:1;"/><polygon fill="#181818" points="713.54,75.59,706.3669,68.8411,708.8208,73.9381,703.7238,76.3919,713.54,75.59" style="stroke:#181818;stroke-width:1;"/><text fill="#000000" font-family="sans-serif" font-size="13" lengthAdjust="spacing" textLength="127.9307" x="361.5" y="27.1069">Borrower confirmes</text><text fill="#000000" font-family="sans-serif" font-size="13" lengthAdjust="spacing" textLength="65.73" x="392.6003" y="42.2397">the return</text></g><!--link ReturnWaits to ReturnConfirmed--><g class="link" data-entity-1="ReturnWaits" data-entity-2="ReturnConfirmed" data-source-line="16" data-uid="lnk7" id="link_ReturnWaits_ReturnConfirmed"><path d="M767,116.5 C767,141.15 767,177.36 767,201.87" fill="none" id="ReturnWaits-to-ReturnConfirmed" style="stroke:#181818;stroke-width:1;"/><polygon fill="#181818" points="767,207.87,771,198.87,767,202.87,763,198.87,767,207.87" style="stroke:#181818;stroke-width:1;"/><text fill="#000000" font-family="sans-serif" font-size="13" lengthAdjust="spacing" textLength="110.8872" x="768" y="159.1069">Owner confirmes</text><text fill="#000000" font-family="sans-serif" font-size="13" lengthAdjust="spacing" textLength="65.73" x="790.5786" y="174.2397">the return</text></g><!--link ReturnWaits to ResolvingIssues--><g class="link" data-entity-1="ReturnWaits" data-entity-2="ResolvingIssues" data-source-line="17" data-uid="lnk8" id="link_ReturnWaits_ResolvingIssues"><path d="M832.29,116.49 C881.23,129.14 949.8,141.2 1009.72,131.04 C1027.17,128.08 1040.002,124.4727 1056.262,118.5527" fill="none" id="ReturnWaits-to-ResolvingIssues" style="stroke:#181818;stroke-width:1;"/><polygon fill="#181818" points="1061.9,116.5,1052.0746,115.8204,1057.2017,118.2106,1054.8115,123.3377,1061.9,116.5" style="stroke:#181818;stroke-width:1;"/><text fill="#000000" font-family="sans-serif" font-size="13" lengthAdjust="spacing" textLength="89.4512" x="919.72" y="112.1069">Owner denies</text><text fill="#000000" font-family="sans-serif" font-size="13" lengthAdjust="spacing" textLength="65.73" x="931.5806" y="127.2397">the return</text></g><!--link ResolvingIssues to ReturnWaits--><g class="link" data-entity-1="ResolvingIssues" data-entity-2="ReturnWaits" data-source-line="18" data-uid="lnk9" id="link_ResolvingIssues_ReturnWaits"><path d="M1046.91,96.04 C1000.74,96.04 942.81,96.04 887.69,96.04" fill="none" id="ResolvingIssues-to-ReturnWaits" style="stroke:#181818;stroke-width:1;"/><polygon fill="#181818" points="881.69,96.04,890.69,100.04,886.69,96.04,890.69,92.04,881.69,96.04" style="stroke:#181818;stroke-width:1;"/><text fill="#000000" font-family="sans-serif" font-size="13" lengthAdjust="spacing" textLength="129.3145" x="899.72" y="74.1069">Owner has resolved</text><text fill="#000000" font-family="sans-serif" font-size="13" lengthAdjust="spacing" textLength="59.4902" x="934.6321" y="89.2397">all issues</text></g><!--link ReturnConfirmed to BookingClosed--><g class="link" data-entity-1="ReturnConfirmed" data-entity-2="BookingClosed" data-source-line="20" data-uid="lnk10" id="link_ReturnConfirmed_BookingClosed"><path d="M833.52,228.04 C871.67,228.04 913.11,228.04 949.78,228.04" fill="none" id="ReturnConfirmed-to-BookingClosed" style="stroke:#181818;stroke-width:1;"/><polygon fill="#181818" points="955.78,228.04,946.78,224.04,950.78,228.04,946.78,232.04,955.78,228.04" style="stroke:#181818;stroke-width:1;"/><text fill="#000000" font-family="sans-serif" font-size="13" lengthAdjust="spacing" textLength="86.8359" x="851.69" y="206.1069">Owner closes</text><text fill="#000000" font-family="sans-serif" font-size="13" lengthAdjust="spacing" textLength="77.2573" x="856.4793" y="221.2397">the booking</text></g><!--link BookingClosed to *end*--><g class="link" data-entity-1="BookingClosed" data-entity-2="*end*" data-source-line="22" data-uid="lnk12" id="link_BookingClosed_*end*"><path d="M1072.09,228.04 C1083.57,228.04 1089.05,228.04 1100.52,228.04" fill="none" id="BookingClosed-to-*end*" style="stroke:#181818;stroke-width:1;"/><polygon fill="#181818" points="1106.52,228.04,1097.52,224.04,1101.52,228.04,1097.52,232.04,1106.52,228.04" style="stroke:#181818;stroke-width:1;"/></g><!--SRC=[dL4nJiGm4EpzYjMLIFa0HGf2SnKI4gAue_352rdXioFR8OBNix6T7Cu52T7PuvdPyMn72W7FVVW4XRvrr0UoHWWVP43OFM8Od07oG8O2CQPs83qaV1ynJLyoYhBcgTTMAZ9lq4e7IWOP9OrqztnEhol_KR8H2uA54q9hpIkvSp7gcHb-7MkBsCpOpBspzZs6qTPdPeQQY5mylTKV4vEy7z1dpmpk8oQ4EDoyG5Ll5x05JkJYwt3Byvsp8t8vs7B__cZuuqDwdVeIfM0P5qlugPyBc1mw11TPlyRuXqaYLsfHB_MomyDe_YQlrpqkOeM6hfGbzIfuKdQy7HUfg8v6QftN9iGwA1iK2xyadwvv-2anX2YfLStx_WO0]--></g></svg>