<svg xmlns="http://www.w3.org/2000/svg" xmlns:xlink="http://www.w3.org/1999/xlink" contentStyleType="text/css" data-diagram-type="STATE" height="778px" preserveAspectRatio="none" style="width:951px;height:778px;background:#FFFFFF;" version="1.1" viewBox="0 0 951 778" width="951px" zoomAndPan="magnify"><defs/><g><ellipse cx="291" cy="16" fill="#222222" rx="10" ry="10" style="stroke:#222222;stroke-width:1;"/><g id="ViewingAll"><rect fill="#F1F1F1" height="50" rx="12.5" ry="12.5" style="stroke:#181818;stroke-width:0.5;" width="92.5361" x="244.73" y="87"/><line style="stroke:#181818;stroke-width:0.5;" x1="244.73" x2="337.2661" y1="113.2969" y2="113.2969"/><text fill="#000000" font-family="sans-serif" font-size="14" lengthAdjust="spacing" textLength="72.5361" x="254.73" y="104.9951">ViewingAll</text></g><g id="FilterOpen"><rect fill="#F1F1F1" height="50" rx="12.5" ry="12.5" style="stroke:#181818;stroke-width:0.5;" width="93.083" x="244.46" y="214"/><line style="stroke:#181818;stroke-width:0.5;" x1="244.46" x2="337.543" y1="240.2969" y2="240.2969"/><text fill="#000000" font-family="sans-serif" font-size="14" lengthAdjust="spacing" textLength="73.083" x="254.46" y="231.9951">FilterOpen</text></g><g id="SettingValues"><rect fill="#F1F1F1" height="50" rx="12.5" ry="12.5" style="stroke:#181818;stroke-width:0.5;" width="116.9541" x="232.52" y="341"/><line style="stroke:#181818;stroke-width:0.5;" x1="232.52" x2="349.4741" y1="367.2969" y2="367.2969"/><text fill="#000000" font-family="sans-serif" font-size="14" lengthAdjust="spacing" textLength="96.9541" x="242.52" y="358.9951">SettingValues</text></g><g id="ReadyToApply"><rect fill="#F1F1F1" height="50" rx="12.5" ry="12.5" style="stroke:#181818;stroke-width:0.5;" width="120.7344" x="230.63" y="468"/><line style="stroke:#181818;stroke-width:0.5;" x1="230.63" x2="351.3644" y1="494.2969" y2="494.2969"/><text fill="#000000" font-family="sans-serif" font-size="14" lengthAdjust="spacing" textLength="100.7344" x="240.63" y="485.9951">ReadyToApply</text></g><g id="Applying"><rect fill="#F1F1F1" height="50" rx="12.5" ry="12.5" style="stroke:#181818;stroke-width:0.5;" width="81.1748" x="250.41" y="595"/><line style="stroke:#181818;stroke-width:0.5;" x1="250.41" x2="331.5848" y1="621.2969" y2="621.2969"/><text fill="#000000" font-family="sans-serif" font-size="14" lengthAdjust="spacing" textLength="61.1748" x="260.41" y="612.9951">Applying</text></g><g id="ShowingResults"><rect fill="#F1F1F1" height="50" rx="12.5" ry="12.5" style="stroke:#181818;stroke-width:0.5;" width="130.6055" x="48.7" y="722"/><line style="stroke:#181818;stroke-width:0.5;" x1="48.7" x2="179.3055" y1="748.2969" y2="748.2969"/><text fill="#000000" font-family="sans-serif" font-size="14" lengthAdjust="spacing" textLength="110.6055" x="58.7" y="739.9951">ShowingResults</text></g><g id="NoResults"><rect fill="#F1F1F1" height="50" rx="12.5" ry="12.5" style="stroke:#181818;stroke-width:0.5;" width="90.2188" x="570.89" y="722"/><line style="stroke:#181818;stroke-width:0.5;" x1="570.89" x2="661.1088" y1="748.2969" y2="748.2969"/><text fill="#000000" font-family="sans-serif" font-size="14" lengthAdjust="spacing" textLength="70.2188" x="580.89" y="739.9951">NoResults</text></g><g class="entity" data-entity="GMN2" data-source-line="4" data-uid="ent0003" id="entity_GMN2"><path d="M372.49,99.43 L372.49,108 L337.56,112 L372.49,116 L372.49,124.5628 A0,0 0 0 0 372.49,124.5628 L507.5129,124.5628 A0,0 0 0 0 507.5129,124.5628 L507.5129,109.43 L497.5129,99.43 L372.49,99.43 A0,0 0 0 0 372.49,99.43" fill="#FEFFDD" style="stroke:#181818;stroke-width:0.5;"/><path d="M497.5129,99.43 L497.5129,109.43 L507.5129,109.43 L497.5129,99.43" fill="#FEFFDD" style="stroke:#181818;stroke-width:0.5;"/><text fill="#000000" font-family="sans-serif" font-size="13" lengthAdjust="spacing" textLength="114.0229" x="378.49" y="116.4969">All cars displayed</text></g><g class="entity" data-entity="GMN5" data-source-line="10" data-uid="ent0006" id="entity_GMN5"><path d="M372.99,226.43 L372.99,235 L337.91,239 L372.99,243 L372.99,251.5628 A0,0 0 0 0 372.99,251.5628 L513.0149,251.5628 A0,0 0 0 0 513.0149,251.5628 L513.0149,236.43 L503.0149,226.43 L372.99,226.43 A0,0 0 0 0 372.99,226.43" fill="#FEFFDD" style="stroke:#181818;stroke-width:0.5;"/><path d="M503.0149,226.43 L503.0149,236.43 L513.0149,236.43 L503.0149,226.43" fill="#FEFFDD" style="stroke:#181818;stroke-width:0.5;"/><text fill="#000000" font-family="sans-serif" font-size="13" lengthAdjust="spacing" textLength="119.0249" x="378.99" y="243.4969">Filter panel visible</text></g><g class="entity" data-entity="GMN8" data-source-line="16" data-uid="ent0009" id="entity_GMN8"><path d="M384.9,353.43 L384.9,362 L349.79,366 L384.9,370 L384.9,378.5628 A0,0 0 0 0 384.9,378.5628 L547.0909,378.5628 A0,0 0 0 0 547.0909,378.5628 L547.0909,363.43 L537.0909,353.43 L384.9,353.43 A0,0 0 0 0 384.9,353.43" fill="#FEFFDD" style="stroke:#181818;stroke-width:0.5;"/><path d="M537.0909,353.43 L537.0909,363.43 L547.0909,363.43 L537.0909,353.43" fill="#FEFFDD" style="stroke:#181818;stroke-width:0.5;"/><text fill="#000000" font-family="sans-serif" font-size="13" lengthAdjust="spacing" textLength="141.1909" x="390.9" y="370.4969">User sets filter values</text></g><g class="entity" data-entity="GMN11" data-source-line="22" data-uid="ent0012" id="entity_GMN11"><path d="M385.91,480.43 L385.91,489 L351.84,493 L385.91,497 L385.91,505.5628 A0,0 0 0 0 385.91,505.5628 L546.0887,505.5628 A0,0 0 0 0 546.0887,505.5628 L546.0887,490.43 L536.0887,480.43 L385.91,480.43 A0,0 0 0 0 385.91,480.43" fill="#FEFFDD" style="stroke:#181818;stroke-width:0.5;"/><path d="M536.0887,480.43 L536.0887,490.43 L546.0887,490.43 L536.0887,480.43" fill="#FEFFDD" style="stroke:#181818;stroke-width:0.5;"/><text fill="#000000" font-family="sans-serif" font-size="13" lengthAdjust="spacing" textLength="139.1787" x="391.91" y="497.4969">Ready to apply filters</text></g><g class="entity" data-entity="GMN14" data-source-line="28" data-uid="ent0015" id="entity_GMN14"><path d="M366.39,607.43 L366.39,616 L331.83,620 L366.39,624 L366.39,632.5628 A0,0 0 0 0 366.39,632.5628 L527.6097,632.5628 A0,0 0 0 0 527.6097,632.5628 L527.6097,617.43 L517.6097,607.43 L366.39,607.43 A0,0 0 0 0 366.39,607.43" fill="#FEFFDD" style="stroke:#181818;stroke-width:0.5;"/><path d="M517.6097,607.43 L517.6097,617.43 L527.6097,617.43 L517.6097,607.43" fill="#FEFFDD" style="stroke:#181818;stroke-width:0.5;"/><text fill="#000000" font-family="sans-serif" font-size="13" lengthAdjust="spacing" textLength="140.2197" x="372.39" y="624.4969">System applies filters</text></g><g class="entity" data-entity="GMN17" data-source-line="35" data-uid="ent0018" id="entity_GMN17"><path d="M213.92,734.43 L213.92,743 L179.74,747 L213.92,751 L213.92,759.5628 A0,0 0 0 0 213.92,759.5628 L374.0797,759.5628 A0,0 0 0 0 374.0797,759.5628 L374.0797,744.43 L364.0797,734.43 L213.92,734.43 A0,0 0 0 0 213.92,734.43" fill="#FEFFDD" style="stroke:#181818;stroke-width:0.5;"/><path d="M364.0797,734.43 L364.0797,744.43 L374.0797,744.43 L364.0797,734.43" fill="#FEFFDD" style="stroke:#181818;stroke-width:0.5;"/><text fill="#000000" font-family="sans-serif" font-size="13" lengthAdjust="spacing" textLength="139.1597" x="219.92" y="751.4969">Filtered list displayed</text></g><g class="entity" data-entity="GMN20" data-source-line="39" data-uid="ent0021" id="entity_GMN20"><path d="M696.13,734.43 L696.13,743 L661.54,747 L696.13,751 L696.13,759.5628 A0,0 0 0 0 696.13,759.5628 L891.8619,759.5628 A0,0 0 0 0 891.8619,759.5628 L891.8619,744.43 L881.8619,734.43 L696.13,734.43 A0,0 0 0 0 696.13,734.43" fill="#FEFFDD" style="stroke:#181818;stroke-width:0.5;"/><path d="M881.8619,734.43 L881.8619,744.43 L891.8619,744.43 L881.8619,734.43" fill="#FEFFDD" style="stroke:#181818;stroke-width:0.5;"/><text fill="#000000" font-family="sans-serif" font-size="13" lengthAdjust="spacing" textLength="174.7319" x="702.13" y="751.4969">No-results message shown</text></g><!--link *start* to ViewingAll--><g class="link" data-entity-1="*start*" data-entity-2="ViewingAll" data-source-line="1" data-uid="lnk4" id="link_*start*_ViewingAll"><path d="M291,26.36 C291,40.29 291,60.95 291,80.65" fill="none" id="*start*-to-ViewingAll" style="stroke:#181818;stroke-width:1;"/><polygon fill="#181818" points="291,86.65,295,77.65,291,81.65,287,77.65,291,86.65" style="stroke:#181818;stroke-width:1;"/></g><!--link ViewingAll to FilterOpen--><g class="link" data-entity-1="ViewingAll" data-entity-2="FilterOpen" data-source-line="7" data-uid="lnk6" id="link_ViewingAll_FilterOpen"><path d="M291,137.4 C291,159.42 291,185.66 291,207.66" fill="none" id="ViewingAll-to-FilterOpen" style="stroke:#181818;stroke-width:1;"/><polygon fill="#181818" points="291,213.66,295,204.66,291,208.66,287,204.66,291,213.66" style="stroke:#181818;stroke-width:1;"/><text fill="#000000" font-family="sans-serif" font-size="13" lengthAdjust="spacing" textLength="80.209" x="292" y="180.0669">Click "Filter"</text></g><!--link FilterOpen to SettingValues--><g class="link" data-entity-1="FilterOpen" data-entity-2="SettingValues" data-source-line="13" data-uid="lnk8" id="link_FilterOpen_SettingValues"><path d="M291,264.4 C291,286.42 291,312.66 291,334.66" fill="none" id="FilterOpen-to-SettingValues" style="stroke:#181818;stroke-width:1;"/><polygon fill="#181818" points="291,340.66,295,331.66,291,335.66,287,331.66,291,340.66" style="stroke:#181818;stroke-width:1;"/><text fill="#000000" font-family="sans-serif" font-size="13" lengthAdjust="spacing" textLength="96.186" x="292" y="307.0669">Change values</text></g><!--link SettingValues to ReadyToApply--><g class="link" data-entity-1="SettingValues" data-entity-2="ReadyToApply" data-source-line="19" data-uid="lnk10" id="link_SettingValues_ReadyToApply"><path d="M291,391.4 C291,413.42 291,439.66 291,461.66" fill="none" id="SettingValues-to-ReadyToApply" style="stroke:#181818;stroke-width:1;"/><polygon fill="#181818" points="291,467.66,295,458.66,291,462.66,287,458.66,291,467.66" style="stroke:#181818;stroke-width:1;"/><text fill="#000000" font-family="sans-serif" font-size="13" lengthAdjust="spacing" textLength="67.4819" x="292" y="434.0669">Values set</text></g><!--link ReadyToApply to Applying--><g class="link" data-entity-1="ReadyToApply" data-entity-2="Applying" data-source-line="25" data-uid="lnk12" id="link_ReadyToApply_Applying"><path d="M291,518.4 C291,540.42 291,566.66 291,588.66" fill="none" id="ReadyToApply-to-Applying" style="stroke:#181818;stroke-width:1;"/><polygon fill="#181818" points="291,594.66,295,585.66,291,589.66,287,585.66,291,594.66" style="stroke:#181818;stroke-width:1;"/><text fill="#000000" font-family="sans-serif" font-size="13" lengthAdjust="spacing" textLength="83.77" x="292" y="561.0669">Click "Apply"</text></g><!--link Applying to ShowingResults--><g class="link" data-entity-1="Applying" data-entity-2="ShowingResults" data-source-line="31" data-uid="lnk14" id="link_Applying_ShowingResults"><path d="M256.45,645.4 C225.26,667.42 184.5215,696.1994 153.3615,718.1994" fill="none" id="Applying-to-ShowingResults" style="stroke:#181818;stroke-width:1;"/><polygon fill="#181818" points="148.46,721.66,158.1192,719.7367,152.5445,718.7762,153.5051,713.2015,148.46,721.66" style="stroke:#181818;stroke-width:1;"/><text fill="#000000" font-family="sans-serif" font-size="13" lengthAdjust="spacing" textLength="83.313" x="215" y="688.0669">matches &gt; 0</text></g><!--link Applying to NoResults--><g class="link" data-entity-1="Applying" data-entity-2="NoResults" data-source-line="32" data-uid="lnk16" id="link_Applying_NoResults"><path d="M331.81,638.07 C337.57,640.43 343.43,642.79 349,645 C426.41,675.65 511.5825,707.4889 564.8525,727.1889" fill="none" id="Applying-to-NoResults" style="stroke:#181818;stroke-width:1;"/><polygon fill="#181818" points="570.48,729.27,563.4262,722.3966,565.7904,727.5357,560.6513,729.9,570.48,729.27" style="stroke:#181818;stroke-width:1;"/><text fill="#000000" font-family="sans-serif" font-size="13" lengthAdjust="spacing" textLength="83.313" x="467" y="688.0669">matches = 0</text></g><!--link ShowingResults to ViewingAll--><g class="link" data-entity-1="ShowingResults" data-entity-2="ViewingAll" data-source-line="42" data-uid="lnk17" id="link_ShowingResults_ViewingAll"><path d="M73.78,721.58 C43.08,699.54 6,664.02 6,621 C6,238 6,238 6,238 C6,135.21 157.4041,116.3825 238.2641,113.3825" fill="none" id="ShowingResults-to-ViewingAll" style="stroke:#181818;stroke-width:1;"/><polygon fill="#181818" points="244.26,113.16,235.1179,109.4964,239.2634,113.3454,235.4145,117.4909,244.26,113.16" style="stroke:#181818;stroke-width:1;"/><text fill="#000000" font-family="sans-serif" font-size="13" lengthAdjust="spacing" textLength="83.9668" x="7" y="434.0669">Click "Reset"</text></g><!--link ShowingResults to FilterOpen--><g class="link" data-entity-1="ShowingResults" data-entity-2="FilterOpen" data-source-line="43" data-uid="lnk18" id="link_ShowingResults_FilterOpen"><path d="M114,721.57 C114,696.37 114,655.94 114,621 C114,365 114,365 114,365 C114,301.23 185.8445,268.8389 238.2845,253.0589" fill="none" id="ShowingResults-to-FilterOpen" style="stroke:#181818;stroke-width:1;"/><polygon fill="#181818" points="244.03,251.33,234.2591,250.093,239.2421,252.7708,236.5643,257.7537,244.03,251.33" style="stroke:#181818;stroke-width:1;"/><text fill="#000000" font-family="sans-serif" font-size="13" lengthAdjust="spacing" textLength="80.209" x="115" y="497.5669">Click "Filter"</text></g><!--link NoResults to FilterOpen--><g class="link" data-entity-1="NoResults" data-entity-2="FilterOpen" data-source-line="45" data-uid="lnk19" id="link_NoResults_FilterOpen"><path d="M616,721.57 C616,696.37 616,655.94 616,621 C616,365 616,365 616,365 C616,240.62 471.62,307.25 355,264 C349.44,261.94 349.2316,261.8572 343.4416,259.6972" fill="none" id="NoResults-to-FilterOpen" style="stroke:#181818;stroke-width:1;"/><polygon fill="#181818" points="337.82,257.6,344.8542,264.4934,342.5046,259.3476,347.6504,256.998,337.82,257.6" style="stroke:#181818;stroke-width:1;"/><text fill="#000000" font-family="sans-serif" font-size="13" lengthAdjust="spacing" textLength="149.3413" x="617" y="497.5669">Click "Broaden search"</text></g><!--link NoResults to ViewingAll--><g class="link" data-entity-1="NoResults" data-entity-2="ViewingAll" data-source-line="46" data-uid="lnk20" id="link_NoResults_ViewingAll"><path d="M661.53,728.45 C721.65,703.83 820,657.92 820,621 C820,238 820,238 820,238 C820,132.26 456.44,166.87 355,137 C349.31,135.32 349.0663,135.363 343.2363,133.333" fill="none" id="NoResults-to-ViewingAll" style="stroke:#181818;stroke-width:1;"/><polygon fill="#181818" points="337.57,131.36,344.7541,138.0971,342.2919,133.0042,347.3848,130.542,337.57,131.36" style="stroke:#181818;stroke-width:1;"/><text fill="#000000" font-family="sans-serif" font-size="13" lengthAdjust="spacing" textLength="122.2114" x="821" y="434.0669">Click "Clear filters"</text></g><!--SRC=[VP9DJyCm38Rl_HLMZqYLE2CnQKpYEAGDTa4SGkkj4MbInTbG_prE-f6c57geQllr-pHstky-e2WsS9BuBVLbgrIMQUCGhBpK3invNW7WDvJ24bIIMYKwh3BK5VYEB8lAOFaibKFxqgA61zWfMNv1tkVo9IDAcT47q0gD2cwIvAV26MLcwob7T8wX9w6kI1vK2tr1k8LuoKd4Z7eZ1X4wWdCF7TeYBRNtm0EAgdirsxPL7VE62fiiONCXiq88pe08dJrmZagCFIbyCJoEBsH-JM_KCUJOaSCc82JI2cJo3BEhZL_O0Ucgd1zU8rnPSzy6xbFbteoYy4Jb8okNGqvSfuLY1KgIMxqvgS44uzwzAUn0Rf18y6g9_VLyHUafqjiSPyTrTFcQ-j-B6a_-b_J96b5nWb3OiiuN7Mk_ibCi7PUJ_m00]--></g></svg>