<svg xmlns="http://www.w3.org/2000/svg" xmlns:xlink="http://www.w3.org/1999/xlink" contentStyleType="text/css" data-diagram-type="STATE" height="1041px" preserveAspectRatio="none" style="width:647px;height:1041px;background:#FFFFFF;" version="1.1" viewBox="0 0 647 1041" width="647px" zoomAndPan="magnify"><title>State Diagram: Automatic Insurance Inclusion</title><defs/><g><g class="title" data-source-line="1"><text fill="#000000" font-family="sans-serif" font-size="14" font-weight="bold" lengthAdjust="spacing" textLength="363.8154" x="134.6644" y="22.9951">State Diagram: Automatic Insurance Inclusion</text></g><g id="ReservationInitiated"><rect fill="#F1F1F1" height="50" rx="12.5" ry="12.5" style="stroke:#181818;stroke-width:0.5;" width="183.7822" x="186.41" y="140.2969"/><line style="stroke:#181818;stroke-width:0.5;" x1="186.41" x2="370.1922" y1="166.5938" y2="166.5938"/><text fill="#000000" font-family="sans-serif" font-size="14" lengthAdjust="spacing" textLength="163.7822" x="196.41" y="158.292">1. Reservation Initiated</text></g><g id="StandardInsuranceIncluded"><rect fill="#F1F1F1" height="50" rx="12.5" ry="12.5" style="stroke:#181818;stroke-width:0.5;" width="261.7393" x="147.43" y="267.2969"/><line style="stroke:#181818;stroke-width:0.5;" x1="147.43" x2="409.1693" y1="293.5938" y2="293.5938"/><text fill="#000000" font-family="sans-serif" font-size="14" lengthAdjust="spacing" textLength="241.7393" x="157.43" y="285.292">2. Standard Insurance Auto-Added</text></g><g id="ReviewingInsurance"><rect fill="#F1F1F1" height="50" rx="12.5" ry="12.5" style="stroke:#181818;stroke-width:0.5;" width="276.2109" x="140.2" y="394.2969"/><line style="stroke:#181818;stroke-width:0.5;" x1="140.2" x2="416.4109" y1="420.5938" y2="420.5938"/><text fill="#000000" font-family="sans-serif" font-size="14" lengthAdjust="spacing" textLength="256.2109" x="150.2" y="412.292">3. Review Insurance (Decision Point)</text></g><g id="InsuranceDeclined"><rect fill="#F1F1F1" height="50" rx="12.5" ry="12.5" style="stroke:#181818;stroke-width:0.5;" width="216.6016" x="7" y="521.2969"/><line style="stroke:#181818;stroke-width:0.5;" x1="7" x2="223.6016" y1="547.5938" y2="547.5938"/><text fill="#000000" font-family="sans-serif" font-size="14" lengthAdjust="spacing" textLength="196.6016" x="17" y="539.292">4a. Insurance Declined Path</text></g><g id="InsuranceAccepted"><rect fill="#F1F1F1" height="50" rx="12.5" ry="12.5" style="stroke:#181818;stroke-width:0.5;" width="221.127" x="308.74" y="521.2969"/><line style="stroke:#181818;stroke-width:0.5;" x1="308.74" x2="529.867" y1="547.5938" y2="547.5938"/><text fill="#000000" font-family="sans-serif" font-size="14" lengthAdjust="spacing" textLength="201.127" x="318.74" y="539.292">4b. Insurance Accepted Path</text></g><g id="SupplementaryInsuranceSelected"><rect fill="#F1F1F1" height="50" rx="12.5" ry="12.5" style="stroke:#181818;stroke-width:0.5;" width="225.249" x="211.68" y="648.2969"/><line style="stroke:#181818;stroke-width:0.5;" x1="211.68" x2="436.929" y1="674.5938" y2="674.5938"/><text fill="#000000" font-family="sans-serif" font-size="14" lengthAdjust="spacing" textLength="205.249" x="221.68" y="666.292">4b-a. Extra Coverage Chosen</text></g><g id="InsuranceFinalized"><rect fill="#F1F1F1" height="50" rx="12.5" ry="12.5" style="stroke:#181818;stroke-width:0.5;" width="277.0586" x="277.77" y="775.2969"/><line style="stroke:#181818;stroke-width:0.5;" x1="277.77" x2="554.8286" y1="801.5938" y2="801.5938"/><text fill="#000000" font-family="sans-serif" font-size="14" lengthAdjust="spacing" textLength="257.0586" x="287.77" y="793.292">5. Final Activation - Insurance Ready</text></g><g id="ContinueParentUC"><rect fill="#F1F1F1" height="50" rx="12.5" ry="12.5" style="stroke:#181818;stroke-width:0.5;" width="238.7842" x="296.91" y="902.2969"/><line style="stroke:#181818;stroke-width:0.5;" x1="296.91" x2="535.6942" y1="928.5938" y2="928.5938"/><text fill="#000000" font-family="sans-serif" font-size="14" lengthAdjust="spacing" textLength="218.7842" x="306.91" y="920.292">6. Continue to Parent Use Case</text></g><ellipse cx="278.3" cy="53.2969" fill="#222222" rx="10" ry="10" style="stroke:#222222;stroke-width:1;"/><ellipse cx="416.3" cy="1024.2969" fill="none" rx="11" ry="11" style="stroke:#222222;stroke-width:1;"/><ellipse cx="416.3" cy="1024.2969" fill="#222222" rx="6" ry="6" style="stroke:#222222;stroke-width:1;"/><!--link *start* to ReservationInitiated--><g class="link" data-entity-1="*start*" data-entity-2="ReservationInitiated" data-source-line="3" data-uid="lnk3" id="link_*start*_ReservationInitiated"><path d="M278.3,63.6769 C278.3,80.4069 278.3,109.8869 278.3,133.9269" fill="none" id="*start*-to-ReservationInitiated" style="stroke:#181818;stroke-width:1;"/><polygon fill="#181818" points="278.3,139.9269,282.3,130.9269,278.3,134.9269,274.3,130.9269,278.3,139.9269" style="stroke:#181818;stroke-width:1;"/><text fill="#000000" font-family="sans-serif" font-size="13" lengthAdjust="spacing" textLength="109.9097" x="279.3" y="106.3638">Start reservation</text></g><!--link ReservationInitiated to StandardInsuranceIncluded--><g class="link" data-entity-1="ReservationInitiated" data-entity-2="StandardInsuranceIncluded" data-source-line="5" data-uid="lnk4" id="link_ReservationInitiated_StandardInsuranceIncluded"><path d="M278.3,190.6969 C278.3,212.7169 278.3,238.9569 278.3,260.9569" fill="none" id="ReservationInitiated-to-StandardInsuranceIncluded" style="stroke:#181818;stroke-width:1;"/><polygon fill="#181818" points="278.3,266.9569,282.3,257.9569,278.3,261.9569,274.3,257.9569,278.3,266.9569" style="stroke:#181818;stroke-width:1;"/><text fill="#000000" font-family="sans-serif" font-size="13" lengthAdjust="spacing" textLength="137.6299" x="279.3" y="233.3638">Proceed to Insurance</text></g><!--link StandardInsuranceIncluded to ReviewingInsurance--><g class="link" data-entity-1="StandardInsuranceIncluded" data-entity-2="ReviewingInsurance" data-source-line="7" data-uid="lnk5" id="link_StandardInsuranceIncluded_ReviewingInsurance"><path d="M278.3,317.6969 C278.3,339.7169 278.3,365.9569 278.3,387.9569" fill="none" id="StandardInsuranceIncluded-to-ReviewingInsurance" style="stroke:#181818;stroke-width:1;"/><polygon fill="#181818" points="278.3,393.9569,282.3,384.9569,278.3,388.9569,274.3,384.9569,278.3,393.9569" style="stroke:#181818;stroke-width:1;"/><text fill="#000000" font-family="sans-serif" font-size="13" lengthAdjust="spacing" textLength="143.0635" x="279.3" y="360.3638">View coverage details</text></g><!--link ReviewingInsurance to InsuranceDeclined--><g class="link" data-entity-1="ReviewingInsurance" data-entity-2="InsuranceDeclined" data-source-line="9" data-uid="lnk6" id="link_ReviewingInsurance_InsuranceDeclined"><path d="M139.93,440.7969 C104.1,449.0569 72.42,460.0769 61.3,474.2969 C49.28,489.6669 57.6068,503.2229 73.7968,516.9729" fill="none" id="ReviewingInsurance-to-InsuranceDeclined" style="stroke:#181818;stroke-width:1;"/><polygon fill="#181818" points="78.37,520.8569,74.0995,511.982,74.559,517.6202,68.9208,518.0797,78.37,520.8569" style="stroke:#181818;stroke-width:1;"/><text fill="#000000" font-family="sans-serif" font-size="13" lengthAdjust="spacing" textLength="172.707" x="62.3" y="487.3638">Declines mandatory terms</text></g><!--link InsuranceDeclined to ReviewingInsurance--><g class="link" data-entity-1="InsuranceDeclined" data-entity-2="ReviewingInsurance" data-source-line="12" data-uid="lnk8" id="link_InsuranceDeclined_ReviewingInsurance"><path d="M192.8,520.8869 C209.4,513.2269 225.94,503.4869 239.3,491.2969 C253.22,478.5969 260.9173,465.2606 267.3173,450.1706" fill="none" id="InsuranceDeclined-to-ReviewingInsurance" style="stroke:#181818;stroke-width:1;"/><polygon fill="#181818" points="269.66,444.6469,262.4634,451.3706,267.7077,449.25,269.8284,454.4943,269.66,444.6469" style="stroke:#181818;stroke-width:1;"/><text fill="#000000" font-family="sans-serif" font-size="13" lengthAdjust="spacing" textLength="99.8423" x="255.3" y="487.3638">Back to Review</text></g><!--link ReviewingInsurance to InsuranceAccepted--><g class="link" data-entity-1="ReviewingInsurance" data-entity-2="InsuranceAccepted" data-source-line="10" data-uid="lnk7" id="link_ReviewingInsurance_InsuranceAccepted"><path d="M338.32,444.6769 C353.2,452.6169 368.31,462.4869 380.3,474.2969 C393.63,487.4169 401.2172,500.5834 407.7572,515.4734" fill="none" id="ReviewingInsurance-to-InsuranceAccepted" style="stroke:#181818;stroke-width:1;"/><polygon fill="#181818" points="410.17,520.9669,410.213,511.1181,408.1593,516.389,402.8884,514.3352,410.17,520.9669" style="stroke:#181818;stroke-width:1;"/><text fill="#000000" font-family="sans-serif" font-size="13" lengthAdjust="spacing" textLength="168.6255" x="394.3" y="487.3638">Accepts mandatory terms</text></g><!--link InsuranceAccepted to SupplementaryInsuranceSelected--><g class="link" data-entity-1="InsuranceAccepted" data-entity-2="SupplementaryInsuranceSelected" data-source-line="14" data-uid="lnk9" id="link_InsuranceAccepted_SupplementaryInsuranceSelected"><path d="M365.64,571.5269 C353.58,579.3769 342.07,589.2469 334.3,601.2969 C325.47,615.0069 323.1629,627.2778 322.9129,641.8478" fill="none" id="InsuranceAccepted-to-SupplementaryInsuranceSelected" style="stroke:#181818;stroke-width:1;"/><polygon fill="#181818" points="322.81,647.8469,326.9638,638.9168,322.8958,642.8476,318.965,638.7796,322.81,647.8469" style="stroke:#181818;stroke-width:1;"/><text fill="#000000" font-family="sans-serif" font-size="13" lengthAdjust="spacing" textLength="145.0122" x="335.3" y="614.3638">Chooses extra options</text></g><!--link InsuranceAccepted to InsuranceFinalized--><g class="link" data-entity-1="InsuranceAccepted" data-entity-2="InsuranceFinalized" data-source-line="15" data-uid="lnk10" id="link_InsuranceAccepted_InsuranceFinalized"><path d="M460.4,571.6069 C470.4,579.6969 479.79,589.6569 485.3,601.2969 C512.71,659.1269 513.33,687.7669 485.3,745.2969 C479.57,757.0569 474.6314,763.3172 464.3214,771.3572" fill="none" id="InsuranceAccepted-to-InsuranceFinalized" style="stroke:#181818;stroke-width:1;"/><polygon fill="#181818" points="459.59,775.0469,469.1469,772.6666,463.5328,771.9721,464.2273,766.3581,459.59,775.0469" style="stroke:#181818;stroke-width:1;"/><text fill="#000000" font-family="sans-serif" font-size="13" lengthAdjust="spacing" textLength="124.6616" x="507.3" y="677.8638">Skips extra options</text></g><!--link SupplementaryInsuranceSelected to InsuranceFinalized--><g class="link" data-entity-1="SupplementaryInsuranceSelected" data-entity-2="InsuranceFinalized" data-source-line="17" data-uid="lnk11" id="link_SupplementaryInsuranceSelected_InsuranceFinalized"><path d="M336.02,698.5669 C343.33,712.7369 353.4,730.6569 364.3,745.2969 C371.99,755.6369 377.2914,761.7803 386.0814,770.6703" fill="none" id="SupplementaryInsuranceSelected-to-InsuranceFinalized" style="stroke:#181818;stroke-width:1;"/><polygon fill="#181818" points="390.3,774.9369,386.8165,765.7246,386.7845,771.3814,381.1278,771.3494,390.3,774.9369" style="stroke:#181818;stroke-width:1;"/><text fill="#000000" font-family="sans-serif" font-size="13" lengthAdjust="spacing" textLength="115.9526" x="365.3" y="741.3638">Confirm coverage</text></g><!--link InsuranceFinalized to ContinueParentUC--><g class="link" data-entity-1="InsuranceFinalized" data-entity-2="ContinueParentUC" data-source-line="19" data-uid="lnk12" id="link_InsuranceFinalized_ContinueParentUC"><path d="M416.3,825.6969 C416.3,847.7169 416.3,873.9569 416.3,895.9569" fill="none" id="InsuranceFinalized-to-ContinueParentUC" style="stroke:#181818;stroke-width:1;"/><polygon fill="#181818" points="416.3,901.9569,420.3,892.9569,416.3,896.9569,412.3,892.9569,416.3,901.9569" style="stroke:#181818;stroke-width:1;"/><text fill="#000000" font-family="sans-serif" font-size="13" lengthAdjust="spacing" textLength="221.8442" x="417.3" y="868.3638">Continue to Reservation Use Case</text></g><!--link ContinueParentUC to *end*--><g class="link" data-entity-1="ContinueParentUC" data-entity-2="*end*" data-source-line="21" data-uid="lnk14" id="link_ContinueParentUC_*end*"><path d="M416.3,952.7569 C416.3,972.3369 416.3,992.7869 416.3,1007.0969" fill="none" id="ContinueParentUC-to-*end*" style="stroke:#181818;stroke-width:1;"/><polygon fill="#181818" points="416.3,1013.0969,420.3,1004.0969,416.3,1008.0969,412.3,1004.0969,416.3,1013.0969" style="stroke:#181818;stroke-width:1;"/></g><!--SRC=[XLFBRjim4BppAnO-jG4aeCtZu4C0Lsc0t8m4wQN8OKDjxKKaKY0fD-xNbm-RKY8Blb7SdPdLpj2nQmYU73g2EyQDmNO9gzxf5XrBU52sDwWa-PDiUijQWH2_BrwWA6xXaIoPdM_Kwa6nOqzImpAm6GTcA0fniZDG-5vLewcpKDIf8y_QQ4d-vFGmXn3pY3JIZkalgyqm-H9- -IkGUaS6DmGrEUJ6Xg4clO4YVzsHR5Z5KGv72sqGTzhimP5fxLcEbPJKfRMauvH2J0Ld_-G7ohUmZrGSGRDEN6hVTGsrfBmH-zpoH0t9D4grrThwlw5tPn1q5tonCsJvzfuLDlmlMVp6tMUuE2CxIrPfzOTDcnqQ_TRG5j2-qR7gQOt6YpnN2Hklqb9ooE3P4bHeFTS459XyWeMmCVKdeuaM5j_A3uovk3W0vuCOqD_Bt31wHU5b5Qkw7bXEs1pWb-MXCW9_yVdW-0JNcfNxUgIOvYSmN64vmkRI6jrs0io6H-3h69XBO-0PfnDBuGVu6HDI7P-UpvqbDP4VN0x8wnBYXPTsV5X-CPheaR3U7pacxWQ6c_93Bb8jHsBn7m00]--></g></svg>