<svg xmlns="http://www.w3.org/2000/svg" xmlns:xlink="http://www.w3.org/1999/xlink" contentStyleType="text/css" height="943.6px" preserveAspectRatio="none" style="width:816px;height:943px;background:#FFFFFF;" version="1.1" viewBox="0 0 816 943" width="816.2px" zoomAndPan="magnify"><defs/><g><ellipse cx="403.984" cy="22.4" fill="#222222" rx="14" ry="14" style="stroke:#222222;stroke-width:1.3999999999999997;"/><rect fill="#F1F1F1" height="56" rx="17.5" ry="17.5" style="stroke:#181818;stroke-width:0.6999999999999998;" width="202.6493" x="302.652" y="121.8"/><text fill="#000000" font-family="sans-serif" font-size="19.6" lengthAdjust="spacing" textLength="188.6493" x="309.652" y="157.4048">Viewing all bookings</text><path d="M27.3,288.4 L780.6642,288.4 A17.5,17.5 0 0 1 798.1642,305.9 L798.1642,329.0951 L9.8,329.0951 L9.8,305.9 A17.5,17.5 0 0 1 27.3,288.4 " fill="#F1F1F1" style="stroke:#F1F1F1;stroke-width:1.3999999999999997;"/><rect fill="none" height="338.8951" rx="17.5" ry="17.5" style="stroke:#181818;stroke-width:0.6999999999999998;" width="788.3642" x="9.8" y="288.4"/><line style="stroke:#181818;stroke-width:0.6999999999999998;" x1="9.8" x2="798.1642" y1="329.0951" y2="329.0951"/><text fill="#000000" font-family="sans-serif" font-size="19.6" lengthAdjust="spacing" textLength="252.7998" x="277.5822" y="316.3523">Evaluating booking request</text><rect fill="#F1F1F1" height="56" rx="17.5" ry="17.5" style="stroke:#181818;stroke-width:0.6999999999999998;" width="252.5115" x="33.152" y="424.2951"/><text fill="#000000" font-family="sans-serif" font-size="19.6" lengthAdjust="spacing" textLength="238.5115" x="40.152" y="459.8999">Viewing borrowers profile</text><rect fill="#F1F1F1" height="56" rx="17.5" ry="17.5" style="stroke:#181818;stroke-width:0.6999999999999998;" width="265.6238" x="26.6" y="557.2951"/><text fill="#000000" font-family="sans-serif" font-size="19.6" lengthAdjust="spacing" textLength="251.6238" x="33.6" y="592.8999">Reading borrowers reviews</text><ellipse cx="159.418" cy="358.4951" fill="#222222" rx="14" ry="14" style="stroke:#222222;stroke-width:1.3999999999999997;"/><!--link *start*bookingRequest to viewingProfile--><g id="link_*start*bookingRequest_viewingProfile"><path d="M159.418,372.9291 C159.418,386.1031 159.418,398.4511 159.418,415.2231 " fill="none" id="*start*bookingRequest-to-viewingProfile" style="stroke:#181818;stroke-width:1.3999999999999997;"/><polygon fill="#181818" points="159.418,423.6231,165.018,411.0231,159.418,416.6231,153.818,411.0231,159.418,423.6231" style="stroke:#181818;stroke-width:1.3999999999999997;"/></g><!--link viewingProfile to borrowerReviews--><g id="link_viewingProfile_borrowerReviews"><path d="M159.418,480.6731 C159.418,503.0171 159.418,526.2151 159.418,548.5591 " fill="none" id="viewingProfile-to-borrowerReviews" style="stroke:#181818;stroke-width:1.3999999999999997;"/><polygon fill="#181818" points="159.418,556.9591,165.018,544.3591,159.418,549.9591,153.818,544.3591,159.418,556.9591" style="stroke:#181818;stroke-width:1.3999999999999997;"/><text fill="#000000" font-family="sans-serif" font-size="18.2" lengthAdjust="spacing" textLength="214.1231" x="160.818" y="526.3509">borrowers profile viewed</text></g><!--link borrowerReviews to borrowerReviews--><g id="link_borrowerReviews_borrowerReviews"><path d="M292.558,574.7251 C307.65,576.7131 317.422,580.2271 317.422,585.2951 C317.422,590.3631 315.9781,592.7801 300.8861,594.7681 " fill="none" id="borrowerReviews-to-borrowerReviews" style="stroke:#181818;stroke-width:1.3999999999999997;"/><polygon fill="#181818" points="292.558,595.8651,305.7814,599.7716,299.498,594.9509,304.3187,588.6675,292.558,595.8651" style="stroke:#181818;stroke-width:1.3999999999999997;"/><text fill="#000000" font-family="sans-serif" font-size="18.2" lengthAdjust="spacing" textLength="451.3422" x="325.822" y="592.8509">more reviews requested or type of reviews restricted</text></g><rect fill="#F1F1F1" height="56" rx="17.5" ry="17.5" style="stroke:#181818;stroke-width:0.6999999999999998;" width="255.5495" x="123.606" y="737.898"/><text fill="#000000" font-family="sans-serif" font-size="19.6" lengthAdjust="spacing" textLength="241.5495" x="130.606" y="773.5028">Rejecting booking request</text><rect fill="#F1F1F1" height="56" rx="17.5" ry="17.5" style="stroke:#181818;stroke-width:0.6999999999999998;" width="261.2335" x="428.764" y="737.898"/><text fill="#000000" font-family="sans-serif" font-size="19.6" lengthAdjust="spacing" textLength="247.2335" x="435.764" y="773.5028">Accepting booking request</text><ellipse cx="405.384" cy="919.898" fill="none" rx="15.4" ry="15.4" style="stroke:#222222;stroke-width:1.3999999999999997;"/><ellipse cx="405.384" cy="919.898" fill="#222222" rx="8.4" ry="8.4" style="stroke:#222222;stroke-width:1.3999999999999997;"/><!--link *start* to viewingAll--><g id="link_*start*_viewingAll"><path d="M403.984,36.666 C403.984,56.56 403.984,86.842 403.984,113.05 " fill="none" id="*start*-to-viewingAll" style="stroke:#181818;stroke-width:1.3999999999999997;"/><polygon fill="#181818" points="403.984,121.45,409.584,108.85,403.984,114.45,398.384,108.85,403.984,121.45" style="stroke:#181818;stroke-width:1.3999999999999997;"/></g><!--link viewingAll to bookingRequest--><g id="link_viewingAll_bookingRequest"><path d="M403.984,178.29 C403.984,204.05 403.984,236.698 403.984,279.44 " fill="none" id="viewingAll-to-bookingRequest" style="stroke:#181818;stroke-width:1.3999999999999997;"/><polygon fill="#181818" points="403.984,287.84,409.584,275.24,403.984,280.84,398.384,275.24,403.984,287.84" style="stroke:#181818;stroke-width:1.3999999999999997;"/><text fill="#000000" font-family="sans-serif" font-size="18.2" lengthAdjust="spacing" textLength="260.6788" x="405.384" y="240.6558">selected unconfirmed booking</text></g><!--link bookingRequest to reject--><g id="link_bookingRequest_reject"><path d="M273.196,627.984 C266.35,641.522 260.344,655.354 255.584,669.298 C248.038,691.376 247.0561,709.6168 248.1341,729.1048 " fill="none" id="bookingRequest-to-reject" style="stroke:#181818;stroke-width:1.3999999999999997;"/><polygon fill="#181818" points="248.598,737.492,253.4935,724.6019,248.2114,730.5027,242.3106,725.2205,248.598,737.492" style="stroke:#181818;stroke-width:1.3999999999999997;"/><text fill="#000000" font-family="sans-serif" font-size="18.2" lengthAdjust="spacing" textLength="237.3282" x="256.984" y="690.1538">borrower is not trustworthy</text></g><!--link bookingRequest to accept--><g id="link_bookingRequest_accept"><path d="M489.86,627.942 C511.63,670.684 528.7061,704.2467 541.8101,729.9787 " fill="none" id="bookingRequest-to-accept" style="stroke:#181818;stroke-width:1.3999999999999997;"/><polygon fill="#181818" points="545.622,737.464,544.8944,723.6948,542.4454,731.2263,534.914,728.7773,545.622,737.464" style="stroke:#181818;stroke-width:1.3999999999999997;"/><text fill="#000000" font-family="sans-serif" font-size="18.2" lengthAdjust="spacing" textLength="203.7674" x="523.222" y="690.1538">borrower is trustworthy</text></g><!--link reject to *end*--><g id="link_reject_*end*"><path d="M246.624,794.206 C244.524,814.912 245.196,843.15 259.784,862.498 C291.41,904.456 350.3386,914.2678 381.0966,916.8998 " fill="none" id="reject-to-*end*" style="stroke:#181818;stroke-width:1.3999999999999997;"/><polygon fill="#181818" points="389.466,917.616,377.3893,910.9621,382.4915,917.0192,376.4344,922.1213,389.466,917.616" style="stroke:#181818;stroke-width:1.3999999999999997;"/><text fill="#000000" font-family="sans-serif" font-size="18.2" lengthAdjust="spacing" textLength="232.9238" x="261.184" y="856.7538">booking request processed</text></g><!--link accept to *end*--><g id="link_accept_*end*"><path d="M547.162,794.36 C536.9,814.87 520.716,842.8 500.584,862.498 C476.182,886.368 447.4141,900.8 427.4361,909.396 " fill="none" id="accept-to-*end*" style="stroke:#181818;stroke-width:1.3999999999999997;"/><polygon fill="#181818" points="419.72,912.716,433.5074,912.88,426.15,909.9493,429.0807,902.5919,419.72,912.716" style="stroke:#181818;stroke-width:1.3999999999999997;"/><text fill="#000000" font-family="sans-serif" font-size="18.2" lengthAdjust="spacing" textLength="232.9238" x="523.544" y="856.7538">booking request processed</text></g><!--SRC=[ZP71ReCm38RlVWghnqbz0GwJUjXzuh1BjKCQp9ej46Q78bJjtKT8O41RQRTWV__l7_luz8xx_JDU37Mc_ZXO2sTJ45BL-1uB4iscySRL0EAL9zozHHALjNXoxcjuomwLB2qczkMYRAjym1EAJDyjYHyLgPR74bu1DpDEZjbrn88Dkz9OMWvwZQLPb9CgrYAcW4gQ5Qjvh04Urty-kws_HsIZnUmss2YZ0cxO-_hACKtnffLGWOxHzmsXAnTDyMpqq8KVWByT9-FL0ZCKiXHOR6ljwj9mDRmJDLybfyy1UdGK7hiJUz2QceUi6hi0cnmXMhHPh0gDOEqyUcx5TuxzkR-dYvORtL83oJd0uORPDbauYIQHOMF9x3ye_080]--></g></svg>