<svg xmlns="http://www.w3.org/2000/svg" xmlns:xlink="http://www.w3.org/1999/xlink" contentStyleType="text/css" data-diagram-type="STATE" height="701px" preserveAspectRatio="none" style="width:1100px;height:701px;background:#FFFFFF;" version="1.1" viewBox="0 0 1100 701" width="1100px" zoomAndPan="magnify"><defs/><g><g id="BrowsingSearchResults"><rect fill="#F1F1F1" height="50" rx="12.5" ry="12.5" style="stroke:#181818;stroke-width:0.5;" width="192.8057" x="562.45" y="103"/><line style="stroke:#181818;stroke-width:0.5;" x1="562.45" x2="755.2557" y1="129.2969" y2="129.2969"/><text fill="#000000" font-family="sans-serif" font-size="14" lengthAdjust="spacing" textLength="172.8057" x="572.45" y="120.9951">Browsing Search Results</text></g><path d="M281.97,230 L745.7388,230 A12.5,12.5 0 0 1 758.2388,242.5 L758.2388,256.2969 L269.47,256.2969 L269.47,242.5 A12.5,12.5 0 0 1 281.97,230" fill="#F1F1F1" style="stroke:#F1F1F1;stroke-width:1;"/><rect fill="none" height="239.2969" rx="12.5" ry="12.5" style="stroke:#181818;stroke-width:0.5;" width="488.7688" x="269.47" y="230"/><line style="stroke:#181818;stroke-width:0.5;" x1="269.47" x2="758.2388" y1="256.2969" y2="256.2969"/><text fill="#000000" font-family="sans-serif" font-size="14" lengthAdjust="spacing" textLength="136.7256" x="445.4916" y="247.9951">Viewing Car Details</text><g id="ViewingCarDetails.BasicInfoView"><rect fill="#F1F1F1" height="50" rx="12.5" ry="12.5" style="stroke:#181818;stroke-width:0.5;" width="125.9912" x="459.36" y="323.2969"/><line style="stroke:#181818;stroke-width:0.5;" x1="459.36" x2="585.3512" y1="349.5937" y2="349.5937"/><text fill="#000000" font-family="sans-serif" font-size="14" lengthAdjust="spacing" textLength="105.9912" x="469.36" y="341.292">Basic Info View</text></g><g id="ViewingCarDetails.ReadingReviews"><rect fill="#F1F1F1" height="50" rx="12.5" ry="12.5" style="stroke:#181818;stroke-width:0.5;" width="139.7793" x="281.47" y="409.2969"/><line style="stroke:#181818;stroke-width:0.5;" x1="281.47" x2="421.2493" y1="435.5937" y2="435.5937"/><text fill="#000000" font-family="sans-serif" font-size="14" lengthAdjust="spacing" textLength="119.7793" x="291.47" y="427.292">Reading Reviews</text></g><g id="ViewingCarDetails.CheckingAvailability"><rect fill="#F1F1F1" height="50" rx="12.5" ry="12.5" style="stroke:#181818;stroke-width:0.5;" width="166.2959" x="439.21" y="409.2969"/><line style="stroke:#181818;stroke-width:0.5;" x1="439.21" x2="605.5059" y1="435.5937" y2="435.5937"/><text fill="#000000" font-family="sans-serif" font-size="14" lengthAdjust="spacing" textLength="146.2959" x="449.21" y="427.292">Checking Availability</text></g><g id="ViewingCarDetails.ReadingTerms"><rect fill="#F1F1F1" height="50" rx="12.5" ry="12.5" style="stroke:#181818;stroke-width:0.5;" width="125.7588" x="623.48" y="409.2969"/><line style="stroke:#181818;stroke-width:0.5;" x1="623.48" x2="749.2388" y1="435.5937" y2="435.5937"/><text fill="#000000" font-family="sans-serif" font-size="14" lengthAdjust="spacing" textLength="105.7588" x="633.48" y="427.292">Reading Terms</text></g><ellipse cx="522.36" cy="277.2969" fill="#222222" rx="10" ry="10" style="stroke:#222222;stroke-width:1;"/><!--link *start*ViewingCarDetails to BasicInfoView--><g class="link" data-entity-1="*start*ViewingCarDetails" data-entity-2="BasicInfoView" data-source-line="10" data-uid="lnk5" id="link_*start*ViewingCarDetails_BasicInfoView"><path d="M522.36,287.6069 C522.36,296.6469 522.36,304.7869 522.36,317.0269" fill="none" id="*start*ViewingCarDetails-to-BasicInfoView" style="stroke:#181818;stroke-width:1;"/><polygon fill="#181818" points="522.36,323.0269,526.36,314.0269,522.36,318.0269,518.36,314.0269,522.36,323.0269" style="stroke:#181818;stroke-width:1;"/></g><!--link BasicInfoView to ReadingReviews--><g class="link" data-entity-1="BasicInfoView" data-entity-2="ReadingReviews" data-source-line="11" data-uid="lnk6" id="link_BasicInfoView_ReadingReviews"><path d="M466.71,373.5969 C443.38,384.6869 422.0303,395.0913 400.1603,406.1913" fill="none" id="BasicInfoView-to-ReadingReviews" style="stroke:#181818;stroke-width:1;"/><polygon fill="#181818" points="394.81,408.9069,404.6458,408.4005,399.2686,406.6439,401.0251,401.2667,394.81,408.9069" style="stroke:#181818;stroke-width:1;"/></g><!--link BasicInfoView to CheckingAvailability--><g class="link" data-entity-1="BasicInfoView" data-entity-2="CheckingAvailability" data-source-line="12" data-uid="lnk7" id="link_BasicInfoView_CheckingAvailability"><path d="M516.17,373.5969 C515.42,384.7369 515.0116,391.9308 515.7716,403.0708" fill="none" id="BasicInfoView-to-CheckingAvailability" style="stroke:#181818;stroke-width:1;"/><polygon fill="#181818" points="516.18,409.0569,519.5581,399.8055,515.8397,404.0685,511.5767,400.35,516.18,409.0569" style="stroke:#181818;stroke-width:1;"/></g><!--link BasicInfoView to ReadingTerms--><g class="link" data-entity-1="BasicInfoView" data-entity-2="ReadingTerms" data-source-line="13" data-uid="lnk8" id="link_BasicInfoView_ReadingTerms"><path d="M563.61,373.5969 C584.52,384.6869 604.7425,395.1457 627.1725,406.2457" fill="none" id="BasicInfoView-to-ReadingTerms" style="stroke:#181818;stroke-width:1;"/><polygon fill="#181818" points="632.55,408.9069,626.2578,401.33,628.0687,406.6892,622.7095,408.5001,632.55,408.9069" style="stroke:#181818;stroke-width:1;"/></g><!--link ReadingReviews to BasicInfoView--><g class="link" data-entity-1="ReadingReviews" data-entity-2="BasicInfoView" data-source-line="14" data-uid="lnk9" id="link_ReadingReviews_BasicInfoView"><path d="M407.2,408.9069 C430.55,397.8069 451.9002,387.4034 473.7402,376.3134" fill="none" id="ReadingReviews-to-BasicInfoView" style="stroke:#181818;stroke-width:1;"/><polygon fill="#181818" points="479.09,373.5969,469.2543,374.1052,474.6318,375.8607,472.8763,381.2382,479.09,373.5969" style="stroke:#181818;stroke-width:1;"/></g><!--link CheckingAvailability to BasicInfoView--><g class="link" data-entity-1="CheckingAvailability" data-entity-2="BasicInfoView" data-source-line="15" data-uid="lnk10" id="link_CheckingAvailability_BasicInfoView"><path d="M528.54,409.0569 C529.3,397.9169 529.703,390.7233 528.953,379.5833" fill="none" id="CheckingAvailability-to-BasicInfoView" style="stroke:#181818;stroke-width:1;"/><polygon fill="#181818" points="528.55,373.5969,525.1636,382.8452,528.8859,378.5856,533.1455,382.3079,528.55,373.5969" style="stroke:#181818;stroke-width:1;"/></g><!--link ReadingTerms to BasicInfoView--><g class="link" data-entity-1="ReadingTerms" data-entity-2="BasicInfoView" data-source-line="16" data-uid="lnk11" id="link_ReadingTerms_BasicInfoView"><path d="M644.94,408.9069 C624,397.8069 603.7676,387.3481 581.3576,376.2581" fill="none" id="ReadingTerms-to-BasicInfoView" style="stroke:#181818;stroke-width:1;"/><polygon fill="#181818" points="575.98,373.5969,582.2722,381.1737,580.4613,375.8145,585.8205,374.0036,575.98,373.5969" style="stroke:#181818;stroke-width:1;"/></g><g id="MessagingOwner"><rect fill="#F1F1F1" height="50" rx="12.5" ry="12.5" style="stroke:#181818;stroke-width:0.5;" width="144.5576" x="43.57" y="546.3"/><line style="stroke:#181818;stroke-width:0.5;" x1="43.57" x2="188.1276" y1="572.5969" y2="572.5969"/><text fill="#000000" font-family="sans-serif" font-size="14" lengthAdjust="spacing" textLength="124.5576" x="53.57" y="564.2951">Messaging Owner</text></g><g id="BookingCar"><rect fill="#F1F1F1" height="50" rx="12.5" ry="12.5" style="stroke:#181818;stroke-width:0.5;" width="105.0527" x="476.33" y="546.3"/><line style="stroke:#181818;stroke-width:0.5;" x1="476.33" x2="581.3827" y1="572.5969" y2="572.5969"/><text fill="#000000" font-family="sans-serif" font-size="14" lengthAdjust="spacing" textLength="85.0527" x="486.33" y="564.2951">Booking Car</text></g><g id="ViewingFavorites"><rect fill="#F1F1F1" height="50" rx="12.5" ry="12.5" style="stroke:#181818;stroke-width:0.5;" width="144.1543" x="630.78" y="546.3"/><line style="stroke:#181818;stroke-width:0.5;" x1="630.78" x2="774.9343" y1="572.5969" y2="572.5969"/><text fill="#000000" font-family="sans-serif" font-size="14" lengthAdjust="spacing" textLength="124.1543" x="640.78" y="564.2951">Viewing Favorites</text></g><ellipse cx="658.85" cy="16" fill="#222222" rx="10" ry="10" style="stroke:#222222;stroke-width:1;"/><ellipse cx="736.85" cy="684.3" fill="none" rx="11" ry="11" style="stroke:#222222;stroke-width:1;"/><ellipse cx="736.85" cy="684.3" fill="#222222" rx="6" ry="6" style="stroke:#222222;stroke-width:1;"/><!--link *start* to BrowsingSearchResults--><g class="link" data-entity-1="*start*" data-entity-2="BrowsingSearchResults" data-source-line="1" data-uid="lnk3" id="link_*start*_BrowsingSearchResults"><path d="M658.85,26.38 C658.85,43.11 658.85,72.6 658.85,96.63" fill="none" id="*start*-to-BrowsingSearchResults" style="stroke:#181818;stroke-width:1;"/><polygon fill="#181818" points="658.85,102.63,662.85,93.63,658.85,97.63,654.85,93.63,658.85,102.63" style="stroke:#181818;stroke-width:1;"/><text fill="#000000" font-family="sans-serif" font-size="13" lengthAdjust="spacing" textLength="167.2988" x="659.85" y="69.0669">User logs in and searches</text></g><!--link BrowsingSearchResults to ViewingCarDetails--><g class="link" data-entity-1="BrowsingSearchResults" data-entity-2="ViewingCarDetails" data-source-line="22" data-uid="lnk12" id="link_BrowsingSearchResults_ViewingCarDetails"><path d="M562.2,145.36 C542.08,153.38 523.24,165.3 510.85,183 C501.21,196.79 496.879,206.9769 494.779,223.6669" fill="none" id="BrowsingSearchResults-to-ViewingCarDetails" style="stroke:#181818;stroke-width:1;"/><polygon fill="#181818" points="494.03,229.62,499.1223,221.1898,494.6542,224.6591,491.1848,220.191,494.03,229.62" style="stroke:#181818;stroke-width:1;"/><text fill="#000000" font-family="sans-serif" font-size="13" lengthAdjust="spacing" textLength="103.7524" x="511.85" y="196.0669">User selects car</text></g><!--link ViewingCarDetails to BrowsingSearchResults--><g class="link" data-entity-1="ViewingCarDetails" data-entity-2="BrowsingSearchResults" data-source-line="25" data-uid="lnk15" id="link_ViewingCarDetails_BrowsingSearchResults"><path d="M600.43,229.81 C607.14,219.82 613.7,209.8 619.85,200 C629.35,184.88 636.2297,172.5964 643.5597,158.7064" fill="none" id="ViewingCarDetails-to-BrowsingSearchResults" style="stroke:#181818;stroke-width:1;"/><polygon fill="#181818" points="646.36,153.4,638.6219,159.4928,644.0264,157.822,645.6972,163.2265,646.36,153.4" style="stroke:#181818;stroke-width:1;"/><text fill="#000000" font-family="sans-serif" font-size="13" lengthAdjust="spacing" textLength="145.5835" x="630.85" y="196.0669">User returns to search</text></g><!--link ViewingCarDetails to MessagingOwner--><g class="link" data-entity-1="ViewingCarDetails" data-entity-2="MessagingOwner" data-source-line="23" data-uid="lnk13" id="link_ViewingCarDetails_MessagingOwner"><path d="M269.18,395.82 C161.31,421.18 51.75,456.4 19.85,499.3 C6,517.93 17.316,531.0832 40.426,543.0932" fill="none" id="ViewingCarDetails-to-MessagingOwner" style="stroke:#181818;stroke-width:1;"/><polygon fill="#181818" points="45.75,545.86,39.6086,538.1605,41.3134,543.5543,35.9195,545.2591,45.75,545.86" style="stroke:#181818;stroke-width:1;"/><text fill="#000000" font-family="sans-serif" font-size="13" lengthAdjust="spacing" textLength="143.2603" x="20.85" y="512.3669">User messages owner</text></g><!--link MessagingOwner to ViewingCarDetails--><g class="link" data-entity-1="MessagingOwner" data-entity-2="ViewingCarDetails" data-source-line="28" data-uid="lnk17" id="link_MessagingOwner_ViewingCarDetails"><path d="M153.79,545.96 C176.01,531.93 204.76,514.18 230.85,499.3 C247.97,489.54 260.506,482.5093 278.496,472.6693" fill="none" id="MessagingOwner-to-ViewingCarDetails" style="stroke:#181818;stroke-width:1;"/><polygon fill="#181818" points="283.76,469.79,273.9445,470.5995,279.3733,472.1894,277.7835,477.6182,283.76,469.79" style="stroke:#181818;stroke-width:1;"/><text fill="#000000" font-family="sans-serif" font-size="13" lengthAdjust="spacing" textLength="170.0156" x="231.85" y="512.3669">User returns to car details</text></g><!--link ViewingCarDetails to BookingCar--><g class="link" data-entity-1="ViewingCarDetails" data-entity-2="BookingCar" data-source-line="24" data-uid="lnk14" id="link_ViewingCarDetails_BookingCar"><path d="M409.88,469.72 C406.11,485.48 407.46,501.34 416.85,516.3 C430,537.23 448.1422,548.2146 470.4222,556.2046" fill="none" id="ViewingCarDetails-to-BookingCar" style="stroke:#181818;stroke-width:1;"/><polygon fill="#181818" points="476.07,558.23,468.9486,551.4267,471.3635,556.5422,466.248,558.9571,476.07,558.23" style="stroke:#181818;stroke-width:1;"/><text fill="#000000" font-family="sans-serif" font-size="13" lengthAdjust="spacing" textLength="146.4849" x="417.85" y="512.3669">User proceeds to book</text></g><!--link ViewingCarDetails to ViewingFavorites--><g class="link" data-entity-1="ViewingCarDetails" data-entity-2="ViewingFavorites" data-source-line="26" data-uid="lnk16" id="link_ViewingCarDetails_ViewingFavorites"><path d="M568.28,469.63 C578.96,486.42 591.17,502.6 604.85,516.3 C616.52,527.98 625.986,534.9625 640.456,542.9425" fill="none" id="ViewingCarDetails-to-ViewingFavorites" style="stroke:#181818;stroke-width:1;"/><polygon fill="#181818" points="645.71,545.84,639.7607,537.9911,641.3317,543.4254,635.8973,544.9964,645.71,545.84" style="stroke:#181818;stroke-width:1;"/><text fill="#000000" font-family="sans-serif" font-size="13" lengthAdjust="spacing" textLength="149.2969" x="605.85" y="512.3669">User saves to favorites</text></g><!--link ViewingFavorites to ViewingCarDetails--><g class="link" data-entity-1="ViewingFavorites" data-entity-2="ViewingCarDetails" data-source-line="30" data-uid="lnk20" id="link_ViewingFavorites_ViewingCarDetails"><path d="M741.14,546.11 C756.83,533.01 769.33,516.1 759.85,499.3 C753.91,488.76 750.7647,483.4526 742.9147,474.2126" fill="none" id="ViewingFavorites-to-ViewingCarDetails" style="stroke:#181818;stroke-width:1;"/><polygon fill="#181818" points="739.03,469.64,741.8087,479.0887,742.2673,473.4505,747.9055,473.9091,739.03,469.64" style="stroke:#181818;stroke-width:1;"/><text fill="#000000" font-family="sans-serif" font-size="13" lengthAdjust="spacing" textLength="199.5703" x="764.85" y="512.3669">User selects car from favorites</text></g><!--link BookingCar to *end*--><g class="link" data-entity-1="BookingCar" data-entity-2="*end*" data-source-line="29" data-uid="lnk19" id="link_BookingCar_*end*"><path d="M574.76,596.8 C624.76,623.48 695.8668,661.4247 722.2268,675.4947" fill="none" id="BookingCar-to-*end*" style="stroke:#181818;stroke-width:1;"/><polygon fill="#181818" points="727.52,678.32,721.4638,670.5533,723.109,675.9656,717.6967,677.6108,727.52,678.32" style="stroke:#181818;stroke-width:1;"/><text fill="#000000" font-family="sans-serif" font-size="13" lengthAdjust="spacing" textLength="157.1807" x="658.85" y="639.3669">User completes booking</text></g><!--link BrowsingSearchResults to *end*--><g class="link" data-entity-1="BrowsingSearchResults" data-entity-2="*end*" data-source-line="31" data-uid="lnk21" id="link_BrowsingSearchResults_*end*"><path d="M736.97,153.42 C753.96,161.1 770.98,170.85 784.85,183 C907.83,290.8 929.53,341.61 972.85,499.3 C1003.82,612.02 803.8838,667.3275 753.5938,679.4175" fill="none" id="BrowsingSearchResults-to-*end*" style="stroke:#181818;stroke-width:1;"/><polygon fill="#181818" points="747.76,680.82,757.4457,682.6055,752.6215,679.6513,755.5757,674.8271,747.76,680.82" style="stroke:#181818;stroke-width:1;"/><text fill="#000000" font-family="sans-serif" font-size="13" lengthAdjust="spacing" textLength="116.0669" x="976.85" y="512.3669">User exits system</text></g><!--SRC=[ZLFBQiCm4BphAvOS2_c17WfjIg67KaWVbz23OcyI4TiAMiLkAFttwkd8iHpgcsTdDBEhrUhc2-RpEtXGiYFHRD-GgsAtH3fMck0MFWWLL79B81hWJGda24YCaUOQOHQLuAKGj3FWb3yr2Zy5TbQtu0eUKNDHUL703HnG-65WlkZ7IHJmt6oaOteVYrd88YbvYRoq7ajiJSMV7x00fUp53ekzfT-tnfUlHINqoMbY9ItaVDvHrGCN1p17NSLHZy8E4CV9P1oJ9aDDdkVJMChGO29Npc22cXfaAB_nqb-GY6_jg5wx1fKRLOyvgDyhAVTXFVmT-t_pUxb0JxoLIcWSh4yFCfRVRHjol6fXumahB0ofC6vZafKEGqTTxL0aaAwLlFJSIPGTb2mGIm8jOMsgKy9hZrIXFgh67U7VwCGXb_FfM-OjElNcFBcB9g-EBF4tKuFILrdIh9NRHn04XQmF5Te4QyzXesZ_lIFOA5admQTlFF77Rs50Ef76-Wy0]--></g></svg>